<svg width="718" height="122" viewBox="0 0 718 122" fill="none" xmlns="http://www.w3.org/2000/svg">
<path d="M233.6 79H203.2L197.6 94.5H188L213.2 25.2H223.7L248.8 94.5H239.2L233.6 79ZM231 71.6L218.4 36.4L205.8 71.6H231ZM286.683 58.6C289.216 59 291.516 60.0333 293.583 61.7C295.716 63.3667 297.383 65.4333 298.583 67.9C299.85 70.3667 300.483 73 300.483 75.8C300.483 79.3333 299.583 82.5333 297.783 85.4C295.983 88.2 293.35 90.4333 289.883 92.1C286.483 93.7 282.45 94.5 277.783 94.5H251.783V24.8H276.783C281.516 24.8 285.55 25.6 288.883 27.2C292.216 28.7333 294.716 30.8333 296.383 33.5C298.05 36.1667 298.883 39.1667 298.883 42.5C298.883 46.6333 297.75 50.0667 295.483 52.8C293.283 55.4667 290.35 57.4 286.683 58.6ZM260.883 54.9H276.183C280.45 54.9 283.75 53.9 286.083 51.9C288.416 49.9 289.583 47.1333 289.583 43.6C289.583 40.0667 288.416 37.3 286.083 35.3C283.75 33.3 280.383 32.3 275.983 32.3H260.883V54.9ZM276.983 87C281.516 87 285.05 85.9333 287.583 83.8C290.116 81.6667 291.383 78.7 291.383 74.9C291.383 71.0333 290.05 68 287.383 65.8C284.716 63.5333 281.15 62.4 276.683 62.4H260.883V87H276.983ZM336.711 95.2C330.244 95.2 324.344 93.7 319.011 90.7C313.678 87.6333 309.444 83.4 306.311 78C303.244 72.5333 301.711 66.4 301.711 59.6C301.711 52.8 303.244 46.7 306.311 41.3C309.444 35.8333 313.678 31.6 319.011 28.6C324.344 25.5333 330.244 24 336.711 24C343.244 24 349.178 25.5333 354.511 28.6C359.844 31.6 364.044 35.8 367.111 41.2C370.178 46.6 371.711 52.7333 371.711 59.6C371.711 66.4667 370.178 72.6 367.111 78C364.044 83.4 359.844 87.6333 354.511 90.7C349.178 93.7 343.244 95.2 336.711 95.2ZM336.711 87.3C341.578 87.3 345.944 86.1667 349.811 83.9C353.744 81.6333 356.811 78.4 359.011 74.2C361.278 70 362.411 65.1333 362.411 59.6C362.411 54 361.278 49.1333 359.011 45C356.811 40.8 353.778 37.5667 349.911 35.3C346.044 33.0333 341.644 31.9 336.711 31.9C331.778 31.9 327.378 33.0333 323.511 35.3C319.644 37.5667 316.578 40.8 314.311 45C312.111 49.1333 311.011 54 311.011 59.6C311.011 65.1333 312.111 70 314.311 74.2C316.578 78.4 319.644 81.6333 323.511 83.9C327.444 86.1667 331.844 87.3 336.711 87.3ZM384.624 24.8V68.9C384.624 75.1 386.124 79.7 389.124 82.7C392.191 85.7 396.424 87.2 401.824 87.2C407.158 87.2 411.324 85.7 414.324 82.7C417.391 79.7 418.924 75.1 418.924 68.9V24.8H428.024V68.8C428.024 74.6 426.858 79.5 424.524 83.5C422.191 87.4333 419.024 90.3667 415.024 92.3C411.091 94.2333 406.658 95.2 401.724 95.2C396.791 95.2 392.324 94.2333 388.324 92.3C384.391 90.3667 381.258 87.4333 378.924 83.5C376.658 79.5 375.524 74.6 375.524 68.8V24.8H384.624ZM478.105 24.8V32.2H459.105V94.5H450.005V32.2H430.905V24.8H478.105Z" fill="black"/>
<path d="M1.4 85.8C1.4 72.2 17.5 65.1 29.3 66.3C30.5 61.4 32.1 56.5 32.1 51.5C32.1 49.2 31.8 48 29.3 48C24 48 18.7 55.2 16.8 60.6C16.3 62 15.1 63 13.6 63H12.2C9.9 63 8.7 61.5 9.6 59.5C13 51.7 20.9 45.2 29.5 45.2C35.6 45.2 38.8 48.9 38.8 54.9C38.8 56.8 38.4 58.7 38 60.6L31.3 86.4L31 88.7C31 89.7 31.3 91.2 32.6 91.2C34.3 91.2 35.9 87.5 36.8 85.3C37.1 84.6 37.7 84.3 38.4 84.4C39 84.6 39.3 85.1 39 85.7C37 90.4 35.1 95 29 95C25.6 95 23.1 93.6 23.1 89.9C23.1 88.9 23.3 87.8 23.5 86.8C20.3 91.1 15.5 95.7 9.8 95.7C4.3 95.7 1.4 90.8 1.4 85.8ZM14.7 89.5C18.2 89.5 22 85.1 24 82.5C26.8 79 27.5 73.1 28.5 68.8C28 68.7 27.5 68.7 27 68.7C19.7 68.7 9.5 74.1 9.5 82.4C9.5 85.4 11.1 89.5 14.7 89.5ZM47.5297 89.9C47.5297 87.4 48.4297 85 49.0297 82.6L62.7297 30.3C63.1297 28.9 63.4297 27.5 63.4297 26.1C63.4297 22.4 60.0297 22.1 57.1297 22C56.4297 22 56.0297 21.5 56.2297 20.8C56.4297 20.1 57.0297 19.6 57.7297 19.6L69.3297 19.5C71.6297 19.5 72.8297 21 72.2297 23.3L56.4297 83.4C56.0297 85.2 55.2297 87 55.2297 88.8C55.2297 89.9 55.7297 91.2 57.0297 91.2C58.6297 91.2 60.3297 87.5 61.2297 85.3C61.4297 84.6 62.1297 84.3 62.7297 84.4C63.4297 84.6 63.7297 85.1 63.4297 85.7C61.3297 90.4 59.5297 95 53.4297 95C50.0297 95 47.5297 93.6 47.5297 89.9ZM67.4281 82.6C68.9281 76.9 74.7281 58.1 74.7281 53.7C74.7281 49.5 71.3281 48.6 67.9281 48.5C67.2281 48.4 66.7281 48 66.6281 47.3C66.6281 46.6 67.1281 46.1 67.8281 46.1L80.7281 45.8C83.1281 45.8 84.3281 47.3 83.7281 49.6L74.8281 83.4C74.3281 85.2 73.6281 87 73.6281 88.8C73.6281 89.9 74.1281 91.2 75.3281 91.2C77.0281 91.2 78.6281 87.4 79.5281 85.3C79.8281 84.6 80.4281 84.3 81.1281 84.4C81.8281 84.6 82.0281 85.1 81.8281 85.7C79.7281 90.4 77.8281 95 71.7281 95C68.4281 95 65.9281 93.6 65.9281 89.9C65.9281 87.4 66.7281 85 67.4281 82.6ZM78.9281 34.4C78.9281 31 81.7281 26.1 85.5281 26.1C87.9281 26.1 89.0281 28.4 89.0281 30.6C89.0281 33.9 86.1281 38.9 82.4281 38.9C79.9281 38.9 78.9281 36.5 78.9281 34.4ZM81.2844 90C81.2844 87.6 81.8844 85.4 82.4844 83.2C85.3844 71.8 88.0844 60.3 90.9844 48.9L85.0844 49C84.3844 49 84.0844 48.6 84.2844 47.9C84.4844 47.2 85.0844 46.8 85.7844 46.7C92.6844 45.8 98.4844 37.6 101.684 32C101.984 31.6 102.384 31.3 102.884 31.3C103.284 31.3 103.584 31.6 103.384 32.1L99.4844 46.1L108.284 46C109.084 46 109.384 46.5 109.184 47.3C108.984 48.1 108.284 48.6 107.484 48.6L98.6844 48.8C97.4844 53.3 96.5844 58 95.3844 62.6L89.4844 85.1C89.1844 86.3 88.9844 87.5 88.9844 88.7C88.9844 90 89.3844 91.6 90.9844 91.6C93.1844 91.6 95.4844 89.4 97.0844 87.7C97.4844 87.3 97.8844 87.4 98.0844 88C98.1844 88.5 98.0844 89.2 97.6844 89.7C95.0844 92.7 90.8844 95.6 86.9844 95.6C83.2844 95.6 81.2844 93.8 81.2844 90ZM98.6594 90C98.6594 87.6 99.2594 85.4 99.8594 83.2C102.759 71.8 105.459 60.3 108.359 48.9L102.459 49C101.759 49 101.459 48.6 101.659 47.9C101.859 47.2 102.459 46.8 103.159 46.7C110.059 45.8 115.859 37.6 119.059 32C119.359 31.6 119.759 31.3 120.259 31.3C120.659 31.3 120.959 31.6 120.759 32.1L116.859 46.1L125.659 46C126.459 46 126.759 46.5 126.559 47.3C126.359 48.1 125.659 48.6 124.859 48.6L116.059 48.8C114.859 53.3 113.959 58 112.759 62.6L106.859 85.1C106.559 86.3 106.359 87.5 106.359 88.7C106.359 90 106.759 91.6 108.359 91.6C110.559 91.6 112.859 89.4 114.459 87.7C114.859 87.3 115.259 87.4 115.459 88C115.559 88.5 115.459 89.2 115.059 89.7C112.459 92.7 108.259 95.6 104.359 95.6C100.659 95.6 98.6594 93.8 98.6594 90ZM116.834 89.9C116.834 87.4 117.734 85 118.334 82.6L132.034 30.3C132.434 28.9 132.734 27.5 132.734 26.1C132.734 22.4 129.334 22.1 126.434 22C125.734 22 125.334 21.5 125.534 20.8C125.734 20.1 126.334 19.6 127.034 19.6L138.634 19.5C140.934 19.5 142.134 21 141.534 23.3L125.734 83.4C125.334 85.2 124.534 87 124.534 88.8C124.534 89.9 125.034 91.2 126.334 91.2C127.934 91.2 129.634 87.5 130.534 85.3C130.734 84.6 131.434 84.3 132.034 84.4C132.734 84.6 133.034 85.1 132.734 85.7C130.634 90.4 128.834 95 122.734 95C119.334 95 116.834 93.6 116.834 89.9ZM131.933 80.2C131.933 66.5 141.833 45.5 157.633 45.5C163.733 45.5 169.433 50.2 169.433 56.4C169.433 59.3 168.133 61.6 166.133 63.5C159.633 69.9 149.933 69.2 141.633 70.2C141.133 72.8 140.833 75.5 140.833 78.2C140.833 83.5 142.233 89.6 148.733 89.6C156.133 89.6 162.633 83 166.233 76.9C166.533 76.5 167.033 76.3 167.533 76.4C168.033 76.5 168.233 76.9 168.033 77.4C163.433 86.4 156.533 95.6 145.433 95.6C136.033 95.6 131.933 89 131.933 80.2ZM161.933 54.5C161.933 51.3 160.333 48.1 156.733 48.1C147.433 48.1 144.033 60 142.333 67.2C149.933 66.1 161.933 64.8 161.933 54.5Z" fill="black"/>
<path d="M494.9 91C495.1 90.4 495.6 89.9 496.2 89.8C497.9 89.5 499.7 89.2 501.2 88.2C502.8 87 503.5 84.9 504 83.1C506 76.5 512.7 54.6 512.7 49.2C512.7 45.9 510.4 45.5 507.9 45.5C507.1 45.5 506.8 45 507.1 44.3C507.5 43.6 508.3 43.1 509.1 43.1L518.2 43C520.6 43 521.8 44.5 521.2 46.7L516.8 63.5C519.8 57.8 527.4 43.5 534.6 43.5C540.2 43.5 541.9 49 541.9 53.7C541.9 56.3 541.4 58.8 540.7 61.2C543.7 55.9 550.2 43.5 557.2 43.5C562.8 43.5 564.4 49.1 564.4 53.7C564.4 56 564.1 58.2 563.5 60.4L557.5 83.4C557.3 84.2 557.1 85 557.1 85.8C557.1 86.9 557.5 88.2 558.8 88.2C560.5 88.2 562.1 84.5 563 82.3C563.3 81.6 563.9 81.3 564.6 81.4C565.3 81.6 565.5 82.1 565.3 82.7C563.2 87.4 561.3 92 555.2 92C551.9 92 549.3 90.6 549.3 86.9C549.3 85.5 549.6 84.2 550 82.9L555.6 61.2C556.3 58.8 556.7 56.3 556.7 53.7C556.7 51.9 556.5 48.4 553.9 48.4C553.3 48.4 552.7 48.5 552.2 48.8C549.5 50 539.4 66.4 538.2 70C536.1 76.4 534.4 83.1 532.6 89.7C532.3 91 531.1 91.8 529.8 91.8L528.2 91.9C526 91.9 524.8 90.5 525.5 88.3L533.1 61.2C533.8 58.8 534.2 56.3 534.2 53.8C534.2 51.9 533.9 48.4 531.4 48.4C530.8 48.4 530.2 48.5 529.6 48.8C526.4 50.2 516.2 68 514.4 72.4C513.5 74.8 511.2 83.9 511.2 86.3C511.2 89 513.8 89.5 515.9 89.9C516.5 90 516.8 90.4 516.6 91C516.5 91.6 516 92 515.4 92H495.7C495.1 92 494.8 91.6 494.9 91ZM548.98 104.7C548.98 102 551.28 99.8 553.98 99.8C558.78 99.8 558.98 105.9 564.58 105.9C574.88 105.9 587.18 90.4 591.88 81.9C587.88 86.4 582.08 91.5 575.78 91.5C569.38 91.5 567.48 86.9 567.48 81.2C567.48 79 567.78 76.7 568.28 74.6L574.28 51.6C574.58 50.8 574.78 50 574.78 49.2C574.78 48.1 574.28 46.8 573.08 46.8C571.38 46.8 569.68 50.5 568.78 52.7C568.58 53.4 567.88 53.7 567.28 53.6C566.58 53.4 566.28 52.9 566.58 52.3C568.58 47.6 570.48 43 576.58 43C579.98 43 582.48 44.4 582.48 48.1C582.48 49.4 582.18 50.8 581.88 52.1L576.18 73.8C575.68 75.7 575.38 77.8 575.38 79.8C575.38 82.5 576.08 86.6 579.58 86.6C586.18 86.6 595.88 73.4 598.48 67.7C599.48 65.4 600.38 61.1 600.38 58.6C600.38 53.1 595.38 51.2 595.38 47.1C595.38 44.6 598.68 43.6 600.68 43.6C604.28 43.6 604.58 47.1 604.58 49.9C604.58 63.9 599.28 78 591.08 89.2C583.38 99.7 572.58 110.9 558.58 110.9C554.28 110.9 548.98 110.1 548.98 104.7ZM596.329 84.3C596.329 82.4 597.229 79.2 599.629 79.2C604.929 79.2 600.529 90.4 608.429 90.4C613.729 90.4 617.529 85 617.529 80.1C617.529 71.6 605.429 68.6 605.429 59.2C605.429 50.8 614.329 42.5 622.729 42.5C626.729 42.5 630.529 44.4 630.529 49C630.529 51 629.429 53.5 627.129 53.5C625.129 53.5 623.529 52.4 623.529 50.3C623.529 48.8 624.229 47.5 624.229 46C624.229 44.9 623.229 44.7 622.329 44.7C617.729 44.7 611.729 48.9 611.729 53.8C611.729 60.5 625.229 64.2 625.229 74.9C625.229 84.6 616.029 92.6 606.529 92.6C601.429 92.6 596.329 90.2 596.329 84.3ZM624.323 77.2C624.323 63.5 634.223 42.5 650.023 42.5C656.123 42.5 661.823 47.2 661.823 53.4C661.823 56.3 660.523 58.6 658.523 60.5C652.023 66.9 642.323 66.2 634.023 67.2C633.523 69.8 633.223 72.5 633.223 75.2C633.223 80.5 634.623 86.6 641.123 86.6C648.523 86.6 655.023 80 658.623 73.9C658.923 73.5 659.423 73.3 659.923 73.4C660.423 73.5 660.623 73.9 660.423 74.4C655.823 83.4 648.923 92.6 637.823 92.6C628.423 92.6 624.323 86 624.323 77.2ZM654.323 51.5C654.323 48.3 652.723 45.1 649.123 45.1C639.823 45.1 636.423 57 634.723 64.2C642.323 63.1 654.323 61.8 654.323 51.5ZM658.135 86.9C658.135 84.4 659.035 82 659.635 79.6L673.335 27.3C673.735 25.9 674.035 24.5 674.035 23.1C674.035 19.4 670.635 19.1 667.735 19C667.035 19 666.635 18.5 666.835 17.8C667.035 17.1 667.635 16.6 668.335 16.6L679.935 16.5C682.235 16.5 683.435 18 682.835 20.3L667.035 80.4C666.635 82.2 665.835 84 665.835 85.8C665.835 86.9 666.335 88.2 667.635 88.2C669.235 88.2 670.935 84.5 671.835 82.3C672.035 81.6 672.735 81.3 673.335 81.4C674.035 81.6 674.335 82.1 674.035 82.7C671.935 87.4 670.135 92 664.035 92C660.635 92 658.135 90.6 658.135 86.9ZM656.934 93.2C659.134 93.2 660.234 94.7 660.234 96.7C660.234 99.8 657.834 102.2 657.834 104.3C657.834 105.9 659.734 106.7 661.034 106.7C670.034 106.7 674.834 84 676.334 78.3L684.834 45.6H679.734C679.034 45.6 678.634 45.1 678.834 44.4C679.134 43.6 679.834 43.1 680.534 43.1H685.534C688.634 31.2 693.434 16.5 708.334 16.5C713.234 16.5 717.934 18.9 717.934 24.4C717.934 28 715.434 32.7 711.434 32.7C709.234 32.7 708.434 30.7 708.434 28.8C708.434 25.7 710.634 23.2 710.634 21C710.634 19.5 708.934 18.5 707.534 18.5C699.434 18.5 694.734 37.2 693.134 43.1H702.834C703.534 43.1 703.934 43.6 703.734 44.4C703.434 45.1 702.734 45.6 701.934 45.6H692.534L683.834 78.8C680.534 91.5 676.334 108.9 660.134 108.9C655.234 108.9 650.834 105.4 650.834 100.2C650.834 96.8 653.234 93.2 656.934 93.2Z" fill="black"/>
</svg>
