<svg width="572" height="347" viewBox="0 0 572 347" fill="none" xmlns="http://www.w3.org/2000/svg">
<path d="M388.896 321.748C389.021 323.034 388.646 324.206 387.77 325.261C386.888 326.309 385.665 326.933 384.104 327.131C382.546 327.322 381.313 327.181 380.412 326.706L380.462 327.287C380.737 330.113 382.17 332.273 384.754 333.775C387.341 335.269 390.279 335.811 393.564 335.404C401.116 334.462 408.167 330.527 414.725 323.604C419.57 318.526 424.426 312.038 429.291 304.141L443.106 280.57C441.51 281.299 439.977 282.05 438.501 282.822L434.296 284.904C418.92 293.177 409.068 302.2 404.739 311.974C404.507 312.59 404.207 312.92 403.838 312.966C403.462 313.015 403.3 312.852 403.35 312.484C403.4 312.116 403.431 311.825 403.437 311.606C403.447 311.379 403.637 310.678 404.013 309.495C404.388 308.305 405.258 306.768 406.616 304.877C407.973 302.979 409.547 301.106 411.333 299.254C417.071 293.354 422.733 288.853 428.314 285.754C433.902 282.659 439.442 279.819 444.933 277.241C447.861 271.415 450.742 265.951 453.58 260.851C460.869 248.386 465.743 240.276 468.196 236.515C468.196 236.515 470.223 233.47 474.277 227.379C464.973 235.616 457.259 240.113 451.127 240.878C448.23 241.24 445.759 240.751 443.706 239.419C441.654 238.081 440.509 236.204 440.278 233.796C440.043 231.388 440.021 229.397 440.215 227.818C440.406 226.242 440.872 224.56 441.617 222.775C443.059 219.273 445.824 215.25 449.913 210.706C452.557 207.781 453.958 205.954 454.118 205.224C454.274 204.488 454.337 203.96 454.305 203.638C454.121 201.704 453.073 200.238 451.164 199.246C449.262 198.248 446.272 198 442.192 198.51C433.163 199.636 425.618 204.119 419.555 211.967C418.735 212.98 418.041 213.522 417.465 213.596C416.896 213.663 416.592 213.468 416.552 213.015C416.492 212.385 416.918 211.422 417.828 210.125C424.185 202.26 432.35 197.702 442.33 196.456C447.101 195.861 450.867 196.382 453.63 198.014C456.398 199.65 457.95 202.172 458.285 205.578C458.66 209.499 458.26 212.767 457.083 215.381C455.072 220.048 451.803 224.447 447.273 228.583C445.577 230.095 444.51 231.225 444.069 231.968C443.625 232.705 443.434 233.413 443.494 234.093C443.559 234.766 443.744 235.361 444.044 235.878C444.351 236.388 444.848 236.862 445.533 237.295C447.116 238.201 449.028 238.52 451.265 238.244C453.498 237.96 455.744 237.291 457.997 236.232C460.249 235.177 462.605 233.746 465.067 231.94C470.373 228.03 475.072 223.512 479.17 218.384C490.914 203.985 497.972 195.677 500.343 193.467C502.712 191.257 504.429 189.763 505.499 188.977L507.927 187.305C508.352 186.993 508.834 186.806 509.378 186.738C509.919 186.675 510.204 186.788 510.229 187.078C510.26 187.372 510.157 187.613 509.916 187.801C509.682 187.992 509.353 188.275 508.928 188.651C508.502 189.019 508.139 189.324 507.839 189.557C507.545 189.784 507.188 190.089 506.763 190.464L502.846 194.487C497.941 200.153 493.292 206.935 488.906 214.828L477.443 236.048L467.27 256.319L459.211 270.881L491.246 257.537L495.013 251.12C505.831 233.073 518.275 216.677 532.341 201.924C546.106 187.588 556.533 179.982 563.625 179.103C566.178 178.785 568.155 179.203 569.557 180.364C570.964 181.526 571.765 183.123 571.959 185.152C572.16 187.174 571.621 189.791 570.345 193C569.075 196.212 567.123 199.753 564.489 203.624C561.861 207.487 558.573 211.581 554.628 215.905C550.68 220.232 546.172 224.599 541.1 229.008C529.654 238.877 517.256 247.207 503.91 253.995C491.221 275.923 482.952 293.403 479.108 306.435C477.856 310.611 477.359 314.049 477.618 316.748C477.884 319.45 478.623 321.422 479.833 322.669C481.05 323.916 483.09 324.362 485.953 324C488.812 323.643 491.853 322.209 495.075 319.694C498.304 317.183 501.319 313.801 504.122 309.552C510.336 300.139 514.524 288.824 516.686 275.612C517.002 273.622 517.587 272.573 518.438 272.467C518.889 272.41 519.314 273.416 519.715 275.484C520.121 277.545 520.015 280.24 519.389 283.573C518.764 286.898 517.737 290.386 516.311 294.041C514.891 297.695 513.082 301.364 510.88 305.047C508.684 308.73 506.244 312.109 503.559 315.175C497.618 321.968 491.474 325.753 485.127 326.536C480.021 327.181 476.355 324.935 474.127 319.808C473.467 318.402 473.026 316.56 472.801 314.283C472.582 311.999 472.641 309.035 472.976 305.387C473.307 301.743 474.096 297.692 475.341 293.233C478.094 283.725 482.78 272.906 489.406 260.781C484.407 263.097 479.114 265.377 473.526 267.622L457.146 274.436L446.159 292.483C439.076 303.503 433.21 311.546 428.565 316.606C423.916 321.67 419.921 325.583 416.577 328.349C410.085 333.647 402.73 336.806 394.502 337.826C390.022 338.382 386.068 337.606 382.639 335.503C379.27 333.378 377.409 330.517 377.058 326.919C376.677 322.945 378.169 320.225 381.538 318.759C382.464 318.327 383.359 318.051 384.216 317.938C387.054 317.591 388.615 318.858 388.896 321.748ZM506.125 250.327C523.509 240.156 538.663 227.705 551.587 212.973C559.236 204.218 564.407 196.853 567.104 190.875C568.421 187.9 568.994 185.556 568.818 183.835C568.609 181.646 567.27 180.704 564.801 181.016C562.33 181.32 559.699 182.457 556.905 184.43C554.108 186.406 551.102 189.005 547.883 192.235C544.661 195.457 541.301 199.254 537.797 203.624C534.293 207.986 530.745 212.686 527.16 217.718C523.581 222.754 519.99 228.023 516.386 233.527L506.125 250.327Z" fill="#292929"/>
<path d="M105.494 262.359C109.298 260.356 111.391 259.212 111.77 258.934C112.148 258.656 112.508 258.564 112.855 258.656C113.209 258.741 113.398 258.89 113.424 259.098C113.398 259.78 112.622 260.545 111.1 261.385C107.268 263.483 104.636 264.899 103.196 265.632L98.891 267.742C97.407 268.485 95.696 269.278 93.752 270.118L78.0949 276.538C57.6212 308.543 40.544 329.215 26.8569 338.551C20.4522 342.914 14.1863 345.433 8.05619 346.109C5.73289 346.368 4.04729 345.982 2.99299 344.946C1.30109 343.354 0.325689 341.357 0.0636895 338.956C-0.195181 336.561 0.33509 333.648 1.65459 330.21C2.96779 326.779 5.00059 323.215 7.75319 319.519C10.4994 315.829 13.8833 312.088 17.9048 308.297C21.92 304.512 26.4718 300.828 31.554 297.239C42.0844 289.656 53.9753 283.236 67.2236 277.979L81.744 252.804C78.4106 251.44 75.5444 249.326 73.1454 246.46C70.7464 243.588 69.2817 239.731 68.7514 234.884C68.2211 230.031 68.7545 224.844 70.3549 219.315C71.9617 213.779 74.4648 208.452 77.8677 203.328C81.2768 198.206 85.4561 193.376 90.406 188.832C95.362 184.292 100.848 180.232 106.858 176.65C119.702 169.127 133.339 164.568 147.768 162.976L162.111 162.508L169.952 161.08C171.903 160.862 172.919 161.089 172.995 161.762C173.121 162.9 170.814 163.731 166.076 164.252L161.038 164.732C152.357 167.885 143.563 174.612 134.649 184.915C125.741 195.211 117.022 208.737 108.487 225.494L93.095 252.097C100.106 251.332 107.432 247.493 115.078 240.584C122.325 233.987 128.275 226.237 132.931 217.33C137.704 208.08 139.693 199.846 138.904 192.624C138.727 191.025 138.92 190.194 139.485 190.134C140.056 190.068 140.523 191.685 140.886 194.987C141.246 198.292 140.93 202.2 139.939 206.715C138.954 211.233 137.395 215.659 135.267 219.997C133.137 224.338 130.51 228.464 127.388 232.382C124.273 236.3 120.848 239.797 117.111 242.871C109.137 249.544 100.927 253.348 92.476 254.283L91.694 254.372C86.239 263.531 82.4637 269.711 80.3677 272.911L89.3577 269.423C96.318 266.719 101.697 264.365 105.494 262.359ZM157.111 164.619C154.384 164.502 151.344 164.628 147.995 164.998C144.652 165.361 140.81 166.318 136.467 167.866C132.123 169.418 127.745 171.402 123.335 173.819C118.932 176.239 114.579 179 110.28 182.109C105.977 185.218 101.908 188.539 98.07 192.068C94.238 195.59 90.721 199.277 87.5142 203.126C84.3134 206.977 81.5956 210.828 79.3576 214.677C74.5659 222.885 72.5267 230.215 73.2338 236.666C73.9819 243.475 77.2111 248.129 82.9182 250.631L90.81 236.287C101.886 216.016 114.017 199.202 127.199 185.837C138.007 174.887 147.976 167.813 157.111 164.619ZM64.9761 281.745C56.4911 285.704 47.0087 291.732 36.5288 299.829C20.8468 311.842 10.3258 322.656 4.96269 332.27C3.22029 335.386 2.44379 337.796 2.62679 339.499C2.81309 341.208 3.40649 342.45 4.40719 343.227C5.41099 344.001 6.62939 344.308 8.06879 344.15C21.9831 342.624 40.9543 321.822 64.9761 281.745Z" fill="#292929"/>
<path d="M92.4 298.8C92.4 285.2 108.5 278.1 120.3 279.3C121.5 274.4 123.1 269.5 123.1 264.5C123.1 262.2 122.8 261 120.3 261C115 261 109.7 268.2 107.8 273.6C107.3 275 106.1 276 104.6 276H103.2C100.9 276 99.7 274.5 100.6 272.5C104 264.7 111.9 258.2 120.5 258.2C126.6 258.2 129.8 261.9 129.8 267.9C129.8 269.8 129.4 271.7 129 273.6L122.3 299.4L122 301.7C122 302.7 122.3 304.2 123.6 304.2C125.3 304.2 126.9 300.5 127.8 298.3C128.1 297.6 128.7 297.3 129.4 297.4C130 297.6 130.3 298.1 130 298.7C128 303.4 126.1 308 120 308C116.6 308 114.1 306.6 114.1 302.9C114.1 301.9 114.3 300.8 114.5 299.8C111.3 304.1 106.5 308.7 100.8 308.7C95.3 308.7 92.4 303.8 92.4 298.8ZM105.7 302.5C109.2 302.5 113 298.1 115 295.5C117.8 292 118.5 286.1 119.5 281.8C119 281.7 118.5 281.7 118 281.7C110.7 281.7 100.5 287.1 100.5 295.4C100.5 298.4 102.1 302.5 105.7 302.5ZM129.432 293.7C129.432 280 140.532 258.6 156.032 258.6C160.832 258.6 166.532 261.7 166.532 267C166.532 269.5 164.832 273.4 161.832 273.4C158.632 273.4 159.332 268.6 159.332 266.5C159.332 263.7 158.932 261.1 155.532 261.1C145.132 261.1 137.332 283.6 137.332 292C137.332 297.2 139.132 302.1 145.032 302.1C149.232 302.1 153.632 299.5 156.832 296.8C157.332 296.4 158.132 296.1 158.832 296.1C159.432 296.1 159.632 296.4 159.132 296.9C154.432 302.4 147.832 308.6 140.232 308.6C132.032 308.6 129.432 300.6 129.432 293.7ZM157.654 295.3C157.654 281.5 167.554 258.5 183.354 258.5C187.354 258.5 189.854 262.2 193.054 262.2C194.454 262.2 195.754 261.5 196.854 260.6C198.854 259 199.354 259.1 198.654 261.6L183.554 319.7C183.254 320.7 183.054 321.6 183.054 322.6C183.054 325.2 185.554 325.7 187.654 326.1C188.254 326.2 188.554 326.7 188.354 327.3C188.254 327.9 187.754 328.4 187.054 328.4H167.654C167.054 328.4 166.654 327.9 166.854 327.3C167.054 326.7 167.554 326.2 168.154 326.1C169.754 325.7 171.354 325.5 172.754 324.7C174.554 323.6 175.354 321.4 175.954 319.5C177.454 313.8 178.954 308.1 180.354 302.4C176.754 305.7 171.554 308.6 166.554 308.6C159.354 308.6 157.654 301.1 157.654 295.3ZM166.454 292.7C166.454 296.4 167.054 302.6 172.054 302.6C175.254 302.6 178.854 301.5 181.254 299.3L187.054 276.8C187.654 274.5 187.954 272.1 187.954 269.7C187.954 266.3 187.154 261.3 182.854 261.3C172.154 261.3 166.454 284.4 166.454 292.7ZM196.402 292.9L203.002 267.7C203.202 266.7 203.502 265.7 203.502 264.6C203.502 261.9 200.902 261.5 198.702 261.2C198.102 261.1 197.802 260.7 197.902 260.1C198.102 259.4 198.602 259 199.202 259H209.002C211.402 259 212.502 260.5 211.902 262.8L204.302 292C203.702 294.2 203.302 296.5 203.302 298.7C203.302 300.7 203.802 304.9 206.502 304.9C213.402 304.9 226.102 271.7 226.102 264.7C226.102 261.9 223.602 261.5 221.402 261.2C220.802 261.1 220.602 260.6 220.702 260C220.902 259.4 221.502 259 222.102 259C225.202 259.1 228.402 259.1 231.502 259.2C233.902 259.2 235.002 260.7 234.402 263L225.002 299.4C224.802 300.2 224.602 301 224.602 301.8C224.602 302.9 225.002 304.2 226.302 304.2C228.002 304.2 229.602 300.5 230.502 298.3C230.802 297.6 231.402 297.3 232.102 297.4C232.702 297.6 233.002 298.1 232.702 298.7C230.702 303.4 228.802 308 222.702 308C219.302 308 216.802 306.6 216.802 302.9C216.802 299.8 218.102 296.1 218.902 293.1C216.202 298.9 211.102 308.5 203.602 308.5C198.002 308.5 195.602 303.8 195.602 298.8C195.602 296.8 195.902 294.8 196.402 292.9ZM232.28 293.2C232.28 279.5 242.18 258.5 257.98 258.5C264.08 258.5 269.78 263.2 269.78 269.4C269.78 272.3 268.48 274.6 266.48 276.5C259.98 282.9 250.28 282.2 241.98 283.2C241.48 285.8 241.18 288.5 241.18 291.2C241.18 296.5 242.58 302.6 249.08 302.6C256.48 302.6 262.98 296 266.58 289.9C266.88 289.5 267.38 289.3 267.88 289.4C268.38 289.5 268.58 289.9 268.38 290.4C263.78 299.4 256.88 308.6 245.78 308.6C236.38 308.6 232.28 302 232.28 293.2ZM262.28 267.5C262.28 264.3 260.68 261.1 257.08 261.1C247.78 261.1 244.38 273 242.68 280.2C250.28 279.1 262.28 277.8 262.28 267.5ZM266.592 302.9C266.592 300.4 267.492 298 268.092 295.6L281.792 243.3C282.192 241.9 282.492 240.5 282.492 239.1C282.492 235.4 279.092 235.1 276.192 235C275.492 235 275.092 234.5 275.292 233.8C275.492 233.1 276.092 232.6 276.792 232.6L288.392 232.5C290.692 232.5 291.892 234 291.292 236.3L275.492 296.4C275.092 298.2 274.292 300 274.292 301.8C274.292 302.9 274.792 304.2 276.092 304.2C277.692 304.2 279.392 300.5 280.292 298.3C280.492 297.6 281.192 297.3 281.792 297.4C282.492 297.6 282.792 298.1 282.492 298.7C280.392 303.4 278.592 308 272.492 308C269.092 308 266.592 306.6 266.592 302.9ZM286.991 295.6C288.491 289.9 294.291 271.1 294.291 266.7C294.291 262.5 290.891 261.6 287.491 261.5C286.791 261.4 286.291 261 286.191 260.3C286.191 259.6 286.691 259.1 287.391 259.1L300.291 258.8C302.691 258.8 303.891 260.3 303.291 262.6L294.391 296.4C293.891 298.2 293.191 300 293.191 301.8C293.191 302.9 293.691 304.2 294.891 304.2C296.591 304.2 298.191 300.4 299.091 298.3C299.391 297.6 299.991 297.3 300.691 297.4C301.391 297.6 301.591 298.1 301.391 298.7C299.291 303.4 297.391 308 291.291 308C287.991 308 285.491 306.6 285.491 302.9C285.491 300.4 286.291 298 286.991 295.6ZM298.491 247.4C298.491 244 301.291 239.1 305.091 239.1C307.491 239.1 308.591 241.4 308.591 243.6C308.591 246.9 305.691 251.9 301.991 251.9C299.491 251.9 298.491 249.5 298.491 247.4ZM294.447 307C294.647 306.4 295.147 305.9 295.747 305.8C300.647 304.9 302.147 304.2 303.547 299.1C305.447 292.6 312.247 270.4 312.247 265.2C312.247 262 309.947 261.5 307.447 261.5C306.647 261.5 306.347 261 306.647 260.3C307.047 259.6 307.847 259.1 308.647 259.1L317.747 259C320.147 259 321.347 260.5 320.747 262.7L316.247 279.9C319.147 274.2 326.847 259.5 334.147 259.5C339.847 259.5 341.347 265.1 341.347 269.7C341.347 272 341.047 274.2 340.547 276.4L335.247 296.4C334.847 298.2 334.047 300 334.047 301.8C334.047 302.9 334.547 304.2 335.747 304.2C337.447 304.2 339.147 300.4 340.047 298.3C340.247 297.6 340.947 297.3 341.547 297.4C342.247 297.6 342.547 298.1 342.247 298.7C340.147 303.4 338.347 308 332.247 308C328.847 308 326.347 306.6 326.347 302.9C326.347 300.4 327.247 298 327.847 295.6L332.647 277.2C333.247 274.8 333.647 272.3 333.647 269.7C333.647 267.9 333.447 264.4 330.947 264.4C330.347 264.4 329.747 264.5 329.147 264.8C326.247 266.2 315.347 284.3 314.147 288C313.147 291.2 310.747 299.2 310.747 302.3C310.747 305 313.347 305.5 315.447 305.9C316.047 306 316.347 306.4 316.147 307C316.047 307.6 315.547 308 314.947 308H295.247C294.647 308 294.347 307.6 294.447 307ZM341.769 293.2C341.769 279.5 351.669 258.5 367.469 258.5C373.569 258.5 379.269 263.2 379.269 269.4C379.269 272.3 377.969 274.6 375.969 276.5C369.469 282.9 359.769 282.2 351.469 283.2C350.969 285.8 350.669 288.5 350.669 291.2C350.669 296.5 352.069 302.6 358.569 302.6C365.969 302.6 372.469 296 376.069 289.9C376.369 289.5 376.869 289.3 377.369 289.4C377.869 289.5 378.069 289.9 377.869 290.4C373.269 299.4 366.369 308.6 355.269 308.6C345.869 308.6 341.769 302 341.769 293.2ZM371.769 267.5C371.769 264.3 370.169 261.1 366.569 261.1C357.269 261.1 353.869 273 352.169 280.2C359.769 279.1 371.769 277.8 371.769 267.5Z" fill="#292929"/>
<path d="M507.5 291.8C507.5 278.1 518.5 258.5 533.9 258.5C543.6 258.5 547.6 266.7 547.6 275.3C547.6 289 536.4 308.6 521.1 308.6C511.4 308.6 507.5 300.4 507.5 291.8ZM523.3 306.1C535.4 306.1 538.9 283.6 538.9 274.7C538.9 270.3 538.3 260.9 532.1 260.9C519.6 260.9 516.2 282.7 516.2 291.9C516.2 296.6 516.8 306.1 523.3 306.1Z" fill="#292929"/>
<path d="M46.6503 133.454V131.599H51.8481C55.4361 131.599 57.7524 130.733 58.803 128.995C59.8597 127.26 60.3881 123.547 60.3881 117.854V16.6205C60.3881 10.7978 59.829 7.02365 58.717 5.29465C57.6018 3.55945 55.1289 2.69035 51.2951 2.69035H46.6503V0.835449H90.309V2.69035H85.111C81.637 2.69035 79.403 3.52575 78.414 5.19635C77.422 6.86695 76.927 10.5522 76.927 16.252V63.0541H123.191V16.4363C123.191 10.7365 122.693 7.02365 121.704 5.29465C120.712 3.55945 118.362 2.69035 114.651 2.69035H109.822V0.835449H153.665V2.69035H148.283C144.686 2.69035 142.36 3.55945 141.303 5.29465C140.253 7.02365 139.73 10.7365 139.73 16.4363V117.854C139.73 123.547 140.253 127.26 141.303 128.995C142.36 130.733 144.686 131.599 148.283 131.599H153.665V133.454H109.822V131.599H114.651C118.362 131.599 120.712 130.733 121.704 128.995C122.693 127.26 123.191 123.424 123.191 117.485V64.909H76.927V117.854C76.927 123.547 77.422 127.26 78.414 128.995C79.403 130.733 81.637 131.599 85.111 131.599H90.309V133.454H46.6503Z" fill="#292929"/>
<path d="M149.019 133.454V131.599H152.926C156.643 131.599 159.245 130.798 160.729 129.192C162.21 127.58 162.953 123.676 162.953 117.485V17.1734C162.953 10.8594 162.24 6.86695 160.815 5.19635C159.396 3.52575 156.766 2.69035 152.926 2.69035H149.019V0.835449H224.834L225.756 32.9706H223.9L223.532 23.3031C223.163 17.7354 222.328 13.4635 221.025 10.4907C219.723 7.51805 217.612 5.47585 214.697 4.36105C211.788 3.24935 207.733 2.69035 202.532 2.69035H179.308V63.0541H216.651V64.909H179.308L179.124 131.599H207.742C212.943 131.599 216.936 131.077 219.723 130.027C222.506 128.971 224.518 127.113 225.756 124.45C227 121.791 227.808 117.983 228.177 113.026L228.914 101.319H230.782L229.663 133.454H149.019Z" fill="#292929"/>
<path d="M244.71 133.454V131.599H249.92C254.251 131.599 257.099 130.672 258.46 128.811C259.827 126.953 260.512 122.988 260.512 116.92V72.9061L232.447 11.4244C230.717 7.70845 229.141 5.32535 227.716 4.27505C226.291 3.21865 224.337 2.69035 221.855 2.69035H220.749V0.835449H262.368V2.69035H258.644C254.811 2.69035 252.27 3.03125 251.026 3.70995C249.788 4.39175 249.17 5.47585 249.17 6.96525C249.17 8.08005 249.416 9.31765 249.908 10.675C250.405 12.0355 251.152 13.8934 252.144 16.252L267.197 51.3601C268.677 54.7011 270.1 57.8921 271.461 60.9291C272.828 63.9601 274.317 67.3911 275.933 71.2231C276.671 69.6201 277.69 67.268 278.993 64.172C280.296 61.077 281.564 58.104 282.802 55.254L299.342 16.4363C300.577 13.5864 301.381 11.5103 301.75 10.2082C302.125 8.90615 302.315 7.76065 302.315 6.76875C302.315 5.28845 301.848 4.23815 300.914 3.62395C299.987 3.00365 298.039 2.69035 295.065 2.69035H285.223V0.835449H316.065V2.69035H314.578C311.605 2.69035 309.467 3.15715 308.164 4.09075C306.862 5.01825 305.467 7.21095 303.986 10.675L277.039 72.7101V116.92C277.039 122.988 277.629 126.953 278.809 128.811C279.988 130.672 282.621 131.599 286.71 131.599H292.645V133.454H244.71Z" fill="#292929"/>
<path d="M306.588 162.249V160.197C310.551 158.714 314.207 156.235 317.549 152.765C320.891 149.301 322.562 145.462 322.562 141.255C322.562 138.528 321.911 136.544 320.609 135.31C319.312 134.072 317.798 133.022 316.062 132.153C314.323 131.286 312.806 130.172 311.503 128.811C310.207 127.454 309.562 125.286 309.562 122.313C309.562 119.095 310.364 116.773 311.97 115.348C313.583 113.923 315.626 113.21 318.102 113.21C321.327 113.21 324.055 114.605 326.285 117.387C328.513 120.172 329.628 124.475 329.628 130.298C329.628 136.734 327.889 142.926 324.418 148.871C320.953 154.817 315.008 159.276 306.588 162.249Z" fill="#292929"/>
<path d="M346.715 133.454V131.599H352.478C356.072 131.599 358.367 130.764 359.359 129.094C360.348 127.423 360.846 123.738 360.846 118.038V16.6205C360.846 10.7978 360.348 7.02365 359.359 5.29465C358.367 3.55945 356.072 2.69035 352.478 2.69035H346.715V0.835449H391.504V2.69035H385.741C382.144 2.69035 379.818 3.55945 378.762 5.29465C377.711 7.02365 377.189 10.7978 377.189 16.6205V118.038C377.189 123.738 377.711 127.423 378.762 129.094C379.818 130.764 382.144 131.599 385.741 131.599H391.504V133.454H346.715Z" fill="#292929"/>
<path d="M392.796 44.4808L387.23 0.835449H400.783L395.401 44.4808H392.796Z" fill="#292929"/>
<path d="M396.51 133.454V131.599H403.392C407.232 131.599 409.834 130.733 411.194 128.995C412.552 127.26 413.234 123.486 413.234 117.669V16.6205C413.234 10.7978 412.614 7.02365 411.379 5.29465C410.141 3.55945 407.852 2.69035 404.51 2.69035H396.51V0.835449H428.471L461.918 118.591L494.063 0.835449H524.537V2.69035H519.143C515.923 2.69035 513.724 3.55945 512.544 5.29465C511.371 7.02365 510.787 10.675 510.787 16.252V118.038C510.787 123.609 511.343 127.26 512.458 128.995C513.57 130.733 516.049 131.599 519.892 131.599H524.537V133.454H481.8V131.599H484.774C488.86 131.599 491.489 130.703 492.663 128.909C493.842 127.11 494.432 123.173 494.432 117.104V6.58445L460.063 133.454H451.142L415.09 8.25505V117.289C415.09 123.612 415.83 127.58 417.314 129.192C418.804 130.798 421.719 131.599 426.063 131.599H432.194V133.454H396.51Z" fill="#292929"/>
</svg>
