<svg width="1280" height="181" viewBox="0 0 1280 181" fill="none" xmlns="http://www.w3.org/2000/svg">
<path d="M2.64 126.6L22.68 49.92C22.92 48.96 23.16 48 23.16 47.04C23.16 44.28 21.12 43.68 18.72 43.68C17.76 43.68 16.8 43.68 15.84 43.8C14.88 43.92 14.4 43.44 14.64 42.6C14.88 41.76 15.6 41.04 16.56 41.04C20.88 40.56 25.08 39.96 29.28 39.24C32.64 38.64 34.32 40.44 33.48 43.68L24.96 75.6C29.28 71.88 35.04 69.6 40.8 69.6C50.28 69.6 52.92 78.36 52.92 86.4C52.92 103.2 40.32 129.72 21.12 129.72C16.32 129.72 13.2 125.4 9.72 125.4C7.44 125.4 5.88 126.36 4.56 127.56C2.16 129.84 1.8 129.84 2.64 126.6ZM15.48 116.52C15.48 120.84 16.68 126.36 21.96 126.36C35.52 126.36 42.6 100.32 42.6 89.64C42.6 83.16 40.92 74.88 32.88 74.88C29.76 74.88 26.76 76.44 24.48 78.48C22.44 85.44 15.48 109.92 15.48 116.52ZM48.1219 109.56C48.1219 93.12 61.3219 69.6 79.8019 69.6C91.4419 69.6 96.2419 79.44 96.2419 89.76C96.2419 106.2 82.8019 129.72 64.4419 129.72C52.8019 129.72 48.1219 119.88 48.1219 109.56ZM67.0819 126.72C81.6019 126.72 85.8019 99.72 85.8019 89.04C85.8019 83.76 85.0819 72.48 77.6419 72.48C62.6419 72.48 58.5619 98.64 58.5619 109.68C58.5619 115.32 59.2819 126.72 67.0819 126.72ZM94.9547 110.88L102.875 80.64C103.115 79.44 103.475 78.24 103.475 76.92C103.475 73.68 100.355 73.2 97.7147 72.84C96.9947 72.72 96.6347 72.24 96.7547 71.52C96.9947 70.68 97.5947 70.2 98.3147 70.2H110.075C112.955 70.2 114.275 72 113.555 74.76L104.435 109.8C103.715 112.44 103.235 115.2 103.235 117.84C103.235 120.24 103.835 125.28 107.075 125.28C115.355 125.28 130.595 85.44 130.595 77.04C130.595 73.68 127.595 73.2 124.955 72.84C124.235 72.72 123.995 72.12 124.115 71.4C124.355 70.68 125.075 70.2 125.795 70.2C129.515 70.32 133.355 70.32 137.075 70.44C139.955 70.44 141.275 72.24 140.555 75L129.275 118.68C129.035 119.64 128.795 120.6 128.795 121.56C128.795 122.88 129.275 124.44 130.835 124.44C132.875 124.44 134.795 120 135.875 117.36C136.235 116.52 136.955 116.16 137.795 116.28C138.515 116.52 138.875 117.12 138.515 117.84C136.115 123.48 133.835 129 126.515 129C122.435 129 119.435 127.32 119.435 122.88C119.435 119.16 120.995 114.72 121.955 111.12C118.715 118.08 112.595 129.6 103.595 129.6C96.8747 129.6 93.9947 123.96 93.9947 117.96C93.9947 115.56 94.3547 113.16 94.9547 110.88ZM130.328 127.8C130.568 127.08 131.168 126.48 131.888 126.36C137.768 125.28 139.568 124.44 141.248 118.32C143.528 110.52 151.688 83.88 151.688 77.64C151.688 73.8 148.928 73.2 145.928 73.2C144.968 73.2 144.608 72.6 144.968 71.76C145.448 70.92 146.408 70.32 147.368 70.32L158.288 70.2C161.168 70.2 162.608 72 161.888 74.64L156.488 95.28C159.968 88.44 169.208 70.8 177.968 70.8C184.808 70.8 186.608 77.52 186.608 83.04C186.608 85.8 186.248 88.44 185.648 91.08L179.288 115.08C178.808 117.24 177.848 119.4 177.848 121.56C177.848 122.88 178.448 124.44 179.888 124.44C181.928 124.44 183.968 119.88 185.048 117.36C185.288 116.52 186.128 116.16 186.848 116.28C187.688 116.52 188.048 117.12 187.688 117.84C185.168 123.48 183.008 129 175.688 129C171.608 129 168.608 127.32 168.608 122.88C168.608 119.88 169.688 117 170.408 114.12L176.168 92.04C176.888 89.16 177.368 86.16 177.368 83.04C177.368 80.88 177.128 76.68 174.128 76.68C173.408 76.68 172.688 76.8 171.968 77.16C168.488 78.84 155.408 100.56 153.968 105C152.768 108.84 149.888 118.44 149.888 122.16C149.888 125.4 153.008 126 155.528 126.48C156.248 126.6 156.608 127.08 156.368 127.8C156.248 128.52 155.648 129 154.928 129H131.288C130.568 129 130.208 128.52 130.328 127.8ZM186.875 111.84C186.875 95.4 200.195 69.72 218.795 69.72C224.555 69.72 231.395 73.44 231.395 79.8C231.395 82.8 229.355 87.48 225.755 87.48C221.915 87.48 222.755 81.72 222.755 79.2C222.755 75.84 222.275 72.72 218.195 72.72C205.715 72.72 196.355 99.72 196.355 109.8C196.355 116.04 198.515 121.92 205.595 121.92C210.635 121.92 215.915 118.8 219.755 115.56C220.355 115.08 221.315 114.72 222.155 114.72C222.875 114.72 223.115 115.08 222.515 115.68C216.875 122.28 208.955 129.72 199.835 129.72C189.995 129.72 186.875 120.12 186.875 111.84ZM221.221 111.24C221.221 94.8 233.101 69.6 252.061 69.6C259.381 69.6 266.221 75.24 266.221 82.68C266.221 86.16 264.661 88.92 262.261 91.2C254.461 98.88 242.821 98.04 232.861 99.24C232.261 102.36 231.901 105.6 231.901 108.84C231.901 115.2 233.581 122.52 241.381 122.52C250.261 122.52 258.061 114.6 262.381 107.28C262.741 106.8 263.341 106.56 263.941 106.68C264.541 106.8 264.781 107.28 264.541 107.88C259.021 118.68 250.741 129.72 237.421 129.72C226.141 129.72 221.221 121.8 221.221 111.24ZM257.221 80.4C257.221 76.56 255.301 72.72 250.981 72.72C239.821 72.72 235.741 87 233.701 95.64C242.821 94.32 257.221 92.76 257.221 80.4Z" fill="black"/>
<path d="M350.252 56.2949L325.691 96.8223V129H316.023V97.8477L291.463 56.2949H302.205L320.955 88.375L339.998 56.2949H350.252ZM399.527 64.6445C402.294 67.8346 404.443 71.7897 405.973 76.5098C407.503 81.2298 408.268 86.6172 408.268 92.6719C408.268 98.5638 407.519 103.886 406.021 108.639C404.524 113.391 402.359 117.379 399.527 120.602C396.565 123.987 393.098 126.493 389.127 128.121C385.188 129.716 380.842 130.514 376.09 130.514C371.174 130.514 366.747 129.684 362.809 128.023C358.87 126.363 355.484 123.889 352.652 120.602C349.853 117.379 347.704 113.408 346.207 108.688C344.71 103.967 343.961 98.6289 343.961 92.6719C343.961 86.5521 344.71 81.181 346.207 76.5586C347.737 71.9362 349.902 67.9648 352.701 64.6445C355.501 61.4219 358.87 58.9805 362.809 57.3203C366.78 55.6276 371.207 54.7812 376.09 54.7812C381.038 54.7812 385.497 55.6439 389.469 57.3691C393.44 59.0944 396.793 61.5195 399.527 64.6445ZM398.209 92.6719C398.209 87.8542 397.688 83.5898 396.646 79.8789C395.605 76.168 394.14 73.0918 392.252 70.6504C390.331 68.1439 388.004 66.2721 385.27 65.0352C382.568 63.7656 379.524 63.1309 376.139 63.1309C372.623 63.1309 369.547 63.7493 366.91 64.9863C364.306 66.1908 361.995 68.0788 359.977 70.6504C358.056 73.1243 356.575 76.2331 355.533 79.9766C354.524 83.7201 354.02 87.9518 354.02 92.6719C354.02 102.21 356.021 109.518 360.025 114.596C364.029 119.641 369.4 122.164 376.139 122.164C382.877 122.164 388.232 119.641 392.203 114.596C396.207 109.518 398.209 102.21 398.209 92.6719ZM436.303 130.514C432.038 130.514 428.311 129.96 425.121 128.854C421.931 127.714 419.213 126.038 416.967 123.824C414.428 121.285 412.637 118.258 411.596 114.742C410.554 111.194 410.033 106.832 410.033 101.656V56.2949H419.701V101.656C419.701 105.009 419.913 107.841 420.336 110.152C420.759 112.431 421.589 114.482 422.826 116.305C424.128 118.258 425.886 119.739 428.1 120.748C430.346 121.757 433.08 122.262 436.303 122.262C439.33 122.262 442.016 121.757 444.359 120.748C446.703 119.739 448.526 118.258 449.828 116.305C451.033 114.449 451.846 112.398 452.27 110.152C452.725 107.906 452.953 105.156 452.953 101.9V56.2949H462.621V101.656C462.621 106.702 462.1 111.031 461.059 114.645C460.049 118.258 458.259 121.318 455.688 123.824C453.376 126.07 450.674 127.747 447.582 128.854C444.522 129.96 440.762 130.514 436.303 130.514ZM524.836 129H512.287L489.24 100.094H478.205V129H468.537V56.2949H487.287C491.454 56.2949 494.937 56.5228 497.736 56.9785C500.568 57.4342 503.254 58.4922 505.793 60.1523C508.332 61.7799 510.334 63.8796 511.799 66.4512C513.296 69.0228 514.045 72.2129 514.045 76.0215C514.045 81.36 512.694 85.8197 509.992 89.4004C507.29 92.9811 503.612 95.6341 498.957 97.3594L524.836 129ZM503.938 76.7539C503.938 74.638 503.563 72.7663 502.814 71.1387C502.066 69.4785 500.91 68.1276 499.348 67.0859C497.98 66.1745 496.385 65.5397 494.562 65.1816C492.74 64.791 490.477 64.5957 487.775 64.5957H478.205V92.0371H486.701C489.468 92.0371 491.958 91.793 494.172 91.3047C496.385 90.8164 498.273 89.8073 499.836 88.2773C501.236 86.9102 502.261 85.2826 502.912 83.3945C503.596 81.5065 503.938 79.293 503.938 76.7539ZM627.439 56.2949L609.178 129H598.289L583.494 68.6484L569.041 129H558.396L539.793 56.2949H549.705L564.354 116.744L578.904 56.2949H588.719L603.416 117.33L617.967 56.2949H627.439ZM617.926 129L642.438 56.2949H654.352L678.863 129H668.658L662.066 108.688H634.283L627.691 129H617.926ZM659.381 100.436L648.15 66.1582L636.969 100.436H659.381ZM724.916 56.2949L700.355 96.8223V129H690.688V97.8477L666.127 56.2949H676.869L695.619 88.375L714.662 56.2949H724.916ZM763.896 129V64.8887H739.482V56.2949H797.979V64.8887H773.564V129H763.896ZM846.375 64.6445C849.142 67.8346 851.29 71.7897 852.82 76.5098C854.35 81.2298 855.115 86.6172 855.115 92.6719C855.115 98.5638 854.367 103.886 852.869 108.639C851.372 113.391 849.207 117.379 846.375 120.602C843.413 123.987 839.946 126.493 835.975 128.121C832.036 129.716 827.69 130.514 822.938 130.514C818.022 130.514 813.595 129.684 809.656 128.023C805.717 126.363 802.332 123.889 799.5 120.602C796.701 117.379 794.552 113.408 793.055 108.688C791.557 103.967 790.809 98.6289 790.809 92.6719C790.809 86.5521 791.557 81.181 793.055 76.5586C794.585 71.9362 796.749 67.9648 799.549 64.6445C802.348 61.4219 805.717 58.9805 809.656 57.3203C813.628 55.6276 818.055 54.7812 822.938 54.7812C827.885 54.7812 832.345 55.6439 836.316 57.3691C840.288 59.0944 843.641 61.5195 846.375 64.6445ZM845.057 92.6719C845.057 87.8542 844.536 83.5898 843.494 79.8789C842.452 76.168 840.988 73.0918 839.1 70.6504C837.179 68.1439 834.852 66.2721 832.117 65.0352C829.415 63.7656 826.372 63.1309 822.986 63.1309C819.471 63.1309 816.395 63.7493 813.758 64.9863C811.154 66.1908 808.842 68.0788 806.824 70.6504C804.904 73.1243 803.423 76.2331 802.381 79.9766C801.372 83.7201 800.867 87.9518 800.867 92.6719C800.867 102.21 802.869 109.518 806.873 114.596C810.877 119.641 816.248 122.164 822.986 122.164C829.725 122.164 835.079 119.641 839.051 114.596C843.055 109.518 845.057 102.21 845.057 92.6719ZM933.695 56.2949L908.695 129H898.246L873.246 56.2949H883.598L903.715 116.646L923.832 56.2949H933.695ZM958.068 129H929.846V121.578H939.123V63.7168H929.846V56.2949H958.068V63.7168H948.791V121.578H958.068V129ZM990.4 130.318C985.648 130.318 981.27 129.521 977.266 127.926C973.294 126.331 969.86 123.954 966.963 120.797C964.066 117.639 961.82 113.701 960.225 108.98C958.63 104.26 957.832 98.8405 957.832 92.7207C957.832 86.6335 958.597 81.3275 960.127 76.8027C961.689 72.278 963.952 68.3392 966.914 64.9863C969.811 61.7311 973.245 59.2572 977.217 57.5645C981.188 55.8392 985.632 54.9766 990.547 54.9766C992.988 54.9766 995.267 55.1556 997.383 55.5137C999.531 55.8717 1001.52 56.3275 1003.34 56.8809C1004.9 57.3691 1006.5 57.9876 1008.12 58.7363C1009.79 59.4525 1011.41 60.25 1013.01 61.1289V72.7988H1012.23C1011.38 72.0176 1010.29 71.0736 1008.96 69.9668C1007.62 68.86 1005.99 67.7695 1004.07 66.6953C1002.22 65.6862 1000.2 64.8561 998.018 64.2051C995.837 63.554 993.314 63.2285 990.449 63.2285C987.357 63.2285 984.427 63.8633 981.66 65.1328C978.893 66.4023 976.468 68.2741 974.385 70.748C972.334 73.222 970.739 76.3307 969.6 80.0742C968.46 83.8177 967.891 88.0332 967.891 92.7207C967.891 97.7012 968.493 101.998 969.697 105.611C970.902 109.192 972.546 112.219 974.629 114.693C976.647 117.102 979.023 118.925 981.758 120.162C984.492 121.367 987.389 121.969 990.449 121.969C993.249 121.969 995.837 121.627 998.213 120.943C1000.59 120.26 1002.71 119.397 1004.56 118.355C1006.35 117.346 1007.9 116.321 1009.2 115.279C1010.5 114.205 1011.53 113.294 1012.28 112.545H1013.01V124.068C1011.41 124.817 1009.9 125.533 1008.47 126.217C1007.07 126.9 1005.36 127.568 1003.34 128.219C1001.22 128.902 999.255 129.423 997.432 129.781C995.641 130.139 993.298 130.318 990.4 130.318ZM1031.03 129V64.8887H1006.62V56.2949H1065.12V64.8887H1040.7V129H1031.03ZM1113.51 64.6445C1116.28 67.8346 1118.43 71.7897 1119.96 76.5098C1121.49 81.2298 1122.25 86.6172 1122.25 92.6719C1122.25 98.5638 1121.5 103.886 1120.01 108.639C1118.51 113.391 1116.34 117.379 1113.51 120.602C1110.55 123.987 1107.08 126.493 1103.11 128.121C1099.17 129.716 1094.83 130.514 1090.07 130.514C1085.16 130.514 1080.73 129.684 1076.79 128.023C1072.85 126.363 1069.47 123.889 1066.64 120.602C1063.84 117.379 1061.69 113.408 1060.19 108.688C1058.69 103.967 1057.95 98.6289 1057.95 92.6719C1057.95 86.5521 1058.69 81.181 1060.19 76.5586C1061.72 71.9362 1063.89 67.9648 1066.69 64.6445C1069.49 61.4219 1072.85 58.9805 1076.79 57.3203C1080.76 55.6276 1085.19 54.7812 1090.07 54.7812C1095.02 54.7812 1099.48 55.6439 1103.45 57.3691C1107.42 59.0944 1110.78 61.5195 1113.51 64.6445ZM1112.19 92.6719C1112.19 87.8542 1111.67 83.5898 1110.63 79.8789C1109.59 76.168 1108.12 73.0918 1106.24 70.6504C1104.32 68.1439 1101.99 66.2721 1099.25 65.0352C1096.55 63.7656 1093.51 63.1309 1090.12 63.1309C1086.61 63.1309 1083.53 63.7493 1080.89 64.9863C1078.29 66.1908 1075.98 68.0788 1073.96 70.6504C1072.04 73.1243 1070.56 76.2331 1069.52 79.9766C1068.51 83.7201 1068 87.9518 1068 92.6719C1068 102.21 1070.01 109.518 1074.01 114.596C1078.01 119.641 1083.38 122.164 1090.12 122.164C1096.86 122.164 1102.22 119.641 1106.19 114.596C1110.19 109.518 1112.19 102.21 1112.19 92.6719ZM1181.2 129H1168.65L1145.6 100.094H1134.56V129H1124.9V56.2949H1143.65C1147.81 56.2949 1151.3 56.5228 1154.1 56.9785C1156.93 57.4342 1159.61 58.4922 1162.15 60.1523C1164.69 61.7799 1166.69 63.8796 1168.16 66.4512C1169.66 69.0228 1170.4 72.2129 1170.4 76.0215C1170.4 81.36 1169.05 85.8197 1166.35 89.4004C1163.65 92.9811 1159.97 95.6341 1155.32 97.3594L1181.2 129ZM1160.3 76.7539C1160.3 74.638 1159.92 72.7663 1159.17 71.1387C1158.43 69.4785 1157.27 68.1276 1155.71 67.0859C1154.34 66.1745 1152.74 65.5397 1150.92 65.1816C1149.1 64.791 1146.84 64.5957 1144.13 64.5957H1134.56V92.0371H1143.06C1145.83 92.0371 1148.32 91.793 1150.53 91.3047C1152.74 90.8164 1154.63 89.8073 1156.2 88.2773C1157.6 86.9102 1158.62 85.2826 1159.27 83.3945C1159.96 81.5065 1160.3 79.293 1160.3 76.7539ZM1229.01 56.2949L1204.45 96.8223V129H1194.78V97.8477L1170.22 56.2949H1180.96L1199.71 88.375L1218.75 56.2949H1229.01Z" fill="black"/>
</svg>
