<svg width="354" height="113" viewBox="0 0 354 113" fill="none" xmlns="http://www.w3.org/2000/svg">
<path d="M1 75.1C1.2 74.6 1.6 74.2 2.1 74.1C6.9 73.1 8.8 72.7 10.2 67.1L24.2 13.5C24.5 12.4 24.8 11.3 24.8 10.2C24.8 7.6 21.7 7.3 19.6 6.7C19.2 6.6 19 6.09999 19.1 5.7C19.3 5.3 19.6 5 20.1 5H44.5C52.4 5 57.6 10.4 57.6 18.3C57.6 28 50.7 35.9 42.2 39.9C48.3 41.1 51.7 45.3 51.7 51.5C51.7 63.9 40.8 75.9 28.1 75.9H1.7C1.2 75.9 0.9 75.6 1 75.1ZM24.6 73.4C35.2 73.4 39.6 67.7 42.2 58C42.8 55.7 43.3 53.3 43.3 50.9C43.3 43.8 38.4 42.1 32.2 42.1H24.9L16.8 73.1C19.4 73.2 22 73.4 24.6 73.4ZM25.6 39.4H29.6C30.9 39.4 32.2 39.4 33.5 39.3C44.7 38.4 50.2 24.9 50.2 15.2C50.2 8.2 44.5 7.6 39 7.6H33.9L25.6 39.4ZM51.6211 59.8C51.6211 46.1 62.6211 26.5 78.0211 26.5C87.7211 26.5 91.7211 34.7 91.7211 43.3C91.7211 57 80.5211 76.6 65.2211 76.6C55.5211 76.6 51.6211 68.4 51.6211 59.8ZM67.4211 74.1C79.5211 74.1 83.0211 51.6 83.0211 42.7C83.0211 38.3 82.4211 28.9 76.2211 28.9C63.7211 28.9 60.3211 50.7 60.3211 59.9C60.3211 64.6 60.9211 74.1 67.4211 74.1ZM93.9484 59.7C97.5484 42.9 98.3484 25.1 103.648 8.6C104.548 5.9 106.248 1.6 109.748 1.6C112.148 1.6 113.048 3.79999 113.048 5.9C113.048 13.1 99.0484 48.9 95.2484 59.8C95.1484 60.1 94.8484 60.4 94.4484 60.4C94.0484 60.4 93.8484 60.1 93.9484 59.7ZM87.6484 73.2C87.6484 70.3 89.8484 65 93.2484 65C95.4484 65 96.0484 67.2 96.0484 68.9C96.0484 71.8 93.7484 77 90.3484 77C88.2484 77 87.6484 74.9 87.6484 73.2ZM94.9312 75C95.1312 74.4 95.6312 73.9 96.2312 73.8C101.131 72.9 102.631 72.2 104.031 67.1C105.931 60.6 112.731 38.4 112.731 33.2C112.731 30 110.431 29.5 107.931 29.5C107.131 29.5 106.831 29 107.131 28.3C107.531 27.6 108.331 27.1 109.131 27.1L118.231 27C120.631 27 121.831 28.5 121.231 30.7L116.731 47.9C119.631 42.2 127.331 27.5 134.631 27.5C140.331 27.5 141.831 33.1 141.831 37.7C141.831 40 141.531 42.2 141.031 44.4L135.731 64.4C135.331 66.2 134.531 68 134.531 69.8C134.531 70.9 135.031 72.2 136.231 72.2C137.931 72.2 139.631 68.4 140.531 66.3C140.731 65.6 141.431 65.3 142.031 65.4C142.731 65.6 143.031 66.1 142.731 66.7C140.631 71.4 138.831 76 132.731 76C129.331 76 126.831 74.6 126.831 70.9C126.831 68.4 127.731 66 128.331 63.6L133.131 45.2C133.731 42.8 134.131 40.3 134.131 37.7C134.131 35.9 133.931 32.4 131.431 32.4C130.831 32.4 130.231 32.5 129.631 32.8C126.731 34.2 115.831 52.3 114.631 56C113.631 59.2 111.231 67.2 111.231 70.3C111.231 73 113.831 73.5 115.931 73.9C116.531 74 116.831 74.4 116.631 75C116.531 75.6 116.031 76 115.431 76H95.7313C95.1312 76 94.8312 75.6 94.9312 75ZM134.453 75C134.653 74.4 135.153 73.9 135.753 73.8C140.253 72.9 142.053 72.4 143.453 67.1L157.553 13.1C158.053 11 158.753 8.9 158.753 6.7C158.753 3.7 156.453 3.2 154.153 3.1C153.353 3.1 152.953 2.6 153.253 1.89999C153.553 1.1 154.253 0.599999 155.053 0.599999C158.253 0.499995 161.453 0.499995 164.653 0.499995C166.953 0.399996 168.153 1.89999 167.553 4.19999L156.253 47.5L171.253 34.7C172.153 33.9 173.653 31.7 173.653 30.4C173.653 29.7 173.153 29.4 172.653 29.2C172.053 29.1 171.653 28.7 171.853 28C172.053 27.4 172.553 26.9 173.253 26.9C177.853 27 182.353 27 186.953 27C187.553 27 187.853 27.4 187.653 28C187.553 28.6 187.053 29 186.453 29.1C180.053 30.1 178.353 31 173.053 35.7L162.653 44.9L170.053 67.3C170.653 69 171.853 71 173.953 71C176.053 71 177.353 68.9 178.153 67.1C178.353 66.5 178.753 66.3 179.253 66.7C179.753 67 179.953 67.6 179.753 68.1C178.253 72 174.853 75.7 170.453 75.7C166.053 75.7 163.453 71.7 162.253 67.9L156.253 49.5L155.553 50.2L151.053 67.3C150.853 68.3 150.553 69.3 150.553 70.3C150.553 73 153.153 73.4 155.253 73.9C155.853 74 156.153 74.5 155.953 75C155.853 75.6 155.353 76 154.753 76H135.253C134.653 76 134.253 75.6 134.453 75Z" fill="black"/>
<path d="M5.84375 82.9688H8.57812V91.2969C9.19271 90.4948 9.92708 89.8854 10.7812 89.4688C11.6354 89.0417 12.5625 88.8281 13.5625 88.8281C15.6458 88.8281 17.3333 89.5469 18.625 90.9844C19.9271 92.4115 20.5781 94.5208 20.5781 97.3125C20.5781 99.9583 19.9375 102.156 18.6562 103.906C17.375 105.656 15.599 106.531 13.3281 106.531C12.0573 106.531 10.9844 106.224 10.1094 105.609C9.58854 105.245 9.03125 104.661 8.4375 103.859V106H5.84375V82.9688ZM13.1562 104.047C14.6771 104.047 15.8125 103.443 16.5625 102.234C17.3229 101.026 17.7031 99.4323 17.7031 97.4531C17.7031 95.6927 17.3229 94.2344 16.5625 93.0781C15.8125 91.9219 14.7031 91.3438 13.2344 91.3438C11.9531 91.3438 10.8281 91.8177 9.85938 92.7656C8.90104 93.7135 8.42188 95.276 8.42188 97.4531C8.42188 99.026 8.61979 100.302 9.01562 101.281C9.75521 103.125 11.1354 104.047 13.1562 104.047ZM28.5956 104.188C30.4602 104.188 31.7362 103.484 32.4237 102.078C33.1217 100.661 33.4706 99.0885 33.4706 97.3594C33.4706 95.7969 33.2206 94.526 32.7206 93.5469C31.929 92.0052 30.5644 91.2344 28.6269 91.2344C26.9081 91.2344 25.6581 91.8906 24.8769 93.2031C24.0956 94.5156 23.705 96.099 23.705 97.9531C23.705 99.7344 24.0956 101.219 24.8769 102.406C25.6581 103.594 26.8977 104.188 28.5956 104.188ZM28.705 88.7812C30.8612 88.7812 32.6842 89.5 34.1737 90.9375C35.6633 92.375 36.4081 94.4896 36.4081 97.2812C36.4081 99.9792 35.7519 102.208 34.4394 103.969C33.1269 105.729 31.0904 106.609 28.33 106.609C26.0279 106.609 24.1998 105.833 22.8456 104.281C21.4915 102.719 20.8144 100.625 20.8144 98C20.8144 95.1875 21.5279 92.9479 22.955 91.2812C24.3821 89.6146 26.2987 88.7812 28.705 88.7812ZM40.66 89.2656V100.375C40.66 101.229 40.7954 101.927 41.0662 102.469C41.5662 103.469 42.4985 103.969 43.8631 103.969C45.8215 103.969 47.1548 103.094 47.8631 101.344C48.2485 100.406 48.4412 99.1198 48.4412 97.4844V89.2656H51.2537V106H48.5975L48.6287 103.531C48.2642 104.167 47.811 104.703 47.2694 105.141C46.1965 106.016 44.8944 106.453 43.3631 106.453C40.9777 106.453 39.3527 105.656 38.4881 104.062C38.0194 103.208 37.785 102.068 37.785 100.641V89.2656H40.66ZM53.74 89.2656H56.4119V91.6406C57.2035 90.6615 58.0421 89.9583 58.9275 89.5312C59.8129 89.1042 60.7973 88.8906 61.8806 88.8906C64.2556 88.8906 65.8598 89.7188 66.6931 91.375C67.1515 92.2812 67.3806 93.5781 67.3806 95.2656V106H64.5213V95.4531C64.5213 94.4323 64.3702 93.6094 64.0681 92.9844C63.5681 91.9427 62.6619 91.4219 61.3494 91.4219C60.6827 91.4219 60.1358 91.4896 59.7088 91.625C58.9379 91.8542 58.2608 92.3125 57.6775 93C57.2088 93.5521 56.9015 94.125 56.7556 94.7188C56.6202 95.3021 56.5525 96.1406 56.5525 97.2344V106H53.74V89.2656ZM76.0856 88.7812C77.971 88.7812 79.5023 89.2396 80.6794 90.1562C81.8669 91.0729 82.5804 92.651 82.82 94.8906H80.0856C79.919 93.8594 79.5387 93.0052 78.945 92.3281C78.3512 91.6406 77.3981 91.2969 76.0856 91.2969C74.294 91.2969 73.0127 92.1719 72.2419 93.9219C71.7419 95.0573 71.4919 96.4583 71.4919 98.125C71.4919 99.8021 71.846 101.214 72.5544 102.359C73.2627 103.505 74.3773 104.078 75.8981 104.078C77.0648 104.078 77.9867 103.724 78.6637 103.016C79.3512 102.297 79.8252 101.318 80.0856 100.078H82.82C82.5075 102.297 81.7262 103.922 80.4762 104.953C79.2262 105.974 77.6273 106.484 75.6794 106.484C73.4919 106.484 71.7471 105.688 70.445 104.094C69.1429 102.49 68.4919 100.49 68.4919 98.0938C68.4919 95.1562 69.2054 92.8698 70.6325 91.2344C72.0596 89.599 73.8773 88.7812 76.0856 88.7812ZM90.6813 88.8906C91.8688 88.8906 93.0198 89.1719 94.1344 89.7344C95.249 90.2865 96.0979 91.0052 96.6813 91.8906C97.2438 92.7344 97.6188 93.7188 97.8063 94.8438C97.9729 95.6146 98.0563 96.8438 98.0563 98.5312H85.7906C85.8427 100.229 86.2438 101.594 86.9938 102.625C87.7438 103.646 88.9052 104.156 90.4781 104.156C91.9469 104.156 93.1188 103.672 93.9938 102.703C94.4938 102.141 94.8479 101.49 95.0563 100.75H97.8219C97.749 101.365 97.5042 102.052 97.0875 102.812C96.6813 103.562 96.2229 104.177 95.7125 104.656C94.8583 105.49 93.801 106.052 92.5406 106.344C91.8635 106.51 91.0979 106.594 90.2438 106.594C88.1604 106.594 86.3948 105.839 84.9469 104.328C83.499 102.807 82.775 100.682 82.775 97.9531C82.775 95.2656 83.5042 93.0833 84.9625 91.4062C86.4208 89.7292 88.3271 88.8906 90.6813 88.8906ZM95.1656 96.2969C95.051 95.0781 94.7854 94.1042 94.3688 93.375C93.5979 92.0208 92.3115 91.3438 90.5094 91.3438C89.2177 91.3438 88.1344 91.8125 87.2594 92.75C86.3844 93.6771 85.9208 94.8594 85.8688 96.2969H95.1656ZM117.044 89.2656H120.154C119.758 90.3385 118.878 92.7865 117.513 96.6094C116.492 99.4844 115.638 101.828 114.951 103.641C113.326 107.911 112.18 110.516 111.513 111.453C110.846 112.391 109.701 112.859 108.076 112.859C107.68 112.859 107.372 112.844 107.154 112.812C106.945 112.781 106.685 112.724 106.372 112.641V110.078C106.862 110.214 107.216 110.297 107.435 110.328C107.654 110.359 107.846 110.375 108.013 110.375C108.534 110.375 108.914 110.286 109.154 110.109C109.404 109.943 109.612 109.734 109.779 109.484C109.831 109.401 110.018 108.974 110.341 108.203C110.664 107.432 110.899 106.859 111.044 106.484L104.857 89.2656H108.044L112.529 102.891L117.044 89.2656ZM127.312 104.188C129.176 104.188 130.452 103.484 131.14 102.078C131.838 100.661 132.187 99.0885 132.187 97.3594C132.187 95.7969 131.937 94.526 131.437 93.5469C130.645 92.0052 129.281 91.2344 127.343 91.2344C125.624 91.2344 124.374 91.8906 123.593 93.2031C122.812 94.5156 122.421 96.099 122.421 97.9531C122.421 99.7344 122.812 101.219 123.593 102.406C124.374 103.594 125.614 104.188 127.312 104.188ZM127.421 88.7812C129.577 88.7812 131.4 89.5 132.89 90.9375C134.38 92.375 135.124 94.4896 135.124 97.2812C135.124 99.9792 134.468 102.208 133.156 103.969C131.843 105.729 129.807 106.609 127.046 106.609C124.744 106.609 122.916 105.833 121.562 104.281C120.208 102.719 119.531 100.625 119.531 98C119.531 95.1875 120.244 92.9479 121.671 91.2812C123.098 89.6146 125.015 88.7812 127.421 88.7812ZM139.376 89.2656V100.375C139.376 101.229 139.512 101.927 139.783 102.469C140.283 103.469 141.215 103.969 142.579 103.969C144.538 103.969 145.871 103.094 146.579 101.344C146.965 100.406 147.158 99.1198 147.158 97.4844V89.2656H149.97V106H147.314L147.345 103.531C146.98 104.167 146.527 104.703 145.986 105.141C144.913 106.016 143.611 106.453 142.079 106.453C139.694 106.453 138.069 105.656 137.204 104.062C136.736 103.208 136.501 102.068 136.501 100.641V89.2656H139.376ZM152.534 89.2656H155.206V92.1562C155.425 91.5938 155.961 90.9115 156.816 90.1094C157.67 89.2969 158.654 88.8906 159.769 88.8906C159.821 88.8906 159.909 88.8958 160.034 88.9062C160.159 88.9167 160.373 88.9375 160.675 88.9688V91.9375C160.508 91.9062 160.352 91.8854 160.206 91.875C160.071 91.8646 159.92 91.8594 159.753 91.8594C158.336 91.8594 157.248 92.3177 156.488 93.2344C155.727 94.1406 155.347 95.1875 155.347 96.375V106H152.534V89.2656ZM169.476 89.2656L172.694 102.453L175.96 89.2656H179.116L182.398 102.375L185.819 89.2656H188.632L183.773 106H180.851L177.444 93.0469L174.148 106H171.226L166.398 89.2656H169.476ZM191.54 101.547C191.54 102.359 191.837 103 192.431 103.469C193.024 103.938 193.727 104.172 194.54 104.172C195.53 104.172 196.488 103.943 197.415 103.484C198.977 102.724 199.759 101.479 199.759 99.75V97.4844C199.415 97.7031 198.972 97.8854 198.431 98.0312C197.889 98.1771 197.358 98.2812 196.837 98.3438L195.134 98.5625C194.113 98.6979 193.347 98.9115 192.837 99.2031C191.972 99.6927 191.54 100.474 191.54 101.547ZM198.352 95.8594C198.998 95.776 199.431 95.5052 199.649 95.0469C199.774 94.7969 199.837 94.4375 199.837 93.9688C199.837 93.0104 199.493 92.3177 198.806 91.8906C198.129 91.4531 197.155 91.2344 195.884 91.2344C194.415 91.2344 193.373 91.6302 192.759 92.4219C192.415 92.8594 192.191 93.5104 192.087 94.375H189.462C189.514 92.3125 190.181 90.8802 191.462 90.0781C192.754 89.2656 194.248 88.8594 195.946 88.8594C197.915 88.8594 199.514 89.2344 200.743 89.9844C201.962 90.7344 202.571 91.901 202.571 93.4844V103.125C202.571 103.417 202.629 103.651 202.743 103.828C202.868 104.005 203.123 104.094 203.509 104.094C203.634 104.094 203.774 104.089 203.931 104.078C204.087 104.057 204.254 104.031 204.431 104V106.078C203.993 106.203 203.66 106.281 203.431 106.312C203.201 106.344 202.889 106.359 202.493 106.359C201.524 106.359 200.821 106.016 200.384 105.328C200.155 104.964 199.993 104.448 199.899 103.781C199.326 104.531 198.504 105.182 197.431 105.734C196.358 106.286 195.175 106.562 193.884 106.562C192.332 106.562 191.061 106.094 190.071 105.156C189.092 104.208 188.602 103.026 188.602 101.609C188.602 100.057 189.087 98.8542 190.056 98C191.024 97.1458 192.295 96.6198 193.868 96.4219L198.352 95.8594ZM215.729 89.2656H218.839C218.443 90.3385 217.563 92.7865 216.198 96.6094C215.177 99.4844 214.323 101.828 213.636 103.641C212.011 107.911 210.865 110.516 210.198 111.453C209.531 112.391 208.386 112.859 206.761 112.859C206.365 112.859 206.057 112.844 205.839 112.812C205.63 112.781 205.37 112.724 205.057 112.641V110.078C205.547 110.214 205.901 110.297 206.12 110.328C206.339 110.359 206.531 110.375 206.698 110.375C207.219 110.375 207.599 110.286 207.839 110.109C208.089 109.943 208.297 109.734 208.464 109.484C208.516 109.401 208.703 108.974 209.026 108.203C209.349 107.432 209.584 106.859 209.729 106.484L203.542 89.2656H206.729L211.214 102.891L215.729 89.2656ZM226.905 84.5938H229.749V89.2656H232.421V91.5625H229.749V102.484C229.749 103.068 229.947 103.458 230.342 103.656C230.561 103.771 230.926 103.828 231.436 103.828C231.572 103.828 231.717 103.828 231.874 103.828C232.03 103.818 232.212 103.802 232.421 103.781V106C232.098 106.094 231.759 106.161 231.405 106.203C231.061 106.245 230.686 106.266 230.28 106.266C228.967 106.266 228.077 105.932 227.608 105.266C227.139 104.589 226.905 103.714 226.905 102.641V91.5625H224.639V89.2656H226.905V84.5938ZM239.969 104.188C241.834 104.188 243.11 103.484 243.798 102.078C244.495 100.661 244.844 99.0885 244.844 97.3594C244.844 95.7969 244.594 94.526 244.094 93.5469C243.303 92.0052 241.938 91.2344 240.001 91.2344C238.282 91.2344 237.032 91.8906 236.251 93.2031C235.469 94.5156 235.079 96.099 235.079 97.9531C235.079 99.7344 235.469 101.219 236.251 102.406C237.032 103.594 238.271 104.188 239.969 104.188ZM240.079 88.7812C242.235 88.7812 244.058 89.5 245.548 90.9375C247.037 92.375 247.782 94.4896 247.782 97.2812C247.782 99.9792 247.126 102.208 245.813 103.969C244.501 105.729 242.464 106.609 239.704 106.609C237.402 106.609 235.574 105.833 234.219 104.281C232.865 102.719 232.188 100.625 232.188 98C232.188 95.1875 232.902 92.9479 234.329 91.2812C235.756 89.6146 237.673 88.7812 240.079 88.7812ZM257.583 89.2656L262.051 102.891L266.723 89.2656H269.801L263.489 106H260.489L254.317 89.2656H257.583ZM270.288 89.3438H273.147V106H270.288V89.3438ZM270.288 83.0469H273.147V86.2344H270.288V83.0469ZM281.946 88.7812C283.831 88.7812 285.362 89.2396 286.539 90.1562C287.727 91.0729 288.44 92.651 288.68 94.8906H285.946C285.779 93.8594 285.399 93.0052 284.805 92.3281C284.211 91.6406 283.258 91.2969 281.946 91.2969C280.154 91.2969 278.873 92.1719 278.102 93.9219C277.602 95.0573 277.352 96.4583 277.352 98.125C277.352 99.8021 277.706 101.214 278.414 102.359C279.123 103.505 280.237 104.078 281.758 104.078C282.925 104.078 283.847 103.724 284.524 103.016C285.211 102.297 285.685 101.318 285.946 100.078H288.68C288.367 102.297 287.586 103.922 286.336 104.953C285.086 105.974 283.487 106.484 281.539 106.484C279.352 106.484 277.607 105.688 276.305 104.094C275.003 102.49 274.352 100.49 274.352 98.0938C274.352 95.1562 275.065 92.8698 276.492 91.2344C277.92 89.599 279.737 88.7812 281.946 88.7812ZM290.135 84.5938H292.979V89.2656H295.651V91.5625H292.979V102.484C292.979 103.068 293.177 103.458 293.573 103.656C293.791 103.771 294.156 103.828 294.666 103.828C294.802 103.828 294.948 103.828 295.104 103.828C295.26 103.818 295.442 103.802 295.651 103.781V106C295.328 106.094 294.989 106.161 294.635 106.203C294.291 106.245 293.916 106.266 293.51 106.266C292.198 106.266 291.307 105.932 290.838 105.266C290.369 104.589 290.135 103.714 290.135 102.641V91.5625H287.869V89.2656H290.135V84.5938ZM303.199 104.188C305.064 104.188 306.34 103.484 307.027 102.078C307.725 100.661 308.074 99.0885 308.074 97.3594C308.074 95.7969 307.824 94.526 307.324 93.5469C306.533 92.0052 305.168 91.2344 303.231 91.2344C301.512 91.2344 300.262 91.8906 299.481 93.2031C298.699 94.5156 298.309 96.099 298.309 97.9531C298.309 99.7344 298.699 101.219 299.481 102.406C300.262 103.594 301.501 104.188 303.199 104.188ZM303.309 88.7812C305.465 88.7812 307.288 89.5 308.777 90.9375C310.267 92.375 311.012 94.4896 311.012 97.2812C311.012 99.9792 310.356 102.208 309.043 103.969C307.731 105.729 305.694 106.609 302.934 106.609C300.632 106.609 298.804 105.833 297.449 104.281C296.095 102.719 295.418 100.625 295.418 98C295.418 95.1875 296.132 92.9479 297.559 91.2812C298.986 89.6146 300.902 88.7812 303.309 88.7812ZM312.529 89.2656H315.201V92.1562C315.42 91.5938 315.956 90.9115 316.811 90.1094C317.665 89.2969 318.649 88.8906 319.764 88.8906C319.816 88.8906 319.904 88.8958 320.029 88.9062C320.154 88.9167 320.368 88.9375 320.67 88.9688V91.9375C320.503 91.9062 320.347 91.8854 320.201 91.875C320.066 91.8646 319.915 91.8594 319.748 91.8594C318.331 91.8594 317.243 92.3177 316.483 93.2344C315.722 94.1406 315.342 95.1875 315.342 96.375V106H312.529V89.2656ZM331.641 89.2656H334.75C334.354 90.3385 333.474 92.7865 332.109 96.6094C331.089 99.4844 330.234 101.828 329.547 103.641C327.922 107.911 326.776 110.516 326.109 111.453C325.443 112.391 324.297 112.859 322.672 112.859C322.276 112.859 321.969 112.844 321.75 112.812C321.542 112.781 321.281 112.724 320.969 112.641V110.078C321.458 110.214 321.812 110.297 322.031 110.328C322.25 110.359 322.443 110.375 322.609 110.375C323.13 110.375 323.51 110.286 323.75 110.109C324 109.943 324.208 109.734 324.375 109.484C324.427 109.401 324.615 108.974 324.938 108.203C325.26 107.432 325.495 106.859 325.641 106.484L319.453 89.2656H322.641L327.125 102.891L331.641 89.2656ZM333.564 102.594H336.83V106H333.564V102.594Z" fill="black"/>
</svg>
