<svg width="638" height="161" viewBox="0 0 638 161" fill="none" xmlns="http://www.w3.org/2000/svg">
<path d="M7.5 79.5C7.5 48.45 32.4 5.54999 66.6 5.54999C76.35 5.54999 90 12.75 90 23.85C90 27.6 87.75 31.05 83.7 31.05C79.35 31.05 76.65 27.15 76.65 23.1C76.65 20.4 78.75 18.45 78.75 15.9C78.75 11.1 73.5 9.14999 69.45 9.14999C38.55 9.14999 20.4 58.5 20.4 84.6C20.4 97.8 24.6 110.55 39.9 110.55C47.1 110.55 54.6 106.8 59.25 101.4C62.4 97.5 64.65 84.9 70.35 84.9C72.9 84.9 74.1 87.45 74.1 89.55C74.1 93.15 72 96.3 69.9 99C61.95 108.9 50.25 114.9 37.5 114.9C16.5 114.9 7.5 98.85 7.5 79.5ZM63.2895 112.5C63.5895 111.6 64.3395 110.85 65.2395 110.7C71.8395 109.35 74.8395 108.6 76.9395 100.65L99.1395 15.75C99.5895 13.8 100.189 11.7 100.189 9.59999C100.189 4.5 95.0895 4.35 91.0395 4.5C89.9895 4.5 89.3895 3.75 89.5395 2.84999C89.6895 1.8 90.5895 1.05 91.6395 1.05L108.589 0.899999C112.039 0.899999 113.839 3.15 112.939 6.6L97.1895 67.2C101.539 59.1 111.439 41.25 121.489 41.25C130.039 41.25 132.289 49.65 132.289 56.55C132.289 60 131.839 63.3 131.089 66.6L122.089 101.1C121.639 102.3 121.339 103.5 121.339 104.7C121.339 106.35 122.089 108.3 124.039 108.3C126.439 108.3 128.989 102.75 130.339 99.45C130.639 98.4 131.689 97.95 132.589 98.1C133.639 98.4 134.089 99.15 133.639 100.05C130.489 107.1 127.789 114 118.639 114C113.539 114 109.789 111.9 109.789 106.35C109.789 104.25 110.239 102.3 110.689 100.35L119.239 67.8C120.139 64.2 120.739 60.45 120.739 56.55C120.739 53.85 120.439 48.6 116.689 48.6C115.789 48.6 114.889 48.75 113.989 49.2C110.239 50.85 95.5395 74.25 94.0395 79.2C92.8395 82.95 87.5895 102.45 87.5895 105.45C87.5895 109.5 91.4895 110.25 94.7895 110.85C95.6895 111 96.1395 111.6 95.8395 112.5C95.6895 113.4 94.9395 114 94.0395 114H64.4895C63.5895 114 63.1395 113.4 63.2895 112.5ZM132.954 91.8C132.954 71.25 147.804 39.75 171.504 39.75C180.654 39.75 189.204 46.8 189.204 56.1C189.204 60.45 187.254 63.9 184.254 66.75C174.504 76.35 159.954 75.3 147.504 76.8C146.754 80.7 146.304 84.75 146.304 88.8C146.304 96.75 148.404 105.9 158.154 105.9C169.254 105.9 179.004 96 184.404 86.85C184.854 86.25 185.604 85.95 186.354 86.1C187.104 86.25 187.404 86.85 187.104 87.6C180.204 101.1 169.854 114.9 153.204 114.9C139.104 114.9 132.954 105 132.954 91.8ZM177.954 53.25C177.954 48.45 175.554 43.65 170.154 43.65C156.204 43.65 151.104 61.5 148.554 72.3C159.954 70.65 177.954 68.7 177.954 53.25ZM177.821 102.45C177.821 99.6 179.171 94.8 182.771 94.8C190.721 94.8 184.121 111.6 195.971 111.6C203.921 111.6 209.621 103.5 209.621 96.15C209.621 83.4 191.471 78.9 191.471 64.8C191.471 52.2 204.821 39.75 217.421 39.75C223.421 39.75 229.121 42.6 229.121 49.5C229.121 52.5 227.471 56.25 224.021 56.25C221.021 56.25 218.621 54.6 218.621 51.45C218.621 49.2 219.671 47.25 219.671 45C219.671 43.35 218.171 43.05 216.821 43.05C209.921 43.05 200.921 49.35 200.921 56.7C200.921 66.75 221.171 72.3 221.171 88.35C221.171 102.9 207.371 114.9 193.121 114.9C185.471 114.9 177.821 111.3 177.821 102.45ZM215.913 102.45C215.913 99.6 217.263 94.8 220.863 94.8C228.813 94.8 222.213 111.6 234.063 111.6C242.013 111.6 247.713 103.5 247.713 96.15C247.713 83.4 229.563 78.9 229.563 64.8C229.563 52.2 242.913 39.75 255.513 39.75C261.513 39.75 267.213 42.6 267.213 49.5C267.213 52.5 265.563 56.25 262.113 56.25C259.113 56.25 256.713 54.6 256.713 51.45C256.713 49.2 257.763 47.25 257.763 45C257.763 43.35 256.263 43.05 254.913 43.05C248.013 43.05 239.013 49.35 239.013 56.7C239.013 66.75 259.263 72.3 259.263 88.35C259.263 102.9 245.463 114.9 231.213 114.9C223.563 114.9 215.913 111.3 215.913 102.45Z" fill="black"/>
<path d="M8.51562 136.781C10.401 136.781 11.9323 137.24 13.1094 138.156C14.2969 139.073 15.0104 140.651 15.25 142.891H12.5156C12.349 141.859 11.9688 141.005 11.375 140.328C10.7812 139.641 9.82812 139.297 8.51562 139.297C6.72396 139.297 5.44271 140.172 4.67188 141.922C4.17188 143.057 3.92188 144.458 3.92188 146.125C3.92188 147.802 4.27604 149.214 4.98438 150.359C5.69271 151.505 6.80729 152.078 8.32812 152.078C9.49479 152.078 10.4167 151.724 11.0938 151.016C11.7812 150.297 12.2552 149.318 12.5156 148.078H15.25C14.9375 150.297 14.1562 151.922 12.9062 152.953C11.6562 153.974 10.0573 154.484 8.10938 154.484C5.92188 154.484 4.17708 153.688 2.875 152.094C1.57292 150.49 0.921875 148.49 0.921875 146.094C0.921875 143.156 1.63542 140.87 3.0625 139.234C4.48958 137.599 6.30729 136.781 8.51562 136.781ZM16.1425 130.969H18.955V139.531C19.6217 138.688 20.2206 138.094 20.7519 137.75C21.6581 137.156 22.7883 136.859 24.1425 136.859C26.5696 136.859 28.2154 137.708 29.08 139.406C29.5487 140.333 29.7831 141.62 29.7831 143.266V154H26.8925V143.453C26.8925 142.224 26.7362 141.323 26.4237 140.75C25.9133 139.833 24.955 139.375 23.5487 139.375C22.3821 139.375 21.3248 139.776 20.3769 140.578C19.429 141.38 18.955 142.896 18.955 145.125V154H16.1425V130.969ZM39.0037 136.891C40.1912 136.891 41.3423 137.172 42.4569 137.734C43.5715 138.286 44.4204 139.005 45.0037 139.891C45.5662 140.734 45.9412 141.719 46.1287 142.844C46.2954 143.615 46.3787 144.844 46.3787 146.531H34.1131C34.1652 148.229 34.5662 149.594 35.3162 150.625C36.0662 151.646 37.2277 152.156 38.8006 152.156C40.2694 152.156 41.4412 151.672 42.3162 150.703C42.8162 150.141 43.1704 149.49 43.3787 148.75H46.1444C46.0715 149.365 45.8267 150.052 45.41 150.812C45.0037 151.562 44.5454 152.177 44.035 152.656C43.1808 153.49 42.1235 154.052 40.8631 154.344C40.186 154.51 39.4204 154.594 38.5662 154.594C36.4829 154.594 34.7173 153.839 33.2694 152.328C31.8215 150.807 31.0975 148.682 31.0975 145.953C31.0975 143.266 31.8267 141.083 33.285 139.406C34.7433 137.729 36.6496 136.891 39.0037 136.891ZM43.4881 144.297C43.3735 143.078 43.1079 142.104 42.6912 141.375C41.9204 140.021 40.634 139.344 38.8319 139.344C37.5402 139.344 36.4569 139.812 35.5819 140.75C34.7069 141.677 34.2433 142.859 34.1912 144.297H43.4881ZM54.3806 136.781C56.266 136.781 57.7973 137.24 58.9744 138.156C60.1619 139.073 60.8754 140.651 61.115 142.891H58.3806C58.214 141.859 57.8338 141.005 57.24 140.328C56.6463 139.641 55.6931 139.297 54.3806 139.297C52.589 139.297 51.3077 140.172 50.5369 141.922C50.0369 143.057 49.7869 144.458 49.7869 146.125C49.7869 147.802 50.141 149.214 50.8494 150.359C51.5577 151.505 52.6723 152.078 54.1931 152.078C55.3598 152.078 56.2817 151.724 56.9588 151.016C57.6463 150.297 58.1202 149.318 58.3806 148.078H61.115C60.8025 150.297 60.0213 151.922 58.7713 152.953C57.5213 153.974 55.9223 154.484 53.9744 154.484C51.7869 154.484 50.0421 153.688 48.74 152.094C47.4379 150.49 46.7869 148.49 46.7869 146.094C46.7869 143.156 47.5004 140.87 48.9275 139.234C50.3546 137.599 52.1723 136.781 54.3806 136.781ZM61.945 131.047H64.6481V144.375L71.8669 137.266H75.4606L69.0544 143.531L75.82 154H72.2262L67.0075 145.562L64.6481 147.719V154H61.945V131.047ZM76.0875 137.266H78.8688V139.641C79.5354 138.818 80.1396 138.219 80.6813 137.844C81.6083 137.208 82.6604 136.891 83.8375 136.891C85.1708 136.891 86.2438 137.219 87.0563 137.875C87.5146 138.25 87.9313 138.802 88.3063 139.531C88.9313 138.635 89.6656 137.974 90.5094 137.547C91.3531 137.109 92.301 136.891 93.3531 136.891C95.6031 136.891 97.1344 137.703 97.9469 139.328C98.3844 140.203 98.6031 141.38 98.6031 142.859V154H95.6813V142.375C95.6813 141.26 95.4 140.495 94.8375 140.078C94.2854 139.661 93.6083 139.453 92.8063 139.453C91.7021 139.453 90.749 139.823 89.9469 140.562C89.1552 141.302 88.7594 142.536 88.7594 144.266V154H85.9V143.078C85.9 141.943 85.7646 141.115 85.4938 140.594C85.0667 139.812 84.2698 139.422 83.1031 139.422C82.0406 139.422 81.0719 139.833 80.1969 140.656C79.3323 141.479 78.9 142.969 78.9 145.125V154H76.0875V137.266ZM102.98 149.547C102.98 150.359 103.277 151 103.871 151.469C104.464 151.938 105.168 152.172 105.98 152.172C106.97 152.172 107.928 151.943 108.855 151.484C110.418 150.724 111.199 149.479 111.199 147.75V145.484C110.855 145.703 110.412 145.885 109.871 146.031C109.329 146.177 108.798 146.281 108.277 146.344L106.574 146.562C105.553 146.698 104.787 146.911 104.277 147.203C103.412 147.693 102.98 148.474 102.98 149.547ZM109.793 143.859C110.438 143.776 110.871 143.505 111.089 143.047C111.214 142.797 111.277 142.438 111.277 141.969C111.277 141.01 110.933 140.318 110.246 139.891C109.569 139.453 108.595 139.234 107.324 139.234C105.855 139.234 104.813 139.63 104.199 140.422C103.855 140.859 103.631 141.51 103.527 142.375H100.902C100.954 140.312 101.621 138.88 102.902 138.078C104.194 137.266 105.688 136.859 107.386 136.859C109.355 136.859 110.954 137.234 112.183 137.984C113.402 138.734 114.011 139.901 114.011 141.484V151.125C114.011 151.417 114.069 151.651 114.183 151.828C114.308 152.005 114.563 152.094 114.949 152.094C115.074 152.094 115.214 152.089 115.371 152.078C115.527 152.057 115.694 152.031 115.871 152V154.078C115.433 154.203 115.1 154.281 114.871 154.312C114.641 154.344 114.329 154.359 113.933 154.359C112.964 154.359 112.261 154.016 111.824 153.328C111.595 152.964 111.433 152.448 111.339 151.781C110.766 152.531 109.944 153.182 108.871 153.734C107.798 154.286 106.615 154.562 105.324 154.562C103.772 154.562 102.501 154.094 101.511 153.156C100.532 152.208 100.043 151.026 100.043 149.609C100.043 148.057 100.527 146.854 101.496 146C102.464 145.146 103.735 144.62 105.308 144.422L109.793 143.859ZM117.279 132.594H120.122V137.266H122.794V139.562H120.122V150.484C120.122 151.068 120.32 151.458 120.716 151.656C120.935 151.771 121.3 151.828 121.81 151.828C121.945 151.828 122.091 151.828 122.247 151.828C122.404 151.818 122.586 151.802 122.794 151.781V154C122.471 154.094 122.133 154.161 121.779 154.203C121.435 154.245 121.06 154.266 120.654 154.266C119.341 154.266 118.451 153.932 117.982 153.266C117.513 152.589 117.279 151.714 117.279 150.641V139.562H115.013V137.266H117.279V132.594ZM130.671 136.891C131.859 136.891 133.01 137.172 134.124 137.734C135.239 138.286 136.088 139.005 136.671 139.891C137.234 140.734 137.609 141.719 137.796 142.844C137.963 143.615 138.046 144.844 138.046 146.531H125.781C125.833 148.229 126.234 149.594 126.984 150.625C127.734 151.646 128.895 152.156 130.468 152.156C131.937 152.156 133.109 151.672 133.984 150.703C134.484 150.141 134.838 149.49 135.046 148.75H137.812C137.739 149.365 137.494 150.052 137.077 150.812C136.671 151.562 136.213 152.177 135.702 152.656C134.848 153.49 133.791 154.052 132.531 154.344C131.854 154.51 131.088 154.594 130.234 154.594C128.15 154.594 126.385 153.839 124.937 152.328C123.489 150.807 122.765 148.682 122.765 145.953C122.765 143.266 123.494 141.083 124.952 139.406C126.411 137.729 128.317 136.891 130.671 136.891ZM135.156 144.297C135.041 143.078 134.775 142.104 134.359 141.375C133.588 140.021 132.301 139.344 130.499 139.344C129.208 139.344 128.124 139.812 127.249 140.75C126.374 141.677 125.911 142.859 125.859 144.297H135.156ZM157.034 137.266H160.144C159.748 138.339 158.868 140.786 157.503 144.609C156.482 147.484 155.628 149.828 154.941 151.641C153.316 155.911 152.17 158.516 151.503 159.453C150.836 160.391 149.691 160.859 148.066 160.859C147.67 160.859 147.363 160.844 147.144 160.812C146.935 160.781 146.675 160.724 146.363 160.641V158.078C146.852 158.214 147.206 158.297 147.425 158.328C147.644 158.359 147.836 158.375 148.003 158.375C148.524 158.375 148.904 158.286 149.144 158.109C149.394 157.943 149.602 157.734 149.769 157.484C149.821 157.401 150.008 156.974 150.331 156.203C150.654 155.432 150.889 154.859 151.034 154.484L144.847 137.266H148.034L152.519 150.891L157.034 137.266ZM167.302 152.188C169.166 152.188 170.443 151.484 171.13 150.078C171.828 148.661 172.177 147.089 172.177 145.359C172.177 143.797 171.927 142.526 171.427 141.547C170.635 140.005 169.271 139.234 167.333 139.234C165.614 139.234 164.364 139.891 163.583 141.203C162.802 142.516 162.411 144.099 162.411 145.953C162.411 147.734 162.802 149.219 163.583 150.406C164.364 151.594 165.604 152.188 167.302 152.188ZM167.411 136.781C169.568 136.781 171.39 137.5 172.88 138.938C174.37 140.375 175.114 142.49 175.114 145.281C175.114 147.979 174.458 150.208 173.146 151.969C171.833 153.729 169.797 154.609 167.036 154.609C164.734 154.609 162.906 153.833 161.552 152.281C160.198 150.719 159.521 148.625 159.521 146C159.521 143.188 160.234 140.948 161.661 139.281C163.088 137.615 165.005 136.781 167.411 136.781ZM179.366 137.266V148.375C179.366 149.229 179.502 149.927 179.773 150.469C180.273 151.469 181.205 151.969 182.569 151.969C184.528 151.969 185.861 151.094 186.569 149.344C186.955 148.406 187.148 147.12 187.148 145.484V137.266H189.96V154H187.304L187.335 151.531C186.97 152.167 186.517 152.703 185.976 153.141C184.903 154.016 183.601 154.453 182.069 154.453C179.684 154.453 178.059 153.656 177.194 152.062C176.726 151.208 176.491 150.068 176.491 148.641V137.266H179.366ZM192.524 137.266H195.196V140.156C195.415 139.594 195.951 138.911 196.806 138.109C197.66 137.297 198.644 136.891 199.759 136.891C199.811 136.891 199.899 136.896 200.024 136.906C200.149 136.917 200.363 136.938 200.665 136.969V139.938C200.498 139.906 200.342 139.885 200.196 139.875C200.061 139.865 199.91 139.859 199.743 139.859C198.326 139.859 197.238 140.318 196.477 141.234C195.717 142.141 195.337 143.188 195.337 144.375V154H192.524V137.266ZM214.809 152.188C216.674 152.188 217.95 151.484 218.637 150.078C219.335 148.661 219.684 147.089 219.684 145.359C219.684 143.797 219.434 142.526 218.934 141.547C218.143 140.005 216.778 139.234 214.841 139.234C213.122 139.234 211.872 139.891 211.091 141.203C210.309 142.516 209.919 144.099 209.919 145.953C209.919 147.734 210.309 149.219 211.091 150.406C211.872 151.594 213.111 152.188 214.809 152.188ZM214.919 136.781C217.075 136.781 218.898 137.5 220.387 138.938C221.877 140.375 222.622 142.49 222.622 145.281C222.622 147.979 221.966 150.208 220.653 151.969C219.341 153.729 217.304 154.609 214.544 154.609C212.242 154.609 210.414 153.833 209.059 152.281C207.705 150.719 207.028 148.625 207.028 146C207.028 143.188 207.742 140.948 209.169 139.281C210.596 137.615 212.512 136.781 214.919 136.781ZM231.124 152.109C232.436 152.109 233.525 151.562 234.389 150.469C235.264 149.365 235.702 147.719 235.702 145.531C235.702 144.198 235.509 143.052 235.124 142.094C234.395 140.25 233.061 139.328 231.124 139.328C229.176 139.328 227.842 140.302 227.124 142.25C226.738 143.292 226.546 144.615 226.546 146.219C226.546 147.51 226.738 148.609 227.124 149.516C227.853 151.245 229.186 152.109 231.124 152.109ZM223.842 137.344H226.577V139.562C227.139 138.802 227.754 138.214 228.421 137.797C229.369 137.172 230.483 136.859 231.764 136.859C233.66 136.859 235.27 137.589 236.592 139.047C237.915 140.495 238.577 142.568 238.577 145.266C238.577 148.911 237.624 151.516 235.717 153.078C234.509 154.068 233.103 154.562 231.499 154.562C230.238 154.562 229.181 154.286 228.327 153.734C227.827 153.422 227.27 152.885 226.655 152.125V160.672H223.842V137.344ZM247.016 152.109C248.329 152.109 249.417 151.562 250.282 150.469C251.157 149.365 251.594 147.719 251.594 145.531C251.594 144.198 251.402 143.052 251.016 142.094C250.287 140.25 248.954 139.328 247.016 139.328C245.068 139.328 243.735 140.302 243.016 142.25C242.631 143.292 242.438 144.615 242.438 146.219C242.438 147.51 242.631 148.609 243.016 149.516C243.745 151.245 245.079 152.109 247.016 152.109ZM239.735 137.344H242.469V139.562C243.032 138.802 243.646 138.214 244.313 137.797C245.261 137.172 246.376 136.859 247.657 136.859C249.553 136.859 251.162 137.589 252.485 139.047C253.808 140.495 254.469 142.568 254.469 145.266C254.469 148.911 253.516 151.516 251.61 153.078C250.402 154.068 248.995 154.562 247.391 154.562C246.131 154.562 245.074 154.286 244.219 153.734C243.719 153.422 243.162 152.885 242.548 152.125V160.672H239.735V137.344ZM262.487 152.188C264.351 152.188 265.628 151.484 266.315 150.078C267.013 148.661 267.362 147.089 267.362 145.359C267.362 143.797 267.112 142.526 266.612 141.547C265.82 140.005 264.456 139.234 262.518 139.234C260.799 139.234 259.549 139.891 258.768 141.203C257.987 142.516 257.596 144.099 257.596 145.953C257.596 147.734 257.987 149.219 258.768 150.406C259.549 151.594 260.789 152.188 262.487 152.188ZM262.596 136.781C264.753 136.781 266.575 137.5 268.065 138.938C269.555 140.375 270.299 142.49 270.299 145.281C270.299 147.979 269.643 150.208 268.331 151.969C267.018 153.729 264.982 154.609 262.221 154.609C259.919 154.609 258.091 153.833 256.737 152.281C255.383 150.719 254.706 148.625 254.706 146C254.706 143.188 255.419 140.948 256.846 139.281C258.273 137.615 260.19 136.781 262.596 136.781ZM271.739 137.266H274.411V139.641C275.202 138.661 276.041 137.958 276.926 137.531C277.812 137.104 278.796 136.891 279.879 136.891C282.254 136.891 283.859 137.719 284.692 139.375C285.15 140.281 285.379 141.578 285.379 143.266V154H282.52V143.453C282.52 142.432 282.369 141.609 282.067 140.984C281.567 139.943 280.661 139.422 279.348 139.422C278.681 139.422 278.135 139.49 277.707 139.625C276.937 139.854 276.26 140.312 275.676 141C275.207 141.552 274.9 142.125 274.754 142.719C274.619 143.302 274.551 144.141 274.551 145.234V154H271.739V137.266ZM294.6 136.891C295.788 136.891 296.939 137.172 298.053 137.734C299.168 138.286 300.017 139.005 300.6 139.891C301.163 140.734 301.538 141.719 301.725 142.844C301.892 143.615 301.975 144.844 301.975 146.531H289.709C289.761 148.229 290.163 149.594 290.913 150.625C291.663 151.646 292.824 152.156 294.397 152.156C295.866 152.156 297.038 151.672 297.913 150.703C298.413 150.141 298.767 149.49 298.975 148.75H301.741C301.668 149.365 301.423 150.052 301.006 150.812C300.6 151.562 300.142 152.177 299.631 152.656C298.777 153.49 297.72 154.052 296.459 154.344C295.782 154.51 295.017 154.594 294.163 154.594C292.079 154.594 290.314 153.839 288.866 152.328C287.418 150.807 286.694 148.682 286.694 145.953C286.694 143.266 287.423 141.083 288.881 139.406C290.34 137.729 292.246 136.891 294.6 136.891ZM299.084 144.297C298.97 143.078 298.704 142.104 298.288 141.375C297.517 140.021 296.23 139.344 294.428 139.344C293.136 139.344 292.053 139.812 291.178 140.75C290.303 141.677 289.84 142.859 289.788 144.297H299.084ZM303.524 137.266H306.196V139.641C306.987 138.661 307.826 137.958 308.711 137.531C309.597 137.104 310.581 136.891 311.664 136.891C314.039 136.891 315.644 137.719 316.477 139.375C316.935 140.281 317.164 141.578 317.164 143.266V154H314.305V143.453C314.305 142.432 314.154 141.609 313.852 140.984C313.352 139.943 312.446 139.422 311.133 139.422C310.466 139.422 309.92 139.49 309.492 139.625C308.722 139.854 308.045 140.312 307.461 141C306.992 141.552 306.685 142.125 306.539 142.719C306.404 143.302 306.336 144.141 306.336 145.234V154H303.524V137.266ZM319.979 132.594H322.823V137.266H325.494V139.562H322.823V150.484C322.823 151.068 323.02 151.458 323.416 151.656C323.635 151.771 324 151.828 324.51 151.828C324.645 151.828 324.791 151.828 324.948 151.828C325.104 151.818 325.286 151.802 325.494 151.781V154C325.171 154.094 324.833 154.161 324.479 154.203C324.135 154.245 323.76 154.266 323.354 154.266C322.041 154.266 321.151 153.932 320.682 153.266C320.213 152.589 319.979 151.714 319.979 150.641V139.562H317.713V137.266H319.979V132.594ZM328.074 148.75C328.158 149.688 328.392 150.406 328.777 150.906C329.486 151.812 330.715 152.266 332.465 152.266C333.507 152.266 334.423 152.042 335.215 151.594C336.007 151.135 336.402 150.432 336.402 149.484C336.402 148.766 336.085 148.219 335.449 147.844C335.043 147.615 334.241 147.349 333.043 147.047L330.809 146.484C329.382 146.13 328.33 145.734 327.652 145.297C326.444 144.536 325.84 143.484 325.84 142.141C325.84 140.557 326.408 139.276 327.543 138.297C328.689 137.318 330.225 136.828 332.152 136.828C334.673 136.828 336.491 137.568 337.606 139.047C338.304 139.984 338.642 140.995 338.621 142.078H335.965C335.913 141.443 335.689 140.865 335.293 140.344C334.647 139.604 333.527 139.234 331.934 139.234C330.871 139.234 330.064 139.438 329.512 139.844C328.97 140.25 328.699 140.786 328.699 141.453C328.699 142.182 329.059 142.766 329.777 143.203C330.194 143.464 330.809 143.693 331.621 143.891L333.481 144.344C335.501 144.833 336.856 145.307 337.543 145.766C338.637 146.484 339.184 147.615 339.184 149.156C339.184 150.646 338.616 151.932 337.481 153.016C336.356 154.099 334.637 154.641 332.324 154.641C329.835 154.641 328.069 154.078 327.027 152.953C325.996 151.818 325.444 150.417 325.371 148.75H328.074ZM341.076 157.266C341.795 157.141 342.3 156.635 342.592 155.75C342.748 155.281 342.826 154.828 342.826 154.391C342.826 154.318 342.821 154.25 342.811 154.188C342.811 154.135 342.8 154.073 342.779 154H341.076V150.594H344.42V153.75C344.42 154.99 344.17 156.078 343.67 157.016C343.17 157.953 342.305 158.531 341.076 158.75V157.266ZM354.533 137.266H357.205V140.156C357.424 139.594 357.96 138.911 358.814 138.109C359.669 137.297 360.653 136.891 361.767 136.891C361.82 136.891 361.908 136.896 362.033 136.906C362.158 136.917 362.372 136.938 362.674 136.969V139.938C362.507 139.906 362.351 139.885 362.205 139.875C362.07 139.865 361.919 139.859 361.752 139.859C360.335 139.859 359.247 140.318 358.486 141.234C357.726 142.141 357.346 143.188 357.346 144.375V154H354.533V137.266ZM366.004 137.266V148.375C366.004 149.229 366.139 149.927 366.41 150.469C366.91 151.469 367.842 151.969 369.207 151.969C371.165 151.969 372.499 151.094 373.207 149.344C373.592 148.406 373.785 147.12 373.785 145.484V137.266H376.598V154H373.941L373.973 151.531C373.608 152.167 373.155 152.703 372.613 153.141C371.54 154.016 370.238 154.453 368.707 154.453C366.321 154.453 364.696 153.656 363.832 152.062C363.363 151.208 363.129 150.068 363.129 148.641V137.266H366.004ZM379.162 131.047H381.974V154H379.162V131.047ZM391.258 136.891C392.445 136.891 393.596 137.172 394.711 137.734C395.825 138.286 396.674 139.005 397.258 139.891C397.82 140.734 398.195 141.719 398.383 142.844C398.549 143.615 398.633 144.844 398.633 146.531H386.367C386.419 148.229 386.82 149.594 387.57 150.625C388.32 151.646 389.481 152.156 391.054 152.156C392.523 152.156 393.695 151.672 394.57 150.703C395.07 150.141 395.424 149.49 395.633 148.75H398.398C398.325 149.365 398.08 150.052 397.664 150.812C397.258 151.562 396.799 152.177 396.289 152.656C395.435 153.49 394.377 154.052 393.117 154.344C392.44 154.51 391.674 154.594 390.82 154.594C388.737 154.594 386.971 153.839 385.523 152.328C384.075 150.807 383.351 148.682 383.351 145.953C383.351 143.266 384.08 141.083 385.539 139.406C386.997 137.729 388.903 136.891 391.258 136.891ZM395.742 144.297C395.627 143.078 395.362 142.104 394.945 141.375C394.174 140.021 392.888 139.344 391.086 139.344C389.794 139.344 388.711 139.812 387.836 140.75C386.961 141.677 386.497 142.859 386.445 144.297H395.742ZM407.73 132.594H410.574V137.266H413.246V139.562H410.574V150.484C410.574 151.068 410.772 151.458 411.168 151.656C411.386 151.771 411.751 151.828 412.261 151.828C412.397 151.828 412.543 151.828 412.699 151.828C412.855 151.818 413.037 151.802 413.246 151.781V154C412.923 154.094 412.584 154.161 412.23 154.203C411.886 154.245 411.511 154.266 411.105 154.266C409.793 154.266 408.902 153.932 408.433 153.266C407.964 152.589 407.73 151.714 407.73 150.641V139.562H405.464V137.266H407.73V132.594ZM414.154 130.969H416.966V139.531C417.633 138.688 418.232 138.094 418.763 137.75C419.669 137.156 420.8 136.859 422.154 136.859C424.581 136.859 426.227 137.708 427.091 139.406C427.56 140.333 427.794 141.62 427.794 143.266V154H424.904V143.453C424.904 142.224 424.747 141.323 424.435 140.75C423.925 139.833 422.966 139.375 421.56 139.375C420.393 139.375 419.336 139.776 418.388 140.578C417.44 141.38 416.966 142.896 416.966 145.125V154H414.154V130.969ZM437.015 136.891C438.203 136.891 439.354 137.172 440.468 137.734C441.583 138.286 442.432 139.005 443.015 139.891C443.578 140.734 443.953 141.719 444.14 142.844C444.307 143.615 444.39 144.844 444.39 146.531H432.124C432.176 148.229 432.578 149.594 433.328 150.625C434.078 151.646 435.239 152.156 436.812 152.156C438.281 152.156 439.453 151.672 440.328 150.703C440.828 150.141 441.182 149.49 441.39 148.75H444.156C444.083 149.365 443.838 150.052 443.421 150.812C443.015 151.562 442.557 152.177 442.046 152.656C441.192 153.49 440.135 154.052 438.874 154.344C438.197 154.51 437.432 154.594 436.578 154.594C434.494 154.594 432.729 153.839 431.281 152.328C429.833 150.807 429.109 148.682 429.109 145.953C429.109 143.266 429.838 141.083 431.296 139.406C432.755 137.729 434.661 136.891 437.015 136.891ZM441.499 144.297C441.385 143.078 441.119 142.104 440.703 141.375C439.932 140.021 438.645 139.344 436.843 139.344C435.551 139.344 434.468 139.812 433.593 140.75C432.718 141.677 432.255 142.859 432.203 144.297H441.499ZM452.706 130.969H455.441V139.297C456.055 138.495 456.79 137.885 457.644 137.469C458.498 137.042 459.425 136.828 460.425 136.828C462.508 136.828 464.196 137.547 465.487 138.984C466.79 140.411 467.441 142.521 467.441 145.312C467.441 147.958 466.8 150.156 465.519 151.906C464.237 153.656 462.461 154.531 460.191 154.531C458.92 154.531 457.847 154.224 456.972 153.609C456.451 153.245 455.894 152.661 455.3 151.859V154H452.706V130.969ZM460.019 152.047C461.54 152.047 462.675 151.443 463.425 150.234C464.185 149.026 464.566 147.432 464.566 145.453C464.566 143.693 464.185 142.234 463.425 141.078C462.675 139.922 461.566 139.344 460.097 139.344C458.816 139.344 457.691 139.818 456.722 140.766C455.764 141.714 455.284 143.276 455.284 145.453C455.284 147.026 455.482 148.302 455.878 149.281C456.618 151.125 457.998 152.047 460.019 152.047ZM475.458 152.188C477.323 152.188 478.599 151.484 479.286 150.078C479.984 148.661 480.333 147.089 480.333 145.359C480.333 143.797 480.083 142.526 479.583 141.547C478.791 140.005 477.427 139.234 475.489 139.234C473.771 139.234 472.521 139.891 471.739 141.203C470.958 142.516 470.568 144.099 470.568 145.953C470.568 147.734 470.958 149.219 471.739 150.406C472.521 151.594 473.76 152.188 475.458 152.188ZM475.568 136.781C477.724 136.781 479.547 137.5 481.036 138.938C482.526 140.375 483.271 142.49 483.271 145.281C483.271 147.979 482.614 150.208 481.302 151.969C479.989 153.729 477.953 154.609 475.193 154.609C472.89 154.609 471.062 153.833 469.708 152.281C468.354 150.719 467.677 148.625 467.677 146C467.677 143.188 468.39 140.948 469.818 139.281C471.245 137.615 473.161 136.781 475.568 136.781ZM486.866 149.547C486.866 150.359 487.163 151 487.757 151.469C488.351 151.938 489.054 152.172 489.866 152.172C490.856 152.172 491.814 151.943 492.741 151.484C494.304 150.724 495.085 149.479 495.085 147.75V145.484C494.741 145.703 494.299 145.885 493.757 146.031C493.215 146.177 492.684 146.281 492.163 146.344L490.46 146.562C489.439 146.698 488.674 146.911 488.163 147.203C487.299 147.693 486.866 148.474 486.866 149.547ZM493.679 143.859C494.325 143.776 494.757 143.505 494.976 143.047C495.101 142.797 495.163 142.438 495.163 141.969C495.163 141.01 494.819 140.318 494.132 139.891C493.455 139.453 492.481 139.234 491.21 139.234C489.741 139.234 488.7 139.63 488.085 140.422C487.741 140.859 487.517 141.51 487.413 142.375H484.788C484.84 140.312 485.507 138.88 486.788 138.078C488.08 137.266 489.575 136.859 491.272 136.859C493.241 136.859 494.84 137.234 496.069 137.984C497.288 138.734 497.897 139.901 497.897 141.484V151.125C497.897 151.417 497.955 151.651 498.069 151.828C498.194 152.005 498.45 152.094 498.835 152.094C498.96 152.094 499.101 152.089 499.257 152.078C499.413 152.057 499.58 152.031 499.757 152V154.078C499.319 154.203 498.986 154.281 498.757 154.312C498.528 154.344 498.215 154.359 497.819 154.359C496.851 154.359 496.147 154.016 495.71 153.328C495.481 152.964 495.319 152.448 495.226 151.781C494.653 152.531 493.83 153.182 492.757 153.734C491.684 154.286 490.502 154.562 489.21 154.562C487.658 154.562 486.387 154.094 485.397 153.156C484.418 152.208 483.929 151.026 483.929 149.609C483.929 148.057 484.413 146.854 485.382 146C486.351 145.146 487.621 144.62 489.194 144.422L493.679 143.859ZM500.681 137.266H503.353V140.156C503.571 139.594 504.108 138.911 504.962 138.109C505.816 137.297 506.8 136.891 507.915 136.891C507.967 136.891 508.056 136.896 508.181 136.906C508.306 136.917 508.519 136.938 508.821 136.969V139.938C508.655 139.906 508.498 139.885 508.353 139.875C508.217 139.865 508.066 139.859 507.899 139.859C506.483 139.859 505.394 140.318 504.634 141.234C503.873 142.141 503.493 143.188 503.493 144.375V154H500.681V137.266ZM511.12 145.828C511.12 147.62 511.5 149.12 512.261 150.328C513.021 151.536 514.24 152.141 515.917 152.141C517.219 152.141 518.287 151.583 519.12 150.469C519.964 149.344 520.386 147.734 520.386 145.641C520.386 143.526 519.953 141.964 519.089 140.953C518.224 139.932 517.156 139.422 515.886 139.422C514.469 139.422 513.318 139.964 512.432 141.047C511.557 142.13 511.12 143.724 511.12 145.828ZM515.354 136.969C516.636 136.969 517.709 137.24 518.573 137.781C519.073 138.094 519.641 138.641 520.276 139.422V130.969H522.979V154H520.448V151.672C519.792 152.703 519.016 153.448 518.12 153.906C517.224 154.365 516.198 154.594 515.042 154.594C513.177 154.594 511.563 153.812 510.198 152.25C508.834 150.677 508.151 148.589 508.151 145.984C508.151 143.547 508.771 141.438 510.011 139.656C511.261 137.865 513.042 136.969 515.354 136.969ZM525.903 150.594H529.169V154H525.903V150.594Z" fill="black"/>
</svg>
