<svg width="1280" height="181" viewBox="0 0 1280 181" fill="none" xmlns="http://www.w3.org/2000/svg">
<path d="M418.64 126.6L438.68 49.92C438.92 48.96 439.16 48 439.16 47.04C439.16 44.28 437.12 43.68 434.72 43.68C433.76 43.68 432.8 43.68 431.84 43.8C430.88 43.92 430.4 43.44 430.64 42.6C430.88 41.76 431.6 41.04 432.56 41.04C436.88 40.56 441.08 39.96 445.28 39.24C448.64 38.64 450.32 40.44 449.48 43.68L440.96 75.6C445.28 71.88 451.04 69.6 456.8 69.6C466.28 69.6 468.92 78.36 468.92 86.4C468.92 103.2 456.32 129.72 437.12 129.72C432.32 129.72 429.2 125.4 425.72 125.4C423.44 125.4 421.88 126.36 420.56 127.56C418.16 129.84 417.8 129.84 418.64 126.6ZM431.48 116.52C431.48 120.84 432.68 126.36 437.96 126.36C451.52 126.36 458.6 100.32 458.6 89.64C458.6 83.16 456.92 74.88 448.88 74.88C445.76 74.88 442.76 76.44 440.48 78.48C438.44 85.44 431.48 109.92 431.48 116.52ZM464.122 109.56C464.122 93.12 477.322 69.6 495.802 69.6C507.442 69.6 512.242 79.44 512.242 89.76C512.242 106.2 498.802 129.72 480.442 129.72C468.802 129.72 464.122 119.88 464.122 109.56ZM483.082 126.72C497.602 126.72 501.802 99.72 501.802 89.04C501.802 83.76 501.082 72.48 493.642 72.48C478.642 72.48 474.562 98.64 474.562 109.68C474.562 115.32 475.282 126.72 483.082 126.72ZM506.635 117.96C506.635 101.64 525.955 93.12 540.115 94.56C541.555 88.68 543.475 82.8 543.475 76.8C543.475 74.04 543.115 72.6 540.115 72.6C533.755 72.6 527.395 81.24 525.115 87.72C524.515 89.4 523.075 90.6 521.275 90.6H519.595C516.835 90.6 515.395 88.8 516.475 86.4C520.555 77.04 530.035 69.24 540.355 69.24C547.675 69.24 551.515 73.68 551.515 80.88C551.515 83.16 551.035 85.44 550.555 87.72L542.515 118.68L542.155 121.44C542.155 122.64 542.515 124.44 544.075 124.44C546.115 124.44 548.035 120 549.115 117.36C549.475 116.52 550.195 116.16 551.035 116.28C551.755 116.52 552.115 117.12 551.755 117.84C549.355 123.48 547.075 129 539.755 129C535.675 129 532.675 127.32 532.675 122.88C532.675 121.68 532.915 120.36 533.155 119.16C529.315 124.32 523.555 129.84 516.715 129.84C510.115 129.84 506.635 123.96 506.635 117.96ZM522.595 122.4C526.795 122.4 531.355 117.12 533.755 114C537.115 109.8 537.955 102.72 539.155 97.56C538.555 97.44 537.955 97.44 537.355 97.44C528.595 97.44 516.355 103.92 516.355 113.88C516.355 117.48 518.275 122.4 522.595 122.4ZM543.993 127.8C544.113 127.08 544.713 126.48 545.433 126.36C550.833 125.28 553.113 124.68 554.793 118.32L563.793 83.76C564.273 81.84 564.753 79.92 564.753 78C564.753 74.28 562.473 73.2 559.473 72.96C558.633 72.84 558.273 72.36 558.393 71.52C558.633 70.68 559.233 70.08 560.073 70.08L571.953 69.96C574.833 69.96 576.273 71.76 575.553 74.4C574.113 79.8 572.673 85.2 571.233 90.6C574.233 84.84 582.393 70.32 589.713 70.32C594.753 70.32 597.153 75 597.153 79.56C597.153 84 594.393 90.72 589.113 90.72C586.593 90.72 585.513 88.44 585.513 86.16C585.513 82.08 588.633 78.36 588.633 75.84C588.633 75 587.433 75 586.833 75C580.953 75 568.953 101.04 566.913 107.52C566.193 109.56 563.553 120.48 563.553 122.16C563.553 125.4 566.553 126 569.193 126.48C569.913 126.6 570.153 127.08 570.033 127.8C569.793 128.52 569.193 129 568.473 129H544.833C544.113 129 543.753 128.52 543.993 127.8ZM587.986 112.8C587.986 97.08 601.546 69.36 618.826 69.36C622.666 69.36 625.786 71.88 627.706 75L633.466 52.68C634.066 50.76 634.426 48.84 634.426 46.92C634.426 43.44 632.386 42.48 629.266 42.48C628.546 42.48 627.946 42.48 627.226 42.6C626.266 42.6 625.786 42.12 626.026 41.28C626.266 40.32 626.986 39.72 627.826 39.6L641.506 38.52C644.506 38.28 645.946 40.08 645.226 43.08L626.266 115.56C625.786 117.72 624.826 119.88 624.826 122.04C624.826 123.48 625.306 124.44 626.866 124.44C628.906 124.44 630.826 120 631.906 117.36C632.266 116.52 632.986 116.16 633.826 116.28C634.666 116.52 634.906 117.12 634.546 117.84C632.146 123.48 629.866 129 622.546 129C618.346 129 615.466 127.2 615.586 122.64C611.266 126.36 605.746 129.6 599.986 129.6C590.746 129.6 587.986 120.6 587.986 112.8ZM606.586 122.28C609.946 122.28 613.306 121.2 616.186 119.28C618.946 106.32 622.666 93.6 626.146 80.88C625.306 76.68 622.786 72.72 617.986 72.72C609.106 72.72 601.786 91.32 599.986 98.52C599.146 102 598.546 105.72 598.546 109.32C598.546 114.6 599.746 122.28 606.586 122.28ZM637.177 124.68C637.177 120.72 641.137 116.52 645.217 116.52C647.977 116.52 649.897 118.68 649.897 121.44C649.897 125.52 645.937 129.72 641.857 129.72C638.977 129.72 637.177 127.44 637.177 124.68Z" fill="black"/>
<path d="M63.6719 128H51.123L28.0762 99.0938H17.041V128H7.37305V55.2949H26.123C30.2897 55.2949 33.7728 55.5228 36.5723 55.9785C39.4043 56.4342 42.0898 57.4922 44.6289 59.1523C47.168 60.7799 49.1699 62.8796 50.6348 65.4512C52.1322 68.0228 52.8809 71.2129 52.8809 75.0215C52.8809 80.36 51.5299 84.8197 48.8281 88.4004C46.1263 91.9811 42.4479 94.6341 37.793 96.3594L63.6719 128ZM42.7734 75.7539C42.7734 73.638 42.3991 71.7663 41.6504 70.1387C40.9017 68.4785 39.7461 67.1276 38.1836 66.0859C36.8164 65.1745 35.2214 64.5397 33.3984 64.1816C31.5755 63.791 29.3132 63.5957 26.6113 63.5957H17.041V91.0371H25.5371C28.304 91.0371 30.7943 90.793 33.0078 90.3047C35.2214 89.8164 37.1094 88.8073 38.6719 87.2773C40.0716 85.9102 41.097 84.2826 41.748 82.3945C42.4316 80.5065 42.7734 78.293 42.7734 75.7539ZM86.873 129.514C82.6087 129.514 78.8815 128.96 75.6914 127.854C72.5013 126.714 69.7832 125.038 67.5371 122.824C64.998 120.285 63.2077 117.258 62.166 113.742C61.1243 110.194 60.6035 105.832 60.6035 100.656V55.2949H70.2715V100.656C70.2715 104.009 70.4831 106.841 70.9062 109.152C71.3294 111.431 72.1595 113.482 73.3965 115.305C74.6986 117.258 76.4564 118.739 78.6699 119.748C80.916 120.757 83.6504 121.262 86.873 121.262C89.9004 121.262 92.5859 120.757 94.9297 119.748C97.2734 118.739 99.0964 117.258 100.398 115.305C101.603 113.449 102.417 111.398 102.84 109.152C103.296 106.906 103.523 104.156 103.523 100.9V55.2949H113.191V100.656C113.191 105.702 112.671 110.031 111.629 113.645C110.62 117.258 108.829 120.318 106.258 122.824C103.947 125.07 101.245 126.747 98.1523 127.854C95.0924 128.96 91.3327 129.514 86.873 129.514ZM161.246 128H119.107V55.2949H128.775V119.406H161.246V128ZM160.912 128V55.2949H206.371V63.8887H170.58V83.8105H203.93V92.4043H170.58V119.406H206.371V128H160.912ZM249.307 128V63.8887H224.893V55.2949H283.389V63.8887H258.975V128H249.307ZM335.496 128H325.828V92.4043H292.381V128H282.713V55.2949H292.381V83.8105H325.828V55.2949H335.496V128ZM342.291 128V55.2949H387.75V63.8887H351.959V83.8105H385.309V92.4043H351.959V119.406H387.75V128H342.291Z" fill="black"/>
</svg>
