<svg width="1605" height="575" viewBox="0 0 1605 575" fill="none" xmlns="http://www.w3.org/2000/svg">
<path d="M8.54492 20.2715H40.8203C47.2005 20.2715 52.3438 22.0781 56.25 25.6914C60.1562 29.2721 62.1094 34.3177 62.1094 40.8281C62.1094 46.4271 60.3678 51.3099 56.8848 55.4766C53.4017 59.6107 48.0469 61.6777 40.8203 61.6777H18.2617V92H8.54492V20.2715ZM52.2949 40.877C52.2949 35.6035 50.3418 32.0228 46.4355 30.1348C44.2871 29.1257 41.3411 28.6211 37.5977 28.6211H18.2617V53.4746H37.5977C41.9596 53.4746 45.4915 52.5469 48.1934 50.6914C50.9277 48.8359 52.2949 45.5645 52.2949 40.877ZM67.3887 39.7051H75.7383V48.7383C76.4219 46.9805 78.0983 44.8483 80.7676 42.3418C83.4368 39.8027 86.513 38.5332 89.9961 38.5332C90.1589 38.5332 90.4355 38.5495 90.8262 38.582C91.2168 38.6146 91.8841 38.6797 92.8281 38.7773V48.0547C92.3073 47.957 91.819 47.8919 91.3633 47.8594C90.9401 47.8268 90.4681 47.8105 89.9473 47.8105C85.5202 47.8105 82.1185 49.2428 79.7422 52.1074C77.3659 54.9395 76.1777 58.2109 76.1777 61.9219V92H67.3887V39.7051ZM115.197 86.3359C121.024 86.3359 125.012 84.1387 127.16 79.7441C129.341 75.3171 130.432 70.4017 130.432 64.998C130.432 60.1152 129.65 56.1439 128.088 53.084C125.614 48.2663 121.35 45.8574 115.295 45.8574C109.924 45.8574 106.018 47.9082 103.576 52.0098C101.135 56.1113 99.9141 61.0592 99.9141 66.8535C99.9141 72.4199 101.135 77.0586 103.576 80.7695C106.018 84.4805 109.891 86.3359 115.197 86.3359ZM115.539 38.1914C122.277 38.1914 127.974 40.4375 132.629 44.9297C137.284 49.4219 139.611 56.0299 139.611 64.7539C139.611 73.1849 137.561 80.151 133.459 85.6523C129.357 91.1536 122.993 93.9043 114.367 93.9043C107.173 93.9043 101.46 91.4792 97.2285 86.6289C92.9967 81.7461 90.8809 75.2031 90.8809 67C90.8809 58.2109 93.1107 51.2122 97.5703 46.0039C102.03 40.7956 108.02 38.1914 115.539 38.1914ZM162.566 38.7773C166.668 38.7773 170.249 39.7865 173.309 41.8047C174.969 42.944 176.661 44.6042 178.387 46.7852V40.1934H186.492V87.752C186.492 94.3926 185.516 99.6335 183.562 103.475C179.917 110.571 173.032 114.119 162.908 114.119C157.277 114.119 152.54 112.85 148.699 110.311C144.858 107.804 142.71 103.865 142.254 98.4941H151.189C151.613 100.838 152.459 102.645 153.729 103.914C155.714 105.867 158.839 106.844 163.104 106.844C169.842 106.844 174.253 104.467 176.336 99.7148C177.573 96.9154 178.143 91.9186 178.045 84.7246C176.287 87.3939 174.171 89.3796 171.697 90.6816C169.223 91.9837 165.952 92.6348 161.883 92.6348C156.219 92.6348 151.255 90.6328 146.99 86.6289C142.758 82.5924 140.643 75.9355 140.643 66.6582C140.643 57.9017 142.775 51.0658 147.039 46.1504C151.336 41.235 156.512 38.7773 162.566 38.7773ZM178.387 65.6328C178.387 59.1549 177.052 54.3535 174.383 51.2285C171.714 48.1035 168.312 46.541 164.178 46.541C157.993 46.541 153.761 49.4382 151.482 55.2324C150.278 58.3249 149.676 62.3776 149.676 67.3906C149.676 73.2826 150.864 77.7747 153.24 80.8672C155.649 83.9271 158.872 85.457 162.908 85.457C169.223 85.457 173.667 82.6087 176.238 76.9121C177.671 73.6895 178.387 69.9297 178.387 65.6328ZM194.018 39.7051H202.367V48.7383C203.051 46.9805 204.727 44.8483 207.396 42.3418C210.066 39.8027 213.142 38.5332 216.625 38.5332C216.788 38.5332 217.064 38.5495 217.455 38.582C217.846 38.6146 218.513 38.6797 219.457 38.7773V48.0547C218.936 47.957 218.448 47.8919 217.992 47.8594C217.569 47.8268 217.097 47.8105 216.576 47.8105C212.149 47.8105 208.747 49.2428 206.371 52.1074C203.995 54.9395 202.807 58.2109 202.807 61.9219V92H194.018V39.7051ZM227.812 78.084C227.812 80.623 228.74 82.625 230.596 84.0898C232.451 85.5547 234.648 86.2871 237.188 86.2871C240.28 86.2871 243.275 85.571 246.172 84.1387C251.055 81.7624 253.496 77.8724 253.496 72.4688V65.3887C252.422 66.0723 251.038 66.6419 249.346 67.0977C247.653 67.5534 245.993 67.8789 244.365 68.0742L239.043 68.7578C235.853 69.181 233.46 69.8483 231.865 70.7598C229.163 72.2897 227.812 74.7311 227.812 78.084ZM249.102 60.3105C251.12 60.0501 252.471 59.2038 253.154 57.7715C253.545 56.9902 253.74 55.8672 253.74 54.4023C253.74 51.4076 252.666 49.2428 250.518 47.9082C248.402 46.541 245.358 45.8574 241.387 45.8574C236.797 45.8574 233.542 47.0944 231.621 49.5684C230.547 50.9355 229.847 52.9701 229.521 55.6719H221.318C221.481 49.2266 223.564 44.7507 227.568 42.2441C231.605 39.7051 236.276 38.4355 241.582 38.4355C247.734 38.4355 252.731 39.6074 256.572 41.9512C260.381 44.2949 262.285 47.9408 262.285 52.8887V83.0156C262.285 83.9271 262.464 84.6595 262.822 85.2129C263.213 85.7663 264.01 86.043 265.215 86.043C265.605 86.043 266.045 86.0267 266.533 85.9941C267.021 85.929 267.542 85.8477 268.096 85.75V92.2441C266.729 92.6348 265.687 92.8789 264.971 92.9766C264.255 93.0742 263.278 93.123 262.041 93.123C259.014 93.123 256.816 92.0488 255.449 89.9004C254.733 88.7611 254.229 87.1497 253.936 85.0664C252.145 87.4102 249.574 89.4447 246.221 91.1699C242.868 92.8952 239.173 93.7578 235.137 93.7578C230.286 93.7578 226.315 92.293 223.223 89.3633C220.163 86.401 218.633 82.7064 218.633 78.2793C218.633 73.429 220.146 69.6693 223.174 67C226.201 64.3307 230.173 62.6868 235.088 62.0684L249.102 60.3105ZM270.738 39.7051H279.43V47.127C281.513 44.5553 283.401 42.6836 285.094 41.5117C287.991 39.526 291.279 38.5332 294.957 38.5332C299.124 38.5332 302.477 39.5586 305.016 41.6094C306.448 42.7812 307.75 44.5065 308.922 46.7852C310.875 43.9857 313.17 41.9186 315.807 40.584C318.443 39.2168 321.406 38.5332 324.693 38.5332C331.725 38.5332 336.51 41.0723 339.049 46.1504C340.416 48.8848 341.1 52.5632 341.1 57.1855V92H331.969V55.6719C331.969 52.1888 331.09 49.7962 329.332 48.4941C327.607 47.1921 325.491 46.541 322.984 46.541C319.534 46.541 316.555 47.6966 314.049 50.0078C311.575 52.319 310.338 56.1764 310.338 61.5801V92H301.402V57.8691C301.402 54.321 300.979 51.7331 300.133 50.1055C298.798 47.6641 296.308 46.4434 292.662 46.4434C289.342 46.4434 286.314 47.7292 283.58 50.3008C280.878 52.8724 279.527 57.5273 279.527 64.2656V92H270.738V39.7051ZM348.039 39.7051H356.73V47.127C358.814 44.5553 360.702 42.6836 362.395 41.5117C365.292 39.526 368.579 38.5332 372.258 38.5332C376.424 38.5332 379.777 39.5586 382.316 41.6094C383.749 42.7812 385.051 44.5065 386.223 46.7852C388.176 43.9857 390.471 41.9186 393.107 40.584C395.744 39.2168 398.706 38.5332 401.994 38.5332C409.025 38.5332 413.811 41.0723 416.35 46.1504C417.717 48.8848 418.4 52.5632 418.4 57.1855V92H409.27V55.6719C409.27 52.1888 408.391 49.7962 406.633 48.4941C404.908 47.1921 402.792 46.541 400.285 46.541C396.835 46.541 393.856 47.6966 391.35 50.0078C388.876 52.319 387.639 56.1764 387.639 61.5801V92H378.703V57.8691C378.703 54.321 378.28 51.7331 377.434 50.1055C376.099 47.6641 373.609 46.4434 369.963 46.4434C366.643 46.4434 363.615 47.7292 360.881 50.3008C358.179 52.8724 356.828 57.5273 356.828 64.2656V92H348.039V39.7051ZM447.117 38.5332C450.828 38.5332 454.425 39.4121 457.908 41.1699C461.391 42.8952 464.044 45.1413 465.867 47.9082C467.625 50.5449 468.797 53.6211 469.383 57.1367C469.904 59.5456 470.164 63.3867 470.164 68.6602H431.834C431.997 73.9661 433.25 78.2305 435.594 81.4531C437.938 84.6432 441.567 86.2383 446.482 86.2383C451.072 86.2383 454.734 84.7246 457.469 81.6973C459.031 79.9395 460.138 77.9049 460.789 75.5938H469.432C469.204 77.5143 468.439 79.6628 467.137 82.0391C465.867 84.3828 464.435 86.3034 462.84 87.8008C460.171 90.4049 456.867 92.1628 452.928 93.0742C450.812 93.5951 448.419 93.8555 445.75 93.8555C439.24 93.8555 433.722 91.4954 429.197 86.7754C424.673 82.0228 422.41 75.3822 422.41 66.8535C422.41 58.4551 424.689 51.6354 429.246 46.3945C433.803 41.1536 439.76 38.5332 447.117 38.5332ZM461.131 61.6777C460.773 57.8691 459.943 54.8255 458.641 52.5469C456.232 48.3151 452.212 46.1992 446.58 46.1992C442.544 46.1992 439.158 47.6641 436.424 50.5938C433.689 53.4909 432.241 57.1855 432.078 61.6777H461.131ZM480.57 66.4629C480.57 72.0618 481.758 76.7493 484.135 80.5254C486.511 84.3014 490.32 86.1895 495.561 86.1895C499.63 86.1895 502.966 84.4479 505.57 80.9648C508.207 77.4492 509.525 72.4199 509.525 65.877C509.525 59.2689 508.174 54.3861 505.473 51.2285C502.771 48.0384 499.434 46.4434 495.463 46.4434C491.036 46.4434 487.439 48.1361 484.672 51.5215C481.938 54.9069 480.57 59.8874 480.57 66.4629ZM493.803 38.7773C497.807 38.7773 501.16 39.6237 503.861 41.3164C505.424 42.293 507.198 44.002 509.184 46.4434V20.0273H517.631V92H509.721V84.7246C507.67 87.9473 505.245 90.2747 502.445 91.707C499.646 93.1393 496.439 93.8555 492.826 93.8555C486.999 93.8555 481.954 91.4141 477.689 86.5312C473.425 81.6159 471.293 75.0892 471.293 66.9512C471.293 59.334 473.23 52.7422 477.104 47.1758C481.01 41.5768 486.576 38.7773 493.803 38.7773ZM546.5 39.9492H555.436V92H546.5V39.9492ZM546.5 20.2715H555.436V30.2324H546.5V20.2715ZM562.766 39.7051H571.115V47.127C573.589 44.0671 576.21 41.8698 578.977 40.5352C581.743 39.2005 584.82 38.5332 588.205 38.5332C595.627 38.5332 600.64 41.1211 603.244 46.2969C604.676 49.1289 605.393 53.1816 605.393 58.4551V92H596.457V59.041C596.457 55.8509 595.985 53.2793 595.041 51.3262C593.479 48.071 590.646 46.4434 586.545 46.4434C584.462 46.4434 582.753 46.6549 581.418 47.0781C579.009 47.7943 576.893 49.2266 575.07 51.375C573.605 53.1003 572.645 54.8906 572.189 56.7461C571.766 58.569 571.555 61.1895 571.555 64.6074V92H562.766V39.7051ZM670.639 70.6133C670.639 76.668 669.743 81.3717 667.953 84.7246C664.633 90.8444 658.318 93.9043 649.008 93.9043C643.637 93.9043 639.047 92.4557 635.238 89.5586C631.43 86.6289 629.525 81.4368 629.525 73.9824V68.8555H638.656V73.9824C638.656 77.8887 639.519 80.8346 641.244 82.8203C643.002 84.7734 645.72 85.75 649.398 85.75C654.574 85.75 657.96 83.9759 659.555 80.4277C660.531 78.2467 661.02 74.1289 661.02 68.0742V20.2715H670.639V70.6133ZM685 78.084C685 80.623 685.928 82.625 687.783 84.0898C689.639 85.5547 691.836 86.2871 694.375 86.2871C697.467 86.2871 700.462 85.571 703.359 84.1387C708.242 81.7624 710.684 77.8724 710.684 72.4688V65.3887C709.609 66.0723 708.226 66.6419 706.533 67.0977C704.84 67.5534 703.18 67.8789 701.553 68.0742L696.23 68.7578C693.04 69.181 690.648 69.8483 689.053 70.7598C686.351 72.2897 685 74.7311 685 78.084ZM706.289 60.3105C708.307 60.0501 709.658 59.2038 710.342 57.7715C710.732 56.9902 710.928 55.8672 710.928 54.4023C710.928 51.4076 709.854 49.2428 707.705 47.9082C705.589 46.541 702.546 45.8574 698.574 45.8574C693.984 45.8574 690.729 47.0944 688.809 49.5684C687.734 50.9355 687.035 52.9701 686.709 55.6719H678.506C678.669 49.2266 680.752 44.7507 684.756 42.2441C688.792 39.7051 693.464 38.4355 698.77 38.4355C704.922 38.4355 709.919 39.6074 713.76 41.9512C717.568 44.2949 719.473 47.9408 719.473 52.8887V83.0156C719.473 83.9271 719.652 84.6595 720.01 85.2129C720.4 85.7663 721.198 86.043 722.402 86.043C722.793 86.043 723.232 86.0267 723.721 85.9941C724.209 85.929 724.73 85.8477 725.283 85.75V92.2441C723.916 92.6348 722.874 92.8789 722.158 92.9766C721.442 93.0742 720.465 93.123 719.229 93.123C716.201 93.123 714.004 92.0488 712.637 89.9004C711.921 88.7611 711.416 87.1497 711.123 85.0664C709.333 87.4102 706.761 89.4447 703.408 91.1699C700.055 92.8952 696.361 93.7578 692.324 93.7578C687.474 93.7578 683.503 92.293 680.41 89.3633C677.35 86.401 675.82 82.7064 675.82 78.2793C675.82 73.429 677.334 69.6693 680.361 67C683.389 64.3307 687.36 62.6868 692.275 62.0684L706.289 60.3105ZM732.223 39.7051L746.188 82.2832L760.787 39.7051H770.406L750.68 92H741.305L722.018 39.7051H732.223ZM778.664 78.084C778.664 80.623 779.592 82.625 781.447 84.0898C783.303 85.5547 785.5 86.2871 788.039 86.2871C791.132 86.2871 794.126 85.571 797.023 84.1387C801.906 81.7624 804.348 77.8724 804.348 72.4688V65.3887C803.273 66.0723 801.89 66.6419 800.197 67.0977C798.505 67.5534 796.844 67.8789 795.217 68.0742L789.895 68.7578C786.704 69.181 784.312 69.8483 782.717 70.7598C780.015 72.2897 778.664 74.7311 778.664 78.084ZM799.953 60.3105C801.971 60.0501 803.322 59.2038 804.006 57.7715C804.396 56.9902 804.592 55.8672 804.592 54.4023C804.592 51.4076 803.518 49.2428 801.369 47.9082C799.253 46.541 796.21 45.8574 792.238 45.8574C787.648 45.8574 784.393 47.0944 782.473 49.5684C781.398 50.9355 780.699 52.9701 780.373 55.6719H772.17C772.333 49.2266 774.416 44.7507 778.42 42.2441C782.456 39.7051 787.128 38.4355 792.434 38.4355C798.586 38.4355 803.583 39.6074 807.424 41.9512C811.232 44.2949 813.137 47.9408 813.137 52.8887V83.0156C813.137 83.9271 813.316 84.6595 813.674 85.2129C814.064 85.7663 814.862 86.043 816.066 86.043C816.457 86.043 816.896 86.0267 817.385 85.9941C817.873 85.929 818.394 85.8477 818.947 85.75V92.2441C817.58 92.6348 816.538 92.8789 815.822 92.9766C815.106 93.0742 814.13 93.123 812.893 93.123C809.865 93.123 807.668 92.0488 806.301 89.9004C805.585 88.7611 805.08 87.1497 804.787 85.0664C802.997 87.4102 800.425 89.4447 797.072 91.1699C793.719 92.8952 790.025 93.7578 785.988 93.7578C781.138 93.7578 777.167 92.293 774.074 89.3633C771.014 86.401 769.484 82.7064 769.484 78.2793C769.484 73.429 770.998 69.6693 774.025 67C777.053 64.3307 781.024 62.6868 785.939 62.0684L799.953 60.3105ZM823.445 102.205C825.691 101.814 827.27 100.236 828.182 97.4688C828.67 96.0039 828.914 94.5879 828.914 93.2207C828.914 92.9928 828.898 92.7812 828.865 92.5859C828.865 92.4232 828.833 92.2279 828.768 92H823.445V81.3555H833.895V91.2188C833.895 95.0924 833.113 98.4941 831.551 101.424C829.988 104.354 827.286 106.16 823.445 106.844V102.205ZM867.012 25.1055H875.898V39.7051H884.248V46.8828H875.898V81.0137C875.898 82.8366 876.517 84.0573 877.754 84.6758C878.438 85.0339 879.577 85.2129 881.172 85.2129C881.595 85.2129 882.051 85.2129 882.539 85.2129C883.027 85.1803 883.597 85.1315 884.248 85.0664V92C883.239 92.293 882.181 92.5046 881.074 92.6348C880 92.765 878.828 92.8301 877.559 92.8301C873.457 92.8301 870.674 91.7884 869.209 89.7051C867.744 87.5892 867.012 84.8548 867.012 81.502V46.8828H859.932V39.7051H867.012V25.1055ZM887.086 20.0273H895.875V46.7852C897.958 44.1484 899.83 42.293 901.49 41.2188C904.322 39.3633 907.854 38.4355 912.086 38.4355C919.671 38.4355 924.814 41.0885 927.516 46.3945C928.98 49.2917 929.713 53.3118 929.713 58.4551V92H920.68V59.041C920.68 55.1999 920.191 52.3841 919.215 50.5938C917.62 47.7292 914.625 46.2969 910.23 46.2969C906.585 46.2969 903.281 47.5501 900.318 50.0566C897.356 52.5632 895.875 57.2995 895.875 64.2656V92H887.086V20.0273ZM958.527 38.5332C962.238 38.5332 965.835 39.4121 969.318 41.1699C972.801 42.8952 975.454 45.1413 977.277 47.9082C979.035 50.5449 980.207 53.6211 980.793 57.1367C981.314 59.5456 981.574 63.3867 981.574 68.6602H943.244C943.407 73.9661 944.66 78.2305 947.004 81.4531C949.348 84.6432 952.977 86.2383 957.893 86.2383C962.482 86.2383 966.145 84.7246 968.879 81.6973C970.441 79.9395 971.548 77.9049 972.199 75.5938H980.842C980.614 77.5143 979.849 79.6628 978.547 82.0391C977.277 84.3828 975.845 86.3034 974.25 87.8008C971.581 90.4049 968.277 92.1628 964.338 93.0742C962.222 93.5951 959.829 93.8555 957.16 93.8555C950.65 93.8555 945.132 91.4954 940.607 86.7754C936.083 82.0228 933.82 75.3822 933.82 66.8535C933.82 58.4551 936.099 51.6354 940.656 46.3945C945.214 41.1536 951.171 38.5332 958.527 38.5332ZM972.541 61.6777C972.183 57.8691 971.353 54.8255 970.051 52.5469C967.642 48.3151 963.622 46.1992 957.99 46.1992C953.954 46.1992 950.568 47.6641 947.834 50.5938C945.1 53.4909 943.651 57.1855 943.488 61.6777H972.541ZM1010 25.1055H1018.89V39.7051H1027.24V46.8828H1018.89V81.0137C1018.89 82.8366 1019.51 84.0573 1020.75 84.6758C1021.43 85.0339 1022.57 85.2129 1024.16 85.2129C1024.59 85.2129 1025.04 85.2129 1025.53 85.2129C1026.02 85.1803 1026.59 85.1315 1027.24 85.0664V92C1026.23 92.293 1025.17 92.5046 1024.07 92.6348C1022.99 92.765 1021.82 92.8301 1020.55 92.8301C1016.45 92.8301 1013.67 91.7884 1012.2 89.7051C1010.74 87.5892 1010 84.8548 1010 81.502V46.8828H1002.92V39.7051H1010V25.1055ZM1034.13 39.7051L1044.19 80.916L1054.39 39.7051H1064.26L1074.51 80.6719L1085.21 39.7051H1093.99L1078.81 92H1069.68L1059.03 51.5215L1048.73 92H1039.6L1024.51 39.7051H1034.13ZM1117.1 86.3359C1122.92 86.3359 1126.91 84.1387 1129.06 79.7441C1131.24 75.3171 1132.33 70.4017 1132.33 64.998C1132.33 60.1152 1131.55 56.1439 1129.99 53.084C1127.51 48.2663 1123.25 45.8574 1117.19 45.8574C1111.82 45.8574 1107.92 47.9082 1105.47 52.0098C1103.03 56.1113 1101.81 61.0592 1101.81 66.8535C1101.81 72.4199 1103.03 77.0586 1105.47 80.7695C1107.92 84.4805 1111.79 86.3359 1117.1 86.3359ZM1117.44 38.1914C1124.18 38.1914 1129.87 40.4375 1134.53 44.9297C1139.18 49.4219 1141.51 56.0299 1141.51 64.7539C1141.51 73.1849 1139.46 80.151 1135.36 85.6523C1131.26 91.1536 1124.89 93.9043 1116.27 93.9043C1109.07 93.9043 1103.36 91.4792 1099.13 86.6289C1094.9 81.7461 1092.78 75.2031 1092.78 67C1092.78 58.2109 1095.01 51.2122 1099.47 46.0039C1103.93 40.7956 1109.92 38.1914 1117.44 38.1914ZM1143.71 59.627H1168.22V68.6602H1143.71V59.627ZM1195.38 86.0918C1199.48 86.0918 1202.88 84.3828 1205.58 80.9648C1208.32 77.5143 1209.69 72.3711 1209.69 65.5352C1209.69 61.3685 1209.08 57.7878 1207.88 54.793C1205.6 49.0312 1201.43 46.1504 1195.38 46.1504C1189.29 46.1504 1185.12 49.194 1182.88 55.2812C1181.67 58.5365 1181.07 62.6706 1181.07 67.6836C1181.07 71.7201 1181.67 75.1543 1182.88 77.9863C1185.16 83.39 1189.32 86.0918 1195.38 86.0918ZM1172.62 39.9492H1181.17V46.8828C1182.93 44.5065 1184.85 42.6673 1186.93 41.3652C1189.89 39.4121 1193.38 38.4355 1197.38 38.4355C1203.31 38.4355 1208.33 40.7142 1212.47 45.2715C1216.6 49.7962 1218.67 56.2741 1218.67 64.7051C1218.67 76.0983 1215.69 84.2363 1209.73 89.1191C1205.96 92.2116 1201.56 93.7578 1196.55 93.7578C1192.61 93.7578 1189.31 92.8952 1186.64 91.1699C1185.08 90.1934 1183.33 88.5169 1181.41 86.1406V112.85H1172.62V39.9492ZM1223.22 20.2715H1232.01V92H1223.22V20.2715ZM1245.98 78.084C1245.98 80.623 1246.9 82.625 1248.76 84.0898C1250.62 85.5547 1252.81 86.2871 1255.35 86.2871C1258.44 86.2871 1261.44 85.571 1264.34 84.1387C1269.22 81.7624 1271.66 77.8724 1271.66 72.4688V65.3887C1270.59 66.0723 1269.2 66.6419 1267.51 67.0977C1265.82 67.5534 1264.16 67.8789 1262.53 68.0742L1257.21 68.7578C1254.02 69.181 1251.62 69.8483 1250.03 70.7598C1247.33 72.2897 1245.98 74.7311 1245.98 78.084ZM1267.27 60.3105C1269.28 60.0501 1270.63 59.2038 1271.32 57.7715C1271.71 56.9902 1271.9 55.8672 1271.9 54.4023C1271.9 51.4076 1270.83 49.2428 1268.68 47.9082C1266.57 46.541 1263.52 45.8574 1259.55 45.8574C1254.96 45.8574 1251.71 47.0944 1249.79 49.5684C1248.71 50.9355 1248.01 52.9701 1247.69 55.6719H1239.48C1239.65 49.2266 1241.73 44.7507 1245.73 42.2441C1249.77 39.7051 1254.44 38.4355 1259.75 38.4355C1265.9 38.4355 1270.9 39.6074 1274.74 41.9512C1278.54 44.2949 1280.45 47.9408 1280.45 52.8887V83.0156C1280.45 83.9271 1280.63 84.6595 1280.99 85.2129C1281.38 85.7663 1282.17 86.043 1283.38 86.043C1283.77 86.043 1284.21 86.0267 1284.7 85.9941C1285.19 85.929 1285.71 85.8477 1286.26 85.75V92.2441C1284.89 92.6348 1283.85 92.8789 1283.13 92.9766C1282.42 93.0742 1281.44 93.123 1280.21 93.123C1277.18 93.123 1274.98 92.0488 1273.61 89.9004C1272.9 88.7611 1272.39 87.1497 1272.1 85.0664C1270.31 87.4102 1267.74 89.4447 1264.38 91.1699C1261.03 92.8952 1257.34 93.7578 1253.3 93.7578C1248.45 93.7578 1244.48 92.293 1241.39 89.3633C1238.33 86.401 1236.8 82.7064 1236.8 78.2793C1236.8 73.429 1238.31 69.6693 1241.34 67C1244.37 64.3307 1248.34 62.6868 1253.25 62.0684L1267.27 60.3105ZM1321.57 39.7051H1331.29C1330.05 43.0579 1327.3 50.7077 1323.03 62.6543C1319.84 71.6387 1317.17 78.9629 1315.03 84.627C1309.95 97.9733 1306.37 106.111 1304.28 109.041C1302.2 111.971 1298.62 113.436 1293.54 113.436C1292.3 113.436 1291.34 113.387 1290.66 113.289C1290.01 113.191 1289.2 113.012 1288.22 112.752V104.744C1289.75 105.167 1290.86 105.428 1291.54 105.525C1292.22 105.623 1292.82 105.672 1293.35 105.672C1294.97 105.672 1296.16 105.395 1296.91 104.842C1297.69 104.321 1298.34 103.67 1298.86 102.889C1299.03 102.628 1299.61 101.294 1300.62 98.8848C1301.63 96.4759 1302.36 94.6855 1302.82 93.5137L1283.48 39.7051H1293.44L1307.46 82.2832L1321.57 39.7051ZM1354.68 38.5332C1358.39 38.5332 1361.99 39.4121 1365.47 41.1699C1368.95 42.8952 1371.61 45.1413 1373.43 47.9082C1375.19 50.5449 1376.36 53.6211 1376.95 57.1367C1377.47 59.5456 1377.73 63.3867 1377.73 68.6602H1339.4C1339.56 73.9661 1340.81 78.2305 1343.16 81.4531C1345.5 84.6432 1349.13 86.2383 1354.04 86.2383C1358.63 86.2383 1362.3 84.7246 1365.03 81.6973C1366.59 79.9395 1367.7 77.9049 1368.35 75.5938H1376.99C1376.77 77.5143 1376 79.6628 1374.7 82.0391C1373.43 84.3828 1372 86.3034 1370.4 87.8008C1367.73 90.4049 1364.43 92.1628 1360.49 93.0742C1358.37 93.5951 1355.98 93.8555 1353.31 93.8555C1346.8 93.8555 1341.28 91.4954 1336.76 86.7754C1332.24 82.0228 1329.97 75.3822 1329.97 66.8535C1329.97 58.4551 1332.25 51.6354 1336.81 46.3945C1341.37 41.1536 1347.32 38.5332 1354.68 38.5332ZM1368.69 61.6777C1368.34 57.8691 1367.51 54.8255 1366.2 52.5469C1363.79 48.3151 1359.77 46.1992 1354.14 46.1992C1350.11 46.1992 1346.72 47.6641 1343.99 50.5938C1341.25 53.4909 1339.8 57.1855 1339.64 61.6777H1368.69ZM1382.81 39.7051H1391.16V48.7383C1391.84 46.9805 1393.52 44.8483 1396.19 42.3418C1398.86 39.8027 1401.93 38.5332 1405.42 38.5332C1405.58 38.5332 1405.86 38.5495 1406.25 38.582C1406.64 38.6146 1407.31 38.6797 1408.25 38.7773V48.0547C1407.73 47.957 1407.24 47.8919 1406.79 47.8594C1406.36 47.8268 1405.89 47.8105 1405.37 47.8105C1400.94 47.8105 1397.54 49.2428 1395.16 52.1074C1392.79 54.9395 1391.6 58.2109 1391.6 61.9219V92H1382.81V39.7051ZM26.6113 153.191C32.5033 153.191 37.2884 154.624 40.9668 157.488C44.6777 160.353 46.9076 165.285 47.6562 172.283H39.1113C38.5905 169.061 37.4023 166.391 35.5469 164.275C33.6914 162.127 30.7129 161.053 26.6113 161.053C21.0124 161.053 17.0085 163.787 14.5996 169.256C13.0371 172.804 12.2559 177.182 12.2559 182.391C12.2559 187.632 13.3626 192.042 15.5762 195.623C17.7897 199.204 21.2728 200.994 26.0254 200.994C29.6712 200.994 32.5521 199.887 34.668 197.674C36.8164 195.428 38.2975 192.368 39.1113 188.494H47.6562C46.6797 195.428 44.2383 200.506 40.332 203.729C36.4258 206.919 31.429 208.514 25.3418 208.514C18.5059 208.514 13.0534 206.023 8.98438 201.043C4.91536 196.03 2.88086 189.78 2.88086 182.293C2.88086 173.113 5.11068 165.968 9.57031 160.857C14.0299 155.747 19.7103 153.191 26.6113 153.191ZM50.4453 135.027H59.2344V161.785C61.3177 159.148 63.1895 157.293 64.8496 156.219C67.6816 154.363 71.2135 153.436 75.4453 153.436C83.0299 153.436 88.1732 156.089 90.875 161.395C92.3398 164.292 93.0723 168.312 93.0723 173.455V207H84.0391V174.041C84.0391 170.2 83.5508 167.384 82.5742 165.594C80.9792 162.729 77.9844 161.297 73.5898 161.297C69.944 161.297 66.64 162.55 63.6777 165.057C60.7155 167.563 59.2344 172.299 59.2344 179.266V207H50.4453V135.027ZM121.887 153.533C125.598 153.533 129.195 154.412 132.678 156.17C136.161 157.895 138.814 160.141 140.637 162.908C142.395 165.545 143.566 168.621 144.152 172.137C144.673 174.546 144.934 178.387 144.934 183.66H106.604C106.766 188.966 108.02 193.23 110.363 196.453C112.707 199.643 116.337 201.238 121.252 201.238C125.842 201.238 129.504 199.725 132.238 196.697C133.801 194.939 134.908 192.905 135.559 190.594H144.201C143.973 192.514 143.208 194.663 141.906 197.039C140.637 199.383 139.204 201.303 137.609 202.801C134.94 205.405 131.636 207.163 127.697 208.074C125.581 208.595 123.189 208.855 120.52 208.855C114.009 208.855 108.492 206.495 103.967 201.775C99.4421 197.023 97.1797 190.382 97.1797 181.854C97.1797 173.455 99.4583 166.635 104.016 161.395C108.573 156.154 114.53 153.533 121.887 153.533ZM135.9 176.678C135.542 172.869 134.712 169.826 133.41 167.547C131.001 163.315 126.981 161.199 121.35 161.199C117.313 161.199 113.928 162.664 111.193 165.594C108.459 168.491 107.01 172.186 106.848 176.678H135.9ZM154.998 190.594C155.258 193.523 155.991 195.77 157.195 197.332C159.409 200.164 163.25 201.58 168.719 201.58C171.974 201.58 174.839 200.88 177.312 199.48C179.786 198.048 181.023 195.851 181.023 192.889C181.023 190.643 180.031 188.934 178.045 187.762C176.775 187.046 174.269 186.215 170.525 185.271L163.543 183.514C159.083 182.407 155.796 181.17 153.68 179.803C149.904 177.426 148.016 174.139 148.016 169.939C148.016 164.992 149.79 160.988 153.338 157.928C156.919 154.868 161.72 153.338 167.742 153.338C175.62 153.338 181.3 155.649 184.783 160.271C186.964 163.201 188.022 166.359 187.957 169.744H179.656C179.493 167.758 178.794 165.952 177.557 164.324C175.538 162.013 172.039 160.857 167.059 160.857C163.738 160.857 161.215 161.492 159.49 162.762C157.798 164.031 156.951 165.708 156.951 167.791C156.951 170.07 158.074 171.893 160.32 173.26C161.622 174.074 163.543 174.79 166.082 175.408L171.893 176.824C178.208 178.354 182.439 179.835 184.588 181.268C188.006 183.514 189.715 187.046 189.715 191.863C189.715 196.518 187.941 200.538 184.393 203.924C180.877 207.309 175.506 209.002 168.279 209.002C160.499 209.002 154.982 207.244 151.727 203.729C148.504 200.18 146.779 195.802 146.551 190.594H154.998ZM198.998 190.594C199.258 193.523 199.991 195.77 201.195 197.332C203.409 200.164 207.25 201.58 212.719 201.58C215.974 201.58 218.839 200.88 221.312 199.48C223.786 198.048 225.023 195.851 225.023 192.889C225.023 190.643 224.031 188.934 222.045 187.762C220.775 187.046 218.269 186.215 214.525 185.271L207.543 183.514C203.083 182.407 199.796 181.17 197.68 179.803C193.904 177.426 192.016 174.139 192.016 169.939C192.016 164.992 193.79 160.988 197.338 157.928C200.919 154.868 205.72 153.338 211.742 153.338C219.62 153.338 225.3 155.649 228.783 160.271C230.964 163.201 232.022 166.359 231.957 169.744H223.656C223.493 167.758 222.794 165.952 221.557 164.324C219.538 162.013 216.039 160.857 211.059 160.857C207.738 160.857 205.215 161.492 203.49 162.762C201.798 164.031 200.951 165.708 200.951 167.791C200.951 170.07 202.074 171.893 204.32 173.26C205.622 174.074 207.543 174.79 210.082 175.408L215.893 176.824C222.208 178.354 226.439 179.835 228.588 181.268C232.006 183.514 233.715 187.046 233.715 191.863C233.715 196.518 231.941 200.538 228.393 203.924C224.877 207.309 219.506 209.002 212.279 209.002C204.499 209.002 198.982 207.244 195.727 203.729C192.504 200.18 190.779 195.802 190.551 190.594H198.998ZM278.062 153.777C282.164 153.777 285.745 154.786 288.805 156.805C290.465 157.944 292.158 159.604 293.883 161.785V155.193H301.988V202.752C301.988 209.393 301.012 214.633 299.059 218.475C295.413 225.571 288.528 229.119 278.404 229.119C272.773 229.119 268.036 227.85 264.195 225.311C260.354 222.804 258.206 218.865 257.75 213.494H266.686C267.109 215.838 267.955 217.645 269.225 218.914C271.21 220.867 274.335 221.844 278.6 221.844C285.338 221.844 289.749 219.467 291.832 214.715C293.069 211.915 293.639 206.919 293.541 199.725C291.783 202.394 289.667 204.38 287.193 205.682C284.719 206.984 281.448 207.635 277.379 207.635C271.715 207.635 266.751 205.633 262.486 201.629C258.255 197.592 256.139 190.936 256.139 181.658C256.139 172.902 258.271 166.066 262.535 161.15C266.832 156.235 272.008 153.777 278.062 153.777ZM293.883 180.633C293.883 174.155 292.548 169.354 289.879 166.229C287.21 163.104 283.808 161.541 279.674 161.541C273.489 161.541 269.257 164.438 266.979 170.232C265.774 173.325 265.172 177.378 265.172 182.391C265.172 188.283 266.36 192.775 268.736 195.867C271.145 198.927 274.368 200.457 278.404 200.457C284.719 200.457 289.163 197.609 291.734 191.912C293.167 188.689 293.883 184.93 293.883 180.633ZM316.008 193.084C316.008 195.623 316.936 197.625 318.791 199.09C320.646 200.555 322.844 201.287 325.383 201.287C328.475 201.287 331.47 200.571 334.367 199.139C339.25 196.762 341.691 192.872 341.691 187.469V180.389C340.617 181.072 339.234 181.642 337.541 182.098C335.848 182.553 334.188 182.879 332.561 183.074L327.238 183.758C324.048 184.181 321.656 184.848 320.061 185.76C317.359 187.29 316.008 189.731 316.008 193.084ZM337.297 175.311C339.315 175.05 340.666 174.204 341.35 172.771C341.74 171.99 341.936 170.867 341.936 169.402C341.936 166.408 340.861 164.243 338.713 162.908C336.597 161.541 333.553 160.857 329.582 160.857C324.992 160.857 321.737 162.094 319.816 164.568C318.742 165.936 318.042 167.97 317.717 170.672H309.514C309.676 164.227 311.76 159.751 315.764 157.244C319.8 154.705 324.471 153.436 329.777 153.436C335.93 153.436 340.926 154.607 344.768 156.951C348.576 159.295 350.48 162.941 350.48 167.889V198.016C350.48 198.927 350.66 199.66 351.018 200.213C351.408 200.766 352.206 201.043 353.41 201.043C353.801 201.043 354.24 201.027 354.729 200.994C355.217 200.929 355.738 200.848 356.291 200.75V207.244C354.924 207.635 353.882 207.879 353.166 207.977C352.45 208.074 351.473 208.123 350.236 208.123C347.209 208.123 345.012 207.049 343.645 204.9C342.928 203.761 342.424 202.15 342.131 200.066C340.34 202.41 337.769 204.445 334.416 206.17C331.063 207.895 327.368 208.758 323.332 208.758C318.482 208.758 314.51 207.293 311.418 204.363C308.358 201.401 306.828 197.706 306.828 193.279C306.828 188.429 308.342 184.669 311.369 182C314.396 179.331 318.368 177.687 323.283 177.068L337.297 175.311ZM358.934 154.705H367.625V162.127C369.708 159.555 371.596 157.684 373.289 156.512C376.186 154.526 379.474 153.533 383.152 153.533C387.319 153.533 390.672 154.559 393.211 156.609C394.643 157.781 395.945 159.507 397.117 161.785C399.07 158.986 401.365 156.919 404.002 155.584C406.639 154.217 409.601 153.533 412.889 153.533C419.92 153.533 424.705 156.072 427.244 161.15C428.611 163.885 429.295 167.563 429.295 172.186V207H420.164V170.672C420.164 167.189 419.285 164.796 417.527 163.494C415.802 162.192 413.686 161.541 411.18 161.541C407.729 161.541 404.751 162.697 402.244 165.008C399.77 167.319 398.533 171.176 398.533 176.58V207H389.598V172.869C389.598 169.321 389.174 166.733 388.328 165.105C386.993 162.664 384.503 161.443 380.857 161.443C377.537 161.443 374.51 162.729 371.775 165.301C369.074 167.872 367.723 172.527 367.723 179.266V207H358.934V154.705ZM458.012 153.533C461.723 153.533 465.32 154.412 468.803 156.17C472.286 157.895 474.939 160.141 476.762 162.908C478.52 165.545 479.691 168.621 480.277 172.137C480.798 174.546 481.059 178.387 481.059 183.66H442.729C442.891 188.966 444.145 193.23 446.488 196.453C448.832 199.643 452.462 201.238 457.377 201.238C461.967 201.238 465.629 199.725 468.363 196.697C469.926 194.939 471.033 192.905 471.684 190.594H480.326C480.098 192.514 479.333 194.663 478.031 197.039C476.762 199.383 475.329 201.303 473.734 202.801C471.065 205.405 467.761 207.163 463.822 208.074C461.706 208.595 459.314 208.855 456.645 208.855C450.134 208.855 444.617 206.495 440.092 201.775C435.567 197.023 433.305 190.382 433.305 181.854C433.305 173.455 435.583 166.635 440.141 161.395C444.698 156.154 450.655 153.533 458.012 153.533ZM472.025 176.678C471.667 172.869 470.837 169.826 469.535 167.547C467.126 163.315 463.106 161.199 457.475 161.199C453.438 161.199 450.053 162.664 447.318 165.594C444.584 168.491 443.135 172.186 442.973 176.678H472.025ZM507.73 154.949H516.666V207H507.73V154.949ZM507.73 135.271H516.666V145.232H507.73V135.271ZM523.996 154.705H532.346V162.127C534.82 159.067 537.44 156.87 540.207 155.535C542.974 154.201 546.05 153.533 549.436 153.533C556.857 153.533 561.87 156.121 564.475 161.297C565.907 164.129 566.623 168.182 566.623 173.455V207H557.688V174.041C557.688 170.851 557.215 168.279 556.271 166.326C554.709 163.071 551.877 161.443 547.775 161.443C545.692 161.443 543.983 161.655 542.648 162.078C540.24 162.794 538.124 164.227 536.301 166.375C534.836 168.1 533.876 169.891 533.42 171.746C532.997 173.569 532.785 176.189 532.785 179.607V207H523.996V154.705ZM593.826 153.191C599.718 153.191 604.503 154.624 608.182 157.488C611.893 160.353 614.122 165.285 614.871 172.283H606.326C605.805 169.061 604.617 166.391 602.762 164.275C600.906 162.127 597.928 161.053 593.826 161.053C588.227 161.053 584.223 163.787 581.814 169.256C580.252 172.804 579.471 177.182 579.471 182.391C579.471 187.632 580.577 192.042 582.791 195.623C585.005 199.204 588.488 200.994 593.24 200.994C596.886 200.994 599.767 199.887 601.883 197.674C604.031 195.428 605.512 192.368 606.326 188.494H614.871C613.895 195.428 611.453 200.506 607.547 203.729C603.641 206.919 598.644 208.514 592.557 208.514C585.721 208.514 580.268 206.023 576.199 201.043C572.13 196.03 570.096 189.78 570.096 182.293C570.096 173.113 572.326 165.968 576.785 160.857C581.245 155.747 586.925 153.191 593.826 153.191ZM617.904 135.271H626.693V207H617.904V135.271ZM642.715 154.705V189.422C642.715 192.091 643.138 194.272 643.984 195.965C645.547 199.09 648.46 200.652 652.725 200.652C658.844 200.652 663.011 197.918 665.225 192.449C666.429 189.52 667.031 185.499 667.031 180.389V154.705H675.82V207H667.52L667.617 199.285C666.478 201.271 665.062 202.947 663.369 204.314C660.016 207.049 655.947 208.416 651.162 208.416C643.708 208.416 638.63 205.926 635.928 200.945C634.463 198.276 633.73 194.712 633.73 190.252V154.705H642.715ZM689.156 181.463C689.156 187.062 690.344 191.749 692.721 195.525C695.097 199.301 698.906 201.189 704.146 201.189C708.215 201.189 711.552 199.448 714.156 195.965C716.793 192.449 718.111 187.42 718.111 180.877C718.111 174.269 716.76 169.386 714.059 166.229C711.357 163.038 708.02 161.443 704.049 161.443C699.622 161.443 696.025 163.136 693.258 166.521C690.523 169.907 689.156 174.887 689.156 181.463ZM702.389 153.777C706.393 153.777 709.745 154.624 712.447 156.316C714.01 157.293 715.784 159.002 717.77 161.443V135.027H726.217V207H718.307V199.725C716.256 202.947 713.831 205.275 711.031 206.707C708.232 208.139 705.025 208.855 701.412 208.855C695.585 208.855 690.54 206.414 686.275 201.531C682.011 196.616 679.879 190.089 679.879 181.951C679.879 174.334 681.816 167.742 685.689 162.176C689.596 156.577 695.162 153.777 702.389 153.777ZM755.031 153.533C758.742 153.533 762.339 154.412 765.822 156.17C769.305 157.895 771.958 160.141 773.781 162.908C775.539 165.545 776.711 168.621 777.297 172.137C777.818 174.546 778.078 178.387 778.078 183.66H739.748C739.911 188.966 741.164 193.23 743.508 196.453C745.852 199.643 749.481 201.238 754.396 201.238C758.986 201.238 762.648 199.725 765.383 196.697C766.945 194.939 768.052 192.905 768.703 190.594H777.346C777.118 192.514 776.353 194.663 775.051 197.039C773.781 199.383 772.349 201.303 770.754 202.801C768.085 205.405 764.781 207.163 760.842 208.074C758.726 208.595 756.333 208.855 753.664 208.855C747.154 208.855 741.636 206.495 737.111 201.775C732.587 197.023 730.324 190.382 730.324 181.854C730.324 173.455 732.603 166.635 737.16 161.395C741.717 156.154 747.674 153.533 755.031 153.533ZM769.045 176.678C768.687 172.869 767.857 169.826 766.555 167.547C764.146 163.315 760.126 161.199 754.494 161.199C750.458 161.199 747.072 162.664 744.338 165.594C741.604 168.491 740.155 172.186 739.992 176.678H769.045ZM788.143 190.594C788.403 193.523 789.135 195.77 790.34 197.332C792.553 200.164 796.395 201.58 801.863 201.58C805.118 201.58 807.983 200.88 810.457 199.48C812.931 198.048 814.168 195.851 814.168 192.889C814.168 190.643 813.175 188.934 811.189 187.762C809.92 187.046 807.413 186.215 803.67 185.271L796.688 183.514C792.228 182.407 788.94 181.17 786.824 179.803C783.048 177.426 781.16 174.139 781.16 169.939C781.16 164.992 782.934 160.988 786.482 157.928C790.063 154.868 794.865 153.338 800.887 153.338C808.764 153.338 814.445 155.649 817.928 160.271C820.109 163.201 821.167 166.359 821.102 169.744H812.801C812.638 167.758 811.938 165.952 810.701 164.324C808.683 162.013 805.184 160.857 800.203 160.857C796.883 160.857 794.36 161.492 792.635 162.762C790.942 164.031 790.096 165.708 790.096 167.791C790.096 170.07 791.219 171.893 793.465 173.26C794.767 174.074 796.688 174.79 799.227 175.408L805.037 176.824C811.352 178.354 815.584 179.835 817.732 181.268C821.15 183.514 822.859 187.046 822.859 191.863C822.859 196.518 821.085 200.538 817.537 203.924C814.021 207.309 808.65 209.002 801.424 209.002C793.644 209.002 788.126 207.244 784.871 203.729C781.648 200.18 779.923 195.802 779.695 190.594H788.143ZM855.488 193.084C855.488 195.623 856.416 197.625 858.271 199.09C860.127 200.555 862.324 201.287 864.863 201.287C867.956 201.287 870.951 200.571 873.848 199.139C878.73 196.762 881.172 192.872 881.172 187.469V180.389C880.098 181.072 878.714 181.642 877.021 182.098C875.329 182.553 873.669 182.879 872.041 183.074L866.719 183.758C863.529 184.181 861.136 184.848 859.541 185.76C856.839 187.29 855.488 189.731 855.488 193.084ZM876.777 175.311C878.796 175.05 880.146 174.204 880.83 172.771C881.221 171.99 881.416 170.867 881.416 169.402C881.416 166.408 880.342 164.243 878.193 162.908C876.077 161.541 873.034 160.857 869.062 160.857C864.473 160.857 861.217 162.094 859.297 164.568C858.223 165.936 857.523 167.97 857.197 170.672H848.994C849.157 164.227 851.24 159.751 855.244 157.244C859.281 154.705 863.952 153.436 869.258 153.436C875.41 153.436 880.407 154.607 884.248 156.951C888.057 159.295 889.961 162.941 889.961 167.889V198.016C889.961 198.927 890.14 199.66 890.498 200.213C890.889 200.766 891.686 201.043 892.891 201.043C893.281 201.043 893.721 201.027 894.209 200.994C894.697 200.929 895.218 200.848 895.771 200.75V207.244C894.404 207.635 893.363 207.879 892.646 207.977C891.93 208.074 890.954 208.123 889.717 208.123C886.689 208.123 884.492 207.049 883.125 204.9C882.409 203.761 881.904 202.15 881.611 200.066C879.821 202.41 877.249 204.445 873.896 206.17C870.544 207.895 866.849 208.758 862.812 208.758C857.962 208.758 853.991 207.293 850.898 204.363C847.839 201.401 846.309 197.706 846.309 193.279C846.309 188.429 847.822 184.669 850.85 182C853.877 179.331 857.848 177.687 862.764 177.068L876.777 175.311ZM924.543 154.705L938.508 197.283L953.107 154.705H962.727L943 207H933.625L914.338 154.705H924.543ZM970.984 193.084C970.984 195.623 971.912 197.625 973.768 199.09C975.623 200.555 977.82 201.287 980.359 201.287C983.452 201.287 986.447 200.571 989.344 199.139C994.227 196.762 996.668 192.872 996.668 187.469V180.389C995.594 181.072 994.21 181.642 992.518 182.098C990.825 182.553 989.165 182.879 987.537 183.074L982.215 183.758C979.025 184.181 976.632 184.848 975.037 185.76C972.335 187.29 970.984 189.731 970.984 193.084ZM992.273 175.311C994.292 175.05 995.643 174.204 996.326 172.771C996.717 171.99 996.912 170.867 996.912 169.402C996.912 166.408 995.838 164.243 993.689 162.908C991.574 161.541 988.53 160.857 984.559 160.857C979.969 160.857 976.714 162.094 974.793 164.568C973.719 165.936 973.019 167.97 972.693 170.672H964.49C964.653 164.227 966.736 159.751 970.74 157.244C974.777 154.705 979.448 153.436 984.754 153.436C990.906 153.436 995.903 154.607 999.744 156.951C1003.55 159.295 1005.46 162.941 1005.46 167.889V198.016C1005.46 198.927 1005.64 199.66 1005.99 200.213C1006.38 200.766 1007.18 201.043 1008.39 201.043C1008.78 201.043 1009.22 201.027 1009.71 200.994C1010.19 200.929 1010.71 200.848 1011.27 200.75V207.244C1009.9 207.635 1008.86 207.879 1008.14 207.977C1007.43 208.074 1006.45 208.123 1005.21 208.123C1002.19 208.123 999.988 207.049 998.621 204.9C997.905 203.761 997.4 202.15 997.107 200.066C995.317 202.41 992.745 204.445 989.393 206.17C986.04 207.895 982.345 208.758 978.309 208.758C973.458 208.758 969.487 207.293 966.395 204.363C963.335 201.401 961.805 197.706 961.805 193.279C961.805 188.429 963.318 184.669 966.346 182C969.373 179.331 973.344 177.687 978.26 177.068L992.273 175.311ZM1014.15 154.705H1022.5V163.738C1023.19 161.98 1024.86 159.848 1027.53 157.342C1030.2 154.803 1033.28 153.533 1036.76 153.533C1036.92 153.533 1037.2 153.549 1037.59 153.582C1037.98 153.615 1038.65 153.68 1039.59 153.777V163.055C1039.07 162.957 1038.58 162.892 1038.13 162.859C1037.71 162.827 1037.23 162.811 1036.71 162.811C1032.29 162.811 1028.88 164.243 1026.51 167.107C1024.13 169.939 1022.94 173.211 1022.94 176.922V207H1014.15V154.705ZM1041.21 154.949H1050.15V207H1041.21V154.949ZM1041.21 135.271H1050.15V145.232H1041.21V135.271ZM1079.25 153.533C1082.96 153.533 1086.56 154.412 1090.04 156.17C1093.53 157.895 1096.18 160.141 1098 162.908C1099.76 165.545 1100.93 168.621 1101.52 172.137C1102.04 174.546 1102.3 178.387 1102.3 183.66H1063.97C1064.13 188.966 1065.39 193.23 1067.73 196.453C1070.07 199.643 1073.7 201.238 1078.62 201.238C1083.21 201.238 1086.87 199.725 1089.61 196.697C1091.17 194.939 1092.27 192.905 1092.93 190.594H1101.57C1101.34 192.514 1100.58 194.663 1099.27 197.039C1098 199.383 1096.57 201.303 1094.98 202.801C1092.31 205.405 1089 207.163 1085.06 208.074C1082.95 208.595 1080.56 208.855 1077.89 208.855C1071.38 208.855 1065.86 206.495 1061.33 201.775C1056.81 197.023 1054.55 190.382 1054.55 181.854C1054.55 173.455 1056.83 166.635 1061.38 161.395C1065.94 156.154 1071.9 153.533 1079.25 153.533ZM1093.27 176.678C1092.91 172.869 1092.08 169.826 1090.78 167.547C1088.37 163.315 1084.35 161.199 1078.72 161.199C1074.68 161.199 1071.29 162.664 1068.56 165.594C1065.83 168.491 1064.38 172.186 1064.21 176.678H1093.27ZM1108.9 140.105H1117.79V154.705H1126.13V161.883H1117.79V196.014C1117.79 197.837 1118.4 199.057 1119.64 199.676C1120.32 200.034 1121.46 200.213 1123.06 200.213C1123.48 200.213 1123.94 200.213 1124.43 200.213C1124.91 200.18 1125.48 200.132 1126.13 200.066V207C1125.13 207.293 1124.07 207.505 1122.96 207.635C1121.89 207.765 1120.71 207.83 1119.45 207.83C1115.34 207.83 1112.56 206.788 1111.1 204.705C1109.63 202.589 1108.9 199.855 1108.9 196.502V161.883H1101.82V154.705H1108.9V140.105ZM1161.64 154.705H1171.36C1170.12 158.058 1167.37 165.708 1163.1 177.654C1159.91 186.639 1157.24 193.963 1155.1 199.627C1150.02 212.973 1146.44 221.111 1144.35 224.041C1142.27 226.971 1138.69 228.436 1133.61 228.436C1132.37 228.436 1131.41 228.387 1130.73 228.289C1130.08 228.191 1129.27 228.012 1128.29 227.752V219.744C1129.82 220.167 1130.93 220.428 1131.61 220.525C1132.29 220.623 1132.9 220.672 1133.42 220.672C1135.04 220.672 1136.23 220.395 1136.98 219.842C1137.76 219.321 1138.41 218.67 1138.93 217.889C1139.1 217.628 1139.68 216.294 1140.69 213.885C1141.7 211.476 1142.43 209.686 1142.89 208.514L1123.55 154.705H1133.51L1147.53 197.283L1161.64 154.705ZM1215.56 201.336C1221.38 201.336 1225.37 199.139 1227.52 194.744C1229.7 190.317 1230.79 185.402 1230.79 179.998C1230.79 175.115 1230.01 171.144 1228.45 168.084C1225.97 163.266 1221.71 160.857 1215.65 160.857C1210.28 160.857 1206.38 162.908 1203.94 167.01C1201.49 171.111 1200.27 176.059 1200.27 181.854C1200.27 187.42 1201.49 192.059 1203.94 195.77C1206.38 199.48 1210.25 201.336 1215.56 201.336ZM1215.9 153.191C1222.64 153.191 1228.33 155.438 1232.99 159.93C1237.64 164.422 1239.97 171.03 1239.97 179.754C1239.97 188.185 1237.92 195.151 1233.82 200.652C1229.72 206.154 1223.35 208.904 1214.73 208.904C1207.53 208.904 1201.82 206.479 1197.59 201.629C1193.36 196.746 1191.24 190.203 1191.24 182C1191.24 173.211 1193.47 166.212 1197.93 161.004C1202.39 155.796 1208.38 153.191 1215.9 153.191ZM1246.67 146.746C1246.8 143.1 1247.43 140.431 1248.57 138.738C1250.62 135.743 1254.58 134.246 1260.44 134.246C1260.99 134.246 1261.56 134.262 1262.14 134.295C1262.73 134.327 1263.4 134.376 1264.15 134.441V142.449C1263.24 142.384 1262.57 142.352 1262.14 142.352C1261.75 142.319 1261.38 142.303 1261.02 142.303C1258.35 142.303 1256.76 143.003 1256.24 144.402C1255.72 145.77 1255.46 149.285 1255.46 154.949H1264.15V161.883H1255.36V207H1246.67V161.883H1239.39V154.949H1246.67V146.746ZM1290.33 146.746C1290.46 143.1 1291.1 140.431 1292.23 138.738C1294.29 135.743 1298.24 134.246 1304.1 134.246C1304.65 134.246 1305.22 134.262 1305.81 134.295C1306.39 134.327 1307.06 134.376 1307.81 134.441V142.449C1306.9 142.384 1306.23 142.352 1305.81 142.352C1305.42 142.319 1305.04 142.303 1304.69 142.303C1302.02 142.303 1300.42 143.003 1299.9 144.402C1299.38 145.77 1299.12 149.285 1299.12 154.949H1307.81V161.883H1299.02V207H1290.33V161.883H1283.05V154.949H1290.33V146.746ZM1331.74 153.533C1335.45 153.533 1339.05 154.412 1342.53 156.17C1346.02 157.895 1348.67 160.141 1350.49 162.908C1352.25 165.545 1353.42 168.621 1354.01 172.137C1354.53 174.546 1354.79 178.387 1354.79 183.66H1316.46C1316.62 188.966 1317.88 193.23 1320.22 196.453C1322.56 199.643 1326.19 201.238 1331.11 201.238C1335.7 201.238 1339.36 199.725 1342.09 196.697C1343.66 194.939 1344.76 192.905 1345.41 190.594H1354.06C1353.83 192.514 1353.06 194.663 1351.76 197.039C1350.49 199.383 1349.06 201.303 1347.46 202.801C1344.8 205.405 1341.49 207.163 1337.55 208.074C1335.44 208.595 1333.04 208.855 1330.38 208.855C1323.86 208.855 1318.35 206.495 1313.82 201.775C1309.3 197.023 1307.04 190.382 1307.04 181.854C1307.04 173.455 1309.31 166.635 1313.87 161.395C1318.43 156.154 1324.39 153.533 1331.74 153.533ZM1345.76 176.678C1345.4 172.869 1344.57 169.826 1343.27 167.547C1340.86 163.315 1336.84 161.199 1331.21 161.199C1327.17 161.199 1323.78 162.664 1321.05 165.594C1318.31 168.491 1316.87 172.186 1316.7 176.678H1345.76ZM1366.37 193.084C1366.37 195.623 1367.29 197.625 1369.15 199.09C1371.01 200.555 1373.2 201.287 1375.74 201.287C1378.83 201.287 1381.83 200.571 1384.73 199.139C1389.61 196.762 1392.05 192.872 1392.05 187.469V180.389C1390.98 181.072 1389.59 181.642 1387.9 182.098C1386.21 182.553 1384.55 182.879 1382.92 183.074L1377.6 183.758C1374.41 184.181 1372.01 184.848 1370.42 185.76C1367.72 187.29 1366.37 189.731 1366.37 193.084ZM1387.66 175.311C1389.67 175.05 1391.03 174.204 1391.71 172.771C1392.1 171.99 1392.29 170.867 1392.29 169.402C1392.29 166.408 1391.22 164.243 1389.07 162.908C1386.96 161.541 1383.91 160.857 1379.94 160.857C1375.35 160.857 1372.1 162.094 1370.18 164.568C1369.1 165.936 1368.4 167.97 1368.08 170.672H1359.87C1360.04 164.227 1362.12 159.751 1366.12 157.244C1370.16 154.705 1374.83 153.436 1380.14 153.436C1386.29 153.436 1391.29 154.607 1395.13 156.951C1398.94 159.295 1400.84 162.941 1400.84 167.889V198.016C1400.84 198.927 1401.02 199.66 1401.38 200.213C1401.77 200.766 1402.57 201.043 1403.77 201.043C1404.16 201.043 1404.6 201.027 1405.09 200.994C1405.58 200.929 1406.1 200.848 1406.65 200.75V207.244C1405.28 207.635 1404.24 207.879 1403.53 207.977C1402.81 208.074 1401.83 208.123 1400.6 208.123C1397.57 208.123 1395.37 207.049 1394 204.9C1393.29 203.761 1392.78 202.15 1392.49 200.066C1390.7 202.41 1388.13 204.445 1384.78 206.17C1381.42 207.895 1377.73 208.758 1373.69 208.758C1368.84 208.758 1364.87 207.293 1361.78 204.363C1358.72 201.401 1357.19 197.706 1357.19 193.279C1357.19 188.429 1358.7 184.669 1361.73 182C1364.76 179.331 1368.73 177.687 1373.64 177.068L1387.66 175.311ZM1411.05 140.105H1419.94V154.705H1428.29V161.883H1419.94V196.014C1419.94 197.837 1420.56 199.057 1421.79 199.676C1422.48 200.034 1423.62 200.213 1425.21 200.213C1425.63 200.213 1426.09 200.213 1426.58 200.213C1427.07 200.18 1427.64 200.132 1428.29 200.066V207C1427.28 207.293 1426.22 207.505 1425.11 207.635C1424.04 207.765 1422.87 207.83 1421.6 207.83C1417.5 207.83 1414.71 206.788 1413.25 204.705C1411.78 202.589 1411.05 199.855 1411.05 196.502V161.883H1403.97V154.705H1411.05V140.105ZM1439.91 154.705V189.422C1439.91 192.091 1440.34 194.272 1441.18 195.965C1442.75 199.09 1445.66 200.652 1449.92 200.652C1456.04 200.652 1460.21 197.918 1462.42 192.449C1463.63 189.52 1464.23 185.499 1464.23 180.389V154.705H1473.02V207H1464.72L1464.82 199.285C1463.68 201.271 1462.26 202.947 1460.57 204.314C1457.22 207.049 1453.15 208.416 1448.36 208.416C1440.91 208.416 1435.83 205.926 1433.13 200.945C1431.66 198.276 1430.93 194.712 1430.93 190.252V154.705H1439.91ZM1481.03 154.705H1489.38V163.738C1490.07 161.98 1491.74 159.848 1494.41 157.342C1497.08 154.803 1500.16 153.533 1503.64 153.533C1503.8 153.533 1504.08 153.549 1504.47 153.582C1504.86 153.615 1505.53 153.68 1506.47 153.777V163.055C1505.95 162.957 1505.46 162.892 1505.01 162.859C1504.58 162.827 1504.11 162.811 1503.59 162.811C1499.16 162.811 1495.76 164.243 1493.39 167.107C1491.01 169.939 1489.82 173.211 1489.82 176.922V207H1481.03V154.705ZM1529.87 153.533C1533.58 153.533 1537.18 154.412 1540.66 156.17C1544.14 157.895 1546.79 160.141 1548.62 162.908C1550.38 165.545 1551.55 168.621 1552.13 172.137C1552.65 174.546 1552.91 178.387 1552.91 183.66H1514.58C1514.75 188.966 1516 193.23 1518.34 196.453C1520.69 199.643 1524.32 201.238 1529.23 201.238C1533.82 201.238 1537.48 199.725 1540.22 196.697C1541.78 194.939 1542.89 192.905 1543.54 190.594H1552.18C1551.95 192.514 1551.19 194.663 1549.89 197.039C1548.62 199.383 1547.18 201.303 1545.59 202.801C1542.92 205.405 1539.62 207.163 1535.68 208.074C1533.56 208.595 1531.17 208.855 1528.5 208.855C1521.99 208.855 1516.47 206.495 1511.95 201.775C1507.42 197.023 1505.16 190.382 1505.16 181.854C1505.16 173.455 1507.44 166.635 1512 161.395C1516.55 156.154 1522.51 153.533 1529.87 153.533ZM1543.88 176.678C1543.52 172.869 1542.69 169.826 1541.39 167.547C1538.98 163.315 1534.96 161.199 1529.33 161.199C1525.29 161.199 1521.91 162.664 1519.17 165.594C1516.44 168.491 1514.99 172.186 1514.83 176.678H1543.88ZM1562.98 190.594C1563.24 193.523 1563.97 195.77 1565.18 197.332C1567.39 200.164 1571.23 201.58 1576.7 201.58C1579.95 201.58 1582.82 200.88 1585.29 199.48C1587.77 198.048 1589 195.851 1589 192.889C1589 190.643 1588.01 188.934 1586.03 187.762C1584.76 187.046 1582.25 186.215 1578.51 185.271L1571.52 183.514C1567.06 182.407 1563.78 181.17 1561.66 179.803C1557.88 177.426 1556 174.139 1556 169.939C1556 164.992 1557.77 160.988 1561.32 157.928C1564.9 154.868 1569.7 153.338 1575.72 153.338C1583.6 153.338 1589.28 155.649 1592.76 160.271C1594.94 163.201 1596 166.359 1595.94 169.744H1587.64C1587.47 167.758 1586.77 165.952 1585.54 164.324C1583.52 162.013 1580.02 160.857 1575.04 160.857C1571.72 160.857 1569.2 161.492 1567.47 162.762C1565.78 164.031 1564.93 165.708 1564.93 167.791C1564.93 170.07 1566.05 171.893 1568.3 173.26C1569.6 174.074 1571.52 174.79 1574.06 175.408L1579.87 176.824C1586.19 178.354 1590.42 179.835 1592.57 181.268C1595.99 183.514 1597.7 187.046 1597.7 191.863C1597.7 196.518 1595.92 200.538 1592.37 203.924C1588.86 207.309 1583.49 209.002 1576.26 209.002C1568.48 209.002 1562.96 207.244 1559.71 203.729C1556.48 200.18 1554.76 195.802 1554.53 190.594H1562.98ZM6.44531 269.949H15.3809V322H6.44531V269.949ZM6.44531 250.271H15.3809V260.232H6.44531V250.271ZM22.7109 269.705H31.0605V277.127C33.5345 274.067 36.1549 271.87 38.9219 270.535C41.6888 269.201 44.765 268.533 48.1504 268.533C55.5723 268.533 60.5853 271.121 63.1895 276.297C64.6217 279.129 65.3379 283.182 65.3379 288.455V322H56.4023V289.041C56.4023 285.851 55.9303 283.279 54.9863 281.326C53.4238 278.071 50.5918 276.443 46.4902 276.443C44.4069 276.443 42.6979 276.655 41.3633 277.078C38.9544 277.794 36.8385 279.227 35.0156 281.375C33.5508 283.1 32.5905 284.891 32.1348 286.746C31.7116 288.569 31.5 291.189 31.5 294.607V322H22.7109V269.705ZM92.541 268.191C98.4329 268.191 103.218 269.624 106.896 272.488C110.607 275.353 112.837 280.285 113.586 287.283H105.041C104.52 284.061 103.332 281.391 101.477 279.275C99.6211 277.127 96.6426 276.053 92.541 276.053C86.9421 276.053 82.9382 278.787 80.5293 284.256C78.9668 287.804 78.1855 292.182 78.1855 297.391C78.1855 302.632 79.2923 307.042 81.5059 310.623C83.7194 314.204 87.2025 315.994 91.9551 315.994C95.6009 315.994 98.4818 314.887 100.598 312.674C102.746 310.428 104.227 307.368 105.041 303.494H113.586C112.609 310.428 110.168 315.506 106.262 318.729C102.355 321.919 97.3587 323.514 91.2715 323.514C84.4355 323.514 78.9831 321.023 74.9141 316.043C70.8451 311.03 68.8105 304.78 68.8105 297.293C68.8105 288.113 71.0404 280.968 75.5 275.857C79.9596 270.747 85.64 268.191 92.541 268.191ZM116.619 250.271H125.408V322H116.619V250.271ZM141.43 269.705V304.422C141.43 307.091 141.853 309.272 142.699 310.965C144.262 314.09 147.175 315.652 151.439 315.652C157.559 315.652 161.726 312.918 163.939 307.449C165.144 304.52 165.746 300.499 165.746 295.389V269.705H174.535V322H166.234L166.332 314.285C165.193 316.271 163.777 317.947 162.084 319.314C158.731 322.049 154.662 323.416 149.877 323.416C142.423 323.416 137.344 320.926 134.643 315.945C133.178 313.276 132.445 309.712 132.445 305.252V269.705H141.43ZM187.871 296.463C187.871 302.062 189.059 306.749 191.436 310.525C193.812 314.301 197.62 316.189 202.861 316.189C206.93 316.189 210.267 314.448 212.871 310.965C215.508 307.449 216.826 302.42 216.826 295.877C216.826 289.269 215.475 284.386 212.773 281.229C210.072 278.038 206.735 276.443 202.764 276.443C198.337 276.443 194.74 278.136 191.973 281.521C189.238 284.907 187.871 289.887 187.871 296.463ZM201.104 268.777C205.107 268.777 208.46 269.624 211.162 271.316C212.725 272.293 214.499 274.002 216.484 276.443V250.027H224.932V322H217.021V314.725C214.971 317.947 212.546 320.275 209.746 321.707C206.947 323.139 203.74 323.855 200.127 323.855C194.3 323.855 189.255 321.414 184.99 316.531C180.726 311.616 178.594 305.089 178.594 296.951C178.594 289.334 180.531 282.742 184.404 277.176C188.311 271.577 193.877 268.777 201.104 268.777ZM231.969 269.949H240.904V322H231.969V269.949ZM231.969 250.271H240.904V260.232H231.969V250.271ZM248.234 269.705H256.584V277.127C259.058 274.067 261.678 271.87 264.445 270.535C267.212 269.201 270.288 268.533 273.674 268.533C281.096 268.533 286.109 271.121 288.713 276.297C290.145 279.129 290.861 283.182 290.861 288.455V322H281.926V289.041C281.926 285.851 281.454 283.279 280.51 281.326C278.947 278.071 276.115 276.443 272.014 276.443C269.93 276.443 268.221 276.655 266.887 277.078C264.478 277.794 262.362 279.227 260.539 281.375C259.074 283.1 258.114 284.891 257.658 286.746C257.235 288.569 257.023 291.189 257.023 294.607V322H248.234V269.705ZM316.355 268.777C320.457 268.777 324.038 269.786 327.098 271.805C328.758 272.944 330.451 274.604 332.176 276.785V270.193H340.281V317.752C340.281 324.393 339.305 329.633 337.352 333.475C333.706 340.571 326.821 344.119 316.697 344.119C311.066 344.119 306.329 342.85 302.488 340.311C298.647 337.804 296.499 333.865 296.043 328.494H304.979C305.402 330.838 306.248 332.645 307.518 333.914C309.503 335.867 312.628 336.844 316.893 336.844C323.631 336.844 328.042 334.467 330.125 329.715C331.362 326.915 331.932 321.919 331.834 314.725C330.076 317.394 327.96 319.38 325.486 320.682C323.012 321.984 319.741 322.635 315.672 322.635C310.008 322.635 305.044 320.633 300.779 316.629C296.548 312.592 294.432 305.936 294.432 296.658C294.432 287.902 296.564 281.066 300.828 276.15C305.125 271.235 310.301 268.777 316.355 268.777ZM332.176 295.633C332.176 289.155 330.841 284.354 328.172 281.229C325.503 278.104 322.101 276.541 317.967 276.541C311.782 276.541 307.55 279.438 305.271 285.232C304.067 288.325 303.465 292.378 303.465 297.391C303.465 303.283 304.653 307.775 307.029 310.867C309.438 313.927 312.661 315.457 316.697 315.457C323.012 315.457 327.456 312.609 330.027 306.912C331.46 303.689 332.176 299.93 332.176 295.633ZM374.619 305.594C374.88 308.523 375.612 310.77 376.816 312.332C379.03 315.164 382.871 316.58 388.34 316.58C391.595 316.58 394.46 315.88 396.934 314.48C399.408 313.048 400.645 310.851 400.645 307.889C400.645 305.643 399.652 303.934 397.666 302.762C396.396 302.046 393.89 301.215 390.146 300.271L383.164 298.514C378.704 297.407 375.417 296.17 373.301 294.803C369.525 292.426 367.637 289.139 367.637 284.939C367.637 279.992 369.411 275.988 372.959 272.928C376.54 269.868 381.341 268.338 387.363 268.338C395.241 268.338 400.921 270.649 404.404 275.271C406.585 278.201 407.643 281.359 407.578 284.744H399.277C399.115 282.758 398.415 280.952 397.178 279.324C395.16 277.013 391.66 275.857 386.68 275.857C383.359 275.857 380.837 276.492 379.111 277.762C377.419 279.031 376.572 280.708 376.572 282.791C376.572 285.07 377.695 286.893 379.941 288.26C381.243 289.074 383.164 289.79 385.703 290.408L391.514 291.824C397.829 293.354 402.061 294.835 404.209 296.268C407.627 298.514 409.336 302.046 409.336 306.863C409.336 311.518 407.562 315.538 404.014 318.924C400.498 322.309 395.127 324.002 387.9 324.002C380.12 324.002 374.603 322.244 371.348 318.729C368.125 315.18 366.4 310.802 366.172 305.594H374.619ZM435.172 268.533C438.883 268.533 442.48 269.412 445.963 271.17C449.446 272.895 452.099 275.141 453.922 277.908C455.68 280.545 456.852 283.621 457.438 287.137C457.958 289.546 458.219 293.387 458.219 298.66H419.889C420.051 303.966 421.305 308.23 423.648 311.453C425.992 314.643 429.622 316.238 434.537 316.238C439.127 316.238 442.789 314.725 445.523 311.697C447.086 309.939 448.193 307.905 448.844 305.594H457.486C457.258 307.514 456.493 309.663 455.191 312.039C453.922 314.383 452.49 316.303 450.895 317.801C448.225 320.405 444.921 322.163 440.982 323.074C438.867 323.595 436.474 323.855 433.805 323.855C427.294 323.855 421.777 321.495 417.252 316.775C412.727 312.023 410.465 305.382 410.465 296.854C410.465 288.455 412.743 281.635 417.301 276.395C421.858 271.154 427.815 268.533 435.172 268.533ZM449.186 291.678C448.827 287.869 447.997 284.826 446.695 282.547C444.286 278.315 440.266 276.199 434.635 276.199C430.598 276.199 427.213 277.664 424.479 280.594C421.744 283.491 420.296 287.186 420.133 291.678H449.186ZM463.303 250.271H472.092V322H463.303V250.271ZM501.102 268.533C504.812 268.533 508.41 269.412 511.893 271.17C515.376 272.895 518.029 275.141 519.852 277.908C521.609 280.545 522.781 283.621 523.367 287.137C523.888 289.546 524.148 293.387 524.148 298.66H485.818C485.981 303.966 487.234 308.23 489.578 311.453C491.922 314.643 495.551 316.238 500.467 316.238C505.057 316.238 508.719 314.725 511.453 311.697C513.016 309.939 514.122 307.905 514.773 305.594H523.416C523.188 307.514 522.423 309.663 521.121 312.039C519.852 314.383 518.419 316.303 516.824 317.801C514.155 320.405 510.851 322.163 506.912 323.074C504.796 323.595 502.404 323.855 499.734 323.855C493.224 323.855 487.706 321.495 483.182 316.775C478.657 312.023 476.395 305.382 476.395 296.854C476.395 288.455 478.673 281.635 483.23 276.395C487.788 271.154 493.745 268.533 501.102 268.533ZM515.115 291.678C514.757 287.869 513.927 284.826 512.625 282.547C510.216 278.315 506.196 276.199 500.564 276.199C496.528 276.199 493.143 277.664 490.408 280.594C487.674 283.491 486.225 287.186 486.062 291.678H515.115ZM549.154 268.191C555.046 268.191 559.831 269.624 563.51 272.488C567.221 275.353 569.451 280.285 570.199 287.283H561.654C561.133 284.061 559.945 281.391 558.09 279.275C556.234 277.127 553.256 276.053 549.154 276.053C543.555 276.053 539.551 278.787 537.143 284.256C535.58 287.804 534.799 292.182 534.799 297.391C534.799 302.632 535.906 307.042 538.119 310.623C540.333 314.204 543.816 315.994 548.568 315.994C552.214 315.994 555.095 314.887 557.211 312.674C559.359 310.428 560.84 307.368 561.654 303.494H570.199C569.223 310.428 566.781 315.506 562.875 318.729C558.969 321.919 553.972 323.514 547.885 323.514C541.049 323.514 535.596 321.023 531.527 316.043C527.458 311.03 525.424 304.78 525.424 297.293C525.424 288.113 527.654 280.968 532.113 275.857C536.573 270.747 542.253 268.191 549.154 268.191ZM574.746 255.105H583.633V269.705H591.982V276.883H583.633V311.014C583.633 312.837 584.251 314.057 585.488 314.676C586.172 315.034 587.311 315.213 588.906 315.213C589.329 315.213 589.785 315.213 590.273 315.213C590.762 315.18 591.331 315.132 591.982 315.066V322C590.973 322.293 589.915 322.505 588.809 322.635C587.734 322.765 586.562 322.83 585.293 322.83C581.191 322.83 578.408 321.788 576.943 319.705C575.479 317.589 574.746 314.855 574.746 311.502V276.883H567.666V269.705H574.746V255.105ZM601.559 308.084C601.559 310.623 602.486 312.625 604.342 314.09C606.197 315.555 608.395 316.287 610.934 316.287C614.026 316.287 617.021 315.571 619.918 314.139C624.801 311.762 627.242 307.872 627.242 302.469V295.389C626.168 296.072 624.785 296.642 623.092 297.098C621.399 297.553 619.739 297.879 618.111 298.074L612.789 298.758C609.599 299.181 607.206 299.848 605.611 300.76C602.91 302.29 601.559 304.731 601.559 308.084ZM622.848 290.311C624.866 290.05 626.217 289.204 626.9 287.771C627.291 286.99 627.486 285.867 627.486 284.402C627.486 281.408 626.412 279.243 624.264 277.908C622.148 276.541 619.104 275.857 615.133 275.857C610.543 275.857 607.288 277.094 605.367 279.568C604.293 280.936 603.593 282.97 603.268 285.672H595.064C595.227 279.227 597.311 274.751 601.314 272.244C605.351 269.705 610.022 268.436 615.328 268.436C621.48 268.436 626.477 269.607 630.318 271.951C634.127 274.295 636.031 277.941 636.031 282.889V313.016C636.031 313.927 636.21 314.66 636.568 315.213C636.959 315.766 637.757 316.043 638.961 316.043C639.352 316.043 639.791 316.027 640.279 315.994C640.768 315.929 641.288 315.848 641.842 315.75V322.244C640.475 322.635 639.433 322.879 638.717 322.977C638.001 323.074 637.024 323.123 635.787 323.123C632.76 323.123 630.562 322.049 629.195 319.9C628.479 318.761 627.975 317.15 627.682 315.066C625.891 317.41 623.32 319.445 619.967 321.17C616.614 322.895 612.919 323.758 608.883 323.758C604.033 323.758 600.061 322.293 596.969 319.363C593.909 316.401 592.379 312.706 592.379 308.279C592.379 303.429 593.893 299.669 596.92 297C599.947 294.331 603.919 292.687 608.834 292.068L622.848 290.311ZM643.801 250.027H652.346V276.053C654.266 273.546 656.561 271.642 659.23 270.34C661.9 269.005 664.797 268.338 667.922 268.338C674.432 268.338 679.706 270.584 683.742 275.076C687.811 279.536 689.846 286.128 689.846 294.852C689.846 303.12 687.844 309.988 683.84 315.457C679.836 320.926 674.286 323.66 667.189 323.66C663.218 323.66 659.865 322.7 657.131 320.779C655.503 319.64 653.762 317.817 651.906 315.311V322H643.801V250.027ZM666.652 315.896C671.405 315.896 674.953 314.008 677.297 310.232C679.673 306.456 680.861 301.476 680.861 295.291C680.861 289.79 679.673 285.232 677.297 281.619C674.953 278.006 671.486 276.199 666.896 276.199C662.893 276.199 659.377 277.68 656.35 280.643C653.355 283.605 651.857 288.488 651.857 295.291C651.857 300.206 652.476 304.194 653.713 307.254C656.024 313.016 660.337 315.896 666.652 315.896ZM694.393 250.271H703.182V322H694.393V250.271ZM732.191 268.533C735.902 268.533 739.499 269.412 742.982 271.17C746.465 272.895 749.118 275.141 750.941 277.908C752.699 280.545 753.871 283.621 754.457 287.137C754.978 289.546 755.238 293.387 755.238 298.66H716.908C717.071 303.966 718.324 308.23 720.668 311.453C723.012 314.643 726.641 316.238 731.557 316.238C736.146 316.238 739.809 314.725 742.543 311.697C744.105 309.939 745.212 307.905 745.863 305.594H754.506C754.278 307.514 753.513 309.663 752.211 312.039C750.941 314.383 749.509 316.303 747.914 317.801C745.245 320.405 741.941 322.163 738.002 323.074C735.886 323.595 733.493 323.855 730.824 323.855C724.314 323.855 718.796 321.495 714.271 316.775C709.747 312.023 707.484 305.382 707.484 296.854C707.484 288.455 709.763 281.635 714.32 276.395C718.878 271.154 724.835 268.533 732.191 268.533ZM746.205 291.678C745.847 287.869 745.017 284.826 743.715 282.547C741.306 278.315 737.286 276.199 731.654 276.199C727.618 276.199 724.232 277.664 721.498 280.594C718.764 283.491 717.315 287.186 717.152 291.678H746.205ZM783.668 255.105H792.555V269.705H800.904V276.883H792.555V311.014C792.555 312.837 793.173 314.057 794.41 314.676C795.094 315.034 796.233 315.213 797.828 315.213C798.251 315.213 798.707 315.213 799.195 315.213C799.684 315.18 800.253 315.132 800.904 315.066V322C799.895 322.293 798.837 322.505 797.73 322.635C796.656 322.765 795.484 322.83 794.215 322.83C790.113 322.83 787.33 321.788 785.865 319.705C784.4 317.589 783.668 314.855 783.668 311.502V276.883H776.588V269.705H783.668V255.105ZM803.742 250.027H812.531V276.785C814.615 274.148 816.486 272.293 818.146 271.219C820.979 269.363 824.51 268.436 828.742 268.436C836.327 268.436 841.47 271.089 844.172 276.395C845.637 279.292 846.369 283.312 846.369 288.455V322H837.336V289.041C837.336 285.2 836.848 282.384 835.871 280.594C834.276 277.729 831.281 276.297 826.887 276.297C823.241 276.297 819.937 277.55 816.975 280.057C814.012 282.563 812.531 287.299 812.531 294.266V322H803.742V250.027ZM875.184 268.533C878.895 268.533 882.492 269.412 885.975 271.17C889.458 272.895 892.111 275.141 893.934 277.908C895.691 280.545 896.863 283.621 897.449 287.137C897.97 289.546 898.23 293.387 898.23 298.66H859.9C860.063 303.966 861.316 308.23 863.66 311.453C866.004 314.643 869.633 316.238 874.549 316.238C879.139 316.238 882.801 314.725 885.535 311.697C887.098 309.939 888.204 307.905 888.855 305.594H897.498C897.27 307.514 896.505 309.663 895.203 312.039C893.934 314.383 892.501 316.303 890.906 317.801C888.237 320.405 884.933 322.163 880.994 323.074C878.878 323.595 876.486 323.855 873.816 323.855C867.306 323.855 861.788 321.495 857.264 316.775C852.739 312.023 850.477 305.382 850.477 296.854C850.477 288.455 852.755 281.635 857.312 276.395C861.87 271.154 867.827 268.533 875.184 268.533ZM889.197 291.678C888.839 287.869 888.009 284.826 886.707 282.547C884.298 278.315 880.278 276.199 874.646 276.199C870.61 276.199 867.225 277.664 864.49 280.594C861.756 283.491 860.307 287.186 860.145 291.678H889.197ZM903.07 269.705H911.762V277.127C913.845 274.555 915.733 272.684 917.426 271.512C920.323 269.526 923.611 268.533 927.289 268.533C931.456 268.533 934.809 269.559 937.348 271.609C938.78 272.781 940.082 274.507 941.254 276.785C943.207 273.986 945.502 271.919 948.139 270.584C950.775 269.217 953.738 268.533 957.025 268.533C964.057 268.533 968.842 271.072 971.381 276.15C972.748 278.885 973.432 282.563 973.432 287.186V322H964.301V285.672C964.301 282.189 963.422 279.796 961.664 278.494C959.939 277.192 957.823 276.541 955.316 276.541C951.866 276.541 948.887 277.697 946.381 280.008C943.907 282.319 942.67 286.176 942.67 291.58V322H933.734V287.869C933.734 284.321 933.311 281.733 932.465 280.105C931.13 277.664 928.64 276.443 924.994 276.443C921.674 276.443 918.646 277.729 915.912 280.301C913.21 282.872 911.859 287.527 911.859 294.266V322H903.07V269.705ZM1002.15 268.533C1005.86 268.533 1009.46 269.412 1012.94 271.17C1016.42 272.895 1019.08 275.141 1020.9 277.908C1022.66 280.545 1023.83 283.621 1024.41 287.137C1024.93 289.546 1025.2 293.387 1025.2 298.66H986.865C987.028 303.966 988.281 308.23 990.625 311.453C992.969 314.643 996.598 316.238 1001.51 316.238C1006.1 316.238 1009.77 314.725 1012.5 311.697C1014.06 309.939 1015.17 307.905 1015.82 305.594H1024.46C1024.24 307.514 1023.47 309.663 1022.17 312.039C1020.9 314.383 1019.47 316.303 1017.87 317.801C1015.2 320.405 1011.9 322.163 1007.96 323.074C1005.84 323.595 1003.45 323.855 1000.78 323.855C994.271 323.855 988.753 321.495 984.229 316.775C979.704 312.023 977.441 305.382 977.441 296.854C977.441 288.455 979.72 281.635 984.277 276.395C988.835 271.154 994.792 268.533 1002.15 268.533ZM1016.16 291.678C1015.8 287.869 1014.97 284.826 1013.67 282.547C1011.26 278.315 1007.24 276.199 1001.61 276.199C997.575 276.199 994.189 277.664 991.455 280.594C988.721 283.491 987.272 287.186 987.109 291.678H1016.16ZM1035.26 305.594C1035.52 308.523 1036.25 310.77 1037.46 312.332C1039.67 315.164 1043.51 316.58 1048.98 316.58C1052.24 316.58 1055.1 315.88 1057.57 314.48C1060.05 313.048 1061.29 310.851 1061.29 307.889C1061.29 305.643 1060.29 303.934 1058.31 302.762C1057.04 302.046 1054.53 301.215 1050.79 300.271L1043.8 298.514C1039.35 297.407 1036.06 296.17 1033.94 294.803C1030.17 292.426 1028.28 289.139 1028.28 284.939C1028.28 279.992 1030.05 275.988 1033.6 272.928C1037.18 269.868 1041.98 268.338 1048 268.338C1055.88 268.338 1061.56 270.649 1065.04 275.271C1067.23 278.201 1068.28 281.359 1068.22 284.744H1059.92C1059.76 282.758 1059.06 280.952 1057.82 279.324C1055.8 277.013 1052.3 275.857 1047.32 275.857C1044 275.857 1041.48 276.492 1039.75 277.762C1038.06 279.031 1037.21 280.708 1037.21 282.791C1037.21 285.07 1038.34 286.893 1040.58 288.26C1041.88 289.074 1043.8 289.79 1046.34 290.408L1052.15 291.824C1058.47 293.354 1062.7 294.835 1064.85 296.268C1068.27 298.514 1069.98 302.046 1069.98 306.863C1069.98 311.518 1068.2 315.538 1064.65 318.924C1061.14 322.309 1055.77 324.002 1048.54 324.002C1040.76 324.002 1035.24 322.244 1031.99 318.729C1028.77 315.18 1027.04 310.802 1026.81 305.594H1035.26ZM1102.61 308.084C1102.61 310.623 1103.53 312.625 1105.39 314.09C1107.24 315.555 1109.44 316.287 1111.98 316.287C1115.07 316.287 1118.07 315.571 1120.96 314.139C1125.85 311.762 1128.29 307.872 1128.29 302.469V295.389C1127.21 296.072 1125.83 296.642 1124.14 297.098C1122.45 297.553 1120.79 297.879 1119.16 298.074L1113.84 298.758C1110.65 299.181 1108.25 299.848 1106.66 300.76C1103.96 302.29 1102.61 304.731 1102.61 308.084ZM1123.89 290.311C1125.91 290.05 1127.26 289.204 1127.95 287.771C1128.34 286.99 1128.53 285.867 1128.53 284.402C1128.53 281.408 1127.46 279.243 1125.31 277.908C1123.19 276.541 1120.15 275.857 1116.18 275.857C1111.59 275.857 1108.33 277.094 1106.41 279.568C1105.34 280.936 1104.64 282.97 1104.31 285.672H1096.11C1096.27 279.227 1098.36 274.751 1102.36 272.244C1106.4 269.705 1111.07 268.436 1116.38 268.436C1122.53 268.436 1127.52 269.607 1131.37 271.951C1135.17 274.295 1137.08 277.941 1137.08 282.889V313.016C1137.08 313.927 1137.26 314.66 1137.62 315.213C1138.01 315.766 1138.8 316.043 1140.01 316.043C1140.4 316.043 1140.84 316.027 1141.33 315.994C1141.81 315.929 1142.34 315.848 1142.89 315.75V322.244C1141.52 322.635 1140.48 322.879 1139.76 322.977C1139.05 323.074 1138.07 323.123 1136.83 323.123C1133.81 323.123 1131.61 322.049 1130.24 319.9C1129.53 318.761 1129.02 317.15 1128.73 315.066C1126.94 317.41 1124.37 319.445 1121.01 321.17C1117.66 322.895 1113.97 323.758 1109.93 323.758C1105.08 323.758 1101.11 322.293 1098.02 319.363C1094.96 316.401 1093.43 312.706 1093.43 308.279C1093.43 303.429 1094.94 299.669 1097.97 297C1100.99 294.331 1104.97 292.687 1109.88 292.068L1123.89 290.311ZM1145.53 269.705H1153.88V277.127C1156.35 274.067 1158.98 271.87 1161.74 270.535C1164.51 269.201 1167.59 268.533 1170.97 268.533C1178.39 268.533 1183.41 271.121 1186.01 276.297C1187.44 279.129 1188.16 283.182 1188.16 288.455V322H1179.22V289.041C1179.22 285.851 1178.75 283.279 1177.81 281.326C1176.24 278.071 1173.41 276.443 1169.31 276.443C1167.23 276.443 1165.52 276.655 1164.18 277.078C1161.77 277.794 1159.66 279.227 1157.84 281.375C1156.37 283.1 1155.41 284.891 1154.96 286.746C1154.53 288.569 1154.32 291.189 1154.32 294.607V322H1145.53V269.705ZM1200.76 296.463C1200.76 302.062 1201.95 306.749 1204.33 310.525C1206.7 314.301 1210.51 316.189 1215.75 316.189C1219.82 316.189 1223.16 314.448 1225.76 310.965C1228.4 307.449 1229.72 302.42 1229.72 295.877C1229.72 289.269 1228.37 284.386 1225.66 281.229C1222.96 278.038 1219.63 276.443 1215.65 276.443C1211.23 276.443 1207.63 278.136 1204.86 281.521C1202.13 284.907 1200.76 289.887 1200.76 296.463ZM1213.99 268.777C1218 268.777 1221.35 269.624 1224.05 271.316C1225.62 272.293 1227.39 274.002 1229.38 276.443V250.027H1237.82V322H1229.91V314.725C1227.86 317.947 1225.44 320.275 1222.64 321.707C1219.84 323.139 1216.63 323.855 1213.02 323.855C1207.19 323.855 1202.15 321.414 1197.88 316.531C1193.62 311.616 1191.48 305.089 1191.48 296.951C1191.48 289.334 1193.42 282.742 1197.29 277.176C1201.2 271.577 1206.77 268.777 1213.99 268.777ZM1273.43 308.084C1273.43 310.623 1274.36 312.625 1276.21 314.09C1278.07 315.555 1280.27 316.287 1282.8 316.287C1285.9 316.287 1288.89 315.571 1291.79 314.139C1296.67 311.762 1299.11 307.872 1299.11 302.469V295.389C1298.04 296.072 1296.66 296.642 1294.96 297.098C1293.27 297.553 1291.61 297.879 1289.98 298.074L1284.66 298.758C1281.47 299.181 1279.08 299.848 1277.48 300.76C1274.78 302.29 1273.43 304.731 1273.43 308.084ZM1294.72 290.311C1296.74 290.05 1298.09 289.204 1298.77 287.771C1299.16 286.99 1299.36 285.867 1299.36 284.402C1299.36 281.408 1298.28 279.243 1296.13 277.908C1294.02 276.541 1290.98 275.857 1287 275.857C1282.41 275.857 1279.16 277.094 1277.24 279.568C1276.16 280.936 1275.46 282.97 1275.14 285.672H1266.94C1267.1 279.227 1269.18 274.751 1273.19 272.244C1277.22 269.705 1281.89 268.436 1287.2 268.436C1293.35 268.436 1298.35 269.607 1302.19 271.951C1306 274.295 1307.9 277.941 1307.9 282.889V313.016C1307.9 313.927 1308.08 314.66 1308.44 315.213C1308.83 315.766 1309.63 316.043 1310.83 316.043C1311.22 316.043 1311.66 316.027 1312.15 315.994C1312.64 315.929 1313.16 315.848 1313.71 315.75V322.244C1312.35 322.635 1311.3 322.879 1310.59 322.977C1309.87 323.074 1308.9 323.123 1307.66 323.123C1304.63 323.123 1302.43 322.049 1301.07 319.9C1300.35 318.761 1299.85 317.15 1299.55 315.066C1297.76 317.41 1295.19 319.445 1291.84 321.17C1288.49 322.895 1284.79 323.758 1280.75 323.758C1275.9 323.758 1271.93 322.293 1268.84 319.363C1265.78 316.401 1264.25 312.706 1264.25 308.279C1264.25 303.429 1265.76 299.669 1268.79 297C1271.82 294.331 1275.79 292.687 1280.71 292.068L1294.72 290.311ZM26.6113 383.191C32.5033 383.191 37.2884 384.624 40.9668 387.488C44.6777 390.353 46.9076 395.285 47.6562 402.283H39.1113C38.5905 399.061 37.4023 396.391 35.5469 394.275C33.6914 392.127 30.7129 391.053 26.6113 391.053C21.0124 391.053 17.0085 393.787 14.5996 399.256C13.0371 402.804 12.2559 407.182 12.2559 412.391C12.2559 417.632 13.3626 422.042 15.5762 425.623C17.7897 429.204 21.2728 430.994 26.0254 430.994C29.6712 430.994 32.5521 429.887 34.668 427.674C36.8164 425.428 38.2975 422.368 39.1113 418.494H47.6562C46.6797 425.428 44.2383 430.506 40.332 433.729C36.4258 436.919 31.429 438.514 25.3418 438.514C18.5059 438.514 13.0534 436.023 8.98438 431.043C4.91536 426.03 2.88086 419.78 2.88086 412.293C2.88086 403.113 5.11068 395.968 9.57031 390.857C14.0299 385.747 19.7103 383.191 26.6113 383.191ZM71.1973 431.336C77.0241 431.336 81.0117 429.139 83.1602 424.744C85.3411 420.317 86.4316 415.402 86.4316 409.998C86.4316 405.115 85.6504 401.144 84.0879 398.084C81.6139 393.266 77.3496 390.857 71.2949 390.857C65.9238 390.857 62.0176 392.908 59.5762 397.01C57.1348 401.111 55.9141 406.059 55.9141 411.854C55.9141 417.42 57.1348 422.059 59.5762 425.77C62.0176 429.48 65.8913 431.336 71.1973 431.336ZM71.5391 383.191C78.2773 383.191 83.974 385.438 88.6289 389.93C93.2839 394.422 95.6113 401.03 95.6113 409.754C95.6113 418.185 93.5605 425.151 89.459 430.652C85.3574 436.154 78.9935 438.904 70.3672 438.904C63.1732 438.904 57.4603 436.479 53.2285 431.629C48.9967 426.746 46.8809 420.203 46.8809 412C46.8809 403.211 49.1107 396.212 53.5703 391.004C58.0299 385.796 64.0195 383.191 71.5391 383.191ZM100.109 384.705H108.801V392.127C110.884 389.555 112.772 387.684 114.465 386.512C117.362 384.526 120.65 383.533 124.328 383.533C128.495 383.533 131.848 384.559 134.387 386.609C135.819 387.781 137.121 389.507 138.293 391.785C140.246 388.986 142.541 386.919 145.178 385.584C147.814 384.217 150.777 383.533 154.064 383.533C161.096 383.533 165.881 386.072 168.42 391.15C169.787 393.885 170.471 397.563 170.471 402.186V437H161.34V400.672C161.34 397.189 160.461 394.796 158.703 393.494C156.978 392.192 154.862 391.541 152.355 391.541C148.905 391.541 145.926 392.697 143.42 395.008C140.946 397.319 139.709 401.176 139.709 406.58V437H130.773V402.869C130.773 399.321 130.35 396.733 129.504 395.105C128.169 392.664 125.679 391.443 122.033 391.443C118.713 391.443 115.686 392.729 112.951 395.301C110.249 397.872 108.898 402.527 108.898 409.266V437H100.109V384.705ZM199.48 431.092C203.582 431.092 206.984 429.383 209.686 425.965C212.42 422.514 213.787 417.371 213.787 410.535C213.787 406.368 213.185 402.788 211.98 399.793C209.702 394.031 205.535 391.15 199.48 391.15C193.393 391.15 189.227 394.194 186.98 400.281C185.776 403.536 185.174 407.671 185.174 412.684C185.174 416.72 185.776 420.154 186.98 422.986C189.259 428.39 193.426 431.092 199.48 431.092ZM176.727 384.949H185.271V391.883C187.029 389.507 188.95 387.667 191.033 386.365C193.995 384.412 197.479 383.436 201.482 383.436C207.407 383.436 212.436 385.714 216.57 390.271C220.704 394.796 222.771 401.274 222.771 409.705C222.771 421.098 219.793 429.236 213.836 434.119C210.06 437.212 205.665 438.758 200.652 438.758C196.714 438.758 193.41 437.895 190.74 436.17C189.178 435.193 187.436 433.517 185.516 431.141V457.85H176.727V384.949ZM227.318 365.271H236.107V437H227.318V365.271ZM265.117 383.533C268.828 383.533 272.425 384.412 275.908 386.17C279.391 387.895 282.044 390.141 283.867 392.908C285.625 395.545 286.797 398.621 287.383 402.137C287.904 404.546 288.164 408.387 288.164 413.66H249.834C249.997 418.966 251.25 423.23 253.594 426.453C255.938 429.643 259.567 431.238 264.482 431.238C269.072 431.238 272.734 429.725 275.469 426.697C277.031 424.939 278.138 422.905 278.789 420.594H287.432C287.204 422.514 286.439 424.663 285.137 427.039C283.867 429.383 282.435 431.303 280.84 432.801C278.171 435.405 274.867 437.163 270.928 438.074C268.812 438.595 266.419 438.855 263.75 438.855C257.24 438.855 251.722 436.495 247.197 431.775C242.673 427.023 240.41 420.382 240.41 411.854C240.41 403.455 242.689 396.635 247.246 391.395C251.803 386.154 257.76 383.533 265.117 383.533ZM279.131 406.678C278.773 402.869 277.943 399.826 276.641 397.547C274.232 393.315 270.212 391.199 264.58 391.199C260.544 391.199 257.158 392.664 254.424 395.594C251.689 398.491 250.241 402.186 250.078 406.678H279.131ZM294.762 370.105H303.648V384.705H311.998V391.883H303.648V426.014C303.648 427.837 304.267 429.057 305.504 429.676C306.188 430.034 307.327 430.213 308.922 430.213C309.345 430.213 309.801 430.213 310.289 430.213C310.777 430.18 311.347 430.132 311.998 430.066V437C310.989 437.293 309.931 437.505 308.824 437.635C307.75 437.765 306.578 437.83 305.309 437.83C301.207 437.83 298.424 436.788 296.959 434.705C295.494 432.589 294.762 429.855 294.762 426.502V391.883H287.682V384.705H294.762V370.105ZM336.613 383.533C340.324 383.533 343.921 384.412 347.404 386.17C350.887 387.895 353.54 390.141 355.363 392.908C357.121 395.545 358.293 398.621 358.879 402.137C359.4 404.546 359.66 408.387 359.66 413.66H321.33C321.493 418.966 322.746 423.23 325.09 426.453C327.434 429.643 331.063 431.238 335.979 431.238C340.568 431.238 344.23 429.725 346.965 426.697C348.527 424.939 349.634 422.905 350.285 420.594H358.928C358.7 422.514 357.935 424.663 356.633 427.039C355.363 429.383 353.931 431.303 352.336 432.801C349.667 435.405 346.363 437.163 342.424 438.074C340.308 438.595 337.915 438.855 335.246 438.855C328.736 438.855 323.218 436.495 318.693 431.775C314.169 427.023 311.906 420.382 311.906 411.854C311.906 403.455 314.185 396.635 318.742 391.395C323.299 386.154 329.257 383.533 336.613 383.533ZM350.627 406.678C350.269 402.869 349.439 399.826 348.137 397.547C345.728 393.315 341.708 391.199 336.076 391.199C332.04 391.199 328.654 392.664 325.92 395.594C323.186 398.491 321.737 402.186 321.574 406.678H350.627ZM391.557 420.594C391.817 423.523 392.549 425.77 393.754 427.332C395.967 430.164 399.809 431.58 405.277 431.58C408.533 431.58 411.397 430.88 413.871 429.48C416.345 428.048 417.582 425.851 417.582 422.889C417.582 420.643 416.589 418.934 414.604 417.762C413.334 417.046 410.827 416.215 407.084 415.271L400.102 413.514C395.642 412.407 392.354 411.17 390.238 409.803C386.462 407.426 384.574 404.139 384.574 399.939C384.574 394.992 386.348 390.988 389.896 387.928C393.477 384.868 398.279 383.338 404.301 383.338C412.178 383.338 417.859 385.649 421.342 390.271C423.523 393.201 424.581 396.359 424.516 399.744H416.215C416.052 397.758 415.352 395.952 414.115 394.324C412.097 392.013 408.598 390.857 403.617 390.857C400.297 390.857 397.774 391.492 396.049 392.762C394.356 394.031 393.51 395.708 393.51 397.791C393.51 400.07 394.633 401.893 396.879 403.26C398.181 404.074 400.102 404.79 402.641 405.408L408.451 406.824C414.766 408.354 418.998 409.835 421.146 411.268C424.564 413.514 426.273 417.046 426.273 421.863C426.273 426.518 424.499 430.538 420.951 433.924C417.436 437.309 412.064 439.002 404.838 439.002C397.058 439.002 391.54 437.244 388.285 433.729C385.062 430.18 383.337 425.802 383.109 420.594H391.557ZM450.498 383.191C456.39 383.191 461.175 384.624 464.854 387.488C468.564 390.353 470.794 395.285 471.543 402.283H462.998C462.477 399.061 461.289 396.391 459.434 394.275C457.578 392.127 454.6 391.053 450.498 391.053C444.899 391.053 440.895 393.787 438.486 399.256C436.924 402.804 436.143 407.182 436.143 412.391C436.143 417.632 437.249 422.042 439.463 425.623C441.676 429.204 445.16 430.994 449.912 430.994C453.558 430.994 456.439 429.887 458.555 427.674C460.703 425.428 462.184 422.368 462.998 418.494H471.543C470.566 425.428 468.125 430.506 464.219 433.729C460.312 436.919 455.316 438.514 449.229 438.514C442.393 438.514 436.94 436.023 432.871 431.043C428.802 426.03 426.768 419.78 426.768 412.293C426.768 403.113 428.997 395.968 433.457 390.857C437.917 385.747 443.597 383.191 450.498 383.191ZM495.084 431.336C500.911 431.336 504.898 429.139 507.047 424.744C509.228 420.317 510.318 415.402 510.318 409.998C510.318 405.115 509.537 401.144 507.975 398.084C505.501 393.266 501.236 390.857 495.182 390.857C489.811 390.857 485.904 392.908 483.463 397.01C481.021 401.111 479.801 406.059 479.801 411.854C479.801 417.42 481.021 422.059 483.463 425.77C485.904 429.48 489.778 431.336 495.084 431.336ZM495.426 383.191C502.164 383.191 507.861 385.438 512.516 389.93C517.171 394.422 519.498 401.03 519.498 409.754C519.498 418.185 517.447 425.151 513.346 430.652C509.244 436.154 502.88 438.904 494.254 438.904C487.06 438.904 481.347 436.479 477.115 431.629C472.883 426.746 470.768 420.203 470.768 412C470.768 403.211 472.997 396.212 477.457 391.004C481.917 385.796 487.906 383.191 495.426 383.191ZM524.24 384.705H532.59V393.738C533.273 391.98 534.95 389.848 537.619 387.342C540.288 384.803 543.365 383.533 546.848 383.533C547.01 383.533 547.287 383.549 547.678 383.582C548.068 383.615 548.736 383.68 549.68 383.777V393.055C549.159 392.957 548.671 392.892 548.215 392.859C547.792 392.827 547.32 392.811 546.799 392.811C542.372 392.811 538.97 394.243 536.594 397.107C534.217 399.939 533.029 403.211 533.029 406.922V437H524.24V384.705ZM573.074 383.533C576.785 383.533 580.382 384.412 583.865 386.17C587.348 387.895 590.001 390.141 591.824 392.908C593.582 395.545 594.754 398.621 595.34 402.137C595.861 404.546 596.121 408.387 596.121 413.66H557.791C557.954 418.966 559.207 423.23 561.551 426.453C563.895 429.643 567.524 431.238 572.439 431.238C577.029 431.238 580.691 429.725 583.426 426.697C584.988 424.939 586.095 422.905 586.746 420.594H595.389C595.161 422.514 594.396 424.663 593.094 427.039C591.824 429.383 590.392 431.303 588.797 432.801C586.128 435.405 582.824 437.163 578.885 438.074C576.769 438.595 574.376 438.855 571.707 438.855C565.197 438.855 559.679 436.495 555.154 431.775C550.63 427.023 548.367 420.382 548.367 411.854C548.367 403.455 550.646 396.635 555.203 391.395C559.76 386.154 565.717 383.533 573.074 383.533ZM587.088 406.678C586.73 402.869 585.9 399.826 584.598 397.547C582.189 393.315 578.169 391.199 572.537 391.199C568.501 391.199 565.115 392.664 562.381 395.594C559.646 398.491 558.198 402.186 558.035 406.678H587.088ZM600.277 365.027H608.822V391.053C610.743 388.546 613.038 386.642 615.707 385.34C618.376 384.005 621.273 383.338 624.398 383.338C630.909 383.338 636.182 385.584 640.219 390.076C644.288 394.536 646.322 401.128 646.322 409.852C646.322 418.12 644.32 424.988 640.316 430.457C636.312 435.926 630.762 438.66 623.666 438.66C619.695 438.66 616.342 437.7 613.607 435.779C611.98 434.64 610.238 432.817 608.383 430.311V437H600.277V365.027ZM623.129 430.896C627.882 430.896 631.43 429.008 633.773 425.232C636.15 421.456 637.338 416.476 637.338 410.291C637.338 404.79 636.15 400.232 633.773 396.619C631.43 393.006 627.963 391.199 623.373 391.199C619.369 391.199 615.854 392.68 612.826 395.643C609.831 398.605 608.334 403.488 608.334 410.291C608.334 415.206 608.952 419.194 610.189 422.254C612.501 428.016 616.814 430.896 623.129 430.896ZM671.377 431.336C677.204 431.336 681.191 429.139 683.34 424.744C685.521 420.317 686.611 415.402 686.611 409.998C686.611 405.115 685.83 401.144 684.268 398.084C681.794 393.266 677.529 390.857 671.475 390.857C666.104 390.857 662.197 392.908 659.756 397.01C657.314 401.111 656.094 406.059 656.094 411.854C656.094 417.42 657.314 422.059 659.756 425.77C662.197 429.48 666.071 431.336 671.377 431.336ZM671.719 383.191C678.457 383.191 684.154 385.438 688.809 389.93C693.464 394.422 695.791 401.03 695.791 409.754C695.791 418.185 693.74 425.151 689.639 430.652C685.537 436.154 679.173 438.904 670.547 438.904C663.353 438.904 657.64 436.479 653.408 431.629C649.176 426.746 647.061 420.203 647.061 412C647.061 403.211 649.29 396.212 653.75 391.004C658.21 385.796 664.199 383.191 671.719 383.191ZM707.027 423.084C707.027 425.623 707.955 427.625 709.811 429.09C711.666 430.555 713.863 431.287 716.402 431.287C719.495 431.287 722.49 430.571 725.387 429.139C730.27 426.762 732.711 422.872 732.711 417.469V410.389C731.637 411.072 730.253 411.642 728.561 412.098C726.868 412.553 725.208 412.879 723.58 413.074L718.258 413.758C715.068 414.181 712.675 414.848 711.08 415.76C708.378 417.29 707.027 419.731 707.027 423.084ZM728.316 405.311C730.335 405.05 731.686 404.204 732.369 402.771C732.76 401.99 732.955 400.867 732.955 399.402C732.955 396.408 731.881 394.243 729.732 392.908C727.617 391.541 724.573 390.857 720.602 390.857C716.012 390.857 712.757 392.094 710.836 394.568C709.762 395.936 709.062 397.97 708.736 400.672H700.533C700.696 394.227 702.779 389.751 706.783 387.244C710.82 384.705 715.491 383.436 720.797 383.436C726.949 383.436 731.946 384.607 735.787 386.951C739.596 389.295 741.5 392.941 741.5 397.889V428.016C741.5 428.927 741.679 429.66 742.037 430.213C742.428 430.766 743.225 431.043 744.43 431.043C744.82 431.043 745.26 431.027 745.748 430.994C746.236 430.929 746.757 430.848 747.311 430.75V437.244C745.943 437.635 744.902 437.879 744.186 437.977C743.469 438.074 742.493 438.123 741.256 438.123C738.229 438.123 736.031 437.049 734.664 434.9C733.948 433.761 733.443 432.15 733.15 430.066C731.36 432.41 728.788 434.445 725.436 436.17C722.083 437.895 718.388 438.758 714.352 438.758C709.501 438.758 705.53 437.293 702.438 434.363C699.378 431.401 697.848 427.706 697.848 423.279C697.848 418.429 699.361 414.669 702.389 412C705.416 409.331 709.387 407.687 714.303 407.068L728.316 405.311ZM750.197 384.705H758.547V393.738C759.23 391.98 760.907 389.848 763.576 387.342C766.245 384.803 769.322 383.533 772.805 383.533C772.967 383.533 773.244 383.549 773.635 383.582C774.025 383.615 774.693 383.68 775.637 383.777V393.055C775.116 392.957 774.628 392.892 774.172 392.859C773.749 392.827 773.277 392.811 772.756 392.811C768.329 392.811 764.927 394.243 762.551 397.107C760.174 399.939 758.986 403.211 758.986 406.922V437H750.197V384.705ZM782.82 411.463C782.82 417.062 784.008 421.749 786.385 425.525C788.761 429.301 792.57 431.189 797.811 431.189C801.88 431.189 805.216 429.448 807.82 425.965C810.457 422.449 811.775 417.42 811.775 410.877C811.775 404.269 810.424 399.386 807.723 396.229C805.021 393.038 801.684 391.443 797.713 391.443C793.286 391.443 789.689 393.136 786.922 396.521C784.188 399.907 782.82 404.887 782.82 411.463ZM796.053 383.777C800.057 383.777 803.41 384.624 806.111 386.316C807.674 387.293 809.448 389.002 811.434 391.443V365.027H819.881V437H811.971V429.725C809.92 432.947 807.495 435.275 804.695 436.707C801.896 438.139 798.689 438.855 795.076 438.855C789.249 438.855 784.204 436.414 779.939 431.531C775.675 426.616 773.543 420.089 773.543 411.951C773.543 404.334 775.48 397.742 779.354 392.176C783.26 386.577 788.826 383.777 796.053 383.777ZM829.018 426.355H839.223V437H829.018V426.355Z" fill="black"/>
</svg>
