<svg width="444" height="90" viewBox="0 0 444 90" fill="none" xmlns="http://www.w3.org/2000/svg">
<path d="M0.9 68C0.8 68.6 1.1 69 1.7 69H21.4C22 69 22.5 68.6 22.6 68C22.8 67.4 22.5 67 21.9 66.9C19.8 66.5 17.2 66 17.2 63.3C17.2 60.9 19.5 51.8 20.4 49.4C22.2 45 32.4 27.2 35.6 25.8C36.2 25.5 36.8 25.4 37.4 25.4C39.9 25.4 40.2 28.9 40.2 30.8C40.2 33.3 39.8 35.8 39.1 38.2L31.5 65.3C30.8 67.5 32 68.9 34.2 68.9L35.8 68.8C37.1 68.8 38.3 68 38.6 66.7C40.4 60.1 42.1 53.4 44.2 47C45.4 43.4 55.5 27 58.2 25.8C58.7 25.5 59.3 25.4 59.9 25.4C62.5 25.4 62.7 28.9 62.7 30.7C62.7 33.3 62.3 35.8 61.6 38.2L56 59.9C55.6 61.2 55.3 62.5 55.3 63.9C55.3 67.6 57.9 69 61.2 69C67.3 69 69.2 64.4 71.3 59.7C71.5 59.1 71.3 58.6 70.6 58.4C69.9 58.3 69.3 58.6 69 59.3C68.1 61.5 66.5 65.2 64.8 65.2C63.5 65.2 63.1 63.9 63.1 62.8C63.1 62 63.3 61.2 63.5 60.4L69.5 37.4C70.1 35.2 70.4 33 70.4 30.7C70.4 26.1 68.8 20.5 63.2 20.5C56.2 20.5 49.7 32.9 46.7 38.2C47.4 35.8 47.9 33.3 47.9 30.7C47.9 26 46.2 20.5 40.6 20.5C33.4 20.5 25.8 34.8 22.8 40.5L27.2 23.7C27.8 21.5 26.6 20 24.2 20L15.1 20.1C14.3 20.1 13.5 20.6 13.1 21.3C12.8 22 13.1 22.5 13.9 22.5C16.4 22.5 18.7 22.9 18.7 26.2C18.7 31.6 12 53.5 10 60.1C9.5 61.9 8.8 64 7.2 65.2C5.7 66.2 3.9 66.5 2.2 66.8C1.6 66.9 1.1 67.4 0.9 68ZM55.4805 81.7C55.4805 87.1 60.7805 87.9 65.0805 87.9C79.0805 87.9 89.8805 76.7 97.5805 66.2C105.78 55 111.08 40.9 111.08 26.9C111.08 24.1 110.78 20.6 107.18 20.6C105.18 20.6 101.88 21.6 101.88 24.1C101.88 28.2 106.88 30.1 106.88 35.6C106.88 38.1 105.98 42.4 104.98 44.7C102.38 50.4 92.6805 63.6 86.0805 63.6C82.5805 63.6 81.8805 59.5 81.8805 56.8C81.8805 54.8 82.1805 52.7 82.6805 50.8L88.3805 29.1C88.6805 27.8 88.9805 26.4 88.9805 25.1C88.9805 21.4 86.4805 20 83.0805 20C76.9805 20 75.0805 24.6 73.0805 29.3C72.7805 29.9 73.0805 30.4 73.7805 30.6C74.3805 30.7 75.0805 30.4 75.2805 29.7C76.1805 27.5 77.8805 23.8 79.5805 23.8C80.7805 23.8 81.2805 25.1 81.2805 26.2C81.2805 27 81.0805 27.8 80.7805 28.6L74.7805 51.6C74.2805 53.7 73.9805 56 73.9805 58.2C73.9805 63.9 75.8805 68.5 82.2805 68.5C88.5805 68.5 94.3805 63.4 98.3805 58.9C93.6805 67.4 81.3805 82.9 71.0805 82.9C65.4805 82.9 65.2805 76.8 60.4805 76.8C57.7805 76.8 55.4805 79 55.4805 81.7ZM115.027 54.2C115.027 63 119.127 69.6 128.527 69.6C139.627 69.6 146.527 60.4 151.127 51.4C151.327 50.9 151.127 50.5 150.627 50.4C150.127 50.3 149.627 50.5 149.327 50.9C145.727 57 139.227 63.6 131.827 63.6C125.327 63.6 123.927 57.5 123.927 52.2C123.927 49.5 124.227 46.8 124.727 44.2C133.027 43.2 142.727 43.9 149.227 37.5C151.227 35.6 152.527 33.3 152.527 30.4C152.527 24.2 146.827 19.5 140.727 19.5C124.927 19.5 115.027 40.5 115.027 54.2ZM145.027 28.5C145.027 38.8 133.027 40.1 125.427 41.2C127.127 34 130.527 22.1 139.827 22.1C143.427 22.1 145.027 25.3 145.027 28.5ZM138.738 68C138.538 68.6 138.838 69 139.438 69H157.238C157.838 69 158.238 68.6 158.438 68.1C158.538 67.5 158.338 67.1 157.738 67C155.838 66.7 152.438 66.3 152.438 64.9C152.438 62.5 162.238 51 164.338 48.3C165.638 53.1 167.538 57.8 167.538 62.8C167.538 65.4 165.738 66.2 163.638 66.8C163.038 66.9 162.538 67.4 162.338 68C162.238 68.6 162.538 69 163.138 69H181.738C182.338 69 182.838 68.6 182.938 68C183.138 67.4 182.838 67 182.238 66.8C178.138 65.7 177.238 63.6 176.138 59.2L171.538 40.3L180.838 28.7C184.738 23.9 186.938 23.1 192.438 22.3C193.138 22.2 193.638 21.7 193.738 21.1C193.938 20.4 193.638 20 192.938 20H177.738C177.138 20 176.638 20.4 176.438 21C176.338 21.6 176.638 22 177.238 22.1C178.638 22.3 180.638 22.6 180.638 24C180.638 26.6 172.838 35.1 170.838 37.5C169.838 33.8 168.338 30.1 168.338 26.2C168.338 23 170.838 22.6 173.338 22.2C173.938 22.1 174.438 21.6 174.538 21C174.738 20.4 174.438 20 173.838 20H153.638C153.038 20 152.438 20.4 152.338 21.1C152.138 21.7 152.438 22.1 153.138 22.3C156.938 23 158.438 24.2 159.538 28.6L163.738 45.6L151.938 60.3C147.838 65.4 145.738 65.9 139.938 66.9C139.338 67 138.838 67.5 138.738 68ZM170.022 88.2C169.822 88.9 170.122 89.3 170.822 89.3H190.422C191.022 89.3 191.522 88.9 191.722 88.3C191.922 87.7 191.622 87.1 191.022 87C188.922 86.6 186.322 86.1 186.322 83.5C186.322 79.6 189.422 70.3 190.522 66.1C192.622 68.3 195.522 69.6 198.522 69.6C214.522 69.6 225.922 48 225.922 33.8C225.922 27.5 223.822 20 216.122 20C210.722 20 205.022 22.8 200.922 26.3L201.722 23.1C202.222 21.2 201.222 20 199.222 20H187.722C187.122 20 186.522 20.5 186.422 21.1C186.222 21.7 186.522 22.1 187.222 22.1C190.122 22.1 192.922 22.7 192.922 26.4C192.922 30.3 190.422 38.2 189.422 42.1C186.222 54.9 182.922 67.7 179.122 80.4C177.422 85.4 176.422 86.1 171.322 87C170.722 87.1 170.222 87.6 170.022 88.2ZM199.222 66.8C194.722 66.8 193.022 62.8 193.022 58.9C193.022 57.6 193.222 56.3 193.522 55.1L200.022 30.2C202.622 27.1 206.822 24.5 210.922 24.5C216.722 24.5 217.722 30.5 217.722 35C217.722 44.7 211.422 66.8 199.222 66.8ZM222.558 54.2C222.558 63 226.658 69.6 236.058 69.6C247.158 69.6 254.058 60.4 258.658 51.4C258.858 50.9 258.658 50.5 258.158 50.4C257.658 50.3 257.158 50.5 256.858 50.9C253.258 57 246.758 63.6 239.358 63.6C232.858 63.6 231.458 57.5 231.458 52.2C231.458 49.5 231.758 46.8 232.258 44.2C240.558 43.2 250.258 43.9 256.758 37.5C258.758 35.6 260.058 33.3 260.058 30.4C260.058 24.2 254.358 19.5 248.258 19.5C232.458 19.5 222.558 40.5 222.558 54.2ZM252.558 28.5C252.558 38.8 240.558 40.1 232.958 41.2C234.658 34 238.058 22.1 247.358 22.1C250.958 22.1 252.558 25.3 252.558 28.5ZM247.809 68C247.609 68.6 247.909 69 248.509 69H268.209C268.809 69 269.309 68.6 269.509 68C269.609 67.4 269.409 67 268.809 66.9C266.609 66.5 264.109 66 264.109 63.3C264.109 61.9 266.309 52.8 266.909 51.1C268.609 45.7 278.609 24 283.509 24C284.009 24 285.009 24 285.009 24.7C285.009 26.8 282.409 29.9 282.409 33.3C282.409 35.2 283.309 37.1 285.409 37.1C289.809 37.1 292.109 31.5 292.109 27.8C292.109 24 290.109 20.1 285.909 20.1C279.809 20.1 273.009 32.2 270.509 37C271.709 32.5 272.909 28 274.109 23.5C274.709 21.3 273.509 19.8 271.109 19.8L261.209 19.9C260.509 19.9 260.009 20.4 259.809 21.1C259.709 21.8 260.009 22.2 260.709 22.3C263.209 22.5 265.109 23.4 265.109 26.5C265.109 28.1 264.709 29.7 264.309 31.3L256.809 60.1C255.409 65.4 253.509 65.9 249.009 66.8C248.409 66.9 247.909 67.4 247.809 68ZM289.67 56.6C288.97 59 288.17 61.4 288.17 63.9C288.17 67.6 290.67 69 293.97 69C300.07 69 301.97 64.4 304.07 59.7C304.27 59.1 304.07 58.6 303.37 58.4C302.67 58.3 302.07 58.6 301.77 59.3C300.87 61.4 299.27 65.2 297.57 65.2C296.37 65.2 295.87 63.9 295.87 62.8C295.87 61 296.57 59.2 297.07 57.4L305.97 23.6C306.57 21.3 305.37 19.8 302.97 19.8L290.07 20.1C289.37 20.1 288.87 20.6 288.87 21.3C288.97 22 289.47 22.4 290.17 22.5C293.57 22.6 296.97 23.5 296.97 27.7C296.97 32.1 291.17 50.9 289.67 56.6ZM301.17 8.4C301.17 10.5 302.17 12.9 304.67 12.9C308.37 12.9 311.27 7.9 311.27 4.59999C311.27 2.4 310.17 0.099999 307.77 0.099999C303.97 0.099999 301.17 5 301.17 8.4ZM303.527 54.2C303.527 63 307.627 69.6 317.027 69.6C328.127 69.6 335.027 60.4 339.627 51.4C339.827 50.9 339.627 50.5 339.127 50.4C338.627 50.3 338.127 50.5 337.827 50.9C334.227 57 327.727 63.6 320.327 63.6C313.827 63.6 312.427 57.5 312.427 52.2C312.427 49.5 312.727 46.8 313.227 44.2C321.527 43.2 331.227 43.9 337.727 37.5C339.727 35.6 341.027 33.3 341.027 30.4C341.027 24.2 335.327 19.5 329.227 19.5C313.427 19.5 303.527 40.5 303.527 54.2ZM333.527 28.5C333.527 38.8 321.527 40.1 313.927 41.2C315.627 34 319.027 22.1 328.327 22.1C331.927 22.1 333.527 25.3 333.527 28.5ZM330.138 68C330.038 68.6 330.338 69 330.938 69H350.638C351.238 69 351.738 68.6 351.838 68C352.038 67.4 351.738 67 351.138 66.9C349.038 66.5 346.438 66 346.438 63.3C346.438 60.2 348.838 52.2 349.838 49C351.038 45.3 361.938 27.2 364.838 25.8C365.438 25.5 366.038 25.4 366.638 25.4C369.138 25.4 369.338 28.9 369.338 30.7C369.338 33.3 368.938 35.8 368.338 38.2L363.538 56.6C362.938 59 362.038 61.4 362.038 63.9C362.038 67.6 364.538 69 367.938 69C374.038 69 375.838 64.4 377.938 59.7C378.238 59.1 377.938 58.6 377.238 58.4C376.638 58.3 375.938 58.6 375.738 59.3C374.838 61.4 373.138 65.2 371.438 65.2C370.238 65.2 369.738 63.9 369.738 62.8C369.738 61 370.538 59.2 370.938 57.4L376.238 37.4C376.738 35.2 377.038 33 377.038 30.7C377.038 26.1 375.538 20.5 369.838 20.5C362.538 20.5 354.838 35.2 351.938 40.9L356.438 23.7C357.038 21.5 355.838 20 353.438 20L344.338 20.1C343.538 20.1 342.738 20.6 342.338 21.3C342.038 22 342.338 22.5 343.138 22.5C345.638 22.5 347.938 23 347.938 26.2C347.938 31.4 341.138 53.6 339.238 60.1C337.838 65.2 336.338 65.9 331.438 66.8C330.838 66.9 330.338 67.4 330.138 68ZM377.26 54.7C377.26 61.6 379.86 69.6 388.06 69.6C395.66 69.6 402.26 63.4 406.96 57.9C407.46 57.4 407.26 57.1 406.66 57.1C405.96 57.1 405.16 57.4 404.66 57.8C401.46 60.5 397.06 63.1 392.86 63.1C386.96 63.1 385.16 58.2 385.16 53C385.16 44.6 392.96 22.1 403.36 22.1C406.76 22.1 407.16 24.7 407.16 27.5C407.16 29.6 406.46 34.4 409.66 34.4C412.66 34.4 414.36 30.5 414.36 28C414.36 22.7 408.66 19.6 403.86 19.6C388.36 19.6 377.26 41 377.26 54.7ZM405.882 54.2C405.882 63 409.982 69.6 419.382 69.6C430.482 69.6 437.382 60.4 441.982 51.4C442.182 50.9 441.982 50.5 441.482 50.4C440.982 50.3 440.482 50.5 440.182 50.9C436.582 57 430.082 63.6 422.682 63.6C416.182 63.6 414.782 57.5 414.782 52.2C414.782 49.5 415.082 46.8 415.582 44.2C423.882 43.2 433.582 43.9 440.082 37.5C442.082 35.6 443.382 33.3 443.382 30.4C443.382 24.2 437.682 19.5 431.582 19.5C415.782 19.5 405.882 40.5 405.882 54.2ZM435.882 28.5C435.882 38.8 423.882 40.1 416.282 41.2C417.982 34 421.382 22.1 430.682 22.1C434.282 22.1 435.882 25.3 435.882 28.5Z" fill="black"/>
</svg>
