<svg width="109" height="13" viewBox="0 0 109 13" fill="none" xmlns="http://www.w3.org/2000/svg">
<path d="M0.96 1.432H2.52L5.22 8.632L7.932 1.432H9.492V10H8.412V2.872H8.388L5.712 10H4.74L2.064 2.872H2.04V10H0.96V1.432ZM14.0891 6.496V10H12.9491V6.496L9.63712 1.432H10.9931L13.5611 5.512L16.0691 1.432H17.3651L14.0891 6.496ZM26.0142 4.012C25.8862 3.404 25.6022 2.948 25.1622 2.644C24.7302 2.34 24.2142 2.188 23.6142 2.188C23.1022 2.188 22.6622 2.284 22.2942 2.476C21.9342 2.668 21.6342 2.928 21.3942 3.256C21.1622 3.576 20.9902 3.944 20.8782 4.36C20.7662 4.776 20.7102 5.208 20.7102 5.656C20.7102 6.144 20.7662 6.608 20.8782 7.048C20.9902 7.48 21.1622 7.86 21.3942 8.188C21.6342 8.508 21.9382 8.764 22.3062 8.956C22.6742 9.148 23.1142 9.244 23.6262 9.244C24.0022 9.244 24.3342 9.184 24.6222 9.064C24.9182 8.936 25.1702 8.764 25.3782 8.548C25.5942 8.324 25.7622 8.06 25.8822 7.756C26.0022 7.452 26.0742 7.124 26.0982 6.772H27.2382C27.1262 7.852 26.7542 8.692 26.1222 9.292C25.4902 9.892 24.6262 10.192 23.5302 10.192C22.8662 10.192 22.2862 10.08 21.7902 9.856C21.2942 9.624 20.8822 9.308 20.5542 8.908C20.2262 8.508 19.9782 8.036 19.8102 7.492C19.6502 6.948 19.5702 6.364 19.5702 5.74C19.5702 5.116 19.6582 4.532 19.8342 3.988C20.0102 3.436 20.2662 2.956 20.6022 2.548C20.9462 2.14 21.3702 1.82 21.8742 1.588C22.3862 1.348 22.9702 1.228 23.6262 1.228C24.0742 1.228 24.4982 1.288 24.8982 1.408C25.2982 1.528 25.6542 1.704 25.9662 1.936C26.2782 2.168 26.5382 2.46 26.7462 2.812C26.9542 3.156 27.0902 3.556 27.1542 4.012H26.0142ZM34.6504 6.904C34.6504 8 34.3584 8.824 33.7744 9.376C33.1904 9.92 32.3584 10.192 31.2784 10.192C30.1744 10.192 29.3104 9.932 28.6864 9.412C28.0704 8.884 27.7624 8.048 27.7624 6.904V1.432H28.9024V6.904C28.9024 7.672 29.1064 8.256 29.5144 8.656C29.9224 9.048 30.5104 9.244 31.2784 9.244C32.0064 9.244 32.5584 9.048 32.9344 8.656C33.3184 8.256 33.5104 7.672 33.5104 6.904V1.432H34.6504V6.904ZM35.6305 1.432H39.6625C40.4785 1.432 41.1145 1.632 41.5705 2.032C42.0345 2.432 42.2665 2.98 42.2665 3.676C42.2665 4.196 42.1465 4.652 41.9065 5.044C41.6745 5.436 41.2985 5.704 40.7785 5.848V5.872C41.0265 5.92 41.2265 6 41.3785 6.112C41.5385 6.224 41.6625 6.36 41.7505 6.52C41.8465 6.672 41.9145 6.844 41.9545 7.036C42.0025 7.228 42.0385 7.428 42.0625 7.636C42.0785 7.844 42.0905 8.056 42.0985 8.272C42.1065 8.488 42.1265 8.7 42.1585 8.908C42.1905 9.116 42.2345 9.316 42.2905 9.508C42.3545 9.692 42.4465 9.856 42.5665 10H41.2945C41.2145 9.912 41.1585 9.792 41.1265 9.64C41.1025 9.488 41.0865 9.32 41.0785 9.136C41.0705 8.944 41.0625 8.74 41.0545 8.524C41.0465 8.308 41.0225 8.096 40.9825 7.888C40.9505 7.68 40.9105 7.484 40.8625 7.3C40.8145 7.108 40.7385 6.944 40.6345 6.808C40.5305 6.664 40.3945 6.552 40.2265 6.472C40.0585 6.384 39.8345 6.34 39.5545 6.34H36.7705V10H35.6305V1.432ZM39.1465 5.38C39.4105 5.38 39.6625 5.36 39.9025 5.32C40.1425 5.28 40.3505 5.204 40.5265 5.092C40.7105 4.972 40.8545 4.816 40.9585 4.624C41.0705 4.424 41.1265 4.168 41.1265 3.856C41.1265 3.424 41.0065 3.072 40.7665 2.8C40.5265 2.528 40.1385 2.392 39.6025 2.392H36.7705V5.38H39.1465ZM43.0054 1.432H47.0374C47.8534 1.432 48.4894 1.632 48.9454 2.032C49.4094 2.432 49.6414 2.98 49.6414 3.676C49.6414 4.196 49.5214 4.652 49.2814 5.044C49.0494 5.436 48.6734 5.704 48.1534 5.848V5.872C48.4014 5.92 48.6014 6 48.7534 6.112C48.9134 6.224 49.0374 6.36 49.1254 6.52C49.2214 6.672 49.2894 6.844 49.3294 7.036C49.3774 7.228 49.4134 7.428 49.4374 7.636C49.4534 7.844 49.4654 8.056 49.4734 8.272C49.4814 8.488 49.5014 8.7 49.5334 8.908C49.5654 9.116 49.6094 9.316 49.6654 9.508C49.7294 9.692 49.8214 9.856 49.9414 10H48.6694C48.5894 9.912 48.5334 9.792 48.5014 9.64C48.4774 9.488 48.4614 9.32 48.4534 9.136C48.4454 8.944 48.4374 8.74 48.4294 8.524C48.4214 8.308 48.3974 8.096 48.3574 7.888C48.3254 7.68 48.2854 7.484 48.2374 7.3C48.1894 7.108 48.1134 6.944 48.0094 6.808C47.9054 6.664 47.7694 6.552 47.6014 6.472C47.4334 6.384 47.2094 6.34 46.9294 6.34H44.1454V10H43.0054V1.432ZM46.5214 5.38C46.7854 5.38 47.0374 5.36 47.2774 5.32C47.5174 5.28 47.7254 5.204 47.9014 5.092C48.0854 4.972 48.2294 4.816 48.3334 4.624C48.4454 4.424 48.5014 4.168 48.5014 3.856C48.5014 3.424 48.3814 3.072 48.1414 2.8C47.9014 2.528 47.5134 2.392 46.9774 2.392H44.1454V5.38H46.5214ZM50.3802 1.432H56.2962V2.392H51.5202V5.116H55.9722V6.076H51.5202V9.04H56.3322V10H50.3802V1.432ZM56.8642 1.432H58.0762L62.5882 8.38H62.6122V1.432H63.6922V10H62.4442L57.9682 3.124H57.9442V10H56.8642V1.432ZM66.6403 2.392H63.7843V1.432H70.6363V2.392H67.7803V10H66.6403V2.392ZM70.6308 10.144C70.8948 10.144 71.0268 10.324 71.0268 10.564C71.0268 10.936 70.7388 11.224 70.7388 11.476C70.7388 11.668 70.9668 11.764 71.1228 11.764C72.2028 11.764 72.7788 9.04 72.9588 8.356L73.9788 4.432H73.3668C73.2828 4.432 73.2348 4.372 73.2588 4.288C73.2948 4.192 73.3788 4.132 73.4628 4.132H74.0628C74.4348 2.704 75.0108 0.939999 76.7988 0.939999C77.3868 0.939999 77.9508 1.228 77.9508 1.888C77.9508 2.32 77.6508 2.884 77.1708 2.884C76.9068 2.884 76.8108 2.644 76.8108 2.416C76.8108 2.044 77.0748 1.744 77.0748 1.48C77.0748 1.3 76.8708 1.18 76.7028 1.18C75.7308 1.18 75.1668 3.424 74.9748 4.132H76.1388C76.2228 4.132 76.2708 4.192 76.2468 4.288C76.2108 4.372 76.1268 4.432 76.0308 4.432H74.9028L73.8588 8.416C73.4628 9.94 72.9588 12.028 71.0148 12.028C70.4268 12.028 69.8988 11.608 69.8988 10.984C69.8988 10.576 70.1868 10.144 70.6308 10.144ZM74.508 8.896C74.508 7.264 76.44 6.412 77.856 6.556C78 5.968 78.192 5.38 78.192 4.78C78.192 4.504 78.156 4.36 77.856 4.36C77.22 4.36 76.584 5.224 76.356 5.872C76.296 6.04 76.152 6.16 75.972 6.16H75.804C75.528 6.16 75.384 5.98 75.492 5.74C75.9 4.804 76.848 4.024 77.88 4.024C78.612 4.024 78.996 4.468 78.996 5.188C78.996 5.416 78.948 5.644 78.9 5.872L78.096 8.968L78.06 9.244C78.06 9.364 78.096 9.544 78.252 9.544C78.456 9.544 78.648 9.1 78.756 8.836C78.792 8.752 78.864 8.716 78.948 8.728C79.02 8.752 79.056 8.812 79.02 8.884C78.78 9.448 78.552 10 77.82 10C77.412 10 77.112 9.832 77.112 9.388C77.112 9.268 77.136 9.136 77.16 9.016C76.776 9.532 76.2 10.084 75.516 10.084C74.856 10.084 74.508 9.496 74.508 8.896ZM76.104 9.34C76.524 9.34 76.98 8.812 77.22 8.5C77.556 8.08 77.64 7.372 77.76 6.856C77.7 6.844 77.64 6.844 77.58 6.844C76.704 6.844 75.48 7.492 75.48 8.488C75.48 8.848 75.672 9.34 76.104 9.34ZM79.3358 5.236C79.5758 4.672 79.8038 4.12 80.5358 4.12C80.9438 4.12 81.2438 4.288 81.2438 4.732C81.2438 4.888 81.2078 5.056 81.1598 5.212L80.4878 7.816C80.4158 8.092 80.3798 8.392 80.3798 8.692C80.3798 8.944 80.4038 9.532 80.7638 9.532C81.6038 9.532 83.2718 6.424 83.2718 5.62C83.2718 5.2 82.6598 5.008 82.6598 4.516C82.6598 4.24 83.0678 4.072 83.2958 4.072C83.6918 4.072 83.7638 4.468 83.7638 4.78C83.7638 6.316 81.9398 9.94 80.3678 9.94C79.6598 9.94 79.4318 9.316 79.4318 8.704C79.4318 8.44 79.4798 8.164 79.5398 7.912L80.2598 5.152C80.2838 5.056 80.3198 4.96 80.3198 4.864C80.3198 4.732 80.2598 4.576 80.1038 4.576C79.8998 4.576 79.7078 5.02 79.5998 5.284C79.5638 5.368 79.4918 5.404 79.4078 5.392C79.3358 5.368 79.2998 5.308 79.3358 5.236ZM83.0813 8.056C83.0813 6.412 84.4013 4.06 86.2493 4.06C87.4133 4.06 87.8933 5.044 87.8933 6.076C87.8933 7.72 86.5493 10.072 84.7133 10.072C83.5493 10.072 83.0813 9.088 83.0813 8.056ZM84.9773 9.772C86.4293 9.772 86.8493 7.072 86.8493 6.004C86.8493 5.476 86.7773 4.348 86.0333 4.348C84.5333 4.348 84.1253 6.964 84.1253 8.068C84.1253 8.632 84.1973 9.772 84.9773 9.772ZM87.8245 8.188L88.6165 5.164C88.6405 5.044 88.6765 4.924 88.6765 4.792C88.6765 4.468 88.3645 4.42 88.1005 4.384C88.0285 4.372 87.9925 4.324 88.0045 4.252C88.0285 4.168 88.0885 4.12 88.1605 4.12H89.3365C89.6245 4.12 89.7565 4.3 89.6845 4.576L88.7725 8.08C88.7005 8.344 88.6525 8.62 88.6525 8.884C88.6525 9.124 88.7125 9.628 89.0365 9.628C89.8645 9.628 91.3885 5.644 91.3885 4.804C91.3885 4.468 91.0885 4.42 90.8245 4.384C90.7525 4.372 90.7285 4.312 90.7405 4.24C90.7645 4.168 90.8365 4.12 90.9085 4.12C91.2805 4.132 91.6645 4.132 92.0365 4.144C92.3245 4.144 92.4565 4.324 92.3845 4.6L91.2565 8.968C91.2325 9.064 91.2085 9.16 91.2085 9.256C91.2085 9.388 91.2565 9.544 91.4125 9.544C91.6165 9.544 91.8085 9.1 91.9165 8.836C91.9525 8.752 92.0245 8.716 92.1085 8.728C92.1805 8.752 92.2165 8.812 92.1805 8.884C91.9405 9.448 91.7125 10 90.9805 10C90.5725 10 90.2725 9.832 90.2725 9.388C90.2725 9.016 90.4285 8.572 90.5245 8.212C90.2005 8.908 89.5885 10.06 88.6885 10.06C88.0165 10.06 87.7285 9.496 87.7285 8.896C87.7285 8.656 87.7645 8.416 87.8245 8.188ZM91.4579 9.88C91.4699 9.808 91.5299 9.748 91.6019 9.736C92.1419 9.628 92.3699 9.568 92.5379 8.932L93.4379 5.476C93.4859 5.284 93.5339 5.092 93.5339 4.9C93.5339 4.528 93.3059 4.42 93.0059 4.396C92.9219 4.384 92.8859 4.336 92.8979 4.252C92.9219 4.168 92.9819 4.108 93.0659 4.108L94.2539 4.096C94.5419 4.096 94.6859 4.276 94.6139 4.54C94.4699 5.08 94.3259 5.62 94.1819 6.16C94.4819 5.584 95.2979 4.132 96.0299 4.132C96.5339 4.132 96.7739 4.6 96.7739 5.056C96.7739 5.5 96.4979 6.172 95.9699 6.172C95.7179 6.172 95.6099 5.944 95.6099 5.716C95.6099 5.308 95.9219 4.936 95.9219 4.684C95.9219 4.6 95.8019 4.6 95.7419 4.6C95.1539 4.6 93.9539 7.204 93.7499 7.852C93.6779 8.056 93.4139 9.148 93.4139 9.316C93.4139 9.64 93.7139 9.7 93.9779 9.748C94.0499 9.76 94.0739 9.808 94.0619 9.88C94.0379 9.952 93.9779 10 93.9059 10H91.5419C91.4699 10 91.4339 9.952 91.4579 9.88ZM96.5412 8.512C96.7212 7.828 97.4172 5.572 97.4172 5.044C97.4172 4.54 97.0092 4.432 96.6012 4.42C96.5172 4.408 96.4572 4.36 96.4452 4.276C96.4452 4.192 96.5052 4.132 96.5892 4.132L98.1372 4.096C98.4252 4.096 98.5692 4.276 98.4972 4.552L97.4292 8.608C97.3692 8.824 97.2852 9.04 97.2852 9.256C97.2852 9.388 97.3452 9.544 97.4892 9.544C97.6932 9.544 97.8852 9.088 97.9932 8.836C98.0292 8.752 98.1012 8.716 98.1852 8.728C98.2692 8.752 98.2932 8.812 98.2692 8.884C98.0172 9.448 97.7892 10 97.0572 10C96.6612 10 96.3612 9.832 96.3612 9.388C96.3612 9.088 96.4572 8.8 96.5412 8.512ZM97.9212 2.728C97.9212 2.32 98.2572 1.732 98.7132 1.732C99.0012 1.732 99.1332 2.008 99.1332 2.272C99.1332 2.668 98.7852 3.268 98.3412 3.268C98.0412 3.268 97.9212 2.98 97.9212 2.728ZM98.324 9.4C98.324 9.112 98.396 8.848 98.468 8.584C98.816 7.216 99.14 5.836 99.488 4.468L98.78 4.48C98.696 4.48 98.66 4.432 98.684 4.348C98.708 4.264 98.78 4.216 98.864 4.204C99.692 4.096 100.388 3.112 100.772 2.44C100.808 2.392 100.856 2.356 100.916 2.356C100.964 2.356 101 2.392 100.976 2.452L100.508 4.132L101.564 4.12C101.66 4.12 101.696 4.18 101.672 4.276C101.648 4.372 101.564 4.432 101.468 4.432L100.412 4.456C100.268 4.996 100.16 5.56 100.016 6.112L99.308 8.812C99.272 8.956 99.248 9.1 99.248 9.244C99.248 9.4 99.296 9.592 99.488 9.592C99.752 9.592 100.028 9.328 100.22 9.124C100.268 9.076 100.316 9.088 100.34 9.16C100.352 9.22 100.34 9.304 100.292 9.364C99.98 9.724 99.476 10.072 99.008 10.072C98.564 10.072 98.324 9.856 98.324 9.4ZM100.469 8.224C100.469 6.58 101.657 4.06 103.553 4.06C104.285 4.06 104.969 4.624 104.969 5.368C104.969 5.716 104.813 5.992 104.573 6.22C103.793 6.988 102.629 6.904 101.633 7.024C101.573 7.336 101.537 7.66 101.537 7.984C101.537 8.62 101.705 9.352 102.485 9.352C103.373 9.352 104.153 8.56 104.585 7.828C104.621 7.78 104.681 7.756 104.741 7.768C104.801 7.78 104.825 7.828 104.801 7.888C104.249 8.968 103.421 10.072 102.089 10.072C100.961 10.072 100.469 9.28 100.469 8.224ZM104.069 5.14C104.069 4.756 103.877 4.372 103.445 4.372C102.329 4.372 101.921 5.8 101.717 6.664C102.629 6.532 104.069 6.376 104.069 5.14ZM104.118 9.076C104.118 8.848 104.226 8.464 104.514 8.464C105.15 8.464 104.622 9.808 105.57 9.808C106.206 9.808 106.662 9.16 106.662 8.572C106.662 7.552 105.21 7.192 105.21 6.064C105.21 5.056 106.278 4.06 107.286 4.06C107.766 4.06 108.222 4.288 108.222 4.84C108.222 5.08 108.09 5.38 107.814 5.38C107.574 5.38 107.382 5.248 107.382 4.996C107.382 4.816 107.466 4.66 107.466 4.48C107.466 4.348 107.346 4.324 107.238 4.324C106.686 4.324 105.966 4.828 105.966 5.416C105.966 6.22 107.586 6.664 107.586 7.948C107.586 9.112 106.482 10.072 105.342 10.072C104.73 10.072 104.118 9.784 104.118 9.076Z" fill="black"/>
</svg>
