<svg width="312" height="41" viewBox="0 0 312 41" fill="none" xmlns="http://www.w3.org/2000/svg">
<path d="M0.304 40H0.516C7.565 40 14.561 40 21.61 40.053L23.942 31.043C24.313 29.612 24.684 28.181 25.214 26.803L24.843 26.75C23.306 30.831 20.232 38.993 15.303 38.993H8.413L16.734 6.875C17.582 3.536 18.854 3.536 21.504 3.006L21.663 2.529H10.056L9.95 2.953C11.964 3.907 13.66 3.165 12.706 6.875L5.233 35.601C4.385 38.94 3.113 38.94 0.463 39.523L0.304 40ZM32.9897 40.318C36.7527 40.318 40.9927 38.41 44.9147 30.513L44.3317 30.354C41.5227 35.336 37.6537 37.509 34.7387 37.509C29.7037 37.509 29.9687 30.99 30.8167 26.75C36.1167 26.008 40.0387 26.75 43.9077 23.252C47.7237 19.701 44.5437 13.977 39.4557 13.977C32.2477 13.977 28.0077 21.98 26.5767 27.439C25.0397 33.481 25.8877 40.318 32.9897 40.318ZM31.0817 25.584C32.1417 21.503 33.7847 14.931 38.9787 14.931C42.6357 14.931 42.6357 20.708 40.1447 22.669C37.3357 24.948 34.7387 25.001 31.0817 25.584ZM48.4251 40.318C50.3861 40.318 52.8771 38.728 54.3081 36.873L54.0961 36.29C53.1951 37.297 51.8171 38.569 50.5981 38.569C48.9551 38.569 49.2731 36.237 49.6441 34.859L52.7711 22.828C53.3541 20.549 53.9371 17.581 54.5201 15.302L59.9791 15.196L60.2441 14.242L54.8381 14.295L57.0641 6.345H56.5341C54.6791 9.737 51.0751 14.613 47.3121 14.613L47.0471 15.408L50.8101 15.355C49.2201 21.344 47.7361 27.916 46.1461 33.958C45.3511 37.191 44.8211 40.318 48.4251 40.318ZM61.0863 14.454C64.1603 12.811 67.0223 9.101 67.8703 5.868C68.3473 4.172 68.5063 1.469 65.8563 1.84C64.3193 2.052 63.2063 3.324 62.8353 4.808C62.4113 6.292 62.9943 7.67 64.4253 7.67C64.6903 7.67 64.9023 7.617 65.1143 7.617L65.0083 8.2C64.4783 10.267 62.9413 12.864 60.9803 13.924L61.0863 14.454ZM71.2627 40.318C76.1387 40.318 79.7427 36.82 80.7497 32.951C82.7107 25.425 72.7467 23.676 73.9657 19.012C74.6547 16.415 77.3577 14.719 79.6367 14.719C82.6577 14.719 78.4707 18.8 81.9157 19.383C84.5127 19.86 85.0957 13.818 79.8487 13.977C76.2447 14.03 72.1107 16.839 70.9977 21.132C69.3017 27.81 78.6827 28.976 77.0397 35.23C76.5627 37.297 74.9197 39.576 72.2167 39.576C68.3477 39.576 69.7257 34.806 68.2947 33.799C68.0297 33.64 67.7647 33.534 67.5527 33.534C65.3797 33.534 64.4787 40.318 71.2627 40.318ZM100.944 40.318C103.965 40.318 108.629 39.152 111.65 37.244L114.247 27.121C115.148 23.729 116.526 23.729 119.07 23.146L119.229 22.669C117.321 22.775 115.466 22.828 113.611 22.828C111.756 22.828 109.954 22.722 108.046 22.722L107.94 23.146C109.901 24.047 111.703 23.305 110.696 27.121L107.887 38.039C105.661 38.781 103.329 39.311 101.209 39.311C94.0535 39.311 94.9015 27.439 96.4915 21.238C98.0285 15.355 103.647 1.946 110.431 2.37C117.162 2.847 117.586 9.578 116.208 16.362L116.579 16.309C117.586 12.546 118.752 8.73 119.759 4.967L119.706 4.914C117.904 2.37 114.353 1.469 111.014 1.469C102.057 1.469 94.4245 11.91 92.0395 21.079C89.6545 30.195 91.9335 40.318 100.944 40.318ZM124.756 40.318C128.519 40.318 132.759 38.41 136.681 30.513L136.098 30.354C133.289 35.336 129.42 37.509 126.505 37.509C121.47 37.509 121.735 30.99 122.583 26.75C127.883 26.008 131.805 26.75 135.674 23.252C139.49 19.701 136.31 13.977 131.222 13.977C124.014 13.977 119.774 21.98 118.343 27.439C116.806 33.481 117.654 40.318 124.756 40.318ZM122.848 25.584C123.908 21.503 125.551 14.931 130.745 14.931C134.402 14.931 134.402 20.708 131.911 22.669C129.102 24.948 126.505 25.001 122.848 25.584ZM140.192 40.318C142.153 40.318 144.644 38.728 146.075 36.873L145.863 36.29C144.962 37.297 143.584 38.569 142.365 38.569C140.722 38.569 141.04 36.237 141.411 34.859L144.538 22.828C145.121 20.549 145.704 17.581 146.287 15.302L151.746 15.196L152.011 14.242L146.605 14.295L148.831 6.345H148.301C146.446 9.737 142.842 14.613 139.079 14.613L138.814 15.408L142.577 15.355C140.987 21.344 139.503 27.916 137.913 33.958C137.118 37.191 136.588 40.318 140.192 40.318ZM159.742 40C162.816 40 163.664 37.986 165.042 34.806L164.194 34.647C163.823 35.495 162.816 38.357 161.597 38.41C161.067 38.41 160.113 37.774 160.802 35.548L166.367 14.083L157.145 14.242C157.304 14.242 157.039 15.143 157.198 15.143C159.795 15.143 162.286 15.726 161.173 19.86C159.954 24.577 158.788 28.923 157.569 33.64L157.092 35.389C156.668 37.085 156.032 40 159.742 40ZM165.413 10.002C166.897 10.002 168.222 8.253 168.593 6.769C169.017 5.232 168.487 3.589 167.056 3.589C165.572 3.589 164.247 5.232 163.823 6.769C163.452 8.253 163.876 10.002 165.413 10.002ZM174.512 40L174.671 39.311C172.392 38.781 171.12 38.781 171.968 35.495L173.505 29.453C175.837 24.842 179.918 17.634 181.614 16.892C181.985 16.733 182.303 16.68 182.568 16.68C184.847 16.68 184.264 21.45 183.628 23.835L180.607 35.389C180.236 37.085 179.547 40 183.257 40C186.384 40 187.179 37.986 188.61 34.806L187.762 34.647C187.391 35.495 186.384 38.357 185.165 38.41C184.635 38.41 183.628 37.774 184.317 35.548L187.55 23.252C188.557 19.383 188.133 14.242 183.999 14.454C180.607 14.719 176.738 21.556 174.247 26.644L177.427 14.189L170.06 14.295L169.689 15.143C173.505 14.931 173.134 17.104 172.233 20.655C170.908 25.637 169.53 30.619 168.152 35.495C167.304 38.463 166.35 38.834 163.435 39.311L163.276 40H174.512ZM199.441 40H211.101L211.207 39.523C209.034 38.675 207.497 39.311 208.451 35.601L216.825 3.483H220.641C224.828 3.483 223.344 10.373 222.761 13.818L223.132 13.765C224.139 10.002 225.199 6.292 226.259 2.529H203.681C202.515 6.716 201.402 10.903 200.448 15.143L201.137 13.765C202.833 10.214 204.158 3.483 208.822 3.483H212.744L204.37 35.601C203.522 38.993 202.25 38.94 199.6 39.523L199.441 40ZM222.167 40.318C228.474 40.318 233.88 33.534 235.576 27.121C237.219 20.655 235.311 13.977 229.004 13.977C222.644 13.977 217.397 20.655 215.701 27.121C214.005 33.587 215.86 40.318 222.167 40.318ZM220.418 23.623C221.425 19.86 223.863 14.825 228.05 14.825C233.138 14.825 231.919 26.114 230.806 30.407C229.905 34.011 227.414 39.364 223.333 39.364C218.139 39.364 219.252 28.075 220.418 23.623ZM242.273 40.212C246.142 39.523 249.004 33.322 250.329 29.983L248.845 35.76C248.421 37.456 248.103 40 251.548 40C254.675 40 255.47 37.986 256.901 34.806L256.053 34.647C255.682 35.495 254.622 38.357 253.456 38.41C252.926 38.41 251.919 37.774 252.608 35.548L258.12 14.348C255.682 14.348 253.191 14.242 250.753 14.242L250.541 14.931C252.873 15.355 254.092 15.514 253.244 18.747L252.555 21.503C251.654 24.63 246.513 38.728 242.962 38.728C241.425 38.728 240.365 36.29 241.584 31.626L246.142 14.242H238.616L238.457 14.931C240.842 15.355 242.061 15.461 241.213 18.747L237.715 32.156C236.178 38.039 238.828 40.795 242.273 40.212ZM264.051 40.318C267.814 40.318 271.365 37.297 274.121 34.011H273.432C271.418 35.813 268.874 37.244 266.648 37.244C262.037 37.244 261.825 31.838 262.991 27.439C263.998 23.517 267.549 14.931 272.213 14.931C276.294 14.931 272.849 21.503 275.552 21.503C276.559 21.503 277.46 20.39 277.725 19.33C278.626 15.885 275.075 13.977 272.478 13.977C265.8 13.977 260.765 21.609 259.069 28.181C257.638 33.534 258.592 40.318 264.051 40.318ZM272.071 40H283.307L283.466 39.311C281.187 38.781 279.862 38.781 280.71 35.495L282.724 27.704C285.109 23.199 288.448 17.581 289.932 16.892C290.303 16.733 290.621 16.68 290.886 16.68C293.165 16.68 292.582 21.45 291.946 23.835L288.925 35.389C288.501 37.085 287.865 40 291.575 40C294.702 40 295.497 37.986 296.928 34.806L296.08 34.647C295.709 35.495 294.702 38.357 293.483 38.41C292.953 38.41 291.946 37.774 292.635 35.548L295.868 23.252C296.875 19.383 296.451 14.242 292.317 14.454C289.296 14.666 285.957 20.072 283.466 24.842L289.879 0.143998H281.505L281.399 0.991997C284.685 0.991997 285.851 1.204 284.844 5.285L276.947 35.495C276.099 38.781 274.827 38.781 272.23 39.311L272.071 40ZM301.995 31.626C305.069 22.881 309.097 12.758 311.376 4.013C311.8 2.476 311.535 0.620998 309.945 0.620998C308.302 0.620998 307.189 2.847 306.818 4.278C304.486 13.394 303.638 22.563 301.624 31.626H301.995ZM299.61 40.53C300.935 40.53 302.048 38.781 302.366 37.509C302.684 36.237 302.472 34.488 301.2 34.488C299.822 34.488 298.815 36.29 298.497 37.509C298.179 38.781 298.285 40.53 299.61 40.53Z" fill="#A09E9E"/>
</svg>
