<svg width="883" height="119" viewBox="0 0 883 119" fill="none" xmlns="http://www.w3.org/2000/svg">
<path d="M81.2953 105C81.2953 102.4 82.5953 97.4 85.8953 97.4C87.5953 97.4 88.9953 98.2 88.9953 100.1C88.9953 102 87.8953 104 86.7953 105.6C87.5953 110.6 90.5953 112.9 95.5953 112.9C103.595 112.9 111.095 108.2 113.295 100.2L113.495 99C113.495 91.2 88.6953 95.7 88.6953 84.5C88.6953 80 93.1953 76.6 96.6953 74.6C94.5953 72.2 93.5953 68.9 93.5953 65.7C93.5953 54.5 103.695 43 115.295 43C117.695 43 120.095 43.6 122.095 44.9C124.095 41 128.295 34.7 133.195 34.7C135.495 34.7 136.795 36.3 136.795 38.6C136.795 41.1 134.795 45.7 131.795 45.7C129.095 45.7 128.595 42.1 127.195 41.7C125.995 41.8 124.195 44.9 123.595 45.9C126.495 48.4 127.795 52.2 127.795 55.9C127.795 67 117.595 78.6 106.195 78.6C103.695 78.6 101.195 78 98.9953 76.6C98.0953 77.4 96.7953 78.8 96.7953 80C96.7953 86.3 118.295 82.3 118.295 94.3C118.295 106.1 106.995 115.6 95.3953 115.6C88.9953 115.6 81.2953 112.5 81.2953 105ZM108.095 76.3C117.195 76.3 119.995 63.7 119.995 56.6C119.995 52.5 119.195 45.2 113.595 45.2C104.195 45.2 101.295 57.1 101.295 64.5C101.295 68.8 102.295 76.3 108.095 76.3ZM124.307 86.9C124.307 84.4 125.207 82 125.807 79.6L139.507 27.3C139.907 25.9 140.207 24.5 140.207 23.1C140.207 19.4 136.807 19.1 133.907 19C133.207 19 132.807 18.5 133.007 17.8C133.207 17.1 133.807 16.6 134.507 16.6L146.107 16.5C148.407 16.5 149.607 18 149.007 20.3L133.207 80.4C132.807 82.2 132.007 84 132.007 85.8C132.007 86.9 132.507 88.2 133.807 88.2C135.407 88.2 137.107 84.5 138.007 82.3C138.207 81.6 138.907 81.3 139.507 81.4C140.207 81.6 140.507 82.1 140.207 82.7C138.107 87.4 136.307 92 130.207 92C126.807 92 124.307 90.6 124.307 86.9ZM144.205 79.6C145.705 73.9 151.505 55.1 151.505 50.7C151.505 46.5 148.105 45.6 144.705 45.5C144.005 45.4 143.505 45 143.405 44.3C143.405 43.6 143.905 43.1 144.605 43.1L157.505 42.8C159.905 42.8 161.105 44.3 160.505 46.6L151.605 80.4C151.105 82.2 150.405 84 150.405 85.8C150.405 86.9 150.905 88.2 152.105 88.2C153.805 88.2 155.405 84.4 156.305 82.3C156.605 81.6 157.205 81.3 157.905 81.4C158.605 81.6 158.805 82.1 158.605 82.7C156.505 87.4 154.605 92 148.505 92C145.205 92 142.705 90.6 142.705 86.9C142.705 84.4 143.505 82 144.205 79.6ZM155.705 31.4C155.705 28 158.505 23.1 162.305 23.1C164.705 23.1 165.805 25.4 165.805 27.6C165.805 30.9 162.905 35.9 159.205 35.9C156.705 35.9 155.705 33.5 155.705 31.4ZM151.162 91C151.362 90.4 151.862 89.9 152.462 89.8C154.162 89.5 155.962 89.2 157.462 88.2C159.062 87 159.762 84.9 160.262 83.1C162.262 76.5 168.962 54.6 168.962 49.2C168.962 45.9 166.662 45.5 164.162 45.5C163.362 45.5 163.062 45 163.362 44.3C163.762 43.6 164.562 43.1 165.362 43.1L174.462 43C176.862 43 178.062 44.5 177.462 46.7L173.062 63.5C176.062 57.8 183.662 43.5 190.862 43.5C196.462 43.5 198.162 49 198.162 53.7C198.162 56.3 197.662 58.8 196.962 61.2C199.962 55.9 206.462 43.5 213.462 43.5C219.062 43.5 220.662 49.1 220.662 53.7C220.662 56 220.362 58.2 219.762 60.4L213.762 83.4C213.562 84.2 213.362 85 213.362 85.8C213.362 86.9 213.762 88.2 215.062 88.2C216.762 88.2 218.362 84.5 219.262 82.3C219.562 81.6 220.162 81.3 220.862 81.4C221.562 81.6 221.762 82.1 221.562 82.7C219.462 87.4 217.562 92 211.462 92C208.162 92 205.562 90.6 205.562 86.9C205.562 85.5 205.862 84.2 206.262 82.9L211.862 61.2C212.562 58.8 212.962 56.3 212.962 53.7C212.962 51.9 212.762 48.4 210.162 48.4C209.562 48.4 208.962 48.5 208.462 48.8C205.762 50 195.662 66.4 194.462 70C192.362 76.4 190.662 83.1 188.862 89.7C188.562 91 187.362 91.8 186.062 91.8L184.462 91.9C182.262 91.9 181.062 90.5 181.762 88.3L189.362 61.2C190.062 58.8 190.462 56.3 190.462 53.8C190.462 51.9 190.162 48.4 187.662 48.4C187.062 48.4 186.462 48.5 185.862 48.8C182.662 50.2 172.462 68 170.662 72.4C169.762 74.8 167.462 83.9 167.462 86.3C167.462 89 170.062 89.5 172.162 89.9C172.762 90 173.062 90.4 172.862 91C172.762 91.6 172.262 92 171.662 92H151.962C151.362 92 151.062 91.6 151.162 91ZM206.584 111.2C206.784 110.6 207.284 110.1 207.884 110C212.984 109.1 213.984 108.4 215.684 103.4C219.484 90.7 222.784 77.9 225.984 65.1C226.984 61.2 229.484 53.3 229.484 49.4C229.484 45.7 226.684 45.1 223.784 45.1C223.084 45.1 222.784 44.7 222.984 44.1C223.084 43.5 223.684 43 224.284 43H235.784C237.784 43 238.784 44.2 238.284 46.1L237.484 49.3C241.584 45.8 247.284 43 252.684 43C260.384 43 262.484 50.5 262.484 56.8C262.484 71 251.084 92.6 235.084 92.6C232.084 92.6 229.184 91.3 227.084 89.1C225.984 93.3 222.884 102.6 222.884 106.5C222.884 109.1 225.484 109.6 227.584 110C228.184 110.1 228.484 110.7 228.284 111.3C228.084 111.9 227.584 112.3 226.984 112.3H207.384C206.684 112.3 206.384 111.9 206.584 111.2ZM235.784 89.8C247.984 89.8 254.284 67.7 254.284 58C254.284 53.5 253.284 47.5 247.484 47.5C243.384 47.5 239.184 50.1 236.584 53.2L230.084 78.1C229.784 79.3 229.584 80.6 229.584 81.9C229.584 85.8 231.284 89.8 235.784 89.8ZM254.446 84.3C254.446 82.4 255.346 79.2 257.746 79.2C263.046 79.2 258.646 90.4 266.546 90.4C271.846 90.4 275.646 85 275.646 80.1C275.646 71.6 263.546 68.6 263.546 59.2C263.546 50.8 272.446 42.5 280.846 42.5C284.846 42.5 288.646 44.4 288.646 49C288.646 51 287.546 53.5 285.246 53.5C283.246 53.5 281.646 52.4 281.646 50.3C281.646 48.8 282.346 47.5 282.346 46C282.346 44.9 281.346 44.7 280.446 44.7C275.846 44.7 269.846 48.9 269.846 53.8C269.846 60.5 283.346 64.2 283.346 74.9C283.346 84.6 274.146 92.6 264.646 92.6C259.546 92.6 254.446 90.2 254.446 84.3ZM282.441 77.2C282.441 63.5 292.341 42.5 308.141 42.5C314.241 42.5 319.941 47.2 319.941 53.4C319.941 56.3 318.641 58.6 316.641 60.5C310.141 66.9 300.441 66.2 292.141 67.2C291.641 69.8 291.341 72.5 291.341 75.2C291.341 80.5 292.741 86.6 299.241 86.6C306.641 86.6 313.141 80 316.741 73.9C317.041 73.5 317.541 73.3 318.041 73.4C318.541 73.5 318.741 73.9 318.541 74.4C313.941 83.4 307.041 92.6 295.941 92.6C286.541 92.6 282.441 86 282.441 77.2ZM312.441 51.5C312.441 48.3 310.841 45.1 307.241 45.1C297.941 45.1 294.541 57 292.841 64.2C300.441 63.1 312.441 61.8 312.441 51.5Z" fill="black"/>
<path d="M350.2 24.6H359.7V96H350.2V24.6ZM366.579 24.6H376.679L414.279 82.5H414.479V24.6H423.479V96H413.079L375.779 38.7H375.579V96H366.579V24.6ZM446.047 32.6H422.247V24.6H479.347V32.6H455.547V96H446.047V32.6ZM483.769 60.3C483.769 63.9 484.235 67.4667 485.169 71C486.102 74.4667 487.569 77.6 489.569 80.4C491.569 83.2 494.135 85.4667 497.269 87.2C500.402 88.8667 504.135 89.7 508.469 89.7C512.802 89.7 516.535 88.8667 519.669 87.2C522.802 85.4667 525.369 83.2 527.369 80.4C529.369 77.6 530.835 74.4667 531.769 71C532.702 67.4667 533.169 63.9 533.169 60.3C533.169 56.7 532.702 53.1667 531.769 49.7C530.835 46.1667 529.369 43 527.369 40.2C525.369 37.4 522.802 35.1667 519.669 33.5C516.535 31.7667 512.802 30.9 508.469 30.9C504.135 30.9 500.402 31.7667 497.269 33.5C494.135 35.1667 491.569 37.4 489.569 40.2C487.569 43 486.102 46.1667 485.169 49.7C484.235 53.1667 483.769 56.7 483.769 60.3ZM474.269 60.3C474.269 55.4333 474.969 50.7667 476.369 46.3C477.835 41.7667 480.002 37.7667 482.869 34.3C485.735 30.8333 489.302 28.0667 493.569 26C497.835 23.9333 502.802 22.9 508.469 22.9C514.135 22.9 519.102 23.9333 523.369 26C527.635 28.0667 531.202 30.8333 534.069 34.3C536.935 37.7667 539.069 41.7667 540.469 46.3C541.935 50.7667 542.669 55.4333 542.669 60.3C542.669 65.1667 541.935 69.8667 540.469 74.4C539.069 78.8667 536.935 82.8333 534.069 86.3C531.202 89.7667 527.635 92.5333 523.369 94.6C519.102 96.6 514.135 97.6 508.469 97.6C502.802 97.6 497.835 96.6 493.569 94.6C489.302 92.5333 485.735 89.7667 482.869 86.3C480.002 82.8333 477.835 78.8667 476.369 74.4C474.969 69.8667 474.269 65.1667 474.269 60.3ZM564.277 24.6H577.277L599.777 84.6L622.377 24.6H635.377V96H626.377V36.6H626.177L603.877 96H595.777L573.477 36.6H573.277V96H564.277V24.6ZM671.687 66.8V96H662.187V66.8L634.587 24.6H645.887L667.287 58.6L688.187 24.6H698.987L671.687 66.8ZM716.863 24.6H726.363V88H764.162V96H716.863V24.6ZM763.829 24.6H773.329V96H763.829V24.6ZM780.308 24.6H827.208V32.6H789.808V55.3H822.608V63.3H789.808V96H780.308V24.6ZM828.73 24.6H878.03V32.6H838.23V55.3H875.33V63.3H838.23V88H878.33V96H828.73V24.6Z" fill="black"/>
<path d="M21.1 66.5H45.3L33.4 33.2H33.2L21.1 66.5ZM28.2 24.6H38.7L66.6 96H56.1L48.3 74.5H18.1L10.1 96H0.4L28.2 24.6Z" fill="black"/>
</svg>
