<svg width="10" height="11" viewBox="0 0 10 11" fill="none" xmlns="http://www.w3.org/2000/svg">
<path d="M0.0473281 9.4C0.0473281 9.112 0.263328 8.812 0.575328 8.812C1.13933 8.812 0.623328 9.808 1.25933 9.808C1.73933 9.808 2.18333 8.104 2.29133 7.708L3.64733 2.512C3.68333 2.38 3.70733 2.248 3.70733 2.116C3.70733 1.804 3.34733 1.768 3.09533 1.708C3.04733 1.684 3.02333 1.636 3.03533 1.588C3.04733 1.528 3.09533 1.492 3.15533 1.492H5.65133C5.71133 1.492 5.73533 1.528 5.72333 1.588C5.71133 1.648 5.65133 1.696 5.59133 1.696C5.39933 1.732 5.19533 1.768 5.02733 1.876C3.95933 2.536 3.82733 10.156 0.947328 10.156C0.539328 10.156 0.0473281 9.844 0.0473281 9.4ZM3.61152 9.88C3.63552 9.808 3.69552 9.748 3.76752 9.736C4.29552 9.628 4.53552 9.568 4.70352 8.932L6.47952 2.14C6.51552 1.984 6.56352 1.816 6.56352 1.648C6.56352 1.24 6.15552 1.228 5.83152 1.24C5.74752 1.24 5.69952 1.18 5.71152 1.108C5.72352 1.024 5.79552 0.964 5.87952 0.964L7.23552 0.952C7.51152 0.952 7.65552 1.132 7.58352 1.408L6.32352 6.256C6.67152 5.608 7.46352 4.18 8.26752 4.18C8.95152 4.18 9.13152 4.852 9.13152 5.404C9.13152 5.68 9.09552 5.944 9.03552 6.208L8.31552 8.968C8.27952 9.064 8.25552 9.16 8.25552 9.256C8.25552 9.388 8.31552 9.544 8.47152 9.544C8.66352 9.544 8.86752 9.1 8.97552 8.836C8.99952 8.752 9.08352 8.716 9.15552 8.728C9.23952 8.752 9.27552 8.812 9.23952 8.884C8.98752 9.448 8.77152 10 8.03952 10C7.63152 10 7.33152 9.832 7.33152 9.388C7.33152 9.22 7.36752 9.064 7.40352 8.908L8.08752 6.304C8.15952 6.016 8.20752 5.716 8.20752 5.404C8.20752 5.188 8.18352 4.768 7.88352 4.768C7.81152 4.768 7.73952 4.78 7.66752 4.816C7.36752 4.948 6.19152 6.82 6.07152 7.216C5.97552 7.516 5.55552 9.076 5.55552 9.316C5.55552 9.64 5.86752 9.7 6.13152 9.748C6.20352 9.76 6.23952 9.808 6.21552 9.88C6.20352 9.952 6.14352 10 6.07152 10H3.70752C3.63552 10 3.59952 9.952 3.61152 9.88Z" fill="#141313"/>
</svg>
