<svg width="1181" height="185" viewBox="0 0 1181 185" fill="none" xmlns="http://www.w3.org/2000/svg">
<path d="M0.5 112.8C0.65 112.05 1.4 111.45 2 111.3C9.2 109.8 12.2 109.2 14.3 100.95L35.3 20.4C35.75 18.75 36.05 17.25 36.05 15.6C36.05 11.55 31.55 11.25 28.4 10.2C27.8 9.9 27.5 9.3 27.65 8.7C27.8 8.1 28.4 7.64999 29 7.64999H60.35C61.1 7.64999 61.4 8.1 61.25 8.84999C61.1 9.59999 60.5 10.2 59.75 10.35C52.55 11.7 49.7 12.45 47.45 20.7L24.2 110.1H43.1C56.6 110.1 65.3 87.6 69.35 76.5C69.5 75.9 70.1 75.6 70.7 75.75C71.3 75.75 71.6 76.2 71.3 76.8C67.4 87.9 65 99.3 62.15 110.7C61.55 112.8 59.75 114.15 57.65 114.15C38.9 114 20.15 114 1.4 114C0.65 114 0.35 113.55 0.5 112.8ZM67.782 91.8C67.782 71.25 82.632 39.75 106.332 39.75C115.482 39.75 124.032 46.8 124.032 56.1C124.032 60.45 122.082 63.9 119.082 66.75C109.332 76.35 94.782 75.3 82.332 76.8C81.582 80.7 81.132 84.75 81.132 88.8C81.132 96.75 83.232 105.9 92.982 105.9C104.082 105.9 113.832 96 119.232 86.85C119.682 86.25 120.432 85.95 121.182 86.1C121.932 86.25 122.232 86.85 121.932 87.6C115.032 101.1 104.682 114.9 88.032 114.9C73.932 114.9 67.782 105 67.782 91.8ZM112.782 53.25C112.782 48.45 110.382 43.65 104.982 43.65C91.032 43.65 85.932 61.5 83.382 72.3C94.782 70.65 112.782 68.7 112.782 53.25ZM103.5 133.5C103.5 129.6 105.45 122.1 110.4 122.1C112.95 122.1 115.05 123.3 115.05 126.15C115.05 129 113.4 132 111.75 134.4C112.95 141.9 117.45 145.35 124.95 145.35C136.95 145.35 148.2 138.3 151.5 126.3L151.8 124.5C151.8 112.8 114.6 119.55 114.6 102.75C114.6 96 121.35 90.9 126.6 87.9C123.45 84.3 121.95 79.35 121.95 74.55C121.95 57.75 137.1 40.5 154.5 40.5C158.1 40.5 161.7 41.4 164.7 43.35C167.7 37.5 174 28.05 181.35 28.05C184.8 28.05 186.75 30.45 186.75 33.9C186.75 37.65 183.75 44.55 179.25 44.55C175.2 44.55 174.45 39.15 172.35 38.55C170.55 38.7 167.85 43.35 166.95 44.85C171.3 48.6 173.25 54.3 173.25 59.85C173.25 76.5 157.95 93.9 140.85 93.9C137.1 93.9 133.35 93 130.05 90.9C128.7 92.1 126.75 94.2 126.75 96C126.75 105.45 159 99.45 159 117.45C159 135.15 142.05 149.4 124.65 149.4C115.05 149.4 103.5 144.75 103.5 133.5ZM143.7 90.45C157.35 90.45 161.55 71.55 161.55 60.9C161.55 54.75 160.35 43.8 151.95 43.8C137.85 43.8 133.5 61.65 133.5 72.75C133.5 79.2 135 90.45 143.7 90.45ZM166.817 91.8C166.817 71.25 181.667 39.75 205.367 39.75C214.517 39.75 223.067 46.8 223.067 56.1C223.067 60.45 221.117 63.9 218.117 66.75C208.367 76.35 193.817 75.3 181.367 76.8C180.617 80.7 180.167 84.75 180.167 88.8C180.167 96.75 182.267 105.9 192.017 105.9C203.117 105.9 212.867 96 218.267 86.85C218.717 86.25 219.467 85.95 220.217 86.1C220.967 86.25 221.267 86.85 220.967 87.6C214.067 101.1 203.717 114.9 187.067 114.9C172.967 114.9 166.817 105 166.817 91.8ZM211.817 53.25C211.817 48.45 209.417 43.65 204.017 43.65C190.067 43.65 184.967 61.5 182.417 72.3C193.817 70.65 211.817 68.7 211.817 53.25ZM206.735 112.5C207.035 111.6 207.785 110.85 208.685 110.7C216.035 109.35 218.285 108.3 220.385 100.65C223.235 90.9 233.435 57.6 233.435 49.8C233.435 45 229.985 44.25 226.235 44.25C225.035 44.25 224.585 43.5 225.035 42.45C225.635 41.4 226.835 40.65 228.035 40.65L241.685 40.5C245.285 40.5 247.085 42.75 246.185 46.05L239.435 71.85C243.785 63.3 255.335 41.25 266.285 41.25C274.835 41.25 277.085 49.65 277.085 56.55C277.085 60 276.635 63.3 275.885 66.6L267.935 96.6C267.335 99.3 266.135 102 266.135 104.7C266.135 106.35 266.885 108.3 268.685 108.3C271.235 108.3 273.785 102.6 275.135 99.45C275.435 98.4 276.485 97.95 277.385 98.1C278.435 98.4 278.885 99.15 278.435 100.05C275.285 107.1 272.585 114 263.435 114C258.335 114 254.585 111.9 254.585 106.35C254.585 102.6 255.935 99 256.835 95.4L264.035 67.8C264.935 64.2 265.535 60.45 265.535 56.55C265.535 53.85 265.235 48.6 261.485 48.6C260.585 48.6 259.685 48.75 258.785 49.2C254.435 51.3 238.085 78.45 236.285 84C234.785 88.8 231.185 100.8 231.185 105.45C231.185 109.5 235.085 110.25 238.235 110.85C239.135 111 239.585 111.6 239.285 112.5C239.135 113.4 238.385 114 237.485 114H207.935C207.035 114 206.585 113.4 206.735 112.5ZM277.118 93.75C277.118 74.1 294.068 39.45 315.668 39.45C320.468 39.45 324.368 42.6 326.768 46.5L333.968 18.6C334.718 16.2 335.168 13.8 335.168 11.4C335.168 7.04999 332.618 5.85 328.718 5.85C327.818 5.85 327.068 5.85 326.168 6C324.968 6 324.368 5.39999 324.668 4.35C324.968 3.15 325.868 2.4 326.918 2.24999L344.018 0.899999C347.768 0.599994 349.568 2.84999 348.668 6.6L324.968 97.2C324.368 99.9 323.168 102.6 323.168 105.3C323.168 107.1 323.768 108.3 325.718 108.3C328.268 108.3 330.668 102.75 332.018 99.45C332.468 98.4 333.368 97.95 334.418 98.1C335.468 98.4 335.768 99.15 335.318 100.05C332.318 107.1 329.468 114 320.318 114C315.068 114 311.468 111.75 311.618 106.05C306.218 110.7 299.318 114.75 292.118 114.75C280.568 114.75 277.118 103.5 277.118 93.75ZM300.368 105.6C304.568 105.6 308.768 104.25 312.368 101.85C315.818 85.65 320.468 69.75 324.818 53.85C323.768 48.6 320.618 43.65 314.618 43.65C303.518 43.65 294.368 66.9 292.118 75.9C291.068 80.25 290.318 84.9 290.318 89.4C290.318 96 291.818 105.6 300.368 105.6ZM330.056 102.45C330.056 99.6 331.406 94.8 335.006 94.8C342.956 94.8 336.356 111.6 348.206 111.6C356.156 111.6 361.856 103.5 361.856 96.15C361.856 83.4 343.706 78.9 343.706 64.8C343.706 52.2 357.056 39.75 369.656 39.75C375.656 39.75 381.356 42.6 381.356 49.5C381.356 52.5 379.706 56.25 376.256 56.25C373.256 56.25 370.856 54.6 370.856 51.45C370.856 49.2 371.906 47.25 371.906 45C371.906 43.35 370.406 43.05 369.056 43.05C362.156 43.05 353.156 49.35 353.156 56.7C353.156 66.75 373.406 72.3 373.406 88.35C373.406 102.9 359.606 114.9 345.356 114.9C337.706 114.9 330.056 111.3 330.056 102.45ZM398.891 89.7C398.891 69.15 415.391 39.75 438.491 39.75C453.041 39.75 459.041 52.05 459.041 64.95C459.041 85.5 442.241 114.9 419.291 114.9C404.741 114.9 398.891 102.6 398.891 89.7ZM422.591 111.15C440.741 111.15 445.991 77.4 445.991 64.05C445.991 57.45 445.091 43.35 435.791 43.35C417.041 43.35 411.941 76.05 411.941 89.85C411.941 96.9 412.841 111.15 422.591 111.15ZM428.932 115.8C432.232 115.8 433.882 118.05 433.882 121.05C433.882 125.7 430.282 129.3 430.282 132.45C430.282 134.85 433.132 136.05 435.082 136.05C448.582 136.05 455.782 102 458.032 93.45L470.782 44.4H463.132C462.082 44.4 461.482 43.65 461.782 42.6C462.232 41.4 463.282 40.65 464.332 40.65H471.832C476.482 22.8 483.682 0.749992 506.032 0.749992C513.382 0.749992 520.432 4.35 520.432 12.6C520.432 18 516.682 25.05 510.682 25.05C507.382 25.05 506.182 22.05 506.182 19.2C506.182 14.55 509.482 10.8 509.482 7.49999C509.482 5.25 506.932 3.75 504.832 3.75C492.682 3.75 485.632 31.8 483.232 40.65H497.782C498.832 40.65 499.432 41.4 499.132 42.6C498.682 43.65 497.632 44.4 496.432 44.4H482.332L469.282 94.2C464.332 113.25 458.032 139.35 433.732 139.35C426.382 139.35 419.782 134.1 419.782 126.3C419.782 121.2 423.382 115.8 428.932 115.8ZM498.455 112.95C498.605 112.2 499.205 111.6 499.955 111.45C507.305 109.95 510.155 109.2 512.555 100.95L535.655 20.1C536.105 18.75 536.405 17.25 536.405 15.9C536.405 12.15 532.355 11.4 529.505 10.5C528.755 10.2 528.455 9.59999 528.605 8.84999C528.755 8.1 529.355 7.64999 530.105 7.64999H544.505C547.055 7.64999 548.855 9.3 549.005 11.85L553.055 93.75L598.955 9.9C599.705 8.55 601.355 7.64999 602.855 7.64999H620.855C621.605 7.64999 621.905 8.1 621.755 8.84999C621.605 9.59999 621.005 10.2 620.255 10.35C613.655 12 610.355 12.75 608.555 20.7L589.655 102.45L589.205 105.75C589.205 110.1 593.855 110.4 597.155 111.3C597.755 111.45 598.205 112.2 597.905 112.8C597.755 113.55 597.155 114 596.405 114H565.355C564.605 114 564.305 113.55 564.455 112.8C564.605 112.05 565.355 111.45 565.955 111.3C571.505 110.25 576.005 109.05 577.505 102.75L595.655 24.15C579.305 53.85 562.655 83.25 546.455 112.95C546.005 113.85 545.105 114.45 544.055 114.45C543.155 114.45 542.555 113.7 542.405 112.8C540.755 85.05 538.805 57.3 536.855 29.55L516.305 101.85C515.855 103.05 515.705 104.25 515.705 105.45C515.705 110.85 522.305 111.15 526.505 111.75C527.255 111.75 527.555 112.35 527.405 112.95C527.255 113.7 526.655 114.15 525.905 114.15H499.355C498.605 114.15 498.155 113.7 498.455 112.95ZM596.635 100.2C596.635 79.8 620.785 69.15 638.485 70.95C640.285 63.6 642.685 56.25 642.685 48.75C642.685 45.3 642.235 43.5 638.485 43.5C630.535 43.5 622.585 54.3 619.735 62.4C618.985 64.5 617.185 66 614.935 66H612.835C609.385 66 607.585 63.75 608.935 60.75C614.035 49.05 625.885 39.3 638.785 39.3C647.935 39.3 652.735 44.85 652.735 53.85C652.735 56.7 652.135 59.55 651.535 62.4L641.485 101.1L641.035 104.55C641.035 106.05 641.485 108.3 643.435 108.3C645.985 108.3 648.385 102.75 649.735 99.45C650.185 98.4 651.085 97.95 652.135 98.1C653.035 98.4 653.485 99.15 653.035 100.05C650.035 107.1 647.185 114 638.035 114C632.935 114 629.185 111.9 629.185 106.35C629.185 104.85 629.485 103.2 629.785 101.7C624.985 108.15 617.785 115.05 609.235 115.05C600.985 115.05 596.635 107.7 596.635 100.2ZM616.585 105.75C621.835 105.75 627.535 99.15 630.535 95.25C634.735 90 635.785 81.15 637.285 74.7C636.535 74.55 635.785 74.55 635.035 74.55C624.085 74.55 608.785 82.65 608.785 95.1C608.785 99.6 611.185 105.75 616.585 105.75ZM653.233 106.5C653.233 102.9 654.133 99.6 655.033 96.3C659.383 79.2 663.433 61.95 667.783 44.85L658.933 45C657.883 45 657.433 44.4 657.733 43.35C658.033 42.3 658.933 41.7 659.983 41.55C670.333 40.2 679.033 27.9 683.833 19.5C684.283 18.9 684.883 18.45 685.633 18.45C686.233 18.45 686.683 18.9 686.383 19.65L680.533 40.65L693.733 40.5C694.933 40.5 695.383 41.25 695.083 42.45C694.783 43.65 693.733 44.4 692.533 44.4L679.333 44.7C677.533 51.45 676.183 58.5 674.383 65.4L665.533 99.15C665.083 100.95 664.783 102.75 664.783 104.55C664.783 106.5 665.383 108.9 667.783 108.9C671.083 108.9 674.533 105.6 676.933 103.05C677.533 102.45 678.133 102.6 678.433 103.5C678.583 104.25 678.433 105.3 677.833 106.05C673.933 110.55 667.633 114.9 661.783 114.9C656.233 114.9 653.233 112.2 653.233 106.5ZM669.696 112.5C669.996 111.6 670.746 110.85 671.646 110.7C678.246 109.35 681.246 108.6 683.346 100.65L705.546 15.75C705.996 13.8 706.596 11.7 706.596 9.59999C706.596 4.5 701.496 4.35 697.446 4.5C696.396 4.5 695.796 3.75 695.946 2.84999C696.096 1.8 696.996 1.05 698.046 1.05L714.996 0.899999C718.446 0.899999 720.246 3.15 719.346 6.6L703.596 67.2C707.946 59.1 717.846 41.25 727.896 41.25C736.446 41.25 738.696 49.65 738.696 56.55C738.696 60 738.246 63.3 737.496 66.6L728.496 101.1C728.046 102.3 727.746 103.5 727.746 104.7C727.746 106.35 728.496 108.3 730.446 108.3C732.846 108.3 735.396 102.75 736.746 99.45C737.046 98.4 738.096 97.95 738.996 98.1C740.046 98.4 740.496 99.15 740.046 100.05C736.896 107.1 734.196 114 725.046 114C719.946 114 716.196 111.9 716.196 106.35C716.196 104.25 716.646 102.3 717.096 100.35L725.646 67.8C726.546 64.2 727.146 60.45 727.146 56.55C727.146 53.85 726.846 48.6 723.096 48.6C722.196 48.6 721.296 48.75 720.396 49.2C716.646 50.85 701.946 74.25 700.446 79.2C699.246 82.95 693.996 102.45 693.996 105.45C693.996 109.5 697.896 110.25 701.196 110.85C702.096 111 702.546 111.6 702.246 112.5C702.096 113.4 701.346 114 700.446 114H670.896C669.996 114 669.546 113.4 669.696 112.5ZM757.053 112.8C757.353 112.05 757.953 111.45 758.703 111.3C765.903 109.8 768.753 109.2 770.853 100.95L791.853 20.4C792.303 18.75 792.753 17.1 792.753 15.45C792.753 11.55 788.103 11.1 784.953 10.2C784.353 9.9 784.053 9.3 784.203 8.7C784.353 8.1 784.953 7.64999 785.703 7.64999H822.303C835.203 7.64999 841.953 17.85 841.953 30C841.953 50.4 823.953 71.7 802.803 71.7H790.653L782.853 101.25C782.553 102.9 782.103 104.4 782.103 106.05C782.103 110.1 786.603 110.4 789.753 111.3C790.503 111.45 790.803 112.2 790.653 112.8C790.353 113.55 789.753 114 789.153 114H758.103C757.353 114 756.903 113.55 757.053 112.8ZM806.253 11.85L791.703 67.8H803.553C820.353 67.8 829.503 39.15 829.503 25.8C829.503 20.4 828.603 11.7 821.553 11.7C816.453 11.7 811.353 11.85 806.253 11.85ZM816.654 112.5C816.804 111.6 817.554 110.85 818.454 110.7C825.204 109.35 828.054 108.6 830.154 100.65L841.404 57.45C842.004 55.05 842.604 52.65 842.604 50.25C842.604 45.6 839.754 44.25 836.004 43.95C834.954 43.8 834.504 43.2 834.654 42.15C834.954 41.1 835.704 40.35 836.754 40.35L851.604 40.2C855.204 40.2 857.004 42.45 856.104 45.75C854.304 52.5 852.504 59.25 850.704 66C854.454 58.8 864.654 40.65 873.804 40.65C880.104 40.65 883.104 46.5 883.104 52.2C883.104 57.75 879.654 66.15 873.054 66.15C869.904 66.15 868.554 63.3 868.554 60.45C868.554 55.35 872.454 50.7 872.454 47.55C872.454 46.5 870.954 46.5 870.204 46.5C862.854 46.5 847.854 79.05 845.304 87.15C844.404 89.7 841.104 103.35 841.104 105.45C841.104 109.5 844.854 110.25 848.154 110.85C849.054 111 849.354 111.6 849.204 112.5C848.904 113.4 848.154 114 847.254 114H817.704C816.804 114 816.354 113.4 816.654 112.5ZM872.545 89.7C872.545 69.15 889.045 39.75 912.145 39.75C926.695 39.75 932.695 52.05 932.695 64.95C932.695 85.5 915.895 114.9 892.945 114.9C878.395 114.9 872.545 102.6 872.545 89.7ZM896.245 111.15C914.395 111.15 919.645 77.4 919.645 64.05C919.645 57.45 918.745 43.35 909.445 43.35C890.695 43.35 885.595 76.05 885.595 89.85C885.595 96.9 886.495 111.15 896.245 111.15ZM928.633 93.75C928.633 74.1 945.583 39.45 967.183 39.45C971.983 39.45 975.883 42.6 978.283 46.5L985.483 18.6C986.233 16.2 986.683 13.8 986.683 11.4C986.683 7.04999 984.133 5.85 980.233 5.85C979.333 5.85 978.583 5.85 977.683 6C976.483 6 975.883 5.39999 976.183 4.35C976.483 3.15 977.383 2.4 978.433 2.24999L995.533 0.899999C999.283 0.599994 1001.08 2.84999 1000.18 6.6L976.483 97.2C975.883 99.9 974.683 102.6 974.683 105.3C974.683 107.1 975.283 108.3 977.233 108.3C979.783 108.3 982.183 102.75 983.533 99.45C983.983 98.4 984.883 97.95 985.933 98.1C986.983 98.4 987.283 99.15 986.833 100.05C983.833 107.1 980.983 114 971.833 114C966.583 114 962.983 111.75 963.133 106.05C957.733 110.7 950.833 114.75 943.633 114.75C932.083 114.75 928.633 103.5 928.633 93.75ZM951.883 105.6C956.083 105.6 960.283 104.25 963.883 101.85C967.333 85.65 971.983 69.75 976.333 53.85C975.283 48.6 972.133 43.65 966.133 43.65C955.033 43.65 945.883 66.9 943.633 75.9C942.583 80.25 941.833 84.9 941.833 89.4C941.833 96 943.333 105.6 951.883 105.6ZM993.421 95.4C995.671 86.85 1004.37 58.65 1004.37 52.05C1004.37 45.75 999.271 44.4 994.171 44.25C993.121 44.1 992.371 43.5 992.221 42.45C992.221 41.4 992.971 40.65 994.021 40.65L1013.37 40.2C1016.97 40.2 1018.77 42.45 1017.87 45.9L1004.52 96.6C1003.77 99.3 1002.72 102 1002.72 104.7C1002.72 106.35 1003.47 108.3 1005.27 108.3C1007.82 108.3 1010.22 102.6 1011.57 99.45C1012.02 98.4 1012.92 97.95 1013.97 98.1C1015.02 98.4 1015.32 99.15 1015.02 100.05C1011.87 107.1 1009.02 114 999.871 114C994.921 114 991.171 111.9 991.171 106.35C991.171 102.6 992.371 99 993.421 95.4ZM1010.67 23.1C1010.67 18 1014.87 10.65 1020.57 10.65C1024.17 10.65 1025.82 14.1 1025.82 17.4C1025.82 22.35 1021.47 29.85 1015.92 29.85C1012.17 29.85 1010.67 26.25 1010.67 23.1ZM1000.41 133.5C1000.41 129.6 1002.36 122.1 1007.31 122.1C1009.86 122.1 1011.96 123.3 1011.96 126.15C1011.96 129 1010.31 132 1008.66 134.4C1009.86 141.9 1014.36 145.35 1021.86 145.35C1033.86 145.35 1045.11 138.3 1048.41 126.3L1048.71 124.5C1048.71 112.8 1011.51 119.55 1011.51 102.75C1011.51 96 1018.26 90.9 1023.51 87.9C1020.36 84.3 1018.86 79.35 1018.86 74.55C1018.86 57.75 1034.01 40.5 1051.41 40.5C1055.01 40.5 1058.61 41.4 1061.61 43.35C1064.61 37.5 1070.91 28.05 1078.26 28.05C1081.71 28.05 1083.66 30.45 1083.66 33.9C1083.66 37.65 1080.66 44.55 1076.16 44.55C1072.11 44.55 1071.36 39.15 1069.26 38.55C1067.46 38.7 1064.76 43.35 1063.86 44.85C1068.21 48.6 1070.16 54.3 1070.16 59.85C1070.16 76.5 1054.86 93.9 1037.76 93.9C1034.01 93.9 1030.26 93 1026.96 90.9C1025.61 92.1 1023.66 94.2 1023.66 96C1023.66 105.45 1055.91 99.45 1055.91 117.45C1055.91 135.15 1038.96 149.4 1021.56 149.4C1011.96 149.4 1000.41 144.75 1000.41 133.5ZM1040.61 90.45C1054.26 90.45 1058.46 71.55 1058.46 60.9C1058.46 54.75 1057.26 43.8 1048.86 43.8C1034.76 43.8 1030.41 61.65 1030.41 72.75C1030.41 79.2 1031.91 90.45 1040.61 90.45ZM1040.77 133.05C1040.77 129 1044.22 125.7 1048.27 125.7C1055.47 125.7 1055.77 134.85 1064.17 134.85C1079.62 134.85 1098.07 111.6 1105.12 98.85C1099.12 105.6 1090.42 113.25 1080.97 113.25C1071.37 113.25 1068.52 106.35 1068.52 97.8C1068.52 94.5 1068.97 91.05 1069.72 87.9L1078.72 53.4C1079.17 52.2 1079.47 51 1079.47 49.8C1079.47 48.15 1078.72 46.2 1076.92 46.2C1074.37 46.2 1071.82 51.75 1070.47 55.05C1070.17 56.1 1069.12 56.55 1068.22 56.4C1067.17 56.1 1066.72 55.35 1067.17 54.45C1070.17 47.4 1073.02 40.5 1082.17 40.5C1087.27 40.5 1091.02 42.6 1091.02 48.15C1091.02 50.1 1090.57 52.2 1090.12 54.15L1081.57 86.7C1080.82 89.55 1080.37 92.7 1080.37 95.7C1080.37 99.75 1081.42 105.9 1086.67 105.9C1096.57 105.9 1111.12 86.1 1115.02 77.55C1116.52 74.1 1117.87 67.65 1117.87 63.9C1117.87 55.65 1110.37 52.8 1110.37 46.65C1110.37 42.9 1115.32 41.4 1118.32 41.4C1123.72 41.4 1124.17 46.65 1124.17 50.85C1124.17 71.85 1116.22 93 1103.92 109.8C1092.37 125.55 1076.17 142.35 1055.17 142.35C1048.72 142.35 1040.77 141.15 1040.77 133.05Z" fill="black"/>
<path d="M9.875 160.266V171.375C9.875 172.229 10.0104 172.927 10.2812 173.469C10.7812 174.469 11.7135 174.969 13.0781 174.969C15.0365 174.969 16.3698 174.094 17.0781 172.344C17.4635 171.406 17.6562 170.12 17.6562 168.484V160.266H20.4688V177H17.8125L17.8438 174.531C17.4792 175.167 17.026 175.703 16.4844 176.141C15.4115 177.016 14.1094 177.453 12.5781 177.453C10.1927 177.453 8.56771 176.656 7.70312 175.062C7.23438 174.208 7 173.068 7 171.641V160.266H9.875ZM22.955 160.266H25.6269V162.641C26.4185 161.661 27.2571 160.958 28.1425 160.531C29.0279 160.104 30.0123 159.891 31.0956 159.891C33.4706 159.891 35.0748 160.719 35.9081 162.375C36.3665 163.281 36.5956 164.578 36.5956 166.266V177H33.7362V166.453C33.7362 165.432 33.5852 164.609 33.2831 163.984C32.7831 162.943 31.8769 162.422 30.5644 162.422C29.8977 162.422 29.3508 162.49 28.9237 162.625C28.1529 162.854 27.4758 163.312 26.8925 164C26.4237 164.552 26.1165 165.125 25.9706 165.719C25.8352 166.302 25.7675 167.141 25.7675 168.234V177H22.955V160.266ZM38.9256 154.047H41.7381V177H38.9256V154.047ZM51.0213 159.891C52.2088 159.891 53.3598 160.172 54.4744 160.734C55.589 161.286 56.4379 162.005 57.0213 162.891C57.5838 163.734 57.9588 164.719 58.1463 165.844C58.3129 166.615 58.3963 167.844 58.3963 169.531H46.1306C46.1827 171.229 46.5838 172.594 47.3338 173.625C48.0838 174.646 49.2452 175.156 50.8181 175.156C52.2869 175.156 53.4588 174.672 54.3338 173.703C54.8338 173.141 55.1879 172.49 55.3963 171.75H58.1619C58.089 172.365 57.8442 173.052 57.4275 173.812C57.0213 174.562 56.5629 175.177 56.0525 175.656C55.1983 176.49 54.141 177.052 52.8806 177.344C52.2035 177.51 51.4379 177.594 50.5838 177.594C48.5004 177.594 46.7348 176.839 45.2869 175.328C43.839 173.807 43.115 171.682 43.115 168.953C43.115 166.266 43.8442 164.083 45.3025 162.406C46.7608 160.729 48.6671 159.891 51.0213 159.891ZM55.5056 167.297C55.391 166.078 55.1254 165.104 54.7088 164.375C53.9379 163.021 52.6515 162.344 50.8494 162.344C49.5577 162.344 48.4744 162.812 47.5994 163.75C46.7244 164.677 46.2608 165.859 46.2088 167.297H55.5056ZM62.1012 172.547C62.1012 173.359 62.3981 174 62.9919 174.469C63.5856 174.938 64.2887 175.172 65.1012 175.172C66.0908 175.172 67.0492 174.943 67.9762 174.484C69.5387 173.724 70.32 172.479 70.32 170.75V168.484C69.9762 168.703 69.5335 168.885 68.9919 169.031C68.4502 169.177 67.919 169.281 67.3981 169.344L65.695 169.562C64.6742 169.698 63.9085 169.911 63.3981 170.203C62.5335 170.693 62.1012 171.474 62.1012 172.547ZM68.9137 166.859C69.5596 166.776 69.9919 166.505 70.2106 166.047C70.3356 165.797 70.3981 165.438 70.3981 164.969C70.3981 164.01 70.0544 163.318 69.3669 162.891C68.6898 162.453 67.7158 162.234 66.445 162.234C64.9762 162.234 63.9346 162.63 63.32 163.422C62.9762 163.859 62.7523 164.51 62.6481 165.375H60.0231C60.0752 163.312 60.7419 161.88 62.0231 161.078C63.3148 160.266 64.8096 159.859 66.5075 159.859C68.4762 159.859 70.0752 160.234 71.3044 160.984C72.5231 161.734 73.1325 162.901 73.1325 164.484V174.125C73.1325 174.417 73.1898 174.651 73.3044 174.828C73.4294 175.005 73.6846 175.094 74.07 175.094C74.195 175.094 74.3356 175.089 74.4919 175.078C74.6481 175.057 74.8148 175.031 74.9919 175V177.078C74.5544 177.203 74.221 177.281 73.9919 177.312C73.7627 177.344 73.4502 177.359 73.0544 177.359C72.0856 177.359 71.3825 177.016 70.945 176.328C70.7158 175.964 70.5544 175.448 70.4606 174.781C69.8877 175.531 69.0648 176.182 67.9919 176.734C66.919 177.286 65.7367 177.562 64.445 177.562C62.8929 177.562 61.6221 177.094 60.6325 176.156C59.6533 175.208 59.1637 174.026 59.1637 172.609C59.1637 171.057 59.6481 169.854 60.6169 169C61.5856 168.146 62.8565 167.62 64.4294 167.422L68.9137 166.859ZM77.5094 171.75C77.5927 172.688 77.8271 173.406 78.2125 173.906C78.9208 174.812 80.15 175.266 81.9 175.266C82.9417 175.266 83.8583 175.042 84.65 174.594C85.4417 174.135 85.8375 173.432 85.8375 172.484C85.8375 171.766 85.5198 171.219 84.8844 170.844C84.4781 170.615 83.676 170.349 82.4781 170.047L80.2438 169.484C78.8167 169.13 77.7646 168.734 77.0875 168.297C75.8792 167.536 75.275 166.484 75.275 165.141C75.275 163.557 75.8427 162.276 76.9781 161.297C78.124 160.318 79.6604 159.828 81.5875 159.828C84.1083 159.828 85.926 160.568 87.0406 162.047C87.7385 162.984 88.0771 163.995 88.0563 165.078H85.4C85.3479 164.443 85.124 163.865 84.7281 163.344C84.0823 162.604 82.9625 162.234 81.3688 162.234C80.3063 162.234 79.499 162.438 78.9469 162.844C78.4052 163.25 78.1344 163.786 78.1344 164.453C78.1344 165.182 78.4938 165.766 79.2125 166.203C79.6292 166.464 80.2438 166.693 81.0563 166.891L82.9156 167.344C84.9365 167.833 86.2906 168.307 86.9781 168.766C88.0719 169.484 88.6188 170.615 88.6188 172.156C88.6188 173.646 88.051 174.932 86.9156 176.016C85.7906 177.099 84.0719 177.641 81.7594 177.641C79.2698 177.641 77.5042 177.078 76.4625 175.953C75.4313 174.818 74.8792 173.417 74.8063 171.75H77.5094ZM89.9175 153.969H92.73V162.531C93.3967 161.688 93.9956 161.094 94.5269 160.75C95.4331 160.156 96.5633 159.859 97.9175 159.859C100.345 159.859 101.99 160.708 102.855 162.406C103.324 163.333 103.558 164.62 103.558 166.266V177H100.668V166.453C100.668 165.224 100.511 164.323 100.199 163.75C99.6883 162.833 98.73 162.375 97.3238 162.375C96.1571 162.375 95.0998 162.776 94.1519 163.578C93.204 164.38 92.73 165.896 92.73 168.125V177H89.9175V153.969ZM123.249 160.266H126.359C125.963 161.339 125.083 163.786 123.718 167.609C122.697 170.484 121.843 172.828 121.156 174.641C119.531 178.911 118.385 181.516 117.718 182.453C117.051 183.391 115.906 183.859 114.281 183.859C113.885 183.859 113.577 183.844 113.359 183.812C113.15 183.781 112.89 183.724 112.577 183.641V181.078C113.067 181.214 113.421 181.297 113.64 181.328C113.859 181.359 114.051 181.375 114.218 181.375C114.739 181.375 115.119 181.286 115.359 181.109C115.609 180.943 115.817 180.734 115.984 180.484C116.036 180.401 116.223 179.974 116.546 179.203C116.869 178.432 117.104 177.859 117.249 177.484L111.062 160.266H114.249L118.734 173.891L123.249 160.266ZM133.517 175.188C135.381 175.188 136.658 174.484 137.345 173.078C138.043 171.661 138.392 170.089 138.392 168.359C138.392 166.797 138.142 165.526 137.642 164.547C136.85 163.005 135.486 162.234 133.548 162.234C131.829 162.234 130.579 162.891 129.798 164.203C129.017 165.516 128.626 167.099 128.626 168.953C128.626 170.734 129.017 172.219 129.798 173.406C130.579 174.594 131.819 175.188 133.517 175.188ZM133.626 159.781C135.783 159.781 137.605 160.5 139.095 161.938C140.585 163.375 141.329 165.49 141.329 168.281C141.329 170.979 140.673 173.208 139.361 174.969C138.048 176.729 136.012 177.609 133.251 177.609C130.949 177.609 129.121 176.833 127.767 175.281C126.413 173.719 125.736 171.625 125.736 169C125.736 166.188 126.449 163.948 127.876 162.281C129.303 160.615 131.22 159.781 133.626 159.781ZM145.581 160.266V171.375C145.581 172.229 145.717 172.927 145.988 173.469C146.488 174.469 147.42 174.969 148.784 174.969C150.743 174.969 152.076 174.094 152.784 172.344C153.17 171.406 153.363 170.12 153.363 168.484V160.266H156.175V177H153.519L153.55 174.531C153.185 175.167 152.732 175.703 152.191 176.141C151.118 177.016 149.816 177.453 148.284 177.453C145.899 177.453 144.274 176.656 143.409 175.062C142.941 174.208 142.706 173.068 142.706 171.641V160.266H145.581ZM158.739 160.266H161.411V163.156C161.63 162.594 162.166 161.911 163.021 161.109C163.875 160.297 164.859 159.891 165.974 159.891C166.026 159.891 166.114 159.896 166.239 159.906C166.364 159.917 166.578 159.938 166.88 159.969V162.938C166.713 162.906 166.557 162.885 166.411 162.875C166.276 162.865 166.125 162.859 165.958 162.859C164.541 162.859 163.453 163.318 162.693 164.234C161.932 165.141 161.552 166.188 161.552 167.375V177H158.739V160.266ZM174.384 160.266H177.165V162.641C177.832 161.818 178.436 161.219 178.977 160.844C179.905 160.208 180.957 159.891 182.134 159.891C183.467 159.891 184.54 160.219 185.352 160.875C185.811 161.25 186.227 161.802 186.602 162.531C187.227 161.635 187.962 160.974 188.806 160.547C189.649 160.109 190.597 159.891 191.649 159.891C193.899 159.891 195.431 160.703 196.243 162.328C196.681 163.203 196.899 164.38 196.899 165.859V177H193.977V165.375C193.977 164.26 193.696 163.495 193.134 163.078C192.582 162.661 191.905 162.453 191.102 162.453C189.998 162.453 189.045 162.823 188.243 163.562C187.451 164.302 187.056 165.536 187.056 167.266V177H184.196V166.078C184.196 164.943 184.061 164.115 183.79 163.594C183.363 162.812 182.566 162.422 181.399 162.422C180.337 162.422 179.368 162.833 178.493 163.656C177.629 164.479 177.196 165.969 177.196 168.125V177H174.384V160.266ZM201.276 172.547C201.276 173.359 201.573 174 202.167 174.469C202.761 174.938 203.464 175.172 204.276 175.172C205.266 175.172 206.224 174.943 207.151 174.484C208.714 173.724 209.495 172.479 209.495 170.75V168.484C209.151 168.703 208.709 168.885 208.167 169.031C207.625 169.177 207.094 169.281 206.573 169.344L204.87 169.562C203.849 169.698 203.084 169.911 202.573 170.203C201.709 170.693 201.276 171.474 201.276 172.547ZM208.089 166.859C208.735 166.776 209.167 166.505 209.386 166.047C209.511 165.797 209.573 165.438 209.573 164.969C209.573 164.01 209.229 163.318 208.542 162.891C207.865 162.453 206.891 162.234 205.62 162.234C204.151 162.234 203.11 162.63 202.495 163.422C202.151 163.859 201.927 164.51 201.823 165.375H199.198C199.25 163.312 199.917 161.88 201.198 161.078C202.49 160.266 203.985 159.859 205.682 159.859C207.651 159.859 209.25 160.234 210.479 160.984C211.698 161.734 212.307 162.901 212.307 164.484V174.125C212.307 174.417 212.365 174.651 212.479 174.828C212.604 175.005 212.86 175.094 213.245 175.094C213.37 175.094 213.511 175.089 213.667 175.078C213.823 175.057 213.99 175.031 214.167 175V177.078C213.729 177.203 213.396 177.281 213.167 177.312C212.938 177.344 212.625 177.359 212.229 177.359C211.261 177.359 210.557 177.016 210.12 176.328C209.891 175.964 209.729 175.448 209.636 174.781C209.063 175.531 208.24 176.182 207.167 176.734C206.094 177.286 204.912 177.562 203.62 177.562C202.068 177.562 200.797 177.094 199.807 176.156C198.828 175.208 198.339 174.026 198.339 172.609C198.339 171.057 198.823 169.854 199.792 169C200.761 168.146 202.031 167.62 203.604 167.422L208.089 166.859ZM215.575 155.594H218.419V160.266H221.091V162.562H218.419V173.484C218.419 174.068 218.617 174.458 219.012 174.656C219.231 174.771 219.596 174.828 220.106 174.828C220.242 174.828 220.387 174.828 220.544 174.828C220.7 174.818 220.882 174.802 221.091 174.781V177C220.768 177.094 220.429 177.161 220.075 177.203C219.731 177.245 219.356 177.266 218.95 177.266C217.637 177.266 216.747 176.932 216.278 176.266C215.809 175.589 215.575 174.714 215.575 173.641V162.562H213.309V160.266H215.575V155.594ZM221.999 153.969H224.811V162.531C225.478 161.688 226.077 161.094 226.608 160.75C227.514 160.156 228.645 159.859 229.999 159.859C232.426 159.859 234.072 160.708 234.936 162.406C235.405 163.333 235.639 164.62 235.639 166.266V177H232.749V166.453C232.749 165.224 232.592 164.323 232.28 163.75C231.77 162.833 230.811 162.375 229.405 162.375C228.238 162.375 227.181 162.776 226.233 163.578C225.285 164.38 224.811 165.896 224.811 168.125V177H221.999V153.969ZM237.157 166.641H245.001V169.531H237.157V166.641ZM247.331 157.719C247.372 156.552 247.575 155.698 247.94 155.156C248.596 154.198 249.862 153.719 251.737 153.719C251.914 153.719 252.096 153.724 252.284 153.734C252.471 153.745 252.685 153.76 252.924 153.781V156.344C252.633 156.323 252.419 156.312 252.284 156.312C252.159 156.302 252.039 156.297 251.924 156.297C251.07 156.297 250.56 156.521 250.393 156.969C250.226 157.406 250.143 158.531 250.143 160.344H252.924V162.562H250.112V177H247.331V162.562H245.003V160.344H247.331V157.719ZM256.426 160.266V171.375C256.426 172.229 256.562 172.927 256.833 173.469C257.333 174.469 258.265 174.969 259.629 174.969C261.588 174.969 262.921 174.094 263.629 172.344C264.015 171.406 264.208 170.12 264.208 168.484V160.266H267.02V177H264.364L264.395 174.531C264.03 175.167 263.577 175.703 263.036 176.141C261.963 177.016 260.661 177.453 259.129 177.453C256.744 177.453 255.119 176.656 254.254 175.062C253.786 174.208 253.551 173.068 253.551 171.641V160.266H256.426ZM276.475 159.891C277.663 159.891 278.814 160.172 279.928 160.734C281.043 161.286 281.892 162.005 282.475 162.891C283.038 163.734 283.413 164.719 283.6 165.844C283.767 166.615 283.85 167.844 283.85 169.531H271.584C271.636 171.229 272.038 172.594 272.788 173.625C273.538 174.646 274.699 175.156 276.272 175.156C277.741 175.156 278.913 174.672 279.788 173.703C280.288 173.141 280.642 172.49 280.85 171.75H283.616C283.543 172.365 283.298 173.052 282.881 173.812C282.475 174.562 282.017 175.177 281.506 175.656C280.652 176.49 279.595 177.052 278.334 177.344C277.657 177.51 276.892 177.594 276.038 177.594C273.954 177.594 272.189 176.839 270.741 175.328C269.293 173.807 268.569 171.682 268.569 168.953C268.569 166.266 269.298 164.083 270.756 162.406C272.215 160.729 274.121 159.891 276.475 159.891ZM280.959 167.297C280.845 166.078 280.579 165.104 280.163 164.375C279.392 163.021 278.105 162.344 276.303 162.344C275.011 162.344 273.928 162.812 273.053 163.75C272.178 164.677 271.715 165.859 271.663 167.297H280.959ZM285.477 154.047H288.289V177H285.477V154.047ZM297.573 159.891C298.76 159.891 299.911 160.172 301.026 160.734C302.14 161.286 302.989 162.005 303.573 162.891C304.135 163.734 304.51 164.719 304.698 165.844C304.864 166.615 304.948 167.844 304.948 169.531H292.682C292.734 171.229 293.135 172.594 293.885 173.625C294.635 174.646 295.796 175.156 297.369 175.156C298.838 175.156 300.01 174.672 300.885 173.703C301.385 173.141 301.739 172.49 301.948 171.75H304.713C304.64 172.365 304.395 173.052 303.979 173.812C303.573 174.562 303.114 175.177 302.604 175.656C301.75 176.49 300.692 177.052 299.432 177.344C298.755 177.51 297.989 177.594 297.135 177.594C295.052 177.594 293.286 176.839 291.838 175.328C290.39 173.807 289.666 171.682 289.666 168.953C289.666 166.266 290.395 164.083 291.854 162.406C293.312 160.729 295.218 159.891 297.573 159.891ZM302.057 167.297C301.942 166.078 301.677 165.104 301.26 164.375C300.489 163.021 299.203 162.344 297.401 162.344C296.109 162.344 295.026 162.812 294.151 163.75C293.276 164.677 292.812 165.859 292.76 167.297H302.057ZM308.277 168.828C308.277 170.62 308.658 172.12 309.418 173.328C310.179 174.536 311.397 175.141 313.074 175.141C314.376 175.141 315.444 174.583 316.277 173.469C317.121 172.344 317.543 170.734 317.543 168.641C317.543 166.526 317.111 164.964 316.246 163.953C315.382 162.932 314.314 162.422 313.043 162.422C311.626 162.422 310.475 162.964 309.59 164.047C308.715 165.13 308.277 166.724 308.277 168.828ZM312.512 159.969C313.793 159.969 314.866 160.24 315.731 160.781C316.231 161.094 316.798 161.641 317.434 162.422V153.969H320.137V177H317.606V174.672C316.949 175.703 316.173 176.448 315.277 176.906C314.382 177.365 313.356 177.594 312.199 177.594C310.335 177.594 308.72 176.812 307.356 175.25C305.991 173.677 305.309 171.589 305.309 168.984C305.309 166.547 305.929 164.438 307.168 162.656C308.418 160.865 310.199 159.969 312.512 159.969ZM329.375 160.266H332.156V162.641C332.823 161.818 333.427 161.219 333.969 160.844C334.896 160.208 335.948 159.891 337.125 159.891C338.458 159.891 339.531 160.219 340.344 160.875C340.802 161.25 341.219 161.802 341.594 162.531C342.219 161.635 342.953 160.974 343.797 160.547C344.641 160.109 345.589 159.891 346.641 159.891C348.891 159.891 350.422 160.703 351.234 162.328C351.672 163.203 351.891 164.38 351.891 165.859V177H348.969V165.375C348.969 164.26 348.688 163.495 348.125 163.078C347.573 162.661 346.896 162.453 346.094 162.453C344.99 162.453 344.036 162.823 343.234 163.562C342.443 164.302 342.047 165.536 342.047 167.266V177H339.188V166.078C339.188 164.943 339.052 164.115 338.781 163.594C338.354 162.812 337.557 162.422 336.391 162.422C335.328 162.422 334.359 162.833 333.484 163.656C332.62 164.479 332.188 165.969 332.188 168.125V177H329.375V160.266ZM354.111 160.344H356.971V177H354.111V160.344ZM354.111 154.047H356.971V157.234H354.111V154.047ZM365.223 159.969C366.535 159.969 367.681 160.292 368.66 160.938C369.191 161.302 369.733 161.833 370.285 162.531V160.422H372.879V175.641C372.879 177.766 372.566 179.443 371.941 180.672C370.775 182.943 368.571 184.078 365.332 184.078C363.53 184.078 362.014 183.672 360.785 182.859C359.556 182.057 358.868 180.797 358.723 179.078H361.582C361.717 179.828 361.988 180.406 362.394 180.812C363.03 181.438 364.03 181.75 365.394 181.75C367.551 181.75 368.962 180.99 369.629 179.469C370.025 178.573 370.207 176.974 370.176 174.672C369.613 175.526 368.936 176.161 368.144 176.578C367.353 176.995 366.306 177.203 365.004 177.203C363.191 177.203 361.603 176.562 360.238 175.281C358.884 173.99 358.207 171.859 358.207 168.891C358.207 166.089 358.889 163.901 360.254 162.328C361.629 160.755 363.285 159.969 365.223 159.969ZM370.285 168.562C370.285 166.49 369.858 164.953 369.004 163.953C368.15 162.953 367.061 162.453 365.738 162.453C363.759 162.453 362.405 163.38 361.676 165.234C361.29 166.224 361.098 167.521 361.098 169.125C361.098 171.01 361.478 172.448 362.238 173.438C363.009 174.417 364.04 174.906 365.332 174.906C367.353 174.906 368.775 173.995 369.598 172.172C370.056 171.141 370.285 169.938 370.285 168.562ZM375.209 153.969H378.021V162.531C378.688 161.688 379.287 161.094 379.818 160.75C380.724 160.156 381.855 159.859 383.209 159.859C385.636 159.859 387.282 160.708 388.146 162.406C388.615 163.333 388.849 164.62 388.849 166.266V177H385.959V166.453C385.959 165.224 385.802 164.323 385.49 163.75C384.98 162.833 384.021 162.375 382.615 162.375C381.448 162.375 380.391 162.776 379.443 163.578C378.495 164.38 378.021 165.896 378.021 168.125V177H375.209V153.969ZM391.664 155.594H394.508V160.266H397.179V162.562H394.508V173.484C394.508 174.068 394.705 174.458 395.101 174.656C395.32 174.771 395.685 174.828 396.195 174.828C396.33 174.828 396.476 174.828 396.633 174.828C396.789 174.818 396.971 174.802 397.179 174.781V177C396.856 177.094 396.518 177.161 396.164 177.203C395.82 177.245 395.445 177.266 395.039 177.266C393.726 177.266 392.836 176.932 392.367 176.266C391.898 175.589 391.664 174.714 391.664 173.641V162.562H389.398V160.266H391.664V155.594ZM405.074 160.344H407.933V177H405.074V160.344ZM405.074 154.047H407.933V157.234H405.074V154.047ZM410.279 160.266H412.951V162.641C413.742 161.661 414.581 160.958 415.466 160.531C416.352 160.104 417.336 159.891 418.419 159.891C420.794 159.891 422.399 160.719 423.232 162.375C423.69 163.281 423.919 164.578 423.919 166.266V177H421.06V166.453C421.06 165.432 420.909 164.609 420.607 163.984C420.107 162.943 419.201 162.422 417.888 162.422C417.221 162.422 416.675 162.49 416.247 162.625C415.477 162.854 414.8 163.312 414.216 164C413.747 164.552 413.44 165.125 413.294 165.719C413.159 166.302 413.091 167.141 413.091 168.234V177H410.279V160.266ZM435.314 172.547C435.314 173.359 435.611 174 436.204 174.469C436.798 174.938 437.501 175.172 438.314 175.172C439.303 175.172 440.262 174.943 441.189 174.484C442.751 173.724 443.533 172.479 443.533 170.75V168.484C443.189 168.703 442.746 168.885 442.204 169.031C441.663 169.177 441.131 169.281 440.611 169.344L438.908 169.562C437.887 169.698 437.121 169.911 436.611 170.203C435.746 170.693 435.314 171.474 435.314 172.547ZM442.126 166.859C442.772 166.776 443.204 166.505 443.423 166.047C443.548 165.797 443.611 165.438 443.611 164.969C443.611 164.01 443.267 163.318 442.579 162.891C441.902 162.453 440.928 162.234 439.658 162.234C438.189 162.234 437.147 162.63 436.533 163.422C436.189 163.859 435.965 164.51 435.861 165.375H433.236C433.288 163.312 433.954 161.88 435.236 161.078C436.527 160.266 438.022 159.859 439.72 159.859C441.689 159.859 443.288 160.234 444.517 160.984C445.736 161.734 446.345 162.901 446.345 164.484V174.125C446.345 174.417 446.402 174.651 446.517 174.828C446.642 175.005 446.897 175.094 447.283 175.094C447.408 175.094 447.548 175.089 447.704 175.078C447.861 175.057 448.027 175.031 448.204 175V177.078C447.767 177.203 447.434 177.281 447.204 177.312C446.975 177.344 446.663 177.359 446.267 177.359C445.298 177.359 444.595 177.016 444.158 176.328C443.928 175.964 443.767 175.448 443.673 174.781C443.1 175.531 442.277 176.182 441.204 176.734C440.131 177.286 438.949 177.562 437.658 177.562C436.105 177.562 434.835 177.094 433.845 176.156C432.866 175.208 432.376 174.026 432.376 172.609C432.376 171.057 432.861 169.854 433.829 169C434.798 168.146 436.069 167.62 437.642 167.422L442.126 166.859ZM456.114 160.266H458.786V163.156C459.005 162.594 459.541 161.911 460.396 161.109C461.25 160.297 462.234 159.891 463.349 159.891C463.401 159.891 463.489 159.896 463.614 159.906C463.739 159.917 463.953 159.938 464.255 159.969V162.938C464.088 162.906 463.932 162.885 463.786 162.875C463.651 162.865 463.5 162.859 463.333 162.859C461.916 162.859 460.828 163.318 460.068 164.234C459.307 165.141 458.927 166.188 458.927 167.375V177H456.114V160.266ZM471.741 159.891C472.929 159.891 474.08 160.172 475.194 160.734C476.309 161.286 477.158 162.005 477.741 162.891C478.304 163.734 478.679 164.719 478.866 165.844C479.033 166.615 479.116 167.844 479.116 169.531H466.851C466.903 171.229 467.304 172.594 468.054 173.625C468.804 174.646 469.965 175.156 471.538 175.156C473.007 175.156 474.179 174.672 475.054 173.703C475.554 173.141 475.908 172.49 476.116 171.75H478.882C478.809 172.365 478.564 173.052 478.147 173.812C477.741 174.562 477.283 175.177 476.772 175.656C475.918 176.49 474.861 177.052 473.601 177.344C472.924 177.51 472.158 177.594 471.304 177.594C469.22 177.594 467.455 176.839 466.007 175.328C464.559 173.807 463.835 171.682 463.835 168.953C463.835 166.266 464.564 164.083 466.022 162.406C467.481 160.729 469.387 159.891 471.741 159.891ZM476.226 167.297C476.111 166.078 475.845 165.104 475.429 164.375C474.658 163.021 473.371 162.344 471.569 162.344C470.278 162.344 469.194 162.812 468.319 163.75C467.444 164.677 466.981 165.859 466.929 167.297H476.226ZM482.821 172.547C482.821 173.359 483.118 174 483.712 174.469C484.306 174.938 485.009 175.172 485.821 175.172C486.811 175.172 487.769 174.943 488.696 174.484C490.259 173.724 491.04 172.479 491.04 170.75V168.484C490.696 168.703 490.254 168.885 489.712 169.031C489.17 169.177 488.639 169.281 488.118 169.344L486.415 169.562C485.394 169.698 484.629 169.911 484.118 170.203C483.254 170.693 482.821 171.474 482.821 172.547ZM489.634 166.859C490.28 166.776 490.712 166.505 490.931 166.047C491.056 165.797 491.118 165.438 491.118 164.969C491.118 164.01 490.774 163.318 490.087 162.891C489.41 162.453 488.436 162.234 487.165 162.234C485.696 162.234 484.655 162.63 484.04 163.422C483.696 163.859 483.472 164.51 483.368 165.375H480.743C480.795 163.312 481.462 161.88 482.743 161.078C484.035 160.266 485.53 159.859 487.228 159.859C489.196 159.859 490.795 160.234 492.024 160.984C493.243 161.734 493.853 162.901 493.853 164.484V174.125C493.853 174.417 493.91 174.651 494.024 174.828C494.149 175.005 494.405 175.094 494.79 175.094C494.915 175.094 495.056 175.089 495.212 175.078C495.368 175.057 495.535 175.031 495.712 175V177.078C495.274 177.203 494.941 177.281 494.712 177.312C494.483 177.344 494.17 177.359 493.774 177.359C492.806 177.359 492.103 177.016 491.665 176.328C491.436 175.964 491.274 175.448 491.181 174.781C490.608 175.531 489.785 176.182 488.712 176.734C487.639 177.286 486.457 177.562 485.165 177.562C483.613 177.562 482.342 177.094 481.353 176.156C480.373 175.208 479.884 174.026 479.884 172.609C479.884 171.057 480.368 169.854 481.337 169C482.306 168.146 483.576 167.62 485.149 167.422L489.634 166.859ZM496.636 154.047H499.448V177H496.636V154.047ZM501.763 160.266H504.544V162.641C505.21 161.818 505.815 161.219 506.356 160.844C507.283 160.208 508.335 159.891 509.513 159.891C510.846 159.891 511.919 160.219 512.731 160.875C513.19 161.25 513.606 161.802 513.981 162.531C514.606 161.635 515.341 160.974 516.184 160.547C517.028 160.109 517.976 159.891 519.028 159.891C521.278 159.891 522.809 160.703 523.622 162.328C524.059 163.203 524.278 164.38 524.278 165.859V177H521.356V165.375C521.356 164.26 521.075 163.495 520.513 163.078C519.96 162.661 519.283 162.453 518.481 162.453C517.377 162.453 516.424 162.823 515.622 163.562C514.83 164.302 514.434 165.536 514.434 167.266V177H511.575V166.078C511.575 164.943 511.44 164.115 511.169 163.594C510.742 162.812 509.945 162.422 508.778 162.422C507.716 162.422 506.747 162.833 505.872 163.656C505.007 164.479 504.575 165.969 504.575 168.125V177H501.763V160.266ZM540.126 175.188C541.99 175.188 543.266 174.484 543.954 173.078C544.652 171.661 545.001 170.089 545.001 168.359C545.001 166.797 544.751 165.526 544.251 164.547C543.459 163.005 542.094 162.234 540.157 162.234C538.438 162.234 537.188 162.891 536.407 164.203C535.626 165.516 535.235 167.099 535.235 168.953C535.235 170.734 535.626 172.219 536.407 173.406C537.188 174.594 538.428 175.188 540.126 175.188ZM540.235 159.781C542.391 159.781 544.214 160.5 545.704 161.938C547.193 163.375 547.938 165.49 547.938 168.281C547.938 170.979 547.282 173.208 545.969 174.969C544.657 176.729 542.62 177.609 539.86 177.609C537.558 177.609 535.73 176.833 534.376 175.281C533.021 173.719 532.344 171.625 532.344 169C532.344 166.188 533.058 163.948 534.485 162.281C535.912 160.615 537.829 159.781 540.235 159.781ZM550.081 157.719C550.122 156.552 550.325 155.698 550.69 155.156C551.346 154.198 552.612 153.719 554.487 153.719C554.664 153.719 554.846 153.724 555.034 153.734C555.221 153.745 555.435 153.76 555.674 153.781V156.344C555.383 156.323 555.169 156.312 555.034 156.312C554.909 156.302 554.789 156.297 554.674 156.297C553.82 156.297 553.31 156.521 553.143 156.969C552.976 157.406 552.893 158.531 552.893 160.344H555.674V162.562H552.862V177H550.081V162.562H547.753V160.344H550.081V157.719ZM565.506 172.547C565.506 173.359 565.803 174 566.397 174.469C566.991 174.938 567.694 175.172 568.506 175.172C569.496 175.172 570.454 174.943 571.381 174.484C572.944 173.724 573.725 172.479 573.725 170.75V168.484C573.381 168.703 572.939 168.885 572.397 169.031C571.855 169.177 571.324 169.281 570.803 169.344L569.1 169.562C568.079 169.698 567.314 169.911 566.803 170.203C565.939 170.693 565.506 171.474 565.506 172.547ZM572.319 166.859C572.965 166.776 573.397 166.505 573.616 166.047C573.741 165.797 573.803 165.438 573.803 164.969C573.803 164.01 573.459 163.318 572.772 162.891C572.095 162.453 571.121 162.234 569.85 162.234C568.381 162.234 567.34 162.63 566.725 163.422C566.381 163.859 566.157 164.51 566.053 165.375H563.428C563.48 163.312 564.147 161.88 565.428 161.078C566.72 160.266 568.215 159.859 569.912 159.859C571.881 159.859 573.48 160.234 574.709 160.984C575.928 161.734 576.537 162.901 576.537 164.484V174.125C576.537 174.417 576.595 174.651 576.709 174.828C576.834 175.005 577.09 175.094 577.475 175.094C577.6 175.094 577.741 175.089 577.897 175.078C578.053 175.057 578.22 175.031 578.397 175V177.078C577.959 177.203 577.626 177.281 577.397 177.312C577.168 177.344 576.855 177.359 576.459 177.359C575.491 177.359 574.787 177.016 574.35 176.328C574.121 175.964 573.959 175.448 573.866 174.781C573.293 175.531 572.47 176.182 571.397 176.734C570.324 177.286 569.142 177.562 567.85 177.562C566.298 177.562 565.027 177.094 564.037 176.156C563.058 175.208 562.569 174.026 562.569 172.609C562.569 171.057 563.053 169.854 564.022 169C564.991 168.146 566.261 167.62 567.834 167.422L572.319 166.859ZM581.024 168.828C581.024 170.62 581.404 172.12 582.164 173.328C582.925 174.536 584.144 175.141 585.821 175.141C587.123 175.141 588.19 174.583 589.024 173.469C589.867 172.344 590.289 170.734 590.289 168.641C590.289 166.526 589.857 164.964 588.992 163.953C588.128 162.932 587.06 162.422 585.789 162.422C584.373 162.422 583.222 162.964 582.336 164.047C581.461 165.13 581.024 166.724 581.024 168.828ZM585.258 159.969C586.539 159.969 587.612 160.24 588.477 160.781C588.977 161.094 589.545 161.641 590.18 162.422V153.969H592.883V177H590.352V174.672C589.696 175.703 588.92 176.448 588.024 176.906C587.128 177.365 586.102 177.594 584.946 177.594C583.081 177.594 581.466 176.812 580.102 175.25C578.737 173.677 578.055 171.589 578.055 168.984C578.055 166.547 578.675 164.438 579.914 162.656C581.164 160.865 582.946 159.969 585.258 159.969ZM596.51 160.266L600.979 173.891L605.651 160.266H608.729L602.416 177H599.416L593.244 160.266H596.51ZM616.184 159.891C617.371 159.891 618.522 160.172 619.637 160.734C620.751 161.286 621.6 162.005 622.184 162.891C622.746 163.734 623.121 164.719 623.309 165.844C623.475 166.615 623.559 167.844 623.559 169.531H611.293C611.345 171.229 611.746 172.594 612.496 173.625C613.246 174.646 614.408 175.156 615.981 175.156C617.449 175.156 618.621 174.672 619.496 173.703C619.996 173.141 620.35 172.49 620.559 171.75H623.324C623.251 172.365 623.007 173.052 622.59 173.812C622.184 174.562 621.725 175.177 621.215 175.656C620.361 176.49 619.304 177.052 618.043 177.344C617.366 177.51 616.6 177.594 615.746 177.594C613.663 177.594 611.897 176.839 610.449 175.328C609.001 173.807 608.278 171.682 608.278 168.953C608.278 166.266 609.007 164.083 610.465 162.406C611.923 160.729 613.83 159.891 616.184 159.891ZM620.668 167.297C620.554 166.078 620.288 165.104 619.871 164.375C619.1 163.021 617.814 162.344 616.012 162.344C614.72 162.344 613.637 162.812 612.762 163.75C611.887 164.677 611.423 165.859 611.371 167.297H620.668ZM625.107 160.266H627.779V162.641C628.571 161.661 629.41 160.958 630.295 160.531C631.18 160.104 632.165 159.891 633.248 159.891C635.623 159.891 637.227 160.719 638.061 162.375C638.519 163.281 638.748 164.578 638.748 166.266V177H635.889V166.453C635.889 165.432 635.738 164.609 635.436 163.984C634.936 162.943 634.029 162.422 632.717 162.422C632.05 162.422 631.503 162.49 631.076 162.625C630.305 162.854 629.628 163.312 629.045 164C628.576 164.552 628.269 165.125 628.123 165.719C627.988 166.302 627.92 167.141 627.92 168.234V177H625.107V160.266ZM641.562 155.594H644.406V160.266H647.078V162.562H644.406V173.484C644.406 174.068 644.604 174.458 645 174.656C645.219 174.771 645.583 174.828 646.094 174.828C646.229 174.828 646.375 174.828 646.531 174.828C646.688 174.818 646.87 174.802 647.078 174.781V177C646.755 177.094 646.417 177.161 646.062 177.203C645.719 177.245 645.344 177.266 644.938 177.266C643.625 177.266 642.734 176.932 642.266 176.266C641.797 175.589 641.562 174.714 641.562 173.641V162.562H639.297V160.266H641.562V155.594ZM650.799 160.266V171.375C650.799 172.229 650.934 172.927 651.205 173.469C651.705 174.469 652.637 174.969 654.002 174.969C655.96 174.969 657.294 174.094 658.002 172.344C658.387 171.406 658.58 170.12 658.58 168.484V160.266H661.393V177H658.736L658.768 174.531C658.403 175.167 657.95 175.703 657.408 176.141C656.335 177.016 655.033 177.453 653.502 177.453C651.116 177.453 649.491 176.656 648.627 175.062C648.158 174.208 647.924 173.068 647.924 171.641V160.266H650.799ZM663.957 160.266H666.629V163.156C666.847 162.594 667.384 161.911 668.238 161.109C669.092 160.297 670.077 159.891 671.191 159.891C671.243 159.891 671.332 159.896 671.457 159.906C671.582 159.917 671.795 159.938 672.097 159.969V162.938C671.931 162.906 671.775 162.885 671.629 162.875C671.493 162.865 671.342 162.859 671.176 162.859C669.759 162.859 668.67 163.318 667.91 164.234C667.15 165.141 666.769 166.188 666.769 167.375V177H663.957V160.266ZM679.584 159.891C680.771 159.891 681.922 160.172 683.037 160.734C684.151 161.286 685 162.005 685.584 162.891C686.146 163.734 686.521 164.719 686.709 165.844C686.875 166.615 686.959 167.844 686.959 169.531H674.693C674.745 171.229 675.146 172.594 675.896 173.625C676.646 174.646 677.808 175.156 679.381 175.156C680.849 175.156 682.021 174.672 682.896 173.703C683.396 173.141 683.75 172.49 683.959 171.75H686.724C686.651 172.365 686.407 173.052 685.99 173.812C685.584 174.562 685.125 175.177 684.615 175.656C683.761 176.49 682.704 177.052 681.443 177.344C680.766 177.51 680 177.594 679.146 177.594C677.063 177.594 675.297 176.839 673.849 175.328C672.401 173.807 671.677 171.682 671.677 168.953C671.677 166.266 672.407 164.083 673.865 162.406C675.323 160.729 677.23 159.891 679.584 159.891ZM684.068 167.297C683.954 166.078 683.688 165.104 683.271 164.375C682.5 163.021 681.214 162.344 679.412 162.344C678.12 162.344 677.037 162.812 676.162 163.75C675.287 164.677 674.823 165.859 674.771 167.297H684.068ZM690.148 154.047H693.32V161.594L692.554 171.531H690.961L690.148 161.594V154.047ZM690.148 173.75H693.258V177H690.148V173.75Z" fill="black"/>
</svg>
