<svg width="1280" height="261" viewBox="0 0 1280 261" fill="none" xmlns="http://www.w3.org/2000/svg">
<path d="M635.08 127.8C635.32 127.08 635.92 126.48 636.64 126.36C638.68 126 640.84 125.64 642.64 124.44C644.56 123 645.4 120.48 646 118.32C648.4 110.4 656.44 84.12 656.44 77.64C656.44 73.68 653.68 73.2 650.68 73.2C649.72 73.2 649.36 72.6 649.72 71.76C650.2 70.92 651.16 70.32 652.12 70.32L663.04 70.2C665.92 70.2 667.36 72 666.64 74.64L661.36 94.8C664.96 87.96 674.08 70.8 682.72 70.8C689.44 70.8 691.48 77.4 691.48 83.04C691.48 86.16 690.88 89.16 690.04 92.04C693.64 85.68 701.44 70.8 709.84 70.8C716.56 70.8 718.48 77.52 718.48 83.04C718.48 85.8 718.12 88.44 717.4 91.08L710.2 118.68C709.96 119.64 709.72 120.6 709.72 121.56C709.72 122.88 710.2 124.44 711.76 124.44C713.8 124.44 715.72 120 716.8 117.36C717.16 116.52 717.88 116.16 718.72 116.28C719.56 116.52 719.8 117.12 719.56 117.84C717.04 123.48 714.76 129 707.44 129C703.48 129 700.36 127.32 700.36 122.88C700.36 121.2 700.72 119.64 701.2 118.08L707.92 92.04C708.76 89.16 709.24 86.16 709.24 83.04C709.24 80.88 709 76.68 705.88 76.68C705.16 76.68 704.44 76.8 703.84 77.16C700.6 78.6 688.48 98.28 687.04 102.6C684.52 110.28 682.48 118.32 680.32 126.24C679.96 127.8 678.52 128.76 676.96 128.76L675.04 128.88C672.4 128.88 670.96 127.2 671.8 124.56L680.92 92.04C681.76 89.16 682.24 86.16 682.24 83.16C682.24 80.88 681.88 76.68 678.88 76.68C678.16 76.68 677.44 76.8 676.72 77.16C672.88 78.84 660.64 100.2 658.48 105.48C657.4 108.36 654.64 119.28 654.64 122.16C654.64 125.4 657.76 126 660.28 126.48C661 126.6 661.36 127.08 661.12 127.8C661 128.52 660.4 129 659.68 129H636.04C635.32 129 634.96 128.52 635.08 127.8ZM717.857 117.96C717.857 101.64 737.177 93.12 751.337 94.56C752.777 88.68 754.697 82.8 754.697 76.8C754.697 74.04 754.337 72.6 751.337 72.6C744.977 72.6 738.617 81.24 736.337 87.72C735.737 89.4 734.297 90.6 732.497 90.6H730.817C728.057 90.6 726.617 88.8 727.697 86.4C731.777 77.04 741.257 69.24 751.577 69.24C758.897 69.24 762.737 73.68 762.737 80.88C762.737 83.16 762.257 85.44 761.777 87.72L753.737 118.68L753.377 121.44C753.377 122.64 753.737 124.44 755.297 124.44C757.337 124.44 759.257 120 760.337 117.36C760.697 116.52 761.417 116.16 762.257 116.28C762.977 116.52 763.337 117.12 762.977 117.84C760.577 123.48 758.297 129 750.977 129C746.897 129 743.897 127.32 743.897 122.88C743.897 121.68 744.137 120.36 744.377 119.16C740.537 124.32 734.777 129.84 727.937 129.84C721.337 129.84 717.857 123.96 717.857 117.96ZM733.817 122.4C738.017 122.4 742.577 117.12 744.977 114C748.337 109.8 749.177 102.72 750.377 97.56C749.777 97.44 749.177 97.44 748.577 97.44C739.817 97.44 727.577 103.92 727.577 113.88C727.577 117.48 729.497 122.4 733.817 122.4ZM763.135 123C763.135 120.12 763.855 117.48 764.575 114.84C768.055 101.16 771.295 87.36 774.775 73.68L767.695 73.8C766.855 73.8 766.495 73.32 766.735 72.48C766.975 71.64 767.695 71.16 768.535 71.04C776.815 69.96 783.775 60.12 787.615 53.4C787.975 52.92 788.455 52.56 789.055 52.56C789.535 52.56 789.895 52.92 789.655 53.52L784.975 70.32L795.535 70.2C796.495 70.2 796.855 70.8 796.615 71.76C796.375 72.72 795.535 73.32 794.575 73.32L784.015 73.56C782.575 78.96 781.495 84.6 780.055 90.12L772.975 117.12C772.615 118.56 772.375 120 772.375 121.44C772.375 123 772.855 124.92 774.775 124.92C777.415 124.92 780.175 122.28 782.095 120.24C782.575 119.76 783.055 119.88 783.295 120.6C783.415 121.2 783.295 122.04 782.815 122.64C779.695 126.24 774.655 129.72 769.975 129.72C765.535 129.72 763.135 127.56 763.135 123ZM776.305 127.8C776.545 127.08 777.145 126.48 777.865 126.36C783.145 125.28 785.545 124.68 787.225 118.32L804.985 50.4C805.345 48.84 805.825 47.16 805.825 45.48C805.825 41.4 801.745 41.28 798.505 41.4C797.665 41.4 797.185 40.8 797.305 40.08C797.425 39.24 798.145 38.64 798.985 38.64L812.545 38.52C815.305 38.52 816.745 40.32 816.025 43.08L803.425 91.56C806.905 85.08 814.825 70.8 822.865 70.8C829.705 70.8 831.505 77.52 831.505 83.04C831.505 85.8 831.145 88.44 830.545 91.08L823.345 118.68C822.985 119.64 822.745 120.6 822.745 121.56C822.745 122.88 823.345 124.44 824.905 124.44C826.825 124.44 828.865 120 829.945 117.36C830.185 116.52 831.025 116.16 831.745 116.28C832.585 116.52 832.945 117.12 832.585 117.84C830.065 123.48 827.905 129 820.585 129C816.505 129 813.505 127.32 813.505 122.88C813.505 121.2 813.865 119.64 814.225 118.08L821.065 92.04C821.785 89.16 822.265 86.16 822.265 83.04C822.265 80.88 822.025 76.68 819.025 76.68C818.305 76.68 817.585 76.8 816.865 77.16C813.865 78.48 802.105 97.2 800.905 101.16C799.945 104.16 795.745 119.76 795.745 122.16C795.745 125.4 798.865 126 801.505 126.48C802.225 126.6 802.585 127.08 802.345 127.8C802.225 128.52 801.625 129 800.905 129H777.265C776.545 129 776.185 128.52 776.305 127.8ZM842.597 93.24C842.957 91.8 844.157 90.96 845.477 90.96H870.197C871.637 90.96 872.237 91.8 871.877 93.24C871.517 94.56 870.317 95.52 868.997 95.52H844.277C842.837 95.52 842.117 94.56 842.597 93.24ZM854.434 130.44C857.074 130.44 858.394 132.24 858.394 134.64C858.394 138.36 855.514 141.24 855.514 143.76C855.514 145.68 857.794 146.64 859.354 146.64C870.154 146.64 875.914 119.4 877.714 112.56L887.914 73.32H881.794C880.954 73.32 880.474 72.72 880.714 71.88C881.074 70.92 881.914 70.32 882.754 70.32H888.754C892.474 56.04 898.234 38.4 916.114 38.4C921.994 38.4 927.634 41.28 927.634 47.88C927.634 52.2 924.634 57.84 919.834 57.84C917.194 57.84 916.234 55.44 916.234 53.16C916.234 49.44 918.874 46.44 918.874 43.8C918.874 42 916.834 40.8 915.154 40.8C905.434 40.8 899.794 63.24 897.874 70.32H909.514C910.354 70.32 910.834 70.92 910.594 71.88C910.234 72.72 909.394 73.32 908.434 73.32H897.154L886.714 113.16C882.754 128.4 877.714 149.28 858.274 149.28C852.394 149.28 847.114 145.08 847.114 138.84C847.114 134.76 849.994 130.44 854.434 130.44ZM899.739 110.88L907.659 80.64C907.899 79.44 908.259 78.24 908.259 76.92C908.259 73.68 905.139 73.2 902.499 72.84C901.779 72.72 901.419 72.24 901.539 71.52C901.779 70.68 902.379 70.2 903.099 70.2H914.859C917.739 70.2 919.059 72 918.339 74.76L909.219 109.8C908.499 112.44 908.019 115.2 908.019 117.84C908.019 120.24 908.619 125.28 911.859 125.28C920.139 125.28 935.379 85.44 935.379 77.04C935.379 73.68 932.379 73.2 929.739 72.84C929.019 72.72 928.779 72.12 928.899 71.4C929.139 70.68 929.859 70.2 930.579 70.2C934.299 70.32 938.139 70.32 941.859 70.44C944.739 70.44 946.059 72.24 945.339 75L934.059 118.68C933.819 119.64 933.579 120.6 933.579 121.56C933.579 122.88 934.059 124.44 935.619 124.44C937.659 124.44 939.579 120 940.659 117.36C941.019 116.52 941.739 116.16 942.579 116.28C943.299 116.52 943.659 117.12 943.299 117.84C940.899 123.48 938.619 129 931.299 129C927.219 129 924.219 127.32 924.219 122.88C924.219 119.16 925.779 114.72 926.739 111.12C923.499 118.08 917.379 129.6 908.379 129.6C901.659 129.6 898.779 123.96 898.779 117.96C898.779 115.56 899.139 113.16 899.739 110.88ZM942.793 111.24C942.793 94.8 954.673 69.6 973.633 69.6C980.953 69.6 987.793 75.24 987.793 82.68C987.793 86.16 986.233 88.92 983.833 91.2C976.033 98.88 964.393 98.04 954.433 99.24C953.833 102.36 953.473 105.6 953.473 108.84C953.473 115.2 955.153 122.52 962.953 122.52C971.833 122.52 979.633 114.6 983.953 107.28C984.313 106.8 984.913 106.56 985.513 106.68C986.113 106.8 986.353 107.28 986.113 107.88C980.593 118.68 972.313 129.72 958.993 129.72C947.713 129.72 942.793 121.8 942.793 111.24ZM978.793 80.4C978.793 76.56 976.873 72.72 972.553 72.72C961.393 72.72 957.313 87 955.273 95.64C964.393 94.32 978.793 92.76 978.793 80.4ZM983.967 122.88C983.967 119.88 985.047 117 985.767 114.12L1002.21 51.36C1002.69 49.68 1003.05 48 1003.05 46.32C1003.05 41.88 998.967 41.52 995.487 41.4C994.647 41.4 994.167 40.8 994.407 39.96C994.647 39.12 995.367 38.52 996.207 38.52L1010.13 38.4C1012.89 38.4 1014.33 40.2 1013.61 42.96L994.647 115.08C994.167 117.24 993.207 119.4 993.207 121.56C993.207 122.88 993.807 124.44 995.367 124.44C997.287 124.44 999.327 120 1000.41 117.36C1000.65 116.52 1001.49 116.16 1002.21 116.28C1003.05 116.52 1003.41 117.12 1003.05 117.84C1000.53 123.48 998.367 129 991.047 129C986.967 129 983.967 127.32 983.967 122.88ZM1002.68 111.24C1002.68 94.8 1014.56 69.6 1033.52 69.6C1040.84 69.6 1047.68 75.24 1047.68 82.68C1047.68 86.16 1046.12 88.92 1043.72 91.2C1035.92 98.88 1024.28 98.04 1014.32 99.24C1013.72 102.36 1013.36 105.6 1013.36 108.84C1013.36 115.2 1015.04 122.52 1022.84 122.52C1031.72 122.52 1039.52 114.6 1043.84 107.28C1044.2 106.8 1044.8 106.56 1045.4 106.68C1046 106.8 1046.24 107.28 1046 107.88C1040.48 118.68 1032.2 129.72 1018.88 129.72C1007.6 129.72 1002.68 121.8 1002.68 111.24ZM1038.68 80.4C1038.68 76.56 1036.76 72.72 1032.44 72.72C1021.28 72.72 1017.2 87 1015.16 95.64C1024.28 94.32 1038.68 92.76 1038.68 80.4ZM1041.82 112.8C1041.82 97.08 1055.38 69.36 1072.66 69.36C1076.5 69.36 1079.62 71.88 1081.54 75L1087.3 52.68C1087.9 50.76 1088.26 48.84 1088.26 46.92C1088.26 43.44 1086.22 42.48 1083.1 42.48C1082.38 42.48 1081.78 42.48 1081.06 42.6C1080.1 42.6 1079.62 42.12 1079.86 41.28C1080.1 40.32 1080.82 39.72 1081.66 39.6L1095.34 38.52C1098.34 38.28 1099.78 40.08 1099.06 43.08L1080.1 115.56C1079.62 117.72 1078.66 119.88 1078.66 122.04C1078.66 123.48 1079.14 124.44 1080.7 124.44C1082.74 124.44 1084.66 120 1085.74 117.36C1086.1 116.52 1086.82 116.16 1087.66 116.28C1088.5 116.52 1088.74 117.12 1088.38 117.84C1085.98 123.48 1083.7 129 1076.38 129C1072.18 129 1069.3 127.2 1069.42 122.64C1065.1 126.36 1059.58 129.6 1053.82 129.6C1044.58 129.6 1041.82 120.6 1041.82 112.8ZM1060.42 122.28C1063.78 122.28 1067.14 121.2 1070.02 119.28C1072.78 106.32 1076.5 93.6 1079.98 80.88C1079.14 76.68 1076.62 72.72 1071.82 72.72C1062.94 72.72 1055.62 91.32 1053.82 98.52C1052.98 102 1052.38 105.72 1052.38 109.32C1052.38 114.6 1053.58 122.28 1060.42 122.28Z" fill="black"/>
<path d="M32.7637 130.514C28.4993 130.514 24.7721 129.96 21.582 128.854C18.3919 127.714 15.6738 126.038 13.4277 123.824C10.8887 121.285 9.09831 118.258 8.05664 114.742C7.01497 111.194 6.49414 106.832 6.49414 101.656V56.2949H16.1621V101.656C16.1621 105.009 16.3737 107.841 16.7969 110.152C17.2201 112.431 18.0501 114.482 19.2871 116.305C20.5892 118.258 22.347 119.739 24.5605 120.748C26.8066 121.757 29.541 122.262 32.7637 122.262C35.791 122.262 38.4766 121.757 40.8203 120.748C43.1641 119.739 44.987 118.258 46.2891 116.305C47.4935 114.449 48.3073 112.398 48.7305 110.152C49.1862 107.906 49.4141 105.156 49.4141 101.9V56.2949H59.082V101.656C59.082 106.702 58.5612 111.031 57.5195 114.645C56.5104 118.258 54.7201 121.318 52.1484 123.824C49.8372 126.07 47.1354 127.747 44.043 128.854C40.9831 129.96 37.2233 130.514 32.7637 130.514ZM117 129H106.16L74.0312 66.3047V129H64.998V56.2949H78.7188L107.967 113.863V56.2949H117V129ZM165.934 129H123.795V56.2949H133.463V120.406H165.934V129ZM165.6 129V56.2949H211.059V64.8887H175.268V84.8105H208.617V93.4043H175.268V120.406H211.059V129H165.6ZM205.891 129L230.402 56.2949H242.316L266.828 129H256.623L250.031 108.688H222.248L215.656 129H205.891ZM247.346 100.436L236.115 66.1582L224.934 100.436H247.346ZM285.781 130.318C280.508 130.318 276.016 129.781 272.305 128.707C268.626 127.6 265.16 126.249 261.904 124.654V112.545H262.588C265.778 115.54 269.391 117.867 273.428 119.527C277.464 121.155 281.354 121.969 285.098 121.969C290.436 121.969 294.473 120.862 297.207 118.648C299.941 116.402 301.309 113.456 301.309 109.811C301.309 106.913 300.592 104.553 299.16 102.73C297.728 100.908 295.449 99.5566 292.324 98.6777C290.078 98.0267 288.027 97.4896 286.172 97.0664C284.316 96.6432 281.989 96.0736 279.189 95.3574C276.683 94.7064 274.437 93.8763 272.451 92.8672C270.465 91.8581 268.708 90.5397 267.178 88.9121C265.68 87.3171 264.508 85.4453 263.662 83.2969C262.848 81.1159 262.441 78.6094 262.441 75.7773C262.441 69.8854 264.736 64.9538 269.326 60.9824C273.916 56.9785 279.775 54.9766 286.904 54.9766C290.973 54.9766 294.814 55.3835 298.428 56.1973C302.074 57.0111 305.443 58.1667 308.535 59.6641V71.2363H307.803C305.492 69.1204 302.529 67.2812 298.916 65.7188C295.303 64.1237 291.51 63.3262 287.539 63.3262C283.047 63.3262 279.417 64.3841 276.65 66.5C273.883 68.5833 272.5 71.334 272.5 74.752C272.5 77.8444 273.314 80.3021 274.941 82.125C276.569 83.9479 278.929 85.2826 282.021 86.1289C284.072 86.6823 286.579 87.3171 289.541 88.0332C292.503 88.7168 294.961 89.3516 296.914 89.9375C301.927 91.4674 305.589 93.7786 307.9 96.8711C310.212 99.9635 311.367 103.772 311.367 108.297C311.367 111.129 310.781 113.928 309.609 116.695C308.47 119.462 306.859 121.806 304.775 123.727C302.432 125.842 299.779 127.47 296.816 128.609C293.887 129.749 290.208 130.318 285.781 130.318ZM366.062 129H356.395V93.4043H322.947V129H313.279V56.2949H322.947V84.8105H356.395V56.2949H366.062V129ZM446.986 56.2949L422.426 96.8223V129H412.758V97.8477L388.197 56.2949H398.939L417.689 88.375L436.732 56.2949H446.986ZM496.262 64.6445C499.029 67.8346 501.177 71.7897 502.707 76.5098C504.237 81.2298 505.002 86.6172 505.002 92.6719C505.002 98.5638 504.253 103.886 502.756 108.639C501.258 113.391 499.094 117.379 496.262 120.602C493.299 123.987 489.833 126.493 485.861 128.121C481.923 129.716 477.577 130.514 472.824 130.514C467.909 130.514 463.482 129.684 459.543 128.023C455.604 126.363 452.219 123.889 449.387 120.602C446.587 117.379 444.439 113.408 442.941 108.688C441.444 103.967 440.695 98.6289 440.695 92.6719C440.695 86.5521 441.444 81.181 442.941 76.5586C444.471 71.9362 446.636 67.9648 449.436 64.6445C452.235 61.4219 455.604 58.9805 459.543 57.3203C463.514 55.6276 467.941 54.7812 472.824 54.7812C477.772 54.7812 482.232 55.6439 486.203 57.3691C490.174 59.0944 493.527 61.5195 496.262 64.6445ZM494.943 92.6719C494.943 87.8542 494.423 83.5898 493.381 79.8789C492.339 76.168 490.874 73.0918 488.986 70.6504C487.066 68.1439 484.738 66.2721 482.004 65.0352C479.302 63.7656 476.258 63.1309 472.873 63.1309C469.357 63.1309 466.281 63.7493 463.645 64.9863C461.04 66.1908 458.729 68.0788 456.711 70.6504C454.79 73.1243 453.309 76.2331 452.268 79.9766C451.258 83.7201 450.754 87.9518 450.754 92.6719C450.754 102.21 452.756 109.518 456.76 114.596C460.764 119.641 466.135 122.164 472.873 122.164C479.611 122.164 484.966 119.641 488.938 114.596C492.941 109.518 494.943 102.21 494.943 92.6719ZM533.037 130.514C528.773 130.514 525.046 129.96 521.855 128.854C518.665 127.714 515.947 126.038 513.701 123.824C511.162 121.285 509.372 118.258 508.33 114.742C507.288 111.194 506.768 106.832 506.768 101.656V56.2949H516.436V101.656C516.436 105.009 516.647 107.841 517.07 110.152C517.493 112.431 518.324 114.482 519.561 116.305C520.863 118.258 522.62 119.739 524.834 120.748C527.08 121.757 529.814 122.262 533.037 122.262C536.064 122.262 538.75 121.757 541.094 120.748C543.438 119.739 545.26 118.258 546.562 116.305C547.767 114.449 548.581 112.398 549.004 110.152C549.46 107.906 549.688 105.156 549.688 101.9V56.2949H559.355V101.656C559.355 106.702 558.835 111.031 557.793 114.645C556.784 118.258 554.993 121.318 552.422 123.824C550.111 126.07 547.409 127.747 544.316 128.854C541.257 129.96 537.497 130.514 533.037 130.514ZM621.57 129H609.021L585.975 100.094H574.939V129H565.271V56.2949H584.021C588.188 56.2949 591.671 56.5228 594.471 56.9785C597.303 57.4342 599.988 58.4922 602.527 60.1523C605.066 61.7799 607.068 63.8796 608.533 66.4512C610.031 69.0228 610.779 72.2129 610.779 76.0215C610.779 81.36 609.428 85.8197 606.727 89.4004C604.025 92.9811 600.346 95.6341 595.691 97.3594L621.57 129ZM600.672 76.7539C600.672 74.638 600.298 72.7663 599.549 71.1387C598.8 69.4785 597.645 68.1276 596.082 67.0859C594.715 66.1745 593.12 65.5397 591.297 65.1816C589.474 64.791 587.212 64.5957 584.51 64.5957H574.939V92.0371H583.436C586.202 92.0371 588.693 91.793 590.906 91.3047C593.12 90.8164 595.008 89.8073 596.57 88.2773C597.97 86.9102 598.995 85.2826 599.646 83.3945C600.33 81.5065 600.672 79.293 600.672 76.7539Z" fill="black"/>
<path d="M69.6777 230H60.0098V167.354L41.0645 209.98H35.2051L16.4062 167.354V230H7.37305V157.295H20.5566L38.7207 197.773L56.25 157.295H69.6777V230ZM101.814 230H73.5918V222.578H82.8691V164.717H73.5918V157.295H101.814V164.717H92.5371V222.578H101.814V230ZM136.148 231.416C131.005 231.416 126.301 230.635 122.037 229.072C117.773 227.51 114.111 225.133 111.051 221.943C107.991 218.721 105.647 214.733 104.02 209.98C102.392 205.228 101.578 199.759 101.578 193.574C101.578 187.715 102.392 182.474 104.02 177.852C105.68 173.197 108.04 169.225 111.1 165.938C114.062 162.747 117.708 160.29 122.037 158.564C126.367 156.839 131.103 155.977 136.246 155.977C138.688 155.977 141.031 156.156 143.277 156.514C145.523 156.872 147.672 157.36 149.723 157.979C151.35 158.467 153.157 159.15 155.143 160.029C157.161 160.876 158.788 161.608 160.025 162.227V173.896H159.195C157.991 172.822 156.738 171.813 155.436 170.869C154.166 169.893 152.359 168.851 150.016 167.744C148.062 166.768 145.816 165.954 143.277 165.303C140.738 164.652 138.004 164.326 135.074 164.326C128.076 164.326 122.411 166.963 118.082 172.236C113.785 177.51 111.637 184.525 111.637 193.281C111.637 198.164 112.206 202.428 113.346 206.074C114.485 209.72 116.129 212.812 118.277 215.352C120.361 217.858 122.867 219.779 125.797 221.113C128.759 222.415 132.079 223.066 135.758 223.066C138.492 223.066 141.21 222.871 143.912 222.48C146.614 222.09 148.893 221.504 150.748 220.723V201.924H133.951V193.428H160.318V225.166C159.081 225.719 157.421 226.419 155.338 227.266C153.287 228.112 151.367 228.779 149.576 229.268C147.2 229.984 145.051 230.521 143.131 230.879C141.21 231.237 138.883 231.416 136.148 231.416ZM217.309 230H207.641V194.404H174.193V230H164.525V157.295H174.193V185.811H207.641V157.295H217.309V230ZM241.096 230V165.889H216.682V157.295H275.178V165.889H250.764V230H241.096Z" fill="black"/>
</svg>
