<svg width="102" height="11" viewBox="0 0 102 11" fill="none" xmlns="http://www.w3.org/2000/svg">
<path d="M0.168 8.896C0.168 7.264 2.1 6.412 3.516 6.556C3.66 5.968 3.852 5.38 3.852 4.78C3.852 4.504 3.816 4.36 3.516 4.36C2.88 4.36 2.244 5.224 2.016 5.872C1.956 6.04 1.812 6.16 1.632 6.16H1.464C1.188 6.16 1.044 5.98 1.152 5.74C1.56 4.804 2.508 4.024 3.54 4.024C4.272 4.024 4.656 4.468 4.656 5.188C4.656 5.416 4.608 5.644 4.56 5.872L3.756 8.968L3.72 9.244C3.72 9.364 3.756 9.544 3.912 9.544C4.116 9.544 4.308 9.1 4.416 8.836C4.452 8.752 4.524 8.716 4.608 8.728C4.68 8.752 4.716 8.812 4.68 8.884C4.44 9.448 4.212 10 3.48 10C3.072 10 2.772 9.832 2.772 9.388C2.772 9.268 2.796 9.136 2.82 9.016C2.436 9.532 1.86 10.084 1.176 10.084C0.516 10.084 0.168 9.496 0.168 8.896ZM1.764 9.34C2.184 9.34 2.64 8.812 2.88 8.5C3.216 8.08 3.3 7.372 3.42 6.856C3.36 6.844 3.3 6.844 3.24 6.844C2.364 6.844 1.14 7.492 1.14 8.488C1.14 8.848 1.332 9.34 1.764 9.34ZM6.78356 9.388C6.78356 9.088 6.89156 8.8 6.96356 8.512L8.60756 2.236C8.65556 2.068 8.69156 1.9 8.69156 1.732C8.69156 1.288 8.28356 1.252 7.93556 1.24C7.85156 1.24 7.80356 1.18 7.82756 1.096C7.85156 1.012 7.92356 0.952 8.00756 0.952L9.39956 0.939999C9.67556 0.939999 9.81956 1.12 9.74756 1.396L7.85156 8.608C7.80356 8.824 7.70756 9.04 7.70756 9.256C7.70756 9.388 7.76756 9.544 7.92356 9.544C8.11556 9.544 8.31956 9.1 8.42756 8.836C8.45156 8.752 8.53556 8.716 8.60756 8.728C8.69156 8.752 8.72756 8.812 8.69156 8.884C8.43956 9.448 8.22356 10 7.49156 10C7.08356 10 6.78356 9.832 6.78356 9.388ZM9.71138 8.512C9.89138 7.828 10.5874 5.572 10.5874 5.044C10.5874 4.54 10.1794 4.432 9.77138 4.42C9.68738 4.408 9.62738 4.36 9.61538 4.276C9.61538 4.192 9.67538 4.132 9.75938 4.132L11.3074 4.096C11.5954 4.096 11.7394 4.276 11.6674 4.552L10.5994 8.608C10.5394 8.824 10.4554 9.04 10.4554 9.256C10.4554 9.388 10.5154 9.544 10.6594 9.544C10.8634 9.544 11.0554 9.088 11.1634 8.836C11.1994 8.752 11.2714 8.716 11.3554 8.728C11.4394 8.752 11.4634 8.812 11.4394 8.884C11.1874 9.448 10.9594 10 10.2274 10C9.83138 10 9.53138 9.832 9.53138 9.388C9.53138 9.088 9.62738 8.8 9.71138 8.512ZM11.0914 2.728C11.0914 2.32 11.4274 1.732 11.8834 1.732C12.1714 1.732 12.3034 2.008 12.3034 2.272C12.3034 2.668 11.9554 3.268 11.5114 3.268C11.2114 3.268 11.0914 2.98 11.0914 2.728ZM11.9141 9.4C11.9141 9.112 11.9861 8.848 12.0581 8.584C12.4061 7.216 12.7301 5.836 13.0781 4.468L12.3701 4.48C12.2861 4.48 12.2501 4.432 12.2741 4.348C12.2981 4.264 12.3701 4.216 12.4541 4.204C13.2821 4.096 13.9781 3.112 14.3621 2.44C14.3981 2.392 14.4461 2.356 14.5061 2.356C14.5541 2.356 14.5901 2.392 14.5661 2.452L14.0981 4.132L15.1541 4.12C15.2501 4.12 15.2861 4.18 15.2621 4.276C15.2381 4.372 15.1541 4.432 15.0581 4.432L14.0021 4.456C13.8581 4.996 13.7501 5.56 13.6061 6.112L12.8981 8.812C12.8621 8.956 12.8381 9.1 12.8381 9.244C12.8381 9.4 12.8861 9.592 13.0781 9.592C13.3421 9.592 13.6181 9.328 13.8101 9.124C13.8581 9.076 13.9061 9.088 13.9301 9.16C13.9421 9.22 13.9301 9.304 13.8821 9.364C13.5701 9.724 13.0661 10.072 12.5981 10.072C12.1541 10.072 11.9141 9.856 11.9141 9.4ZM14.5391 9.4C14.5391 9.112 14.6111 8.848 14.6831 8.584C15.0311 7.216 15.3551 5.836 15.7031 4.468L14.9951 4.48C14.9111 4.48 14.8751 4.432 14.8991 4.348C14.9231 4.264 14.9951 4.216 15.0791 4.204C15.9071 4.096 16.6031 3.112 16.9871 2.44C17.0231 2.392 17.0711 2.356 17.1311 2.356C17.1791 2.356 17.2151 2.392 17.1911 2.452L16.7231 4.132L17.7791 4.12C17.8751 4.12 17.9111 4.18 17.8871 4.276C17.8631 4.372 17.7791 4.432 17.6831 4.432L16.6271 4.456C16.4831 4.996 16.3751 5.56 16.2311 6.112L15.5231 8.812C15.4871 8.956 15.4631 9.1 15.4631 9.244C15.4631 9.4 15.5111 9.592 15.7031 9.592C15.9671 9.592 16.2431 9.328 16.4351 9.124C16.4831 9.076 16.5311 9.088 16.5551 9.16C16.5671 9.22 16.5551 9.304 16.5071 9.364C16.1951 9.724 15.6911 10.072 15.2231 10.072C14.7791 10.072 14.5391 9.856 14.5391 9.4ZM17.2601 9.388C17.2601 9.088 17.3681 8.8 17.4401 8.512L19.0841 2.236C19.1321 2.068 19.1681 1.9 19.1681 1.732C19.1681 1.288 18.7601 1.252 18.4121 1.24C18.3281 1.24 18.2801 1.18 18.3041 1.096C18.3281 1.012 18.4001 0.952 18.4841 0.952L19.8761 0.939999C20.1521 0.939999 20.2961 1.12 20.2241 1.396L18.3281 8.608C18.2801 8.824 18.1841 9.04 18.1841 9.256C18.1841 9.388 18.2441 9.544 18.4001 9.544C18.5921 9.544 18.7961 9.1 18.9041 8.836C18.9281 8.752 19.0121 8.716 19.0841 8.728C19.1681 8.752 19.2041 8.812 19.1681 8.884C18.9161 9.448 18.7001 10 17.9681 10C17.5601 10 17.2601 9.832 17.2601 9.388ZM19.6119 8.224C19.6119 6.58 20.7999 4.06 22.6959 4.06C23.4279 4.06 24.1119 4.624 24.1119 5.368C24.1119 5.716 23.9559 5.992 23.7159 6.22C22.9359 6.988 21.7719 6.904 20.7759 7.024C20.7159 7.336 20.6799 7.66 20.6799 7.984C20.6799 8.62 20.8479 9.352 21.6279 9.352C22.5159 9.352 23.2959 8.56 23.7279 7.828C23.7639 7.78 23.8239 7.756 23.8839 7.768C23.9439 7.78 23.9679 7.828 23.9439 7.888C23.3919 8.968 22.5639 10.072 21.2319 10.072C20.1039 10.072 19.6119 9.28 19.6119 8.224ZM23.2119 5.14C23.2119 4.756 23.0199 4.372 22.5879 4.372C21.4719 4.372 21.0639 5.8 20.8599 6.664C21.7719 6.532 23.2119 6.376 23.2119 5.14ZM26.2491 1.432H27.8091L30.5091 8.632L33.2211 1.432H34.7811V10H33.7011V2.872H33.6771L31.0011 10H30.0291L27.3531 2.872H27.3291V10H26.2491V1.432ZM36.4982 5.716C36.4982 6.148 36.5542 6.576 36.6662 7C36.7782 7.416 36.9542 7.792 37.1942 8.128C37.4342 8.464 37.7422 8.736 38.1182 8.944C38.4942 9.144 38.9422 9.244 39.4622 9.244C39.9822 9.244 40.4302 9.144 40.8062 8.944C41.1822 8.736 41.4902 8.464 41.7302 8.128C41.9702 7.792 42.1462 7.416 42.2582 7C42.3702 6.576 42.4262 6.148 42.4262 5.716C42.4262 5.284 42.3702 4.86 42.2582 4.444C42.1462 4.02 41.9702 3.64 41.7302 3.304C41.4902 2.968 41.1822 2.7 40.8062 2.5C40.4302 2.292 39.9822 2.188 39.4622 2.188C38.9422 2.188 38.4942 2.292 38.1182 2.5C37.7422 2.7 37.4342 2.968 37.1942 3.304C36.9542 3.64 36.7782 4.02 36.6662 4.444C36.5542 4.86 36.4982 5.284 36.4982 5.716ZM35.3582 5.716C35.3582 5.132 35.4422 4.572 35.6102 4.036C35.7862 3.492 36.0462 3.012 36.3902 2.596C36.7342 2.18 37.1622 1.848 37.6742 1.6C38.1862 1.352 38.7822 1.228 39.4622 1.228C40.1422 1.228 40.7382 1.352 41.2502 1.6C41.7622 1.848 42.1902 2.18 42.5342 2.596C42.8782 3.012 43.1342 3.492 43.3022 4.036C43.4782 4.572 43.5662 5.132 43.5662 5.716C43.5662 6.3 43.4782 6.864 43.3022 7.408C43.1342 7.944 42.8782 8.42 42.5342 8.836C42.1902 9.252 41.7622 9.584 41.2502 9.832C40.7382 10.072 40.1422 10.192 39.4622 10.192C38.7822 10.192 38.1862 10.072 37.6742 9.832C37.1622 9.584 36.7342 9.252 36.3902 8.836C36.0462 8.42 35.7862 7.944 35.6102 7.408C35.4422 6.864 35.3582 6.3 35.3582 5.716ZM44.1154 1.432H48.1474C48.9634 1.432 49.5994 1.632 50.0554 2.032C50.5194 2.432 50.7514 2.98 50.7514 3.676C50.7514 4.196 50.6314 4.652 50.3914 5.044C50.1594 5.436 49.7834 5.704 49.2634 5.848V5.872C49.5114 5.92 49.7114 6 49.8634 6.112C50.0234 6.224 50.1474 6.36 50.2354 6.52C50.3314 6.672 50.3994 6.844 50.4394 7.036C50.4874 7.228 50.5234 7.428 50.5474 7.636C50.5634 7.844 50.5754 8.056 50.5834 8.272C50.5914 8.488 50.6114 8.7 50.6434 8.908C50.6754 9.116 50.7194 9.316 50.7754 9.508C50.8394 9.692 50.9314 9.856 51.0514 10H49.7794C49.6994 9.912 49.6434 9.792 49.6114 9.64C49.5874 9.488 49.5714 9.32 49.5634 9.136C49.5554 8.944 49.5474 8.74 49.5394 8.524C49.5314 8.308 49.5074 8.096 49.4674 7.888C49.4354 7.68 49.3954 7.484 49.3474 7.3C49.2994 7.108 49.2234 6.944 49.1194 6.808C49.0154 6.664 48.8794 6.552 48.7114 6.472C48.5434 6.384 48.3194 6.34 48.0394 6.34H45.2554V10H44.1154V1.432ZM47.6314 5.38C47.8954 5.38 48.1474 5.36 48.3874 5.32C48.6274 5.28 48.8354 5.204 49.0114 5.092C49.1954 4.972 49.3394 4.816 49.4434 4.624C49.5554 4.424 49.6114 4.168 49.6114 3.856C49.6114 3.424 49.4914 3.072 49.2514 2.8C49.0114 2.528 48.6234 2.392 48.0874 2.392H45.2554V5.38H47.6314ZM51.4902 1.432H57.4062V2.392H52.6302V5.116H57.0822V6.076H52.6302V9.04H57.4422V10H51.4902V1.432ZM58.7299 8.896C58.7299 7.264 60.6619 6.412 62.0779 6.556C62.2219 5.968 62.4139 5.38 62.4139 4.78C62.4139 4.504 62.3779 4.36 62.0779 4.36C61.4419 4.36 60.8059 5.224 60.5779 5.872C60.5179 6.04 60.3739 6.16 60.1939 6.16H60.0259C59.7499 6.16 59.6059 5.98 59.7139 5.74C60.1219 4.804 61.0699 4.024 62.1019 4.024C62.8339 4.024 63.2179 4.468 63.2179 5.188C63.2179 5.416 63.1699 5.644 63.1219 5.872L62.3179 8.968L62.2819 9.244C62.2819 9.364 62.3179 9.544 62.4739 9.544C62.6779 9.544 62.8699 9.1 62.9779 8.836C63.0139 8.752 63.0859 8.716 63.1699 8.728C63.2419 8.752 63.2779 8.812 63.2419 8.884C63.0019 9.448 62.7739 10 62.0419 10C61.6339 10 61.3339 9.832 61.3339 9.388C61.3339 9.268 61.3579 9.136 61.3819 9.016C60.9979 9.532 60.4219 10.084 59.7379 10.084C59.0779 10.084 58.7299 9.496 58.7299 8.896ZM60.3259 9.34C60.7459 9.34 61.2019 8.812 61.4419 8.5C61.7779 8.08 61.8619 7.372 61.9819 6.856C61.9219 6.844 61.8619 6.844 61.8019 6.844C60.9259 6.844 59.7019 7.492 59.7019 8.488C59.7019 8.848 59.8939 9.34 60.3259 9.34ZM63.6657 9.76L65.6697 2.092C65.6937 1.996 65.7177 1.9 65.7177 1.804C65.7177 1.528 65.5137 1.468 65.2737 1.468C65.1777 1.468 65.0817 1.468 64.9857 1.48C64.8897 1.492 64.8417 1.444 64.8657 1.36C64.8897 1.276 64.9617 1.204 65.0577 1.204C65.4897 1.156 65.9097 1.096 66.3297 1.024C66.6657 0.964 66.8337 1.144 66.7497 1.468L65.8977 4.66C66.3297 4.288 66.9057 4.06 67.4817 4.06C68.4297 4.06 68.6937 4.936 68.6937 5.74C68.6937 7.42 67.4337 10.072 65.5137 10.072C65.0337 10.072 64.7217 9.64 64.3737 9.64C64.1457 9.64 63.9897 9.736 63.8577 9.856C63.6177 10.084 63.5817 10.084 63.6657 9.76ZM64.9497 8.752C64.9497 9.184 65.0697 9.736 65.5977 9.736C66.9537 9.736 67.6617 7.132 67.6617 6.064C67.6617 5.416 67.4937 4.588 66.6897 4.588C66.3777 4.588 66.0777 4.744 65.8497 4.948C65.6457 5.644 64.9497 8.092 64.9497 8.752ZM68.6939 8.056C68.6939 6.412 70.0139 4.06 71.8619 4.06C73.0259 4.06 73.5059 5.044 73.5059 6.076C73.5059 7.72 72.1619 10.072 70.3259 10.072C69.1619 10.072 68.6939 9.088 68.6939 8.056ZM70.5899 9.772C72.0419 9.772 72.4619 7.072 72.4619 6.004C72.4619 5.476 72.3899 4.348 71.6459 4.348C70.1459 4.348 69.7379 6.964 69.7379 8.068C69.7379 8.632 69.8099 9.772 70.5899 9.772ZM73.8572 8.188L74.6492 5.164C74.6732 5.044 74.7092 4.924 74.7092 4.792C74.7092 4.468 74.3972 4.42 74.1332 4.384C74.0612 4.372 74.0252 4.324 74.0372 4.252C74.0612 4.168 74.1212 4.12 74.1932 4.12H75.3692C75.6572 4.12 75.7892 4.3 75.7172 4.576L74.8052 8.08C74.7332 8.344 74.6852 8.62 74.6852 8.884C74.6852 9.124 74.7452 9.628 75.0692 9.628C75.8972 9.628 77.4212 5.644 77.4212 4.804C77.4212 4.468 77.1212 4.42 76.8572 4.384C76.7852 4.372 76.7612 4.312 76.7732 4.24C76.7972 4.168 76.8692 4.12 76.9412 4.12C77.3132 4.132 77.6972 4.132 78.0692 4.144C78.3572 4.144 78.4892 4.324 78.4172 4.6L77.2892 8.968C77.2652 9.064 77.2412 9.16 77.2412 9.256C77.2412 9.388 77.2892 9.544 77.4452 9.544C77.6492 9.544 77.8412 9.1 77.9492 8.836C77.9852 8.752 78.0572 8.716 78.1412 8.728C78.2132 8.752 78.2492 8.812 78.2132 8.884C77.9732 9.448 77.7452 10 77.0132 10C76.6052 10 76.3052 9.832 76.3052 9.388C76.3052 9.016 76.4612 8.572 76.5572 8.212C76.2332 8.908 75.6212 10.06 74.7212 10.06C74.0492 10.06 73.7612 9.496 73.7612 8.896C73.7612 8.656 73.7972 8.416 73.8572 8.188ZM78.7026 9.4C78.7026 9.112 78.7746 8.848 78.8466 8.584C79.1946 7.216 79.5186 5.836 79.8666 4.468L79.1586 4.48C79.0746 4.48 79.0386 4.432 79.0626 4.348C79.0866 4.264 79.1586 4.216 79.2426 4.204C80.0706 4.096 80.7666 3.112 81.1506 2.44C81.1866 2.392 81.2346 2.356 81.2946 2.356C81.3426 2.356 81.3786 2.392 81.3546 2.452L80.8866 4.132L81.9426 4.12C82.0386 4.12 82.0746 4.18 82.0506 4.276C82.0266 4.372 81.9426 4.432 81.8466 4.432L80.7906 4.456C80.6466 4.996 80.5386 5.56 80.3946 6.112L79.6866 8.812C79.6506 8.956 79.6266 9.1 79.6266 9.244C79.6266 9.4 79.6746 9.592 79.8666 9.592C80.1306 9.592 80.4066 9.328 80.5986 9.124C80.6466 9.076 80.6946 9.088 80.7186 9.16C80.7306 9.22 80.7186 9.304 80.6706 9.364C80.3586 9.724 79.8546 10.072 79.3866 10.072C78.9426 10.072 78.7026 9.856 78.7026 9.4ZM82.0113 9.88C82.0353 9.808 82.0953 9.748 82.1673 9.736C82.3713 9.7 82.5873 9.664 82.7673 9.544C82.9593 9.4 83.0433 9.148 83.1033 8.932C83.3433 8.14 84.1473 5.512 84.1473 4.864C84.1473 4.468 83.8713 4.42 83.5713 4.42C83.4753 4.42 83.4393 4.36 83.4753 4.276C83.5233 4.192 83.6193 4.132 83.7153 4.132L84.8073 4.12C85.0953 4.12 85.2393 4.3 85.1673 4.564L84.6393 6.58C84.9993 5.896 85.9113 4.18 86.7753 4.18C87.4473 4.18 87.6513 4.84 87.6513 5.404C87.6513 5.716 87.5913 6.016 87.5073 6.304C87.8673 5.668 88.6473 4.18 89.4873 4.18C90.1593 4.18 90.3513 4.852 90.3513 5.404C90.3513 5.68 90.3153 5.944 90.2433 6.208L89.5233 8.968C89.4993 9.064 89.4753 9.16 89.4753 9.256C89.4753 9.388 89.5233 9.544 89.6793 9.544C89.8833 9.544 90.0753 9.1 90.1833 8.836C90.2193 8.752 90.2913 8.716 90.3753 8.728C90.4593 8.752 90.4833 8.812 90.4593 8.884C90.2073 9.448 89.9793 10 89.2473 10C88.8513 10 88.5393 9.832 88.5393 9.388C88.5393 9.22 88.5753 9.064 88.6233 8.908L89.2953 6.304C89.3793 6.016 89.4273 5.716 89.4273 5.404C89.4273 5.188 89.4033 4.768 89.0913 4.768C89.0193 4.768 88.9473 4.78 88.8873 4.816C88.5633 4.96 87.3513 6.928 87.2073 7.36C86.9553 8.128 86.7513 8.932 86.5353 9.724C86.4993 9.88 86.3553 9.976 86.1993 9.976L86.0073 9.988C85.7433 9.988 85.5993 9.82 85.6833 9.556L86.5953 6.304C86.6793 6.016 86.7273 5.716 86.7273 5.416C86.7273 5.188 86.6913 4.768 86.3913 4.768C86.3193 4.768 86.2473 4.78 86.1753 4.816C85.7913 4.984 84.5673 7.12 84.3513 7.648C84.2433 7.936 83.9673 9.028 83.9673 9.316C83.9673 9.64 84.2793 9.7 84.5313 9.748C84.6033 9.76 84.6393 9.808 84.6153 9.88C84.6033 9.952 84.5433 10 84.4713 10H82.1073C82.0353 10 81.9993 9.952 82.0113 9.88ZM90.8769 8.224C90.8769 6.58 92.0649 4.06 93.9609 4.06C94.6929 4.06 95.3769 4.624 95.3769 5.368C95.3769 5.716 95.2209 5.992 94.9809 6.22C94.2009 6.988 93.0369 6.904 92.0409 7.024C91.9809 7.336 91.9449 7.66 91.9449 7.984C91.9449 8.62 92.1129 9.352 92.8929 9.352C93.7809 9.352 94.5609 8.56 94.9929 7.828C95.0289 7.78 95.0889 7.756 95.1489 7.768C95.2089 7.78 95.2329 7.828 95.2089 7.888C94.6569 8.968 93.8289 10.072 92.4969 10.072C91.3689 10.072 90.8769 9.28 90.8769 8.224ZM94.4769 5.14C94.4769 4.756 94.2849 4.372 93.8529 4.372C92.7369 4.372 92.3289 5.8 92.1249 6.664C93.0369 6.532 94.4769 6.376 94.4769 5.14ZM95.6303 9.568C95.6303 9.172 96.0263 8.752 96.4343 8.752C96.7103 8.752 96.9023 8.968 96.9023 9.244C96.9023 9.652 96.5063 10.072 96.0983 10.072C95.8103 10.072 95.6303 9.844 95.6303 9.568ZM98.021 9.568C98.021 9.172 98.417 8.752 98.825 8.752C99.101 8.752 99.293 8.968 99.293 9.244C99.293 9.652 98.897 10.072 98.489 10.072C98.201 10.072 98.021 9.844 98.021 9.568ZM100.412 9.568C100.412 9.172 100.808 8.752 101.216 8.752C101.492 8.752 101.684 8.968 101.684 9.244C101.684 9.652 101.288 10.072 100.88 10.072C100.592 10.072 100.412 9.844 100.412 9.568Z" fill="black"/>
</svg>
