<svg width="1182" height="163" viewBox="0 0 1182 163" fill="none" xmlns="http://www.w3.org/2000/svg">
<path d="M0.6 112.95C0.75 112.2 1.35 111.6 2.1 111.45C9.45 109.95 12.3 109.2 14.7 100.95L37.8 20.1C38.25 18.75 38.55 17.25 38.55 15.9C38.55 12.15 34.5 11.4 31.65 10.5C30.9 10.2 30.6 9.59999 30.75 8.84999C30.9 8.1 31.5 7.64999 32.25 7.64999H46.65C49.2 7.64999 51 9.3 51.15 11.85L55.2 93.75L101.1 9.9C101.85 8.55 103.5 7.64999 105 7.64999H123C123.75 7.64999 124.05 8.1 123.9 8.84999C123.75 9.59999 123.15 10.2 122.4 10.35C115.8 12 112.5 12.75 110.7 20.7L91.8 102.45L91.35 105.75C91.35 110.1 96 110.4 99.3 111.3C99.9 111.45 100.35 112.2 100.05 112.8C99.9 113.55 99.3 114 98.55 114H67.5C66.75 114 66.45 113.55 66.6 112.8C66.75 112.05 67.5 111.45 68.1 111.3C73.65 110.25 78.15 109.05 79.65 102.75L97.8 24.15C81.45 53.85 64.8 83.25 48.6 112.95C48.15 113.85 47.25 114.45 46.2 114.45C45.3 114.45 44.7 113.7 44.55 112.8C42.9 85.05 40.95 57.3 39 29.55L18.45 101.85C18 103.05 17.85 104.25 17.85 105.45C17.85 110.85 24.45 111.15 28.65 111.75C29.4 111.75 29.7 112.35 29.55 112.95C29.4 113.7 28.8 114.15 28.05 114.15H1.5C0.75 114.15 0.3 113.7 0.6 112.95ZM98.7797 100.2C98.7797 79.8 122.93 69.15 140.63 70.95C142.43 63.6 144.83 56.25 144.83 48.75C144.83 45.3 144.38 43.5 140.63 43.5C132.68 43.5 124.73 54.3 121.88 62.4C121.13 64.5 119.33 66 117.08 66H114.98C111.53 66 109.73 63.75 111.08 60.75C116.18 49.05 128.03 39.3 140.93 39.3C150.08 39.3 154.88 44.85 154.88 53.85C154.88 56.7 154.28 59.55 153.68 62.4L143.63 101.1L143.18 104.55C143.18 106.05 143.63 108.3 145.58 108.3C148.13 108.3 150.53 102.75 151.88 99.45C152.33 98.4 153.23 97.95 154.28 98.1C155.18 98.4 155.63 99.15 155.18 100.05C152.18 107.1 149.33 114 140.18 114C135.08 114 131.33 111.9 131.33 106.35C131.33 104.85 131.63 103.2 131.93 101.7C127.13 108.15 119.93 115.05 111.38 115.05C103.13 115.05 98.7797 107.7 98.7797 100.2ZM118.73 105.75C123.98 105.75 129.68 99.15 132.68 95.25C136.88 90 137.93 81.15 139.43 74.7C138.68 74.55 137.93 74.55 137.18 74.55C126.23 74.55 110.93 82.65 110.93 95.1C110.93 99.6 113.33 105.75 118.73 105.75ZM145.478 112.5C145.628 111.6 146.378 110.85 147.278 110.7C154.028 109.35 156.878 108.6 158.978 100.65L170.228 57.45C170.828 55.05 171.428 52.65 171.428 50.25C171.428 45.6 168.578 44.25 164.828 43.95C163.778 43.8 163.328 43.2 163.478 42.15C163.778 41.1 164.528 40.35 165.578 40.35L180.428 40.2C184.028 40.2 185.828 42.45 184.928 45.75C183.128 52.5 181.328 59.25 179.528 66C183.278 58.8 193.478 40.65 202.628 40.65C208.928 40.65 211.928 46.5 211.928 52.2C211.928 57.75 208.478 66.15 201.878 66.15C198.728 66.15 197.378 63.3 197.378 60.45C197.378 55.35 201.278 50.7 201.278 47.55C201.278 46.5 199.778 46.5 199.028 46.5C191.678 46.5 176.678 79.05 174.128 87.15C173.228 89.7 169.928 103.35 169.928 105.45C169.928 109.5 173.678 110.25 176.978 110.85C177.878 111 178.178 111.6 178.028 112.5C177.728 113.4 176.978 114 176.078 114H146.528C145.628 114 145.178 113.4 145.478 112.5ZM189.369 112.5C189.669 111.6 190.419 110.85 191.319 110.7C198.069 109.35 200.769 108.6 202.869 100.65L224.019 19.65C224.769 16.5 225.819 13.35 225.819 10.05C225.819 5.54999 222.369 4.79999 218.919 4.65C217.719 4.65 217.119 3.9 217.569 2.84999C218.019 1.65 219.069 0.899999 220.269 0.899999C225.069 0.749992 229.869 0.749992 234.669 0.749992C238.119 0.599994 239.919 2.84999 239.019 6.29999L222.069 71.25L244.569 52.05C245.919 50.85 248.169 47.55 248.169 45.6C248.169 44.55 247.419 44.1 246.669 43.8C245.769 43.65 245.169 43.05 245.469 42C245.769 41.1 246.519 40.35 247.569 40.35C254.469 40.5 261.219 40.5 268.119 40.5C269.019 40.5 269.469 41.1 269.169 42C269.019 42.9 268.269 43.5 267.369 43.65C257.769 45.15 255.219 46.5 247.269 53.55L231.669 67.35L242.769 100.95C243.669 103.5 245.469 106.5 248.619 106.5C251.769 106.5 253.719 103.35 254.919 100.65C255.219 99.75 255.819 99.45 256.569 100.05C257.319 100.5 257.619 101.4 257.319 102.15C255.069 108 249.969 113.55 243.369 113.55C236.769 113.55 232.869 107.55 231.069 101.85L222.069 74.25L221.019 75.3L214.269 100.95C213.969 102.45 213.519 103.95 213.519 105.45C213.519 109.5 217.419 110.1 220.569 110.85C221.469 111 221.919 111.75 221.619 112.5C221.469 113.4 220.719 114 219.819 114H190.569C189.669 114 189.069 113.4 189.369 112.5ZM243.77 112.5C244.07 111.6 244.82 110.85 245.72 110.7C252.32 109.35 255.32 108.6 257.42 100.65L279.62 15.75C280.07 13.8 280.67 11.7 280.67 9.59999C280.67 4.5 275.57 4.35 271.52 4.5C270.47 4.5 269.87 3.75 270.02 2.84999C270.17 1.8 271.07 1.05 272.12 1.05L289.07 0.899999C292.52 0.899999 294.32 3.15 293.42 6.6L277.67 67.2C282.02 59.1 291.92 41.25 301.97 41.25C310.52 41.25 312.77 49.65 312.77 56.55C312.77 60 312.32 63.3 311.57 66.6L302.57 101.1C302.12 102.3 301.82 103.5 301.82 104.7C301.82 106.35 302.57 108.3 304.52 108.3C306.92 108.3 309.47 102.75 310.82 99.45C311.12 98.4 312.17 97.95 313.07 98.1C314.12 98.4 314.57 99.15 314.12 100.05C310.97 107.1 308.27 114 299.12 114C294.02 114 290.27 111.9 290.27 106.35C290.27 104.25 290.72 102.3 291.17 100.35L299.72 67.8C300.62 64.2 301.22 60.45 301.22 56.55C301.22 53.85 300.92 48.6 297.17 48.6C296.27 48.6 295.37 48.75 294.47 49.2C290.72 50.85 276.02 74.25 274.52 79.2C273.32 82.95 268.07 102.45 268.07 105.45C268.07 109.5 271.97 110.25 275.27 110.85C276.17 111 276.62 111.6 276.32 112.5C276.17 113.4 275.42 114 274.52 114H244.97C244.07 114 243.62 113.4 243.77 112.5ZM312.084 100.2C312.084 79.8 336.234 69.15 353.934 70.95C355.734 63.6 358.134 56.25 358.134 48.75C358.134 45.3 357.684 43.5 353.934 43.5C345.984 43.5 338.034 54.3 335.184 62.4C334.434 64.5 332.634 66 330.384 66H328.284C324.834 66 323.034 63.75 324.384 60.75C329.484 49.05 341.334 39.3 354.234 39.3C363.384 39.3 368.184 44.85 368.184 53.85C368.184 56.7 367.584 59.55 366.984 62.4L356.934 101.1L356.484 104.55C356.484 106.05 356.934 108.3 358.884 108.3C361.434 108.3 363.834 102.75 365.184 99.45C365.634 98.4 366.534 97.95 367.584 98.1C368.484 98.4 368.934 99.15 368.484 100.05C365.484 107.1 362.634 114 353.484 114C348.384 114 344.634 111.9 344.634 106.35C344.634 104.85 344.934 103.2 345.234 101.7C340.434 108.15 333.234 115.05 324.684 115.05C316.434 115.05 312.084 107.7 312.084 100.2ZM332.034 105.75C337.284 105.75 342.984 99.15 345.984 95.25C350.184 90 351.234 81.15 352.734 74.7C351.984 74.55 351.234 74.55 350.484 74.55C339.534 74.55 324.234 82.65 324.234 95.1C324.234 99.6 326.634 105.75 332.034 105.75ZM358.332 112.5C358.632 111.6 359.382 110.85 360.282 110.7C362.832 110.25 365.532 109.8 367.782 108.3C370.182 106.5 371.232 103.35 371.982 100.65C374.982 90.75 385.032 57.9 385.032 49.8C385.032 44.85 381.582 44.25 377.832 44.25C376.632 44.25 376.182 43.5 376.632 42.45C377.232 41.4 378.432 40.65 379.632 40.65L393.282 40.5C396.882 40.5 398.682 42.75 397.782 46.05L391.182 71.25C395.682 62.7 407.082 41.25 417.882 41.25C426.282 41.25 428.832 49.5 428.832 56.55C428.832 60.45 428.082 64.2 427.032 67.8C431.532 59.85 441.282 41.25 451.782 41.25C460.182 41.25 462.582 49.65 462.582 56.55C462.582 60 462.132 63.3 461.232 66.6L452.232 101.1C451.932 102.3 451.632 103.5 451.632 104.7C451.632 106.35 452.232 108.3 454.182 108.3C456.732 108.3 459.132 102.75 460.482 99.45C460.932 98.4 461.832 97.95 462.882 98.1C463.932 98.4 464.232 99.15 463.932 100.05C460.782 107.1 457.932 114 448.782 114C443.832 114 439.932 111.9 439.932 106.35C439.932 104.25 440.382 102.3 440.982 100.35L449.382 67.8C450.432 64.2 451.032 60.45 451.032 56.55C451.032 53.85 450.732 48.6 446.832 48.6C445.932 48.6 445.032 48.75 444.282 49.2C440.232 51 425.082 75.6 423.282 81C420.132 90.6 417.582 100.65 414.882 110.55C414.432 112.5 412.632 113.7 410.682 113.7L408.282 113.85C404.982 113.85 403.182 111.75 404.232 108.45L415.632 67.8C416.682 64.2 417.282 60.45 417.282 56.7C417.282 53.85 416.832 48.6 413.082 48.6C412.182 48.6 411.282 48.75 410.382 49.2C405.582 51.3 390.282 78 387.582 84.6C386.232 88.2 382.782 101.85 382.782 105.45C382.782 109.5 386.682 110.25 389.832 110.85C390.732 111 391.182 111.6 390.882 112.5C390.732 113.4 389.982 114 389.082 114H359.532C358.632 114 358.182 113.4 358.332 112.5ZM496.446 112.8C496.746 112.05 497.346 111.45 498.096 111.3C505.296 109.8 508.146 109.35 510.246 100.95L533.646 11.4H523.146C509.946 11.4 504.846 34.35 499.896 43.95L499.146 45.6C498.696 46.65 498.546 46.5 498.696 45.45C501.396 33.9 504.246 22.35 507.396 10.8C507.996 8.84999 509.796 7.64999 511.746 7.64999H567.096C570.546 7.64999 572.346 9.9 571.296 13.35C568.896 22.05 566.496 30.6 564.246 39.3C563.946 39.9 563.496 40.35 562.896 40.5C562.296 40.5 561.996 40.2 562.146 39.6C563.046 34.2 564.096 28.65 564.096 23.1C564.096 18 563.046 11.4 556.446 11.4H546.096L522.546 101.25C522.246 102.9 521.796 104.55 521.796 106.2C521.796 110.1 526.296 110.55 529.446 111.3C530.046 111.45 530.496 112.2 530.196 112.8C530.046 113.55 529.446 114 528.696 114H497.496C496.746 114 496.296 113.55 496.446 112.8ZM534.88 112.5C535.03 111.6 535.78 110.85 536.68 110.7C543.43 109.35 546.28 108.6 548.38 100.65L559.63 57.45C560.23 55.05 560.83 52.65 560.83 50.25C560.83 45.6 557.98 44.25 554.23 43.95C553.18 43.8 552.73 43.2 552.88 42.15C553.18 41.1 553.93 40.35 554.98 40.35L569.83 40.2C573.43 40.2 575.23 42.45 574.33 45.75C572.53 52.5 570.73 59.25 568.93 66C572.68 58.8 582.88 40.65 592.03 40.65C598.33 40.65 601.33 46.5 601.33 52.2C601.33 57.75 597.88 66.15 591.28 66.15C588.13 66.15 586.78 63.3 586.78 60.45C586.78 55.35 590.68 50.7 590.68 47.55C590.68 46.5 589.18 46.5 588.43 46.5C581.08 46.5 566.08 79.05 563.53 87.15C562.63 89.7 559.33 103.35 559.33 105.45C559.33 109.5 563.08 110.25 566.38 110.85C567.28 111 567.58 111.6 567.43 112.5C567.13 113.4 566.38 114 565.48 114H535.93C535.03 114 534.58 113.4 534.88 112.5ZM589.121 100.2C589.121 79.8 613.271 69.15 630.971 70.95C632.771 63.6 635.171 56.25 635.171 48.75C635.171 45.3 634.721 43.5 630.971 43.5C623.021 43.5 615.071 54.3 612.221 62.4C611.471 64.5 609.671 66 607.421 66H605.321C601.871 66 600.071 63.75 601.421 60.75C606.521 49.05 618.371 39.3 631.271 39.3C640.421 39.3 645.221 44.85 645.221 53.85C645.221 56.7 644.621 59.55 644.021 62.4L633.971 101.1L633.521 104.55C633.521 106.05 633.971 108.3 635.921 108.3C638.471 108.3 640.871 102.75 642.221 99.45C642.671 98.4 643.571 97.95 644.621 98.1C645.521 98.4 645.971 99.15 645.521 100.05C642.521 107.1 639.671 114 630.521 114C625.421 114 621.671 111.9 621.671 106.35C621.671 104.85 621.971 103.2 622.271 101.7C617.471 108.15 610.271 115.05 601.721 115.05C593.471 115.05 589.121 107.7 589.121 100.2ZM609.071 105.75C614.321 105.75 620.021 99.15 623.021 95.25C627.221 90 628.271 81.15 629.771 74.7C629.021 74.55 628.271 74.55 627.521 74.55C616.571 74.55 601.271 82.65 601.271 95.1C601.271 99.6 603.671 105.75 609.071 105.75ZM652.17 95.4C654.42 86.85 663.12 58.65 663.12 52.05C663.12 45.75 658.02 44.4 652.92 44.25C651.87 44.1 651.12 43.5 650.97 42.45C650.97 41.4 651.72 40.65 652.77 40.65L672.12 40.2C675.72 40.2 677.52 42.45 676.62 45.9L663.27 96.6C662.52 99.3 661.47 102 661.47 104.7C661.47 106.35 662.22 108.3 664.02 108.3C666.57 108.3 668.97 102.6 670.32 99.45C670.77 98.4 671.67 97.95 672.72 98.1C673.77 98.4 674.07 99.15 673.77 100.05C670.62 107.1 667.77 114 658.62 114C653.67 114 649.92 111.9 649.92 106.35C649.92 102.6 651.12 99 652.17 95.4ZM669.42 23.1C669.42 18 673.62 10.65 679.32 10.65C682.92 10.65 684.57 14.1 684.57 17.4C684.57 22.35 680.22 29.85 674.67 29.85C670.92 29.85 669.42 26.25 669.42 23.1ZM674.904 106.35C674.904 102.6 676.254 99 677.154 95.4L697.704 16.95C698.304 14.85 698.754 12.75 698.754 10.65C698.754 5.1 693.654 4.65 689.304 4.5C688.254 4.5 687.654 3.75 687.954 2.69999C688.254 1.65 689.154 0.899999 690.204 0.899999L707.604 0.749992C711.054 0.749992 712.854 3 711.954 6.45L688.254 96.6C687.654 99.3 686.454 102 686.454 104.7C686.454 106.35 687.204 108.3 689.154 108.3C691.554 108.3 694.104 102.75 695.454 99.45C695.754 98.4 696.804 97.95 697.704 98.1C698.754 98.4 699.204 99.15 698.754 100.05C695.604 107.1 692.904 114 683.754 114C678.654 114 674.904 111.9 674.904 106.35ZM693.652 102.45C693.652 99.6 695.002 94.8 698.602 94.8C706.552 94.8 699.952 111.6 711.802 111.6C719.752 111.6 725.452 103.5 725.452 96.15C725.452 83.4 707.302 78.9 707.302 64.8C707.302 52.2 720.652 39.75 733.252 39.75C739.252 39.75 744.952 42.6 744.952 49.5C744.952 52.5 743.302 56.25 739.852 56.25C736.852 56.25 734.452 54.6 734.452 51.45C734.452 49.2 735.502 47.25 735.502 45C735.502 43.35 734.002 43.05 732.652 43.05C725.752 43.05 716.752 49.35 716.752 56.7C716.752 66.75 737.002 72.3 737.002 88.35C737.002 102.9 723.202 114.9 708.952 114.9C701.302 114.9 693.652 111.3 693.652 102.45Z" fill="black"/>
<path d="M15.0312 137.891C16.2188 137.891 17.3698 138.172 18.4844 138.734C19.599 139.286 20.4479 140.005 21.0312 140.891C21.5938 141.734 21.9688 142.719 22.1562 143.844C22.3229 144.615 22.4062 145.844 22.4062 147.531H10.1406C10.1927 149.229 10.5938 150.594 11.3438 151.625C12.0938 152.646 13.2552 153.156 14.8281 153.156C16.2969 153.156 17.4688 152.672 18.3438 151.703C18.8438 151.141 19.1979 150.49 19.4062 149.75H22.1719C22.099 150.365 21.8542 151.052 21.4375 151.812C21.0312 152.562 20.5729 153.177 20.0625 153.656C19.2083 154.49 18.151 155.052 16.8906 155.344C16.2135 155.51 15.4479 155.594 14.5938 155.594C12.5104 155.594 10.7448 154.839 9.29688 153.328C7.84896 151.807 7.125 149.682 7.125 146.953C7.125 144.266 7.85417 142.083 9.3125 140.406C10.7708 138.729 12.6771 137.891 15.0312 137.891ZM19.5156 145.297C19.401 144.078 19.1354 143.104 18.7188 142.375C17.9479 141.021 16.6615 140.344 14.8594 140.344C13.5677 140.344 12.4844 140.812 11.6094 141.75C10.7344 142.677 10.2708 143.859 10.2188 145.297H19.5156ZM23.955 138.266H26.7362V140.641C27.4029 139.818 28.0071 139.219 28.5487 138.844C29.4758 138.208 30.5279 137.891 31.705 137.891C33.0383 137.891 34.1112 138.219 34.9237 138.875C35.3821 139.25 35.7987 139.802 36.1737 140.531C36.7987 139.635 37.5331 138.974 38.3769 138.547C39.2206 138.109 40.1685 137.891 41.2206 137.891C43.4706 137.891 45.0019 138.703 45.8144 140.328C46.2519 141.203 46.4706 142.38 46.4706 143.859V155H43.5487V143.375C43.5487 142.26 43.2675 141.495 42.705 141.078C42.1529 140.661 41.4758 140.453 40.6737 140.453C39.5696 140.453 38.6165 140.823 37.8144 141.562C37.0227 142.302 36.6269 143.536 36.6269 145.266V155H33.7675V144.078C33.7675 142.943 33.6321 142.115 33.3612 141.594C32.9342 140.812 32.1373 140.422 30.9706 140.422C29.9081 140.422 28.9394 140.833 28.0644 141.656C27.1998 142.479 26.7675 143.969 26.7675 146.125V155H23.955V138.266ZM48.4725 131.969H51.2069V140.297C51.8215 139.495 52.5558 138.885 53.41 138.469C54.2642 138.042 55.1912 137.828 56.1912 137.828C58.2746 137.828 59.9621 138.547 61.2537 139.984C62.5558 141.411 63.2069 143.521 63.2069 146.312C63.2069 148.958 62.5662 151.156 61.285 152.906C60.0037 154.656 58.2277 155.531 55.9569 155.531C54.686 155.531 53.6131 155.224 52.7381 154.609C52.2173 154.245 51.66 153.661 51.0662 152.859V155H48.4725V131.969ZM55.785 153.047C57.3058 153.047 58.4412 152.443 59.1912 151.234C59.9517 150.026 60.3319 148.432 60.3319 146.453C60.3319 144.693 59.9517 143.234 59.1912 142.078C58.4412 140.922 57.3319 140.344 55.8631 140.344C54.5819 140.344 53.4569 140.818 52.4881 141.766C51.5298 142.714 51.0506 144.276 51.0506 146.453C51.0506 148.026 51.2485 149.302 51.6444 150.281C52.384 152.125 53.7642 153.047 55.785 153.047ZM66.74 150.547C66.74 151.359 67.0369 152 67.6306 152.469C68.2244 152.938 68.9275 153.172 69.74 153.172C70.7296 153.172 71.6879 152.943 72.615 152.484C74.1775 151.724 74.9588 150.479 74.9588 148.75V146.484C74.615 146.703 74.1723 146.885 73.6306 147.031C73.089 147.177 72.5577 147.281 72.0369 147.344L70.3338 147.562C69.3129 147.698 68.5473 147.911 68.0369 148.203C67.1723 148.693 66.74 149.474 66.74 150.547ZM73.5525 144.859C74.1983 144.776 74.6306 144.505 74.8494 144.047C74.9744 143.797 75.0369 143.438 75.0369 142.969C75.0369 142.01 74.6931 141.318 74.0056 140.891C73.3285 140.453 72.3546 140.234 71.0838 140.234C69.615 140.234 68.5733 140.63 67.9588 141.422C67.615 141.859 67.391 142.51 67.2869 143.375H64.6619C64.714 141.312 65.3806 139.88 66.6619 139.078C67.9535 138.266 69.4483 137.859 71.1463 137.859C73.115 137.859 74.714 138.234 75.9431 138.984C77.1619 139.734 77.7713 140.901 77.7713 142.484V152.125C77.7713 152.417 77.8285 152.651 77.9431 152.828C78.0681 153.005 78.3233 153.094 78.7088 153.094C78.8338 153.094 78.9744 153.089 79.1306 153.078C79.2869 153.057 79.4535 153.031 79.6306 153V155.078C79.1931 155.203 78.8598 155.281 78.6306 155.312C78.4015 155.344 78.089 155.359 77.6931 155.359C76.7244 155.359 76.0213 155.016 75.5838 154.328C75.3546 153.964 75.1931 153.448 75.0994 152.781C74.5265 153.531 73.7035 154.182 72.6306 154.734C71.5577 155.286 70.3754 155.562 69.0838 155.562C67.5317 155.562 66.2608 155.094 65.2713 154.156C64.2921 153.208 63.8025 152.026 63.8025 150.609C63.8025 149.057 64.2869 147.854 65.2556 147C66.2244 146.146 67.4952 145.62 69.0681 145.422L73.5525 144.859ZM80.5544 138.266H83.2262V141.156C83.445 140.594 83.9815 139.911 84.8356 139.109C85.6898 138.297 86.6742 137.891 87.7887 137.891C87.8408 137.891 87.9294 137.896 88.0544 137.906C88.1794 137.917 88.3929 137.938 88.695 137.969V140.938C88.5283 140.906 88.3721 140.885 88.2262 140.875C88.0908 140.865 87.9398 140.859 87.7731 140.859C86.3565 140.859 85.2679 141.318 84.5075 142.234C83.7471 143.141 83.3669 144.188 83.3669 145.375V155H80.5544V138.266ZM89.15 132.047H91.8531V145.375L99.0719 138.266H102.666L96.2594 144.531L103.025 155H99.4313L94.2125 146.562L91.8531 148.719V155H89.15V132.047ZM116.919 153.188C118.784 153.188 120.06 152.484 120.747 151.078C121.445 149.661 121.794 148.089 121.794 146.359C121.794 144.797 121.544 143.526 121.044 142.547C120.253 141.005 118.888 140.234 116.951 140.234C115.232 140.234 113.982 140.891 113.201 142.203C112.419 143.516 112.029 145.099 112.029 146.953C112.029 148.734 112.419 150.219 113.201 151.406C113.982 152.594 115.221 153.188 116.919 153.188ZM117.029 137.781C119.185 137.781 121.008 138.5 122.497 139.938C123.987 141.375 124.732 143.49 124.732 146.281C124.732 148.979 124.076 151.208 122.763 152.969C121.451 154.729 119.414 155.609 116.654 155.609C114.352 155.609 112.524 154.833 111.169 153.281C109.815 151.719 109.138 149.625 109.138 147C109.138 144.188 109.852 141.948 111.279 140.281C112.706 138.615 114.622 137.781 117.029 137.781ZM126.171 138.266H128.843V140.641C129.635 139.661 130.473 138.958 131.359 138.531C132.244 138.104 133.229 137.891 134.312 137.891C136.687 137.891 138.291 138.719 139.124 140.375C139.583 141.281 139.812 142.578 139.812 144.266V155H136.952V144.453C136.952 143.432 136.801 142.609 136.499 141.984C135.999 140.943 135.093 140.422 133.781 140.422C133.114 140.422 132.567 140.49 132.14 140.625C131.369 140.854 130.692 141.312 130.109 142C129.64 142.552 129.333 143.125 129.187 143.719C129.051 144.302 128.984 145.141 128.984 146.234V155H126.171V138.266ZM151.206 150.547C151.206 151.359 151.503 152 152.097 152.469C152.691 152.938 153.394 153.172 154.206 153.172C155.196 153.172 156.154 152.943 157.081 152.484C158.644 151.724 159.425 150.479 159.425 148.75V146.484C159.081 146.703 158.639 146.885 158.097 147.031C157.555 147.177 157.024 147.281 156.503 147.344L154.8 147.562C153.779 147.698 153.014 147.911 152.503 148.203C151.639 148.693 151.206 149.474 151.206 150.547ZM158.019 144.859C158.665 144.776 159.097 144.505 159.316 144.047C159.441 143.797 159.503 143.438 159.503 142.969C159.503 142.01 159.159 141.318 158.472 140.891C157.795 140.453 156.821 140.234 155.55 140.234C154.081 140.234 153.04 140.63 152.425 141.422C152.081 141.859 151.857 142.51 151.753 143.375H149.128C149.18 141.312 149.847 139.88 151.128 139.078C152.42 138.266 153.915 137.859 155.613 137.859C157.581 137.859 159.18 138.234 160.409 138.984C161.628 139.734 162.238 140.901 162.238 142.484V152.125C162.238 152.417 162.295 152.651 162.409 152.828C162.534 153.005 162.79 153.094 163.175 153.094C163.3 153.094 163.441 153.089 163.597 153.078C163.753 153.057 163.92 153.031 164.097 153V155.078C163.659 155.203 163.326 155.281 163.097 155.312C162.868 155.344 162.555 155.359 162.159 155.359C161.191 155.359 160.488 155.016 160.05 154.328C159.821 153.964 159.659 153.448 159.566 152.781C158.993 153.531 158.17 154.182 157.097 154.734C156.024 155.286 154.842 155.562 153.55 155.562C151.998 155.562 150.727 155.094 149.738 154.156C148.758 153.208 148.269 152.026 148.269 150.609C148.269 149.057 148.753 147.854 149.722 147C150.691 146.146 151.961 145.62 153.534 145.422L158.019 144.859ZM164.943 138.266H167.614V140.641C168.406 139.661 169.245 138.958 170.13 138.531C171.015 138.104 172 137.891 173.083 137.891C175.458 137.891 177.062 138.719 177.896 140.375C178.354 141.281 178.583 142.578 178.583 144.266V155H175.724V144.453C175.724 143.432 175.573 142.609 175.271 141.984C174.771 140.943 173.864 140.422 172.552 140.422C171.885 140.422 171.338 140.49 170.911 140.625C170.14 140.854 169.463 141.312 168.88 142C168.411 142.552 168.104 143.125 167.958 143.719C167.823 144.302 167.755 145.141 167.755 146.234V155H164.943V138.266ZM187.821 138.344H190.681V155H187.821V138.344ZM187.821 132.047H190.681V135.234H187.821V132.047ZM193.026 138.266H195.807V140.641C196.474 139.818 197.078 139.219 197.62 138.844C198.547 138.208 199.599 137.891 200.776 137.891C202.11 137.891 203.182 138.219 203.995 138.875C204.453 139.25 204.87 139.802 205.245 140.531C205.87 139.635 206.604 138.974 207.448 138.547C208.292 138.109 209.24 137.891 210.292 137.891C212.542 137.891 214.073 138.703 214.886 140.328C215.323 141.203 215.542 142.38 215.542 143.859V155H212.62V143.375C212.62 142.26 212.339 141.495 211.776 141.078C211.224 140.661 210.547 140.453 209.745 140.453C208.641 140.453 207.688 140.823 206.886 141.562C206.094 142.302 205.698 143.536 205.698 145.266V155H202.839V144.078C202.839 142.943 202.703 142.115 202.432 141.594C202.005 140.812 201.209 140.422 200.042 140.422C198.979 140.422 198.011 140.833 197.136 141.656C196.271 142.479 195.839 143.969 195.839 146.125V155H193.026V138.266ZM217.762 138.266H220.544V140.641C221.21 139.818 221.815 139.219 222.356 138.844C223.283 138.208 224.335 137.891 225.512 137.891C226.846 137.891 227.919 138.219 228.731 138.875C229.19 139.25 229.606 139.802 229.981 140.531C230.606 139.635 231.341 138.974 232.184 138.547C233.028 138.109 233.976 137.891 235.028 137.891C237.278 137.891 238.809 138.703 239.622 140.328C240.059 141.203 240.278 142.38 240.278 143.859V155H237.356V143.375C237.356 142.26 237.075 141.495 236.512 141.078C235.96 140.661 235.283 140.453 234.481 140.453C233.377 140.453 232.424 140.823 231.622 141.562C230.83 142.302 230.434 143.536 230.434 145.266V155H227.575V144.078C227.575 142.943 227.44 142.115 227.169 141.594C226.742 140.812 225.945 140.422 224.778 140.422C223.716 140.422 222.747 140.833 221.872 141.656C221.007 142.479 220.575 143.969 220.575 146.125V155H217.762V138.266ZM249.467 137.891C250.655 137.891 251.806 138.172 252.921 138.734C254.035 139.286 254.884 140.005 255.467 140.891C256.03 141.734 256.405 142.719 256.592 143.844C256.759 144.615 256.842 145.844 256.842 147.531H244.577C244.629 149.229 245.03 150.594 245.78 151.625C246.53 152.646 247.691 153.156 249.264 153.156C250.733 153.156 251.905 152.672 252.78 151.703C253.28 151.141 253.634 150.49 253.842 149.75H256.608C256.535 150.365 256.29 151.052 255.874 151.812C255.467 152.562 255.009 153.177 254.499 153.656C253.645 154.49 252.587 155.052 251.327 155.344C250.65 155.51 249.884 155.594 249.03 155.594C246.947 155.594 245.181 154.839 243.733 153.328C242.285 151.807 241.561 149.682 241.561 146.953C241.561 144.266 242.29 142.083 243.749 140.406C245.207 138.729 247.113 137.891 249.467 137.891ZM253.952 145.297C253.837 144.078 253.572 143.104 253.155 142.375C252.384 141.021 251.098 140.344 249.296 140.344C248.004 140.344 246.921 140.812 246.046 141.75C245.171 142.677 244.707 143.859 244.655 145.297H253.952ZM258.469 138.266H261.141V141.156C261.36 140.594 261.896 139.911 262.751 139.109C263.605 138.297 264.589 137.891 265.704 137.891C265.756 137.891 265.844 137.896 265.969 137.906C266.094 137.917 266.308 137.938 266.61 137.969V140.938C266.443 140.906 266.287 140.885 266.141 140.875C266.006 140.865 265.855 140.859 265.688 140.859C264.271 140.859 263.183 141.318 262.423 142.234C261.662 143.141 261.282 144.188 261.282 145.375V155H258.469V138.266ZM268.799 149.75C268.883 150.688 269.117 151.406 269.503 151.906C270.211 152.812 271.44 153.266 273.19 153.266C274.232 153.266 275.148 153.042 275.94 152.594C276.732 152.135 277.128 151.432 277.128 150.484C277.128 149.766 276.81 149.219 276.174 148.844C275.768 148.615 274.966 148.349 273.768 148.047L271.534 147.484C270.107 147.13 269.055 146.734 268.378 146.297C267.169 145.536 266.565 144.484 266.565 143.141C266.565 141.557 267.133 140.276 268.268 139.297C269.414 138.318 270.95 137.828 272.878 137.828C275.398 137.828 277.216 138.568 278.331 140.047C279.029 140.984 279.367 141.995 279.346 143.078H276.69C276.638 142.443 276.414 141.865 276.018 141.344C275.372 140.604 274.253 140.234 272.659 140.234C271.596 140.234 270.789 140.438 270.237 140.844C269.695 141.25 269.424 141.786 269.424 142.453C269.424 143.182 269.784 143.766 270.503 144.203C270.919 144.464 271.534 144.693 272.346 144.891L274.206 145.344C276.226 145.833 277.581 146.307 278.268 146.766C279.362 147.484 279.909 148.615 279.909 150.156C279.909 151.646 279.341 152.932 278.206 154.016C277.081 155.099 275.362 155.641 273.049 155.641C270.56 155.641 268.794 155.078 267.753 153.953C266.721 152.818 266.169 151.417 266.096 149.75H268.799ZM281.207 138.344H284.067V155H281.207V138.344ZM281.207 132.047H284.067V135.234H281.207V132.047ZM287.788 138.266L292.256 151.891L296.928 138.266H300.006L293.694 155H290.694L284.522 138.266H287.788ZM307.461 137.891C308.649 137.891 309.8 138.172 310.914 138.734C312.029 139.286 312.878 140.005 313.461 140.891C314.024 141.734 314.399 142.719 314.586 143.844C314.753 144.615 314.836 145.844 314.836 147.531H302.571C302.623 149.229 303.024 150.594 303.774 151.625C304.524 152.646 305.685 153.156 307.258 153.156C308.727 153.156 309.899 152.672 310.774 151.703C311.274 151.141 311.628 150.49 311.836 149.75H314.602C314.529 150.365 314.284 151.052 313.867 151.812C313.461 152.562 313.003 153.177 312.492 153.656C311.638 154.49 310.581 155.052 309.321 155.344C308.644 155.51 307.878 155.594 307.024 155.594C304.94 155.594 303.175 154.839 301.727 153.328C300.279 151.807 299.555 149.682 299.555 146.953C299.555 144.266 300.284 142.083 301.742 140.406C303.201 138.729 305.107 137.891 307.461 137.891ZM311.946 145.297C311.831 144.078 311.565 143.104 311.149 142.375C310.378 141.021 309.091 140.344 307.289 140.344C305.998 140.344 304.914 140.812 304.039 141.75C303.164 142.677 302.701 143.859 302.649 145.297H311.946ZM326.184 135.297H323.371V132.047H326.184V135.297ZM320.715 159.234C321.975 159.193 322.731 159.078 322.981 158.891C323.241 158.714 323.371 158.146 323.371 157.188V138.344H326.184V157.484C326.184 158.703 325.986 159.615 325.59 160.219C324.934 161.24 323.689 161.75 321.856 161.75C321.72 161.75 321.574 161.745 321.418 161.734C321.272 161.724 321.038 161.703 320.715 161.672V159.234ZM335.217 153.188C337.081 153.188 338.358 152.484 339.045 151.078C339.743 149.661 340.092 148.089 340.092 146.359C340.092 144.797 339.842 143.526 339.342 142.547C338.55 141.005 337.186 140.234 335.248 140.234C333.529 140.234 332.279 140.891 331.498 142.203C330.717 143.516 330.326 145.099 330.326 146.953C330.326 148.734 330.717 150.219 331.498 151.406C332.279 152.594 333.519 153.188 335.217 153.188ZM335.326 137.781C337.483 137.781 339.305 138.5 340.795 139.938C342.285 141.375 343.029 143.49 343.029 146.281C343.029 148.979 342.373 151.208 341.061 152.969C339.748 154.729 337.712 155.609 334.951 155.609C332.649 155.609 330.821 154.833 329.467 153.281C328.113 151.719 327.436 149.625 327.436 147C327.436 144.188 328.149 141.948 329.576 140.281C331.003 138.615 332.92 137.781 335.326 137.781ZM347.281 138.266V149.375C347.281 150.229 347.417 150.927 347.688 151.469C348.188 152.469 349.12 152.969 350.484 152.969C352.443 152.969 353.776 152.094 354.484 150.344C354.87 149.406 355.062 148.12 355.062 146.484V138.266H357.875V155H355.219L355.25 152.531C354.885 153.167 354.432 153.703 353.891 154.141C352.818 155.016 351.516 155.453 349.984 155.453C347.599 155.453 345.974 154.656 345.109 153.062C344.641 152.208 344.406 151.068 344.406 149.641V138.266H347.281ZM360.439 138.266H363.111V141.156C363.33 140.594 363.866 139.911 364.721 139.109C365.575 138.297 366.559 137.891 367.674 137.891C367.726 137.891 367.814 137.896 367.939 137.906C368.064 137.917 368.278 137.938 368.58 137.969V140.938C368.413 140.906 368.257 140.885 368.111 140.875C367.976 140.865 367.825 140.859 367.658 140.859C366.241 140.859 365.153 141.318 364.392 142.234C363.632 143.141 363.252 144.188 363.252 145.375V155H360.439V138.266ZM369.098 138.266H371.769V140.641C372.561 139.661 373.4 138.958 374.285 138.531C375.17 138.104 376.155 137.891 377.238 137.891C379.613 137.891 381.217 138.719 382.051 140.375C382.509 141.281 382.738 142.578 382.738 144.266V155H379.879V144.453C379.879 143.432 379.728 142.609 379.426 141.984C378.926 140.943 378.019 140.422 376.707 140.422C376.04 140.422 375.493 140.49 375.066 140.625C374.295 140.854 373.618 141.312 373.035 142C372.566 142.552 372.259 143.125 372.113 143.719C371.978 144.302 371.91 145.141 371.91 146.234V155H369.098V138.266ZM391.959 137.891C393.146 137.891 394.297 138.172 395.412 138.734C396.526 139.286 397.375 140.005 397.959 140.891C398.521 141.734 398.896 142.719 399.084 143.844C399.25 144.615 399.334 145.844 399.334 147.531H387.068C387.12 149.229 387.521 150.594 388.271 151.625C389.021 152.646 390.183 153.156 391.756 153.156C393.224 153.156 394.396 152.672 395.271 151.703C395.771 151.141 396.125 150.49 396.334 149.75H399.099C399.026 150.365 398.782 151.052 398.365 151.812C397.959 152.562 397.5 153.177 396.99 153.656C396.136 154.49 395.079 155.052 393.818 155.344C393.141 155.51 392.375 155.594 391.521 155.594C389.438 155.594 387.672 154.839 386.224 153.328C384.776 151.807 384.052 149.682 384.052 146.953C384.052 144.266 384.782 142.083 386.24 140.406C387.698 138.729 389.605 137.891 391.959 137.891ZM396.443 145.297C396.329 144.078 396.063 143.104 395.646 142.375C394.875 141.021 393.589 140.344 391.787 140.344C390.495 140.344 389.412 140.812 388.537 141.75C387.662 142.677 387.198 143.859 387.146 145.297H396.443ZM411.336 138.266H414.445C414.049 139.339 413.169 141.786 411.804 145.609C410.784 148.484 409.929 150.828 409.242 152.641C407.617 156.911 406.471 159.516 405.804 160.453C405.138 161.391 403.992 161.859 402.367 161.859C401.971 161.859 401.664 161.844 401.445 161.812C401.237 161.781 400.976 161.724 400.664 161.641V159.078C401.153 159.214 401.508 159.297 401.726 159.328C401.945 159.359 402.138 159.375 402.304 159.375C402.825 159.375 403.205 159.286 403.445 159.109C403.695 158.943 403.903 158.734 404.07 158.484C404.122 158.401 404.31 157.974 404.633 157.203C404.955 156.432 405.19 155.859 405.336 155.484L399.148 138.266H402.336L406.82 151.891L411.336 138.266ZM422.511 133.594H425.355V138.266H428.027V140.562H425.355V151.484C425.355 152.068 425.553 152.458 425.949 152.656C426.168 152.771 426.532 152.828 427.043 152.828C427.178 152.828 427.324 152.828 427.48 152.828C427.636 152.818 427.819 152.802 428.027 152.781V155C427.704 155.094 427.365 155.161 427.011 155.203C426.668 155.245 426.293 155.266 425.886 155.266C424.574 155.266 423.683 154.932 423.214 154.266C422.746 153.589 422.511 152.714 422.511 151.641V140.562H420.246V138.266H422.511V133.594ZM428.935 131.969H431.747V140.531C432.414 139.688 433.013 139.094 433.544 138.75C434.451 138.156 435.581 137.859 436.935 137.859C439.362 137.859 441.008 138.708 441.872 140.406C442.341 141.333 442.576 142.62 442.576 144.266V155H439.685V144.453C439.685 143.224 439.529 142.323 439.216 141.75C438.706 140.833 437.747 140.375 436.341 140.375C435.175 140.375 434.117 140.776 433.169 141.578C432.221 142.38 431.747 143.896 431.747 146.125V155H428.935V131.969ZM444.906 138.266H447.578V141.156C447.796 140.594 448.333 139.911 449.187 139.109C450.041 138.297 451.025 137.891 452.14 137.891C452.192 137.891 452.281 137.896 452.406 137.906C452.531 137.917 452.744 137.938 453.046 137.969V140.938C452.88 140.906 452.723 140.885 452.578 140.875C452.442 140.865 452.291 140.859 452.124 140.859C450.708 140.859 449.619 141.318 448.859 142.234C448.098 143.141 447.718 144.188 447.718 145.375V155H444.906V138.266ZM460.204 153.188C462.069 153.188 463.345 152.484 464.033 151.078C464.73 149.661 465.079 148.089 465.079 146.359C465.079 144.797 464.829 143.526 464.329 142.547C463.538 141.005 462.173 140.234 460.236 140.234C458.517 140.234 457.267 140.891 456.486 142.203C455.704 143.516 455.314 145.099 455.314 146.953C455.314 148.734 455.704 150.219 456.486 151.406C457.267 152.594 458.506 153.188 460.204 153.188ZM460.314 137.781C462.47 137.781 464.293 138.5 465.783 139.938C467.272 141.375 468.017 143.49 468.017 146.281C468.017 148.979 467.361 151.208 466.048 152.969C464.736 154.729 462.699 155.609 459.939 155.609C457.637 155.609 455.809 154.833 454.454 153.281C453.1 151.719 452.423 149.625 452.423 147C452.423 144.188 453.137 141.948 454.564 140.281C455.991 138.615 457.908 137.781 460.314 137.781ZM472.269 138.266V149.375C472.269 150.229 472.404 150.927 472.675 151.469C473.175 152.469 474.107 152.969 475.472 152.969C477.43 152.969 478.764 152.094 479.472 150.344C479.857 149.406 480.05 148.12 480.05 146.484V138.266H482.862V155H480.206L480.237 152.531C479.873 153.167 479.42 153.703 478.878 154.141C477.805 155.016 476.503 155.453 474.972 155.453C472.586 155.453 470.961 154.656 470.097 153.062C469.628 152.208 469.394 151.068 469.394 149.641V138.266H472.269ZM491.255 137.969C492.568 137.969 493.713 138.292 494.693 138.938C495.224 139.302 495.765 139.833 496.318 140.531V138.422H498.911V153.641C498.911 155.766 498.599 157.443 497.974 158.672C496.807 160.943 494.604 162.078 491.364 162.078C489.562 162.078 488.047 161.672 486.818 160.859C485.588 160.057 484.901 158.797 484.755 157.078H487.614C487.75 157.828 488.021 158.406 488.427 158.812C489.062 159.438 490.062 159.75 491.427 159.75C493.583 159.75 494.995 158.99 495.661 157.469C496.057 156.573 496.239 154.974 496.208 152.672C495.646 153.526 494.969 154.161 494.177 154.578C493.385 154.995 492.338 155.203 491.036 155.203C489.224 155.203 487.635 154.562 486.271 153.281C484.916 151.99 484.239 149.859 484.239 146.891C484.239 144.089 484.922 141.901 486.286 140.328C487.661 138.755 489.318 137.969 491.255 137.969ZM496.318 146.562C496.318 144.49 495.89 142.953 495.036 141.953C494.182 140.953 493.094 140.453 491.771 140.453C489.791 140.453 488.437 141.38 487.708 143.234C487.323 144.224 487.13 145.521 487.13 147.125C487.13 149.01 487.51 150.448 488.271 151.438C489.041 152.417 490.073 152.906 491.364 152.906C493.385 152.906 494.807 151.995 495.63 150.172C496.088 149.141 496.318 147.938 496.318 146.562ZM501.241 131.969H504.054V140.531C504.72 139.688 505.319 139.094 505.851 138.75C506.757 138.156 507.887 137.859 509.241 137.859C511.668 137.859 513.314 138.708 514.179 140.406C514.647 141.333 514.882 142.62 514.882 144.266V155H511.991V144.453C511.991 143.224 511.835 142.323 511.522 141.75C511.012 140.833 510.054 140.375 508.647 140.375C507.481 140.375 506.424 140.776 505.476 141.578C504.528 142.38 504.054 143.896 504.054 146.125V155H501.241V131.969ZM524.417 132.047H528.87L535.464 151.453L542.011 132.047H546.417V155H543.464V141.453C543.464 140.984 543.474 140.208 543.495 139.125C543.516 138.042 543.526 136.88 543.526 135.641L536.979 155H533.901L527.307 135.641V136.344C527.307 136.906 527.318 137.766 527.339 138.922C527.37 140.068 527.386 140.911 527.386 141.453V155H524.417V132.047ZM551.013 150.547C551.013 151.359 551.309 152 551.903 152.469C552.497 152.938 553.2 153.172 554.013 153.172C555.002 153.172 555.96 152.943 556.888 152.484C558.45 151.724 559.231 150.479 559.231 148.75V146.484C558.888 146.703 558.445 146.885 557.903 147.031C557.361 147.177 556.83 147.281 556.309 147.344L554.606 147.562C553.585 147.698 552.82 147.911 552.309 148.203C551.445 148.693 551.013 149.474 551.013 150.547ZM557.825 144.859C558.471 144.776 558.903 144.505 559.122 144.047C559.247 143.797 559.309 143.438 559.309 142.969C559.309 142.01 558.966 141.318 558.278 140.891C557.601 140.453 556.627 140.234 555.356 140.234C553.888 140.234 552.846 140.63 552.231 141.422C551.888 141.859 551.664 142.51 551.559 143.375H548.934C548.986 141.312 549.653 139.88 550.934 139.078C552.226 138.266 553.721 137.859 555.419 137.859C557.388 137.859 558.986 138.234 560.216 138.984C561.434 139.734 562.044 140.901 562.044 142.484V152.125C562.044 152.417 562.101 152.651 562.216 152.828C562.341 153.005 562.596 153.094 562.981 153.094C563.106 153.094 563.247 153.089 563.403 153.078C563.559 153.057 563.726 153.031 563.903 153V155.078C563.466 155.203 563.132 155.281 562.903 155.312C562.674 155.344 562.361 155.359 561.966 155.359C560.997 155.359 560.294 155.016 559.856 154.328C559.627 153.964 559.466 153.448 559.372 152.781C558.799 153.531 557.976 154.182 556.903 154.734C555.83 155.286 554.648 155.562 553.356 155.562C551.804 155.562 550.533 155.094 549.544 154.156C548.565 153.208 548.075 152.026 548.075 150.609C548.075 149.057 548.559 147.854 549.528 147C550.497 146.146 551.768 145.62 553.341 145.422L557.825 144.859ZM564.827 138.266H567.499V141.156C567.718 140.594 568.254 139.911 569.108 139.109C569.962 138.297 570.947 137.891 572.061 137.891C572.113 137.891 572.202 137.896 572.327 137.906C572.452 137.917 572.665 137.938 572.968 137.969V140.938C572.801 140.906 572.645 140.885 572.499 140.875C572.363 140.865 572.212 140.859 572.046 140.859C570.629 140.859 569.54 141.318 568.78 142.234C568.02 143.141 567.639 144.188 567.639 145.375V155H564.827V138.266ZM573.422 132.047H576.126V145.375L583.344 138.266H586.938L580.532 144.531L587.297 155H583.704L578.485 146.562L576.126 148.719V155H573.422V132.047ZM587.565 131.969H590.378V140.531C591.044 139.688 591.643 139.094 592.174 138.75C593.081 138.156 594.211 137.859 595.565 137.859C597.992 137.859 599.638 138.708 600.503 140.406C600.971 141.333 601.206 142.62 601.206 144.266V155H598.315V144.453C598.315 143.224 598.159 142.323 597.846 141.75C597.336 140.833 596.378 140.375 594.971 140.375C593.805 140.375 592.747 140.776 591.799 141.578C590.851 142.38 590.378 143.896 590.378 146.125V155H587.565V131.969ZM605.614 150.547C605.614 151.359 605.911 152 606.504 152.469C607.098 152.938 607.801 153.172 608.614 153.172C609.603 153.172 610.562 152.943 611.489 152.484C613.051 151.724 613.833 150.479 613.833 148.75V146.484C613.489 146.703 613.046 146.885 612.504 147.031C611.963 147.177 611.431 147.281 610.911 147.344L609.208 147.562C608.187 147.698 607.421 147.911 606.911 148.203C606.046 148.693 605.614 149.474 605.614 150.547ZM612.426 144.859C613.072 144.776 613.504 144.505 613.723 144.047C613.848 143.797 613.911 143.438 613.911 142.969C613.911 142.01 613.567 141.318 612.879 140.891C612.202 140.453 611.228 140.234 609.958 140.234C608.489 140.234 607.447 140.63 606.833 141.422C606.489 141.859 606.265 142.51 606.161 143.375H603.536C603.588 141.312 604.254 139.88 605.536 139.078C606.827 138.266 608.322 137.859 610.02 137.859C611.989 137.859 613.588 138.234 614.817 138.984C616.036 139.734 616.645 140.901 616.645 142.484V152.125C616.645 152.417 616.702 152.651 616.817 152.828C616.942 153.005 617.197 153.094 617.583 153.094C617.708 153.094 617.848 153.089 618.004 153.078C618.161 153.057 618.327 153.031 618.504 153V155.078C618.067 155.203 617.734 155.281 617.504 155.312C617.275 155.344 616.963 155.359 616.567 155.359C615.598 155.359 614.895 155.016 614.458 154.328C614.228 153.964 614.067 153.448 613.973 152.781C613.4 153.531 612.577 154.182 611.504 154.734C610.431 155.286 609.249 155.562 607.958 155.562C606.405 155.562 605.135 155.094 604.145 154.156C603.166 153.208 602.676 152.026 602.676 150.609C602.676 149.057 603.161 147.854 604.129 147C605.098 146.146 606.369 145.62 607.942 145.422L612.426 144.859ZM619.35 138.266H622.131V140.641C622.798 139.818 623.402 139.219 623.944 138.844C624.871 138.208 625.923 137.891 627.1 137.891C628.433 137.891 629.506 138.219 630.319 138.875C630.777 139.25 631.194 139.802 631.569 140.531C632.194 139.635 632.928 138.974 633.772 138.547C634.616 138.109 635.564 137.891 636.616 137.891C638.866 137.891 640.397 138.703 641.209 140.328C641.647 141.203 641.866 142.38 641.866 143.859V155H638.944V143.375C638.944 142.26 638.662 141.495 638.1 141.078C637.548 140.661 636.871 140.453 636.069 140.453C634.965 140.453 634.011 140.823 633.209 141.562C632.418 142.302 632.022 143.536 632.022 145.266V155H629.162V144.078C629.162 142.943 629.027 142.115 628.756 141.594C628.329 140.812 627.532 140.422 626.366 140.422C625.303 140.422 624.334 140.833 623.459 141.656C622.595 142.479 622.162 143.969 622.162 146.125V155H619.35V138.266ZM647.305 132.047L646.789 141.234H644.977L644.461 132.047H647.305ZM649.963 149.75C650.046 150.688 650.281 151.406 650.666 151.906C651.375 152.812 652.604 153.266 654.354 153.266C655.395 153.266 656.312 153.042 657.104 152.594C657.895 152.135 658.291 151.432 658.291 150.484C658.291 149.766 657.974 149.219 657.338 148.844C656.932 148.615 656.13 148.349 654.932 148.047L652.698 147.484C651.27 147.13 650.218 146.734 649.541 146.297C648.333 145.536 647.729 144.484 647.729 143.141C647.729 141.557 648.296 140.276 649.432 139.297C650.578 138.318 652.114 137.828 654.041 137.828C656.562 137.828 658.38 138.568 659.494 140.047C660.192 140.984 660.531 141.995 660.51 143.078H657.854C657.802 142.443 657.578 141.865 657.182 141.344C656.536 140.604 655.416 140.234 653.823 140.234C652.76 140.234 651.953 140.438 651.401 140.844C650.859 141.25 650.588 141.786 650.588 142.453C650.588 143.182 650.948 143.766 651.666 144.203C652.083 144.464 652.698 144.693 653.51 144.891L655.369 145.344C657.39 145.833 658.744 146.307 659.432 146.766C660.526 147.484 661.073 148.615 661.073 150.156C661.073 151.646 660.505 152.932 659.369 154.016C658.244 155.099 656.526 155.641 654.213 155.641C651.724 155.641 649.958 155.078 648.916 153.953C647.885 152.818 647.333 151.417 647.26 149.75H649.963ZM669.92 133.594H672.764V138.266H675.436V140.562H672.764V151.484C672.764 152.068 672.962 152.458 673.357 152.656C673.576 152.771 673.941 152.828 674.451 152.828C674.587 152.828 674.732 152.828 674.889 152.828C675.045 152.818 675.227 152.802 675.436 152.781V155C675.113 155.094 674.774 155.161 674.42 155.203C674.076 155.245 673.701 155.266 673.295 155.266C671.982 155.266 671.092 154.932 670.623 154.266C670.154 153.589 669.92 152.714 669.92 151.641V140.562H667.654V138.266H669.92V133.594ZM676.422 138.266H679.094V141.156C679.312 140.594 679.849 139.911 680.703 139.109C681.557 138.297 682.542 137.891 683.656 137.891C683.708 137.891 683.797 137.896 683.922 137.906C684.047 137.917 684.26 137.938 684.562 137.969V140.938C684.396 140.906 684.24 140.885 684.094 140.875C683.958 140.865 683.807 140.859 683.641 140.859C682.224 140.859 681.135 141.318 680.375 142.234C679.615 143.141 679.234 144.188 679.234 145.375V155H676.422V138.266ZM687.236 150.547C687.236 151.359 687.533 152 688.127 152.469C688.721 152.938 689.424 153.172 690.236 153.172C691.226 153.172 692.184 152.943 693.111 152.484C694.674 151.724 695.455 150.479 695.455 148.75V146.484C695.111 146.703 694.669 146.885 694.127 147.031C693.585 147.177 693.054 147.281 692.533 147.344L690.83 147.562C689.809 147.698 689.044 147.911 688.533 148.203C687.669 148.693 687.236 149.474 687.236 150.547ZM694.049 144.859C694.695 144.776 695.127 144.505 695.346 144.047C695.471 143.797 695.533 143.438 695.533 142.969C695.533 142.01 695.189 141.318 694.502 140.891C693.825 140.453 692.851 140.234 691.58 140.234C690.111 140.234 689.07 140.63 688.455 141.422C688.111 141.859 687.887 142.51 687.783 143.375H685.158C685.21 141.312 685.877 139.88 687.158 139.078C688.45 138.266 689.945 137.859 691.643 137.859C693.611 137.859 695.21 138.234 696.439 138.984C697.658 139.734 698.268 140.901 698.268 142.484V152.125C698.268 152.417 698.325 152.651 698.439 152.828C698.564 153.005 698.82 153.094 699.205 153.094C699.33 153.094 699.471 153.089 699.627 153.078C699.783 153.057 699.95 153.031 700.127 153V155.078C699.689 155.203 699.356 155.281 699.127 155.312C698.898 155.344 698.585 155.359 698.189 155.359C697.221 155.359 696.518 155.016 696.08 154.328C695.851 153.964 695.689 153.448 695.596 152.781C695.023 153.531 694.2 154.182 693.127 154.734C692.054 155.286 690.872 155.562 689.58 155.562C688.028 155.562 686.757 155.094 685.768 154.156C684.788 153.208 684.299 152.026 684.299 150.609C684.299 149.057 684.783 147.854 685.752 147C686.721 146.146 687.991 145.62 689.564 145.422L694.049 144.859ZM700.972 138.344H703.832V155H700.972V138.344ZM700.972 132.047H703.832V135.234H700.972V132.047ZM706.256 132.047H709.068V155H706.256V132.047ZM713.054 149.75C713.138 150.688 713.372 151.406 713.758 151.906C714.466 152.812 715.695 153.266 717.445 153.266C718.487 153.266 719.403 153.042 720.195 152.594C720.987 152.135 721.383 151.432 721.383 150.484C721.383 149.766 721.065 149.219 720.429 148.844C720.023 148.615 719.221 148.349 718.023 148.047L715.789 147.484C714.362 147.13 713.31 146.734 712.633 146.297C711.424 145.536 710.82 144.484 710.82 143.141C710.82 141.557 711.388 140.276 712.523 139.297C713.669 138.318 715.205 137.828 717.133 137.828C719.653 137.828 721.471 138.568 722.586 140.047C723.284 140.984 723.622 141.995 723.601 143.078H720.945C720.893 142.443 720.669 141.865 720.273 141.344C719.627 140.604 718.508 140.234 716.914 140.234C715.851 140.234 715.044 140.438 714.492 140.844C713.95 141.25 713.679 141.786 713.679 142.453C713.679 143.182 714.039 143.766 714.758 144.203C715.174 144.464 715.789 144.693 716.601 144.891L718.461 145.344C720.481 145.833 721.836 146.307 722.523 146.766C723.617 147.484 724.164 148.615 724.164 150.156C724.164 151.646 723.596 152.932 722.461 154.016C721.336 155.099 719.617 155.641 717.304 155.641C714.815 155.641 713.049 155.078 712.008 153.953C710.976 152.818 710.424 151.417 710.351 149.75H713.054ZM726.056 158.266C726.775 158.141 727.28 157.635 727.572 156.75C727.728 156.281 727.806 155.828 727.806 155.391C727.806 155.318 727.801 155.25 727.791 155.188C727.791 155.135 727.78 155.073 727.759 155H726.056V151.594H729.4V154.75C729.4 155.99 729.15 157.078 728.65 158.016C728.15 158.953 727.285 159.531 726.056 159.75V158.266ZM740.732 138.266L743.951 151.453L747.216 138.266H750.372L753.654 151.375L757.076 138.266H759.888L755.029 155H752.107L748.701 142.047L745.404 155H742.482L737.654 138.266H740.732ZM760.64 131.969H763.453V140.531C764.119 139.688 764.718 139.094 765.249 138.75C766.156 138.156 767.286 137.859 768.64 137.859C771.067 137.859 772.713 138.708 773.578 140.406C774.046 141.333 774.281 142.62 774.281 144.266V155H771.39V144.453C771.39 143.224 771.234 142.323 770.921 141.75C770.411 140.833 769.453 140.375 768.046 140.375C766.88 140.375 765.822 140.776 764.874 141.578C763.926 142.38 763.453 143.896 763.453 146.125V155H760.64V131.969ZM783.501 137.891C784.689 137.891 785.84 138.172 786.954 138.734C788.069 139.286 788.918 140.005 789.501 140.891C790.064 141.734 790.439 142.719 790.626 143.844C790.793 144.615 790.876 145.844 790.876 147.531H778.611C778.663 149.229 779.064 150.594 779.814 151.625C780.564 152.646 781.725 153.156 783.298 153.156C784.767 153.156 785.939 152.672 786.814 151.703C787.314 151.141 787.668 150.49 787.876 149.75H790.642C790.569 150.365 790.324 151.052 789.908 151.812C789.501 152.562 789.043 153.177 788.533 153.656C787.678 154.49 786.621 155.052 785.361 155.344C784.684 155.51 783.918 155.594 783.064 155.594C780.98 155.594 779.215 154.839 777.767 153.328C776.319 151.807 775.595 149.682 775.595 146.953C775.595 144.266 776.324 142.083 777.783 140.406C779.241 138.729 781.147 137.891 783.501 137.891ZM787.986 145.297C787.871 144.078 787.605 143.104 787.189 142.375C786.418 141.021 785.131 140.344 783.329 140.344C782.038 140.344 780.954 140.812 780.079 141.75C779.204 142.677 778.741 143.859 778.689 145.297H787.986ZM792.503 138.266H795.175V141.156C795.394 140.594 795.93 139.911 796.784 139.109C797.639 138.297 798.623 137.891 799.737 137.891C799.79 137.891 799.878 137.896 800.003 137.906C800.128 137.917 800.342 137.938 800.644 137.969V140.938C800.477 140.906 800.321 140.885 800.175 140.875C800.04 140.865 799.889 140.859 799.722 140.859C798.305 140.859 797.217 141.318 796.456 142.234C795.696 143.141 795.316 144.188 795.316 145.375V155H792.503V138.266ZM808.13 137.891C809.318 137.891 810.469 138.172 811.583 138.734C812.698 139.286 813.547 140.005 814.13 140.891C814.693 141.734 815.068 142.719 815.255 143.844C815.422 144.615 815.505 145.844 815.505 147.531H803.239C803.291 149.229 803.693 150.594 804.443 151.625C805.193 152.646 806.354 153.156 807.927 153.156C809.396 153.156 810.568 152.672 811.443 151.703C811.943 151.141 812.297 150.49 812.505 149.75H815.271C815.198 150.365 814.953 151.052 814.536 151.812C814.13 152.562 813.672 153.177 813.161 153.656C812.307 154.49 811.25 155.052 809.989 155.344C809.312 155.51 808.547 155.594 807.693 155.594C805.609 155.594 803.844 154.839 802.396 153.328C800.948 151.807 800.224 149.682 800.224 146.953C800.224 144.266 800.953 142.083 802.411 140.406C803.87 138.729 805.776 137.891 808.13 137.891ZM812.614 145.297C812.5 144.078 812.234 143.104 811.818 142.375C811.047 141.021 809.76 140.344 807.958 140.344C806.666 140.344 805.583 140.812 804.708 141.75C803.833 142.677 803.37 143.859 803.318 145.297H812.614ZM824.04 131.969H826.852V140.531C827.519 139.688 828.118 139.094 828.649 138.75C829.556 138.156 830.686 137.859 832.04 137.859C834.467 137.859 836.113 138.708 836.977 140.406C837.446 141.333 837.681 142.62 837.681 144.266V155H834.79V144.453C834.79 143.224 834.634 142.323 834.321 141.75C833.811 140.833 832.852 140.375 831.446 140.375C830.28 140.375 829.222 140.776 828.274 141.578C827.326 142.38 826.852 143.896 826.852 146.125V155H824.04V131.969ZM839.932 138.344H842.792V155H839.932V138.344ZM839.932 132.047H842.792V135.234H839.932V132.047ZM846.809 149.75C846.893 150.688 847.127 151.406 847.513 151.906C848.221 152.812 849.45 153.266 851.2 153.266C852.242 153.266 853.158 153.042 853.95 152.594C854.742 152.135 855.138 151.432 855.138 150.484C855.138 149.766 854.82 149.219 854.184 148.844C853.778 148.615 852.976 148.349 851.778 148.047L849.544 147.484C848.117 147.13 847.065 146.734 846.388 146.297C845.179 145.536 844.575 144.484 844.575 143.141C844.575 141.557 845.143 140.276 846.278 139.297C847.424 138.318 848.96 137.828 850.888 137.828C853.408 137.828 855.226 138.568 856.341 140.047C857.039 140.984 857.377 141.995 857.356 143.078H854.7C854.648 142.443 854.424 141.865 854.028 141.344C853.382 140.604 852.263 140.234 850.669 140.234C849.606 140.234 848.799 140.438 848.247 140.844C847.705 141.25 847.434 141.786 847.434 142.453C847.434 143.182 847.794 143.766 848.513 144.203C848.929 144.464 849.544 144.693 850.356 144.891L852.216 145.344C854.236 145.833 855.591 146.307 856.278 146.766C857.372 147.484 857.919 148.615 857.919 150.156C857.919 151.646 857.351 152.932 856.216 154.016C855.091 155.099 853.372 155.641 851.059 155.641C848.57 155.641 846.804 155.078 845.763 153.953C844.731 152.818 844.179 151.417 844.106 149.75H846.809ZM859.78 133.594H862.624V138.266H865.296V140.562H862.624V151.484C862.624 152.068 862.822 152.458 863.218 152.656C863.436 152.771 863.801 152.828 864.311 152.828C864.447 152.828 864.593 152.828 864.749 152.828C864.905 152.818 865.087 152.802 865.296 152.781V155C864.973 155.094 864.634 155.161 864.28 155.203C863.936 155.245 863.561 155.266 863.155 155.266C861.843 155.266 860.952 154.932 860.483 154.266C860.014 153.589 859.78 152.714 859.78 151.641V140.562H857.514V138.266H859.78V133.594ZM872.844 153.188C874.709 153.188 875.985 152.484 876.672 151.078C877.37 149.661 877.719 148.089 877.719 146.359C877.719 144.797 877.469 143.526 876.969 142.547C876.178 141.005 874.813 140.234 872.876 140.234C871.157 140.234 869.907 140.891 869.126 142.203C868.344 143.516 867.954 145.099 867.954 146.953C867.954 148.734 868.344 150.219 869.126 151.406C869.907 152.594 871.146 153.188 872.844 153.188ZM872.954 137.781C875.11 137.781 876.933 138.5 878.422 139.938C879.912 141.375 880.657 143.49 880.657 146.281C880.657 148.979 880.001 151.208 878.688 152.969C877.376 154.729 875.339 155.609 872.579 155.609C870.277 155.609 868.449 154.833 867.094 153.281C865.74 151.719 865.063 149.625 865.063 147C865.063 144.188 865.777 141.948 867.204 140.281C868.631 138.615 870.547 137.781 872.954 137.781ZM882.174 138.266H884.846V141.156C885.065 140.594 885.601 139.911 886.456 139.109C887.31 138.297 888.294 137.891 889.409 137.891C889.461 137.891 889.549 137.896 889.674 137.906C889.799 137.917 890.013 137.938 890.315 137.969V140.938C890.148 140.906 889.992 140.885 889.846 140.875C889.711 140.865 889.56 140.859 889.393 140.859C887.976 140.859 886.888 141.318 886.128 142.234C885.367 143.141 884.987 144.188 884.987 145.375V155H882.174V138.266ZM901.286 138.266H904.395C903.999 139.339 903.119 141.786 901.754 145.609C900.734 148.484 899.879 150.828 899.192 152.641C897.567 156.911 896.421 159.516 895.754 160.453C895.088 161.391 893.942 161.859 892.317 161.859C891.921 161.859 891.614 161.844 891.395 161.812C891.187 161.781 890.926 161.724 890.614 161.641V159.078C891.103 159.214 891.458 159.297 891.676 159.328C891.895 159.359 892.088 159.375 892.254 159.375C892.775 159.375 893.155 159.286 893.395 159.109C893.645 158.943 893.853 158.734 894.02 158.484C894.072 158.401 894.26 157.974 894.583 157.203C894.905 156.432 895.14 155.859 895.286 155.484L889.098 138.266H892.286L896.77 151.891L901.286 138.266ZM914.055 150.547C914.055 151.359 914.352 152 914.946 152.469C915.539 152.938 916.242 153.172 917.055 153.172C918.045 153.172 919.003 152.943 919.93 152.484C921.492 151.724 922.274 150.479 922.274 148.75V146.484C921.93 146.703 921.487 146.885 920.946 147.031C920.404 147.177 919.873 147.281 919.352 147.344L917.649 147.562C916.628 147.698 915.862 147.911 915.352 148.203C914.487 148.693 914.055 149.474 914.055 150.547ZM920.867 144.859C921.513 144.776 921.946 144.505 922.164 144.047C922.289 143.797 922.352 143.438 922.352 142.969C922.352 142.01 922.008 141.318 921.321 140.891C920.644 140.453 919.67 140.234 918.399 140.234C916.93 140.234 915.888 140.63 915.274 141.422C914.93 141.859 914.706 142.51 914.602 143.375H911.977C912.029 141.312 912.696 139.88 913.977 139.078C915.269 138.266 916.763 137.859 918.461 137.859C920.43 137.859 922.029 138.234 923.258 138.984C924.477 139.734 925.086 140.901 925.086 142.484V152.125C925.086 152.417 925.144 152.651 925.258 152.828C925.383 153.005 925.638 153.094 926.024 153.094C926.149 153.094 926.289 153.089 926.446 153.078C926.602 153.057 926.769 153.031 926.946 153V155.078C926.508 155.203 926.175 155.281 925.946 155.312C925.716 155.344 925.404 155.359 925.008 155.359C924.039 155.359 923.336 155.016 922.899 154.328C922.67 153.964 922.508 153.448 922.414 152.781C921.841 153.531 921.019 154.182 919.946 154.734C918.873 155.286 917.69 155.562 916.399 155.562C914.847 155.562 913.576 155.094 912.586 154.156C911.607 153.208 911.117 152.026 911.117 150.609C911.117 149.057 911.602 147.854 912.571 147C913.539 146.146 914.81 145.62 916.383 145.422L920.867 144.859ZM927.791 138.266H930.463V140.641C931.255 139.661 932.093 138.958 932.979 138.531C933.864 138.104 934.849 137.891 935.932 137.891C938.307 137.891 939.911 138.719 940.744 140.375C941.203 141.281 941.432 142.578 941.432 144.266V155H938.573V144.453C938.573 143.432 938.421 142.609 938.119 141.984C937.619 140.943 936.713 140.422 935.401 140.422C934.734 140.422 934.187 140.49 933.76 140.625C932.989 140.854 932.312 141.312 931.729 142C931.26 142.552 930.953 143.125 930.807 143.719C930.671 144.302 930.604 145.141 930.604 146.234V155H927.791V138.266ZM945.465 146.828C945.465 148.62 945.845 150.12 946.606 151.328C947.366 152.536 948.585 153.141 950.262 153.141C951.564 153.141 952.632 152.583 953.465 151.469C954.309 150.344 954.731 148.734 954.731 146.641C954.731 144.526 954.298 142.964 953.434 141.953C952.569 140.932 951.501 140.422 950.231 140.422C948.814 140.422 947.663 140.964 946.778 142.047C945.903 143.13 945.465 144.724 945.465 146.828ZM949.699 137.969C950.981 137.969 952.054 138.24 952.918 138.781C953.418 139.094 953.986 139.641 954.621 140.422V131.969H957.324V155H954.793V152.672C954.137 153.703 953.361 154.448 952.465 154.906C951.569 155.365 950.543 155.594 949.387 155.594C947.522 155.594 945.908 154.812 944.543 153.25C943.179 151.677 942.496 149.589 942.496 146.984C942.496 144.547 943.116 142.438 944.356 140.656C945.606 138.865 947.387 137.969 949.699 137.969ZM966.562 138.266H969.234V140.641C970.026 139.661 970.865 138.958 971.75 138.531C972.635 138.104 973.62 137.891 974.703 137.891C977.078 137.891 978.682 138.719 979.516 140.375C979.974 141.281 980.203 142.578 980.203 144.266V155H977.344V144.453C977.344 143.432 977.193 142.609 976.891 141.984C976.391 140.943 975.484 140.422 974.172 140.422C973.505 140.422 972.958 140.49 972.531 140.625C971.76 140.854 971.083 141.312 970.5 142C970.031 142.552 969.724 143.125 969.578 143.719C969.443 144.302 969.375 145.141 969.375 146.234V155H966.562V138.266ZM984.611 150.547C984.611 151.359 984.908 152 985.502 152.469C986.096 152.938 986.799 153.172 987.611 153.172C988.601 153.172 989.559 152.943 990.486 152.484C992.049 151.724 992.83 150.479 992.83 148.75V146.484C992.486 146.703 992.044 146.885 991.502 147.031C990.96 147.177 990.429 147.281 989.908 147.344L988.205 147.562C987.184 147.698 986.419 147.911 985.908 148.203C985.044 148.693 984.611 149.474 984.611 150.547ZM991.424 144.859C992.07 144.776 992.502 144.505 992.721 144.047C992.846 143.797 992.908 143.438 992.908 142.969C992.908 142.01 992.564 141.318 991.877 140.891C991.2 140.453 990.226 140.234 988.955 140.234C987.486 140.234 986.445 140.63 985.83 141.422C985.486 141.859 985.262 142.51 985.158 143.375H982.533C982.585 141.312 983.252 139.88 984.533 139.078C985.825 138.266 987.32 137.859 989.018 137.859C990.986 137.859 992.585 138.234 993.814 138.984C995.033 139.734 995.643 140.901 995.643 142.484V152.125C995.643 152.417 995.7 152.651 995.814 152.828C995.939 153.005 996.195 153.094 996.58 153.094C996.705 153.094 996.846 153.089 997.002 153.078C997.158 153.057 997.325 153.031 997.502 153V155.078C997.064 155.203 996.731 155.281 996.502 155.312C996.273 155.344 995.96 155.359 995.564 155.359C994.596 155.359 993.893 155.016 993.455 154.328C993.226 153.964 993.064 153.448 992.971 152.781C992.398 153.531 991.575 154.182 990.502 154.734C989.429 155.286 988.247 155.562 986.955 155.562C985.403 155.562 984.132 155.094 983.143 154.156C982.163 153.208 981.674 152.026 981.674 150.609C981.674 149.057 982.158 147.854 983.127 147C984.096 146.146 985.366 145.62 986.939 145.422L991.424 144.859ZM998.91 133.594H1001.75V138.266H1004.43V140.562H1001.75V151.484C1001.75 152.068 1001.95 152.458 1002.35 152.656C1002.57 152.771 1002.93 152.828 1003.44 152.828C1003.58 152.828 1003.72 152.828 1003.88 152.828C1004.03 152.818 1004.22 152.802 1004.43 152.781V155C1004.1 155.094 1003.76 155.161 1003.41 155.203C1003.07 155.245 1002.69 155.266 1002.28 155.266C1000.97 155.266 1000.08 154.932 999.613 154.266C999.144 153.589 998.91 152.714 998.91 151.641V140.562H996.644V138.266H998.91V133.594ZM1008.15 138.266V149.375C1008.15 150.229 1008.28 150.927 1008.55 151.469C1009.05 152.469 1009.98 152.969 1011.35 152.969C1013.31 152.969 1014.64 152.094 1015.35 150.344C1015.73 149.406 1015.93 148.12 1015.93 146.484V138.266H1018.74V155H1016.08L1016.11 152.531C1015.75 153.167 1015.3 153.703 1014.76 154.141C1013.68 155.016 1012.38 155.453 1010.85 155.453C1008.46 155.453 1006.84 154.656 1005.97 153.062C1005.51 152.208 1005.27 151.068 1005.27 149.641V138.266H1008.15ZM1021.3 138.266H1023.98V141.156C1024.2 140.594 1024.73 139.911 1025.59 139.109C1026.44 138.297 1027.42 137.891 1028.54 137.891C1028.59 137.891 1028.68 137.896 1028.8 137.906C1028.93 137.917 1029.14 137.938 1029.45 137.969V140.938C1029.28 140.906 1029.12 140.885 1028.98 140.875C1028.84 140.865 1028.69 140.859 1028.52 140.859C1027.11 140.859 1026.02 141.318 1025.26 142.234C1024.5 143.141 1024.12 144.188 1024.12 145.375V155H1021.3V138.266ZM1036.93 137.891C1038.12 137.891 1039.27 138.172 1040.38 138.734C1041.5 139.286 1042.35 140.005 1042.93 140.891C1043.49 141.734 1043.87 142.719 1044.06 143.844C1044.22 144.615 1044.31 145.844 1044.31 147.531H1032.04C1032.09 149.229 1032.49 150.594 1033.24 151.625C1033.99 152.646 1035.16 153.156 1036.73 153.156C1038.2 153.156 1039.37 152.672 1040.24 151.703C1040.74 151.141 1041.1 150.49 1041.31 149.75H1044.07C1044 150.365 1043.75 151.052 1043.34 151.812C1042.93 152.562 1042.47 153.177 1041.96 153.656C1041.11 154.49 1040.05 155.052 1038.79 155.344C1038.11 155.51 1037.35 155.594 1036.49 155.594C1034.41 155.594 1032.64 154.839 1031.2 153.328C1029.75 151.807 1029.03 149.682 1029.03 146.953C1029.03 144.266 1029.75 142.083 1031.21 140.406C1032.67 138.729 1034.58 137.891 1036.93 137.891ZM1041.42 145.297C1041.3 144.078 1041.04 143.104 1040.62 142.375C1039.85 141.021 1038.56 140.344 1036.76 140.344C1035.47 140.344 1034.38 140.812 1033.51 141.75C1032.63 142.677 1032.17 143.859 1032.12 145.297H1041.42ZM1055.65 138.266V149.375C1055.65 150.229 1055.79 150.927 1056.06 151.469C1056.56 152.469 1057.49 152.969 1058.86 152.969C1060.82 152.969 1062.15 152.094 1062.86 150.344C1063.24 149.406 1063.44 148.12 1063.44 146.484V138.266H1066.25V155H1063.59L1063.62 152.531C1063.26 153.167 1062.8 153.703 1062.26 154.141C1061.19 155.016 1059.89 155.453 1058.36 155.453C1055.97 155.453 1054.35 154.656 1053.48 153.062C1053.01 152.208 1052.78 151.068 1052.78 149.641V138.266H1055.65ZM1068.73 138.266H1071.41V140.641C1072.2 139.661 1073.04 138.958 1073.92 138.531C1074.81 138.104 1075.79 137.891 1076.87 137.891C1079.25 137.891 1080.85 138.719 1081.69 140.375C1082.15 141.281 1082.37 142.578 1082.37 144.266V155H1079.52V144.453C1079.52 143.432 1079.36 142.609 1079.06 141.984C1078.56 140.943 1077.66 140.422 1076.34 140.422C1075.68 140.422 1075.13 140.49 1074.7 140.625C1073.93 140.854 1073.25 141.312 1072.67 142C1072.2 142.552 1071.9 143.125 1071.75 143.719C1071.61 144.302 1071.55 145.141 1071.55 146.234V155H1068.73V138.266ZM1085.33 135.719C1085.37 134.552 1085.57 133.698 1085.94 133.156C1086.59 132.198 1087.86 131.719 1089.74 131.719C1089.91 131.719 1090.09 131.724 1090.28 131.734C1090.47 131.745 1090.68 131.76 1090.92 131.781V134.344C1090.63 134.323 1090.42 134.312 1090.28 134.312C1090.16 134.302 1090.04 134.297 1089.92 134.297C1089.07 134.297 1088.56 134.521 1088.39 134.969C1088.23 135.406 1088.14 136.531 1088.14 138.344H1090.92V140.562H1088.11V155H1085.33V140.562H1083V138.344H1085.33V135.719ZM1098.25 153.188C1100.12 153.188 1101.39 152.484 1102.08 151.078C1102.78 149.661 1103.13 148.089 1103.13 146.359C1103.13 144.797 1102.88 143.526 1102.38 142.547C1101.59 141.005 1100.22 140.234 1098.28 140.234C1096.57 140.234 1095.32 140.891 1094.53 142.203C1093.75 143.516 1093.36 145.099 1093.36 146.953C1093.36 148.734 1093.75 150.219 1094.53 151.406C1095.32 152.594 1096.56 153.188 1098.25 153.188ZM1098.36 137.781C1100.52 137.781 1102.34 138.5 1103.83 139.938C1105.32 141.375 1106.07 143.49 1106.07 146.281C1106.07 148.979 1105.41 151.208 1104.1 152.969C1102.78 154.729 1100.75 155.609 1097.99 155.609C1095.69 155.609 1093.86 154.833 1092.5 153.281C1091.15 151.719 1090.47 149.625 1090.47 147C1090.47 144.188 1091.19 141.948 1092.61 140.281C1094.04 138.615 1095.96 137.781 1098.36 137.781ZM1107.58 132.047H1110.4V155H1107.58V132.047ZM1114.49 146.828C1114.49 148.62 1114.87 150.12 1115.63 151.328C1116.39 152.536 1117.61 153.141 1119.29 153.141C1120.59 153.141 1121.66 152.583 1122.49 151.469C1123.33 150.344 1123.76 148.734 1123.76 146.641C1123.76 144.526 1123.32 142.964 1122.46 141.953C1121.6 140.932 1120.53 140.422 1119.26 140.422C1117.84 140.422 1116.69 140.964 1115.8 142.047C1114.93 143.13 1114.49 144.724 1114.49 146.828ZM1118.73 137.969C1120.01 137.969 1121.08 138.24 1121.94 138.781C1122.44 139.094 1123.01 139.641 1123.65 140.422V131.969H1126.35V155H1123.82V152.672C1123.16 153.703 1122.39 154.448 1121.49 154.906C1120.6 155.365 1119.57 155.594 1118.41 155.594C1116.55 155.594 1114.93 154.812 1113.57 153.25C1112.2 151.677 1111.52 149.589 1111.52 146.984C1111.52 144.547 1112.14 142.438 1113.38 140.656C1114.63 138.865 1116.41 137.969 1118.73 137.969ZM1129.27 151.594H1132.54V155H1129.27V151.594Z" fill="black"/>
</svg>
