<svg width="1280" height="252" viewBox="0 0 1280 252" fill="none" xmlns="http://www.w3.org/2000/svg">
<path d="M322.08 127.8C322.32 127.08 322.92 126.48 323.64 126.36C329.52 125.28 331.32 124.44 333 118.32C335.28 110.52 343.44 83.88 343.44 77.64C343.44 73.8 340.68 73.2 337.68 73.2C336.72 73.2 336.36 72.6 336.72 71.76C337.2 70.92 338.16 70.32 339.12 70.32L350.04 70.2C352.92 70.2 354.36 72 353.64 74.64L348.24 95.28C351.72 88.44 360.96 70.8 369.72 70.8C376.56 70.8 378.36 77.52 378.36 83.04C378.36 85.8 378 88.44 377.4 91.08L371.04 115.08C370.56 117.24 369.6 119.4 369.6 121.56C369.6 122.88 370.2 124.44 371.64 124.44C373.68 124.44 375.72 119.88 376.8 117.36C377.04 116.52 377.88 116.16 378.6 116.28C379.44 116.52 379.8 117.12 379.44 117.84C376.92 123.48 374.76 129 367.44 129C363.36 129 360.36 127.32 360.36 122.88C360.36 119.88 361.44 117 362.16 114.12L367.92 92.04C368.64 89.16 369.12 86.16 369.12 83.04C369.12 80.88 368.88 76.68 365.88 76.68C365.16 76.68 364.44 76.8 363.72 77.16C360.24 78.84 347.16 100.56 345.72 105C344.52 108.84 341.64 118.44 341.64 122.16C341.64 125.4 344.76 126 347.28 126.48C348 126.6 348.36 127.08 348.12 127.8C348 128.52 347.4 129 346.68 129H323.04C322.32 129 321.96 128.52 322.08 127.8ZM377.786 117.96C377.786 101.64 397.106 93.12 411.266 94.56C412.706 88.68 414.626 82.8 414.626 76.8C414.626 74.04 414.266 72.6 411.266 72.6C404.906 72.6 398.546 81.24 396.266 87.72C395.666 89.4 394.226 90.6 392.426 90.6H390.746C387.986 90.6 386.546 88.8 387.626 86.4C391.706 77.04 401.186 69.24 411.506 69.24C418.826 69.24 422.666 73.68 422.666 80.88C422.666 83.16 422.186 85.44 421.706 87.72L413.666 118.68L413.306 121.44C413.306 122.64 413.666 124.44 415.226 124.44C417.266 124.44 419.186 120 420.266 117.36C420.626 116.52 421.346 116.16 422.186 116.28C422.906 116.52 423.266 117.12 422.906 117.84C420.506 123.48 418.226 129 410.906 129C406.826 129 403.826 127.32 403.826 122.88C403.826 121.68 404.066 120.36 404.306 119.16C400.466 124.32 394.706 129.84 387.866 129.84C381.266 129.84 377.786 123.96 377.786 117.96ZM393.746 122.4C397.946 122.4 402.506 117.12 404.906 114C408.266 109.8 409.106 102.72 410.306 97.56C409.706 97.44 409.106 97.44 408.506 97.44C399.746 97.44 387.506 103.92 387.506 113.88C387.506 117.48 389.426 122.4 393.746 122.4ZM423.065 123C423.065 120.12 423.785 117.48 424.505 114.84C427.985 101.16 431.225 87.36 434.705 73.68L427.625 73.8C426.785 73.8 426.425 73.32 426.665 72.48C426.905 71.64 427.625 71.16 428.465 71.04C436.745 69.96 443.705 60.12 447.545 53.4C447.905 52.92 448.385 52.56 448.985 52.56C449.465 52.56 449.825 52.92 449.585 53.52L444.905 70.32L455.465 70.2C456.425 70.2 456.785 70.8 456.545 71.76C456.305 72.72 455.465 73.32 454.505 73.32L443.945 73.56C442.505 78.96 441.425 84.6 439.985 90.12L432.905 117.12C432.545 118.56 432.305 120 432.305 121.44C432.305 123 432.785 124.92 434.705 124.92C437.345 124.92 440.105 122.28 442.025 120.24C442.505 119.76 442.985 119.88 443.225 120.6C443.345 121.2 443.225 122.04 442.745 122.64C439.625 126.24 434.585 129.72 429.905 129.72C425.465 129.72 423.065 127.56 423.065 123ZM447.155 110.88L455.075 80.64C455.315 79.44 455.675 78.24 455.675 76.92C455.675 73.68 452.555 73.2 449.915 72.84C449.195 72.72 448.835 72.24 448.955 71.52C449.195 70.68 449.795 70.2 450.515 70.2H462.275C465.155 70.2 466.475 72 465.755 74.76L456.635 109.8C455.915 112.44 455.435 115.2 455.435 117.84C455.435 120.24 456.035 125.28 459.275 125.28C467.555 125.28 482.795 85.44 482.795 77.04C482.795 73.68 479.795 73.2 477.155 72.84C476.435 72.72 476.195 72.12 476.315 71.4C476.555 70.68 477.275 70.2 477.995 70.2C481.715 70.32 485.555 70.32 489.275 70.44C492.155 70.44 493.475 72.24 492.755 75L481.475 118.68C481.235 119.64 480.995 120.6 480.995 121.56C480.995 122.88 481.475 124.44 483.035 124.44C485.075 124.44 486.995 120 488.075 117.36C488.435 116.52 489.155 116.16 489.995 116.28C490.715 116.52 491.075 117.12 490.715 117.84C488.315 123.48 486.035 129 478.715 129C474.635 129 471.635 127.32 471.635 122.88C471.635 119.16 473.195 114.72 474.155 111.12C470.915 118.08 464.795 129.6 455.795 129.6C449.075 129.6 446.195 123.96 446.195 117.96C446.195 115.56 446.555 113.16 447.155 110.88ZM482.888 127.8C483.008 127.08 483.608 126.48 484.328 126.36C489.728 125.28 492.008 124.68 493.688 118.32L502.688 83.76C503.168 81.84 503.648 79.92 503.648 78C503.648 74.28 501.368 73.2 498.368 72.96C497.528 72.84 497.168 72.36 497.288 71.52C497.528 70.68 498.128 70.08 498.968 70.08L510.848 69.96C513.728 69.96 515.168 71.76 514.448 74.4C513.008 79.8 511.568 85.2 510.128 90.6C513.128 84.84 521.288 70.32 528.608 70.32C533.648 70.32 536.048 75 536.048 79.56C536.048 84 533.288 90.72 528.008 90.72C525.488 90.72 524.408 88.44 524.408 86.16C524.408 82.08 527.528 78.36 527.528 75.84C527.528 75 526.328 75 525.728 75C519.848 75 507.848 101.04 505.808 107.52C505.088 109.56 502.448 120.48 502.448 122.16C502.448 125.4 505.448 126 508.088 126.48C508.808 126.6 509.048 127.08 508.928 127.8C508.688 128.52 508.088 129 507.368 129H483.728C483.008 129 482.648 128.52 482.888 127.8ZM527.362 111.24C527.362 94.8 539.242 69.6 558.202 69.6C565.522 69.6 572.362 75.24 572.362 82.68C572.362 86.16 570.802 88.92 568.402 91.2C560.602 98.88 548.962 98.04 539.002 99.24C538.402 102.36 538.042 105.6 538.042 108.84C538.042 115.2 539.722 122.52 547.522 122.52C556.402 122.52 564.202 114.6 568.522 107.28C568.882 106.8 569.482 106.56 570.082 106.68C570.682 106.8 570.922 107.28 570.682 107.88C565.162 118.68 556.882 129.72 543.562 129.72C532.282 129.72 527.362 121.8 527.362 111.24ZM563.362 80.4C563.362 76.56 561.442 72.72 557.122 72.72C545.962 72.72 541.882 87 539.842 95.64C548.962 94.32 563.362 92.76 563.362 80.4Z" fill="black"/>
<path d="M789.08 128.8C789.32 128.08 789.92 127.48 790.64 127.36C795.92 126.28 798.32 125.68 800 119.32L817.76 51.4C818.12 49.84 818.6 48.16 818.6 46.48C818.6 42.4 814.52 42.28 811.28 42.4C810.44 42.4 809.96 41.8 810.08 41.08C810.2 40.24 810.92 39.64 811.76 39.64L825.32 39.52C828.08 39.52 829.52 41.32 828.8 44.08L816.2 92.56C819.68 86.08 827.6 71.8 835.64 71.8C842.48 71.8 844.28 78.52 844.28 84.04C844.28 86.8 843.92 89.44 843.32 92.08L836.12 119.68C835.76 120.64 835.52 121.6 835.52 122.56C835.52 123.88 836.12 125.44 837.68 125.44C839.6 125.44 841.64 121 842.72 118.36C842.96 117.52 843.8 117.16 844.52 117.28C845.36 117.52 845.72 118.12 845.36 118.84C842.84 124.48 840.68 130 833.36 130C829.28 130 826.28 128.32 826.28 123.88C826.28 122.2 826.64 120.64 827 119.08L833.84 93.04C834.56 90.16 835.04 87.16 835.04 84.04C835.04 81.88 834.8 77.68 831.8 77.68C831.08 77.68 830.36 77.8 829.64 78.16C826.64 79.48 814.88 98.2 813.68 102.16C812.72 105.16 808.52 120.76 808.52 123.16C808.52 126.4 811.64 127 814.28 127.48C815 127.6 815.36 128.08 815.12 128.8C815 129.52 814.4 130 813.68 130H790.04C789.32 130 788.96 129.52 789.08 128.8ZM849.048 115.12C850.848 108.28 857.808 85.72 857.808 80.44C857.808 75.4 853.728 74.32 849.648 74.2C848.808 74.08 848.208 73.6 848.088 72.76C848.088 71.92 848.688 71.32 849.528 71.32L865.008 70.96C867.888 70.96 869.328 72.76 868.608 75.52L857.928 116.08C857.328 118.24 856.488 120.4 856.488 122.56C856.488 123.88 857.088 125.44 858.528 125.44C860.568 125.44 862.488 120.88 863.568 118.36C863.928 117.52 864.648 117.16 865.488 117.28C866.328 117.52 866.568 118.12 866.328 118.84C863.808 124.48 861.528 130 854.208 130C850.248 130 847.248 128.32 847.248 123.88C847.248 120.88 848.208 118 849.048 115.12ZM862.848 57.28C862.848 53.2 866.208 47.32 870.768 47.32C873.648 47.32 874.968 50.08 874.968 52.72C874.968 56.68 871.488 62.68 867.048 62.68C864.048 62.68 862.848 59.8 862.848 57.28ZM861.956 120.76C861.956 118.48 863.036 114.64 865.916 114.64C872.276 114.64 866.996 128.08 876.476 128.08C882.836 128.08 887.396 121.6 887.396 115.72C887.396 105.52 872.876 101.92 872.876 90.64C872.876 80.56 883.556 70.6 893.636 70.6C898.436 70.6 902.996 72.88 902.996 78.4C902.996 80.8 901.676 83.8 898.916 83.8C896.516 83.8 894.596 82.48 894.596 79.96C894.596 78.16 895.436 76.6 895.436 74.8C895.436 73.48 894.236 73.24 893.156 73.24C887.636 73.24 880.436 78.28 880.436 84.16C880.436 92.2 896.636 96.64 896.636 109.48C896.636 121.12 885.596 130.72 874.196 130.72C868.076 130.72 861.956 127.84 861.956 120.76ZM896.749 124C896.749 121.12 897.469 118.48 898.189 115.84C901.669 102.16 904.909 88.36 908.389 74.68L901.309 74.8C900.469 74.8 900.109 74.32 900.349 73.48C900.589 72.64 901.309 72.16 902.149 72.04C910.429 70.96 917.389 61.12 921.229 54.4C921.589 53.92 922.069 53.56 922.669 53.56C923.149 53.56 923.509 53.92 923.269 54.52L918.589 71.32L929.149 71.2C930.109 71.2 930.469 71.8 930.229 72.76C929.989 73.72 929.149 74.32 928.189 74.32L917.629 74.56C916.189 79.96 915.109 85.6 913.669 91.12L906.589 118.12C906.229 119.56 905.989 121 905.989 122.44C905.989 124 906.469 125.92 908.389 125.92C911.029 125.92 913.789 123.28 915.709 121.24C916.189 120.76 916.669 120.88 916.909 121.6C917.029 122.2 916.909 123.04 916.429 123.64C913.309 127.24 908.269 130.72 903.589 130.72C899.149 130.72 896.749 128.56 896.749 124ZM917.839 110.56C917.839 94.12 931.039 70.6 949.519 70.6C961.159 70.6 965.959 80.44 965.959 90.76C965.959 107.2 952.519 130.72 934.159 130.72C922.519 130.72 917.839 120.88 917.839 110.56ZM936.799 127.72C951.319 127.72 955.519 100.72 955.519 90.04C955.519 84.76 954.799 73.48 947.359 73.48C932.359 73.48 928.279 99.64 928.279 110.68C928.279 116.32 928.999 127.72 936.799 127.72ZM951.299 128.8C951.419 128.08 952.019 127.48 952.739 127.36C958.139 126.28 960.419 125.68 962.099 119.32L971.099 84.76C971.579 82.84 972.059 80.92 972.059 79C972.059 75.28 969.779 74.2 966.779 73.96C965.939 73.84 965.579 73.36 965.699 72.52C965.939 71.68 966.539 71.08 967.379 71.08L979.259 70.96C982.139 70.96 983.579 72.76 982.859 75.4C981.419 80.8 979.979 86.2 978.539 91.6C981.539 85.84 989.699 71.32 997.019 71.32C1002.06 71.32 1004.46 76 1004.46 80.56C1004.46 85 1001.7 91.72 996.419 91.72C993.899 91.72 992.819 89.44 992.819 87.16C992.819 83.08 995.939 79.36 995.939 76.84C995.939 76 994.739 76 994.139 76C988.259 76 976.259 102.04 974.219 108.52C973.499 110.56 970.859 121.48 970.859 123.16C970.859 126.4 973.859 127 976.499 127.48C977.219 127.6 977.459 128.08 977.339 128.8C977.099 129.52 976.499 130 975.779 130H952.139C951.419 130 951.059 129.52 951.299 128.8ZM977.412 145.24C977.412 142 980.172 139.36 983.412 139.36C989.172 139.36 989.412 146.68 996.132 146.68C1008.49 146.68 1023.25 128.08 1028.89 117.88C1024.09 123.28 1017.13 129.4 1009.57 129.4C1001.89 129.4 999.612 123.88 999.612 117.04C999.612 114.4 999.972 111.64 1000.57 109.12L1007.77 81.52C1008.13 80.56 1008.37 79.6 1008.37 78.64C1008.37 77.32 1007.77 75.76 1006.33 75.76C1004.29 75.76 1002.25 80.2 1001.17 82.84C1000.93 83.68 1000.09 84.04 999.372 83.92C998.532 83.68 998.172 83.08 998.532 82.36C1000.93 76.72 1003.21 71.2 1010.53 71.2C1014.61 71.2 1017.61 72.88 1017.61 77.32C1017.61 78.88 1017.25 80.56 1016.89 82.12L1010.05 108.16C1009.45 110.44 1009.09 112.96 1009.09 115.36C1009.09 118.6 1009.93 123.52 1014.13 123.52C1022.05 123.52 1033.69 107.68 1036.81 100.84C1038.01 98.08 1039.09 92.92 1039.09 89.92C1039.09 83.32 1033.09 81.04 1033.09 76.12C1033.09 73.12 1037.05 71.92 1039.45 71.92C1043.77 71.92 1044.13 76.12 1044.13 79.48C1044.13 96.28 1037.77 113.2 1027.93 126.64C1018.69 139.24 1005.73 152.68 988.932 152.68C983.772 152.68 977.412 151.72 977.412 145.24Z" fill="black"/>
<path d="M88.916 56.2949L70.6543 129H59.7656L44.9707 68.6484L30.5176 129H19.873L1.26953 56.2949H11.1816L25.8301 116.744L40.3809 56.2949H50.1953L64.8926 117.33L79.4434 56.2949H88.916ZM142.391 129H132.723V93.4043H99.2754V129H89.6074V56.2949H99.2754V84.8105H132.723V56.2949H142.391V129ZM149.186 129V56.2949H194.645V64.8887H158.854V84.8105H192.203V93.4043H158.854V120.406H194.645V129H149.186ZM253.637 129H241.088L218.041 100.094H207.006V129H197.338V56.2949H216.088C220.255 56.2949 223.738 56.5228 226.537 56.9785C229.369 57.4342 232.055 58.4922 234.594 60.1523C237.133 61.7799 239.135 63.8796 240.6 66.4512C242.097 69.0228 242.846 72.2129 242.846 76.0215C242.846 81.36 241.495 85.8197 238.793 89.4004C236.091 92.9811 232.413 95.6341 227.758 97.3594L253.637 129ZM232.738 76.7539C232.738 74.638 232.364 72.7663 231.615 71.1387C230.867 69.4785 229.711 68.1276 228.148 67.0859C226.781 66.1745 225.186 65.5397 223.363 65.1816C221.54 64.791 219.278 64.5957 216.576 64.5957H207.006V92.0371H215.502C218.269 92.0371 220.759 91.793 222.973 91.3047C225.186 90.8164 227.074 89.8073 228.637 88.2773C230.036 86.9102 231.062 85.2826 231.713 83.3945C232.396 81.5065 232.738 79.293 232.738 76.7539ZM251.447 129V56.2949H296.906V64.8887H261.115V84.8105H294.465V93.4043H261.115V120.406H296.906V129H251.447Z" fill="black"/>
<path d="M32.7637 222.514C28.4993 222.514 24.7721 221.96 21.582 220.854C18.3919 219.714 15.6738 218.038 13.4277 215.824C10.8887 213.285 9.09831 210.258 8.05664 206.742C7.01497 203.194 6.49414 198.832 6.49414 193.656V148.295H16.1621V193.656C16.1621 197.009 16.3737 199.841 16.7969 202.152C17.2201 204.431 18.0501 206.482 19.2871 208.305C20.5892 210.258 22.347 211.739 24.5605 212.748C26.8066 213.757 29.541 214.262 32.7637 214.262C35.791 214.262 38.4766 213.757 40.8203 212.748C43.1641 211.739 44.987 210.258 46.2891 208.305C47.4935 206.449 48.3073 204.398 48.7305 202.152C49.1862 199.906 49.4141 197.156 49.4141 193.9V148.295H59.082V193.656C59.082 198.702 58.5612 203.031 57.5195 206.645C56.5104 210.258 54.7201 213.318 52.1484 215.824C49.8372 218.07 47.1354 219.747 44.043 220.854C40.9831 221.96 37.2233 222.514 32.7637 222.514ZM117 221H106.16L74.0312 158.305V221H64.998V148.295H78.7188L107.967 205.863V148.295H117V221ZM167.301 156.889H133.463V177.396H165.885V185.99H133.463V221H123.795V148.295H167.301V156.889ZM219.359 156.645C222.126 159.835 224.275 163.79 225.805 168.51C227.335 173.23 228.1 178.617 228.1 184.672C228.1 190.564 227.351 195.886 225.854 200.639C224.356 205.391 222.191 209.379 219.359 212.602C216.397 215.987 212.93 218.493 208.959 220.121C205.02 221.716 200.674 222.514 195.922 222.514C191.007 222.514 186.579 221.684 182.641 220.023C178.702 218.363 175.316 215.889 172.484 212.602C169.685 209.379 167.536 205.408 166.039 200.688C164.542 195.967 163.793 190.629 163.793 184.672C163.793 178.552 164.542 173.181 166.039 168.559C167.569 163.936 169.734 159.965 172.533 156.645C175.333 153.422 178.702 150.98 182.641 149.32C186.612 147.628 191.039 146.781 195.922 146.781C200.87 146.781 205.329 147.644 209.301 149.369C213.272 151.094 216.625 153.52 219.359 156.645ZM218.041 184.672C218.041 179.854 217.52 175.59 216.479 171.879C215.437 168.168 213.972 165.092 212.084 162.65C210.163 160.144 207.836 158.272 205.102 157.035C202.4 155.766 199.356 155.131 195.971 155.131C192.455 155.131 189.379 155.749 186.742 156.986C184.138 158.191 181.827 160.079 179.809 162.65C177.888 165.124 176.407 168.233 175.365 171.977C174.356 175.72 173.852 179.952 173.852 184.672C173.852 194.21 175.854 201.518 179.857 206.596C183.861 211.641 189.232 214.164 195.971 214.164C202.709 214.164 208.064 211.641 212.035 206.596C216.039 201.518 218.041 194.21 218.041 184.672ZM272.883 221H230.744V148.295H240.412V212.406H272.883V221ZM329.873 184.721C329.873 191.361 328.522 197.351 325.82 202.689C323.151 208.028 319.554 212.195 315.029 215.189C311.351 217.501 307.607 219.047 303.799 219.828C300.023 220.609 295.189 221 289.297 221H272.549V148.295H289.102C295.938 148.295 301.292 148.816 305.166 149.857C309.072 150.867 312.393 152.266 315.127 154.057C319.814 157.149 323.444 161.267 326.016 166.41C328.587 171.521 329.873 177.624 329.873 184.721ZM319.814 184.574C319.814 178.975 318.887 174.206 317.031 170.268C315.176 166.296 312.425 163.204 308.779 160.99C306.208 159.428 303.457 158.305 300.527 157.621C297.598 156.938 293.952 156.596 289.59 156.596H282.217V212.699H289.59C293.887 212.699 297.646 212.357 300.869 211.674C304.092 210.99 307.038 209.721 309.707 207.865C313.06 205.587 315.583 202.559 317.275 198.783C318.968 194.975 319.814 190.238 319.814 184.574Z" fill="black"/>
<path d="M599.512 130L624.023 57.2949H635.938L660.449 130H650.244L643.652 109.688H615.869L609.277 130H599.512ZM640.967 101.436L629.736 67.1582L618.555 101.436H640.967ZM711.336 130H700.496L668.367 67.3047V130H659.334V57.2949H673.055L702.303 114.863V57.2949H711.336V130ZM775.455 93.7207C775.455 100.361 774.104 106.351 771.402 111.689C768.733 117.028 765.136 121.195 760.611 124.189C756.933 126.501 753.189 128.047 749.381 128.828C745.605 129.609 740.771 130 734.879 130H718.131V57.2949H734.684C741.52 57.2949 746.874 57.8158 750.748 58.8574C754.654 59.8665 757.975 61.2663 760.709 63.0566C765.396 66.1491 769.026 70.2669 771.598 75.4102C774.169 80.5208 775.455 86.6243 775.455 93.7207ZM765.396 93.5742C765.396 87.9753 764.469 83.2064 762.613 79.2676C760.758 75.2962 758.007 72.2038 754.361 69.9902C751.79 68.4277 749.039 67.3047 746.109 66.6211C743.18 65.9375 739.534 65.5957 735.172 65.5957H727.799V121.699H735.172C739.469 121.699 743.229 121.357 746.451 120.674C749.674 119.99 752.62 118.721 755.289 116.865C758.642 114.587 761.165 111.559 762.857 107.783C764.55 103.975 765.396 99.2383 765.396 93.5742Z" fill="black"/>
</svg>
