<svg width="455" height="224" viewBox="0 0 455 224" fill="none" xmlns="http://www.w3.org/2000/svg">
<path d="M78.4 35.8V105H69.3V53.4L46.3 105H39.9L16.8 53.3V105H7.7V35.8H17.5L43.1 93L68.7 35.8H78.4ZM134.633 35.3L111.933 78.7V105H102.833V78.7L80.0328 35.3H90.1328L107.333 70.6L124.533 35.3H134.633Z" fill="black"/>
<path d="M54.3 138.7C54.3 144.5 52.3 149.333 48.3 153.2C44.3667 157 38.3333 158.9 30.2 158.9H16.8V188H7.7V118.3H30.2C38.0667 118.3 44.0333 120.2 48.1 124C52.2333 127.8 54.3 132.7 54.3 138.7ZM30.2 151.4C35.2667 151.4 39 150.3 41.4 148.1C43.8 145.9 45 142.767 45 138.7C45 130.1 40.0667 125.8 30.2 125.8H16.8V151.4H30.2ZM94.3102 188L77.7102 159.5H66.7102V188H57.6102V118.3H80.1102C85.3768 118.3 89.8102 119.2 93.4102 121C97.0768 122.8 99.8102 125.233 101.61 128.3C103.41 131.367 104.31 134.867 104.31 138.8C104.31 143.6 102.91 147.833 100.11 151.5C97.3768 155.167 93.2435 157.6 87.7102 158.8L105.21 188H94.3102ZM66.7102 152.2H80.1102C85.0435 152.2 88.7435 151 91.2102 148.6C93.6768 146.133 94.9102 142.867 94.9102 138.8C94.9102 134.667 93.6768 131.467 91.2102 129.2C88.8102 126.933 85.1102 125.8 80.1102 125.8H66.7102V152.2ZM142.05 188.7C135.583 188.7 129.683 187.2 124.35 184.2C119.017 181.133 114.783 176.9 111.65 171.5C108.583 166.033 107.05 159.9 107.05 153.1C107.05 146.3 108.583 140.2 111.65 134.8C114.783 129.333 119.017 125.1 124.35 122.1C129.683 119.033 135.583 117.5 142.05 117.5C148.583 117.5 154.517 119.033 159.85 122.1C165.183 125.1 169.383 129.3 172.45 134.7C175.517 140.1 177.05 146.233 177.05 153.1C177.05 159.967 175.517 166.1 172.45 171.5C169.383 176.9 165.183 181.133 159.85 184.2C154.517 187.2 148.583 188.7 142.05 188.7ZM142.05 180.8C146.917 180.8 151.283 179.667 155.15 177.4C159.083 175.133 162.15 171.9 164.35 167.7C166.617 163.5 167.75 158.633 167.75 153.1C167.75 147.5 166.617 142.633 164.35 138.5C162.15 134.3 159.117 131.067 155.25 128.8C151.383 126.533 146.983 125.4 142.05 125.4C137.117 125.4 132.717 126.533 128.85 128.8C124.983 131.067 121.917 134.3 119.65 138.5C117.45 142.633 116.35 147.5 116.35 153.1C116.35 158.633 117.45 163.5 119.65 167.7C121.917 171.9 124.983 175.133 128.85 177.4C132.783 179.667 137.183 180.8 142.05 180.8ZM216.163 118.3V169.8C216.163 175.533 214.397 180.133 210.863 183.6C207.33 187 202.663 188.7 196.863 188.7C190.997 188.7 186.297 186.967 182.763 183.5C179.23 179.967 177.463 175.167 177.463 169.1H186.563C186.63 172.5 187.497 175.267 189.163 177.4C190.897 179.533 193.463 180.6 196.863 180.6C200.263 180.6 202.797 179.6 204.463 177.6C206.13 175.533 206.963 172.933 206.963 169.8V118.3H216.163ZM235.191 125.7V149H260.591V156.5H235.191V180.5H263.591V188H226.091V118.2H263.591V125.7H235.191ZM265.96 153.1C265.96 146.3 267.493 140.2 270.56 134.8C273.627 129.333 277.793 125.067 283.06 122C288.393 118.933 294.293 117.4 300.76 117.4C308.36 117.4 314.993 119.233 320.66 122.9C326.327 126.567 330.46 131.767 333.06 138.5H322.16C320.227 134.3 317.427 131.067 313.76 128.8C310.16 126.533 305.827 125.4 300.76 125.4C295.893 125.4 291.527 126.533 287.66 128.8C283.793 131.067 280.76 134.3 278.56 138.5C276.36 142.633 275.26 147.5 275.26 153.1C275.26 158.633 276.36 163.5 278.56 167.7C280.76 171.833 283.793 175.033 287.66 177.3C291.527 179.567 295.893 180.7 300.76 180.7C305.827 180.7 310.16 179.6 313.76 177.4C317.427 175.133 320.227 171.9 322.16 167.7H333.06C330.46 174.367 326.327 179.533 320.66 183.2C314.993 186.8 308.36 188.6 300.76 188.6C294.293 188.6 288.393 187.1 283.06 184.1C277.793 181.033 273.627 176.8 270.56 171.4C267.493 166 265.96 159.9 265.96 153.1ZM381.506 118.3V125.7H362.506V188H353.406V125.7H334.306V118.3H381.506ZM406.808 188.7C402.208 188.7 398.074 187.9 394.408 186.3C390.808 184.633 387.974 182.367 385.908 179.5C383.841 176.567 382.774 173.2 382.708 169.4H392.408C392.741 172.667 394.074 175.433 396.408 177.7C398.808 179.9 402.274 181 406.808 181C411.141 181 414.541 179.933 417.008 177.8C419.541 175.6 420.808 172.8 420.808 169.4C420.808 166.733 420.074 164.567 418.608 162.9C417.141 161.233 415.308 159.967 413.108 159.1C410.908 158.233 407.941 157.3 404.208 156.3C399.608 155.1 395.908 153.9 393.108 152.7C390.374 151.5 388.008 149.633 386.008 147.1C384.074 144.5 383.108 141.033 383.108 136.7C383.108 132.9 384.074 129.533 386.008 126.6C387.941 123.667 390.641 121.4 394.108 119.8C397.641 118.2 401.674 117.4 406.208 117.4C412.741 117.4 418.074 119.033 422.208 122.3C426.408 125.567 428.774 129.9 429.308 135.3H419.308C418.974 132.633 417.574 130.3 415.108 128.3C412.641 126.233 409.374 125.2 405.308 125.2C401.508 125.2 398.408 126.2 396.008 128.2C393.608 130.133 392.408 132.867 392.408 136.4C392.408 138.933 393.108 141 394.508 142.6C395.974 144.2 397.741 145.433 399.808 146.3C401.941 147.1 404.908 148.033 408.708 149.1C413.308 150.367 417.008 151.633 419.808 152.9C422.608 154.1 425.008 156 427.008 158.6C429.008 161.133 430.008 164.6 430.008 169C430.008 172.4 429.108 175.6 427.308 178.6C425.508 181.6 422.841 184.033 419.308 185.9C415.774 187.767 411.608 188.7 406.808 188.7Z" fill="black"/>
</svg>
