<svg width="1280" height="282" viewBox="0 0 1280 282" fill="none" xmlns="http://www.w3.org/2000/svg">
<path d="M4.32 223.88C4.32 220.88 5.4 218 6.12 215.12L22.56 152.36C23.04 150.68 23.4 149 23.4 147.32C23.4 142.88 19.32 142.52 15.84 142.4C15 142.4 14.52 141.8 14.76 140.96C15 140.12 15.72 139.52 16.56 139.52L30.48 139.4C33.24 139.4 34.68 141.2 33.96 143.96L15 216.08C14.52 218.24 13.56 220.4 13.56 222.56C13.56 223.88 14.16 225.44 15.72 225.44C17.64 225.44 19.68 221 20.76 218.36C21 217.52 21.84 217.16 22.56 217.28C23.4 217.52 23.76 218.12 23.4 218.84C20.88 224.48 18.72 230 11.4 230C7.32 230 4.32 228.32 4.32 223.88ZM28.7981 215.12C30.5981 208.28 37.5581 185.72 37.5581 180.44C37.5581 175.4 33.4781 174.32 29.3981 174.2C28.5581 174.08 27.9581 173.6 27.8381 172.76C27.8381 171.92 28.4381 171.32 29.2781 171.32L44.7581 170.96C47.6381 170.96 49.0781 172.76 48.3581 175.52L37.6781 216.08C37.0781 218.24 36.2381 220.4 36.2381 222.56C36.2381 223.88 36.8381 225.44 38.2781 225.44C40.3181 225.44 42.2381 220.88 43.3181 218.36C43.6781 217.52 44.3981 217.16 45.2381 217.28C46.0781 217.52 46.3181 218.12 46.0781 218.84C43.5581 224.48 41.2781 230 33.9581 230C29.9981 230 26.9981 228.32 26.9981 223.88C26.9981 220.88 27.9581 218 28.7981 215.12ZM42.5981 157.28C42.5981 153.2 45.9581 147.32 50.5181 147.32C53.3981 147.32 54.7181 150.08 54.7181 152.72C54.7181 156.68 51.2381 162.68 46.7981 162.68C43.7981 162.68 42.5981 159.8 42.5981 157.28ZM41.7056 220.76C41.7056 218.48 42.7856 214.64 45.6656 214.64C52.0256 214.64 46.7456 228.08 56.2256 228.08C62.5856 228.08 67.1456 221.6 67.1456 215.72C67.1456 205.52 52.6256 201.92 52.6256 190.64C52.6256 180.56 63.3056 170.6 73.3856 170.6C78.1856 170.6 82.7456 172.88 82.7456 178.4C82.7456 180.8 81.4256 183.8 78.6656 183.8C76.2656 183.8 74.3456 182.48 74.3456 179.96C74.3456 178.16 75.1856 176.6 75.1856 174.8C75.1856 173.48 73.9856 173.24 72.9056 173.24C67.3856 173.24 60.1856 178.28 60.1856 184.16C60.1856 192.2 76.3856 196.64 76.3856 209.48C76.3856 221.12 65.3456 230.72 53.9456 230.72C47.8256 230.72 41.7056 227.84 41.7056 220.76ZM76.4991 224C76.4991 221.12 77.2191 218.48 77.9391 215.84C81.4191 202.16 84.6591 188.36 88.1391 174.68L81.0591 174.8C80.2191 174.8 79.8591 174.32 80.0991 173.48C80.3391 172.64 81.0591 172.16 81.8991 172.04C90.1791 170.96 97.1391 161.12 100.979 154.4C101.339 153.92 101.819 153.56 102.419 153.56C102.899 153.56 103.259 153.92 103.019 154.52L98.3391 171.32L108.899 171.2C109.859 171.2 110.219 171.8 109.979 172.76C109.739 173.72 108.899 174.32 107.939 174.32L97.3791 174.56C95.9391 179.96 94.8591 185.6 93.4191 191.12L86.3391 218.12C85.9791 219.56 85.7391 221 85.7391 222.44C85.7391 224 86.2191 225.92 88.1391 225.92C90.7791 225.92 93.5391 223.28 95.4591 221.24C95.9391 220.76 96.4191 220.88 96.6591 221.6C96.7791 222.2 96.6591 223.04 96.1791 223.64C93.0591 227.24 88.0191 230.72 83.3391 230.72C78.8991 230.72 76.4991 228.56 76.4991 224ZM97.3491 212.24C97.3491 195.8 109.229 170.6 128.189 170.6C135.509 170.6 142.349 176.24 142.349 183.68C142.349 187.16 140.789 189.92 138.389 192.2C130.589 199.88 118.949 199.04 108.989 200.24C108.389 203.36 108.029 206.6 108.029 209.84C108.029 216.2 109.709 223.52 117.509 223.52C126.389 223.52 134.189 215.6 138.509 208.28C138.869 207.8 139.469 207.56 140.069 207.68C140.669 207.8 140.909 208.28 140.669 208.88C135.149 219.68 126.869 230.72 113.549 230.72C102.269 230.72 97.3491 222.8 97.3491 212.24ZM133.349 181.4C133.349 177.56 131.429 173.72 127.109 173.72C115.949 173.72 111.869 188 109.829 196.64C118.949 195.32 133.349 193.76 133.349 181.4ZM129.283 228.8C129.523 228.08 130.123 227.48 130.843 227.36C136.723 226.28 138.523 225.44 140.203 219.32C142.483 211.52 150.643 184.88 150.643 178.64C150.643 174.8 147.883 174.2 144.883 174.2C143.923 174.2 143.563 173.6 143.923 172.76C144.403 171.92 145.363 171.32 146.323 171.32L157.243 171.2C160.123 171.2 161.563 173 160.843 175.64L155.443 196.28C158.923 189.44 168.163 171.8 176.923 171.8C183.763 171.8 185.563 178.52 185.563 184.04C185.563 186.8 185.203 189.44 184.603 192.08L178.243 216.08C177.763 218.24 176.803 220.4 176.803 222.56C176.803 223.88 177.403 225.44 178.843 225.44C180.883 225.44 182.923 220.88 184.003 218.36C184.243 217.52 185.083 217.16 185.803 217.28C186.643 217.52 187.003 218.12 186.643 218.84C184.123 224.48 181.963 230 174.643 230C170.563 230 167.563 228.32 167.563 223.88C167.563 220.88 168.643 218 169.363 215.12L175.123 193.04C175.843 190.16 176.323 187.16 176.323 184.04C176.323 181.88 176.083 177.68 173.083 177.68C172.363 177.68 171.643 177.8 170.923 178.16C167.443 179.84 154.363 201.56 152.923 206C151.723 209.84 148.843 219.44 148.843 223.16C148.843 226.4 151.963 227 154.483 227.48C155.203 227.6 155.563 228.08 155.323 228.8C155.203 229.52 154.603 230 153.883 230H130.243C129.523 230 129.163 229.52 129.283 228.8ZM190.423 215.12C192.223 208.28 199.183 185.72 199.183 180.44C199.183 175.4 195.103 174.32 191.023 174.2C190.183 174.08 189.583 173.6 189.463 172.76C189.463 171.92 190.063 171.32 190.903 171.32L206.383 170.96C209.263 170.96 210.703 172.76 209.983 175.52L199.303 216.08C198.703 218.24 197.863 220.4 197.863 222.56C197.863 223.88 198.463 225.44 199.903 225.44C201.943 225.44 203.863 220.88 204.943 218.36C205.303 217.52 206.023 217.16 206.863 217.28C207.703 217.52 207.943 218.12 207.703 218.84C205.183 224.48 202.903 230 195.583 230C191.623 230 188.623 228.32 188.623 223.88C188.623 220.88 189.583 218 190.423 215.12ZM204.223 157.28C204.223 153.2 207.583 147.32 212.143 147.32C215.023 147.32 216.343 150.08 216.343 152.72C216.343 156.68 212.863 162.68 208.423 162.68C205.423 162.68 204.223 159.8 204.223 157.28ZM199.371 228.8C199.611 228.08 200.211 227.48 200.931 227.36C206.811 226.28 208.611 225.44 210.291 219.32C212.571 211.52 220.731 184.88 220.731 178.64C220.731 174.8 217.971 174.2 214.971 174.2C214.011 174.2 213.651 173.6 214.011 172.76C214.491 171.92 215.451 171.32 216.411 171.32L227.331 171.2C230.211 171.2 231.651 173 230.931 175.64L225.531 196.28C229.011 189.44 238.251 171.8 247.011 171.8C253.851 171.8 255.651 178.52 255.651 184.04C255.651 186.8 255.291 189.44 254.691 192.08L248.331 216.08C247.851 218.24 246.891 220.4 246.891 222.56C246.891 223.88 247.491 225.44 248.931 225.44C250.971 225.44 253.011 220.88 254.091 218.36C254.331 217.52 255.171 217.16 255.891 217.28C256.731 217.52 257.091 218.12 256.731 218.84C254.211 224.48 252.051 230 244.731 230C240.651 230 237.651 228.32 237.651 223.88C237.651 220.88 238.731 218 239.451 215.12L245.211 193.04C245.931 190.16 246.411 187.16 246.411 184.04C246.411 181.88 246.171 177.68 243.171 177.68C242.451 177.68 241.731 177.8 241.011 178.16C237.531 179.84 224.451 201.56 223.011 206C221.811 209.84 218.931 219.44 218.931 223.16C218.931 226.4 222.051 227 224.571 227.48C225.291 227.6 225.651 228.08 225.411 228.8C225.291 229.52 224.691 230 223.971 230H200.331C199.611 230 199.251 229.52 199.371 228.8ZM245.117 245.6C245.117 242.48 246.677 236.48 250.637 236.48C252.677 236.48 254.357 237.44 254.357 239.72C254.357 242 253.037 244.4 251.717 246.32C252.677 252.32 256.277 255.08 262.277 255.08C271.877 255.08 280.877 249.44 283.517 239.84L283.757 238.4C283.757 229.04 253.997 234.44 253.997 221C253.997 215.6 259.397 211.52 263.597 209.12C261.077 206.24 259.877 202.28 259.877 198.44C259.877 185 271.997 171.2 285.917 171.2C288.797 171.2 291.677 171.92 294.077 173.48C296.477 168.8 301.517 161.24 307.397 161.24C310.157 161.24 311.717 163.16 311.717 165.92C311.717 168.92 309.317 174.44 305.717 174.44C302.477 174.44 301.877 170.12 300.197 169.64C298.757 169.76 296.597 173.48 295.877 174.68C299.357 177.68 300.917 182.24 300.917 186.68C300.917 200 288.677 213.92 274.997 213.92C271.997 213.92 268.997 213.2 266.357 211.52C265.277 212.48 263.717 214.16 263.717 215.6C263.717 223.16 289.517 218.36 289.517 232.76C289.517 246.92 275.957 258.32 262.037 258.32C254.357 258.32 245.117 254.6 245.117 245.6ZM277.277 211.16C288.197 211.16 291.557 196.04 291.557 187.52C291.557 182.6 290.597 173.84 283.877 173.84C272.597 173.84 269.117 188.12 269.117 197C269.117 202.16 270.317 211.16 277.277 211.16ZM305.008 218.96C305.008 202.64 324.328 194.12 338.488 195.56C339.928 189.68 341.848 183.8 341.848 177.8C341.848 175.04 341.488 173.6 338.488 173.6C332.128 173.6 325.768 182.24 323.488 188.72C322.888 190.4 321.448 191.6 319.648 191.6H317.968C315.208 191.6 313.768 189.8 314.848 187.4C318.928 178.04 328.408 170.24 338.728 170.24C346.048 170.24 349.888 174.68 349.888 181.88C349.888 184.16 349.408 186.44 348.928 188.72L340.888 219.68L340.528 222.44C340.528 223.64 340.888 225.44 342.448 225.44C344.488 225.44 346.408 221 347.488 218.36C347.848 217.52 348.568 217.16 349.408 217.28C350.128 217.52 350.488 218.12 350.128 218.84C347.728 224.48 345.448 230 338.128 230C334.048 230 331.048 228.32 331.048 223.88C331.048 222.68 331.288 221.36 331.528 220.16C327.688 225.32 321.928 230.84 315.088 230.84C308.488 230.84 305.008 224.96 305.008 218.96ZM320.968 223.4C325.168 223.4 329.728 218.12 332.128 215C335.488 210.8 336.328 203.72 337.528 198.56C336.928 198.44 336.328 198.44 335.728 198.44C326.968 198.44 314.728 204.92 314.728 214.88C314.728 218.48 316.648 223.4 320.968 223.4ZM349.447 212.84C349.447 196.4 362.767 170.72 381.367 170.72C387.127 170.72 393.967 174.44 393.967 180.8C393.967 183.8 391.927 188.48 388.327 188.48C384.487 188.48 385.327 182.72 385.327 180.2C385.327 176.84 384.847 173.72 380.767 173.72C368.287 173.72 358.927 200.72 358.927 210.8C358.927 217.04 361.087 222.92 368.167 222.92C373.207 222.92 378.487 219.8 382.327 216.56C382.927 216.08 383.887 215.72 384.727 215.72C385.447 215.72 385.687 216.08 385.087 216.68C379.447 223.28 371.527 230.72 362.407 230.72C352.567 230.72 349.447 221.12 349.447 212.84ZM384.393 224C384.393 221.12 385.113 218.48 385.833 215.84C389.313 202.16 392.553 188.36 396.033 174.68L388.953 174.8C388.113 174.8 387.753 174.32 387.993 173.48C388.233 172.64 388.953 172.16 389.793 172.04C398.073 170.96 405.033 161.12 408.873 154.4C409.233 153.92 409.713 153.56 410.313 153.56C410.793 153.56 411.153 153.92 410.913 154.52L406.233 171.32L416.793 171.2C417.753 171.2 418.113 171.8 417.873 172.76C417.633 173.72 416.793 174.32 415.833 174.32L405.273 174.56C403.833 179.96 402.753 185.6 401.313 191.12L394.233 218.12C393.873 219.56 393.633 221 393.633 222.44C393.633 224 394.113 225.92 396.033 225.92C398.673 225.92 401.433 223.28 403.353 221.24C403.833 220.76 404.313 220.88 404.553 221.6C404.673 222.2 404.553 223.04 404.073 223.64C400.953 227.24 395.913 230.72 391.233 230.72C386.793 230.72 384.393 228.56 384.393 224ZM411.003 215.12C412.803 208.28 419.763 185.72 419.763 180.44C419.763 175.4 415.683 174.32 411.603 174.2C410.763 174.08 410.163 173.6 410.043 172.76C410.043 171.92 410.643 171.32 411.483 171.32L426.963 170.96C429.843 170.96 431.283 172.76 430.563 175.52L419.883 216.08C419.283 218.24 418.443 220.4 418.443 222.56C418.443 223.88 419.043 225.44 420.483 225.44C422.523 225.44 424.443 220.88 425.523 218.36C425.883 217.52 426.603 217.16 427.443 217.28C428.283 217.52 428.523 218.12 428.283 218.84C425.763 224.48 423.483 230 416.163 230C412.203 230 409.203 228.32 409.203 223.88C409.203 220.88 410.163 218 411.003 215.12ZM424.803 157.28C424.803 153.2 428.163 147.32 432.723 147.32C435.603 147.32 436.923 150.08 436.923 152.72C436.923 156.68 433.443 162.68 429.003 162.68C426.003 162.68 424.803 159.8 424.803 157.28ZM430.63 182.36C433.03 176.72 435.31 171.2 442.63 171.2C446.71 171.2 449.71 172.88 449.71 177.32C449.71 178.88 449.35 180.56 448.87 182.12L442.15 208.16C441.43 210.92 441.07 213.92 441.07 216.92C441.07 219.44 441.31 225.32 444.91 225.32C453.31 225.32 469.99 194.24 469.99 186.2C469.99 182 463.87 180.08 463.87 175.16C463.87 172.4 467.95 170.72 470.23 170.72C474.19 170.72 474.91 174.68 474.91 177.8C474.91 193.16 456.67 229.4 440.95 229.4C433.87 229.4 431.59 223.16 431.59 217.04C431.59 214.4 432.07 211.64 432.67 209.12L439.87 181.52C440.11 180.56 440.47 179.6 440.47 178.64C440.47 177.32 439.87 175.76 438.31 175.76C436.27 175.76 434.35 180.2 433.27 182.84C432.91 183.68 432.19 184.04 431.35 183.92C430.63 183.68 430.27 183.08 430.63 182.36ZM473.004 215.12C474.804 208.28 481.764 185.72 481.764 180.44C481.764 175.4 477.684 174.32 473.604 174.2C472.764 174.08 472.164 173.6 472.044 172.76C472.044 171.92 472.644 171.32 473.484 171.32L488.964 170.96C491.844 170.96 493.284 172.76 492.564 175.52L481.884 216.08C481.284 218.24 480.444 220.4 480.444 222.56C480.444 223.88 481.044 225.44 482.484 225.44C484.524 225.44 486.444 220.88 487.524 218.36C487.884 217.52 488.604 217.16 489.444 217.28C490.284 217.52 490.524 218.12 490.284 218.84C487.764 224.48 485.484 230 478.164 230C474.204 230 471.204 228.32 471.204 223.88C471.204 220.88 472.164 218 473.004 215.12ZM486.804 157.28C486.804 153.2 490.164 147.32 494.724 147.32C497.604 147.32 498.924 150.08 498.924 152.72C498.924 156.68 495.444 162.68 491.004 162.68C488.004 162.68 486.804 159.8 486.804 157.28ZM490.232 224C490.232 221.12 490.952 218.48 491.672 215.84C495.152 202.16 498.392 188.36 501.872 174.68L494.792 174.8C493.952 174.8 493.592 174.32 493.832 173.48C494.072 172.64 494.792 172.16 495.632 172.04C503.912 170.96 510.872 161.12 514.712 154.4C515.072 153.92 515.552 153.56 516.152 153.56C516.632 153.56 516.992 153.92 516.752 154.52L512.072 171.32L522.632 171.2C523.592 171.2 523.952 171.8 523.712 172.76C523.472 173.72 522.632 174.32 521.672 174.32L511.112 174.56C509.672 179.96 508.592 185.6 507.152 191.12L500.072 218.12C499.712 219.56 499.472 221 499.472 222.44C499.472 224 499.952 225.92 501.872 225.92C504.512 225.92 507.272 223.28 509.192 221.24C509.672 220.76 510.152 220.88 510.392 221.6C510.512 222.2 510.392 223.04 509.912 223.64C506.792 227.24 501.752 230.72 497.072 230.72C492.632 230.72 490.232 228.56 490.232 224ZM492.722 245.24C492.722 242 495.482 239.36 498.722 239.36C504.482 239.36 504.722 246.68 511.442 246.68C523.802 246.68 538.562 228.08 544.202 217.88C539.402 223.28 532.442 229.4 524.882 229.4C517.202 229.4 514.922 223.88 514.922 217.04C514.922 214.4 515.282 211.64 515.882 209.12L523.082 181.52C523.442 180.56 523.682 179.6 523.682 178.64C523.682 177.32 523.082 175.76 521.642 175.76C519.602 175.76 517.562 180.2 516.482 182.84C516.242 183.68 515.402 184.04 514.682 183.92C513.842 183.68 513.482 183.08 513.842 182.36C516.242 176.72 518.522 171.2 525.842 171.2C529.922 171.2 532.922 172.88 532.922 177.32C532.922 178.88 532.562 180.56 532.202 182.12L525.362 208.16C524.762 210.44 524.402 212.96 524.402 215.36C524.402 218.6 525.242 223.52 529.442 223.52C537.362 223.52 549.002 207.68 552.122 200.84C553.322 198.08 554.402 192.92 554.402 189.92C554.402 183.32 548.402 181.04 548.402 176.12C548.402 173.12 552.362 171.92 554.762 171.92C559.082 171.92 559.442 176.12 559.442 179.48C559.442 196.28 553.082 213.2 543.242 226.64C534.002 239.24 521.042 252.68 504.242 252.68C499.082 252.68 492.722 251.72 492.722 245.24Z" fill="black"/>
<path d="M27.6367 111.318C22.3633 111.318 17.8711 110.781 14.1602 109.707C10.4818 108.6 7.01497 107.249 3.75977 105.654V93.5449H4.44336C7.63346 96.5397 11.2467 98.8672 15.2832 100.527C19.3197 102.155 23.2096 102.969 26.9531 102.969C32.2917 102.969 36.3281 101.862 39.0625 99.6484C41.7969 97.4023 43.1641 94.4564 43.1641 90.8105C43.1641 87.9134 42.4479 85.5534 41.0156 83.7305C39.5833 81.9076 37.3047 80.5566 34.1797 79.6777C31.9336 79.0267 29.8828 78.4896 28.0273 78.0664C26.1719 77.6432 23.8444 77.0736 21.0449 76.3574C18.5384 75.7064 16.2923 74.8763 14.3066 73.8672C12.321 72.8581 10.5632 71.5397 9.0332 69.9121C7.53581 68.3171 6.36393 66.4453 5.51758 64.2969C4.70378 62.1159 4.29688 59.6094 4.29688 56.7773C4.29688 50.8854 6.5918 45.9538 11.1816 41.9824C15.7715 37.9785 21.6309 35.9766 28.7598 35.9766C32.8288 35.9766 36.6699 36.3835 40.2832 37.1973C43.929 38.0111 47.2982 39.1667 50.3906 40.6641V52.2363H49.6582C47.347 50.1204 44.3848 48.2812 40.7715 46.7188C37.1582 45.1237 33.3659 44.3262 29.3945 44.3262C24.9023 44.3262 21.2728 45.3841 18.5059 47.5C15.7389 49.5833 14.3555 52.334 14.3555 55.752C14.3555 58.8444 15.1693 61.3021 16.7969 63.125C18.4245 64.9479 20.7845 66.2826 23.877 67.1289C25.9277 67.6823 28.4342 68.3171 31.3965 69.0332C34.3587 69.7168 36.8164 70.3516 38.7695 70.9375C43.7826 72.4674 47.4447 74.7786 49.7559 77.8711C52.0671 80.9635 53.2227 84.7721 53.2227 89.2969C53.2227 92.1289 52.6367 94.9284 51.4648 97.6953C50.3255 100.462 48.7142 102.806 46.6309 104.727C44.2871 106.842 41.6341 108.47 38.6719 109.609C35.7422 110.749 32.0638 111.318 27.6367 111.318ZM72.127 110V45.8887H47.7129V37.2949H106.209V45.8887H81.7949V110H72.127ZM92.0078 110L116.52 37.2949H128.434L152.945 110H142.74L136.148 89.6875H108.365L101.773 110H92.0078ZM133.463 81.4355L122.232 47.1582L111.051 81.4355H133.463ZM198.998 37.2949L174.438 77.8223V110H164.77V78.8477L140.209 37.2949H150.951L169.701 69.375L188.744 37.2949H198.998ZM246.377 111.514C242.113 111.514 238.385 110.96 235.195 109.854C232.005 108.714 229.287 107.038 227.041 104.824C224.502 102.285 222.712 99.2578 221.67 95.7422C220.628 92.194 220.107 87.832 220.107 82.6562V37.2949H229.775V82.6562C229.775 86.0091 229.987 88.8411 230.41 91.1523C230.833 93.431 231.663 95.4818 232.9 97.3047C234.202 99.2578 235.96 100.739 238.174 101.748C240.42 102.757 243.154 103.262 246.377 103.262C249.404 103.262 252.09 102.757 254.434 101.748C256.777 100.739 258.6 99.2578 259.902 97.3047C261.107 95.4492 261.921 93.3984 262.344 91.1523C262.799 88.9062 263.027 86.1556 263.027 82.9004V37.2949H272.695V82.6562C272.695 87.7018 272.174 92.0312 271.133 95.6445C270.124 99.2578 268.333 102.318 265.762 104.824C263.451 107.07 260.749 108.747 257.656 109.854C254.596 110.96 250.837 111.514 246.377 111.514ZM324.51 59.2188C324.51 62.3763 323.94 65.3711 322.801 68.2031C321.694 71.0026 320.148 73.3952 318.162 75.3809C315.656 77.8548 312.71 79.7266 309.324 80.9961C305.939 82.2656 301.658 82.9004 296.482 82.9004H288.279V110H278.611V37.2949H296.873C301.17 37.2949 304.832 37.653 307.859 38.3691C310.887 39.0853 313.556 40.2409 315.867 41.8359C318.569 43.6914 320.685 46.0514 322.215 48.916C323.745 51.748 324.51 55.1823 324.51 59.2188ZM314.451 59.4629C314.451 56.9564 314.012 54.7754 313.133 52.9199C312.286 51.0645 310.984 49.5508 309.227 48.3789C307.697 47.3698 305.906 46.6536 303.855 46.2305C301.837 45.8073 299.314 45.5957 296.287 45.5957H288.279V74.6484H294.871C298.777 74.6484 301.935 74.3392 304.344 73.7207C306.753 73.0697 308.755 71.9303 310.35 70.3027C311.782 68.8379 312.824 67.2428 313.475 65.5176C314.126 63.7923 314.451 61.7741 314.451 59.4629ZM366.029 110V45.8887H341.615V37.2949H400.111V45.8887H375.697V110H366.029ZM448.508 45.6445C451.275 48.8346 453.423 52.7897 454.953 57.5098C456.483 62.2298 457.248 67.6172 457.248 73.6719C457.248 79.5638 456.499 84.8861 455.002 89.6387C453.505 94.3913 451.34 98.3789 448.508 101.602C445.546 104.987 442.079 107.493 438.107 109.121C434.169 110.716 429.823 111.514 425.07 111.514C420.155 111.514 415.728 110.684 411.789 109.023C407.85 107.363 404.465 104.889 401.633 101.602C398.833 98.3789 396.685 94.4076 395.188 89.6875C393.69 84.9674 392.941 79.6289 392.941 73.6719C392.941 67.5521 393.69 62.181 395.188 57.5586C396.717 52.9362 398.882 48.9648 401.682 45.6445C404.481 42.4219 407.85 39.9805 411.789 38.3203C415.76 36.6276 420.188 35.7812 425.07 35.7812C430.018 35.7812 434.478 36.6439 438.449 38.3691C442.421 40.0944 445.773 42.5195 448.508 45.6445ZM447.189 73.6719C447.189 68.8542 446.669 64.5898 445.627 60.8789C444.585 57.168 443.12 54.0918 441.232 51.6504C439.312 49.1439 436.984 47.2721 434.25 46.0352C431.548 44.7656 428.505 44.1309 425.119 44.1309C421.604 44.1309 418.527 44.7493 415.891 45.9863C413.286 47.1908 410.975 49.0788 408.957 51.6504C407.036 54.1243 405.555 57.2331 404.514 60.9766C403.505 64.7201 403 68.9518 403 73.6719C403 83.2096 405.002 90.5176 409.006 95.5957C413.01 100.641 418.381 103.164 425.119 103.164C431.857 103.164 437.212 100.641 441.184 95.5957C445.188 90.5176 447.189 83.2096 447.189 73.6719ZM540.467 73.7207C540.467 80.3613 539.116 86.3509 536.414 91.6895C533.745 97.028 530.148 101.195 525.623 104.189C521.945 106.501 518.201 108.047 514.393 108.828C510.617 109.609 505.783 110 499.891 110H483.143V37.2949H499.695C506.531 37.2949 511.886 37.8158 515.76 38.8574C519.666 39.8665 522.986 41.2663 525.721 43.0566C530.408 46.1491 534.038 50.2669 536.609 55.4102C539.181 60.5208 540.467 66.6243 540.467 73.7207ZM530.408 73.5742C530.408 67.9753 529.48 63.2064 527.625 59.2676C525.77 55.2962 523.019 52.2038 519.373 49.9902C516.801 48.4277 514.051 47.3047 511.121 46.6211C508.191 45.9375 504.546 45.5957 500.184 45.5957H492.811V101.699H500.184C504.48 101.699 508.24 101.357 511.463 100.674C514.686 99.9902 517.632 98.7207 520.301 96.8652C523.654 94.5866 526.176 91.5592 527.869 87.7832C529.562 83.9746 530.408 79.2383 530.408 73.5742ZM535.152 110L559.664 37.2949H571.578L596.09 110H585.885L579.293 89.6875H551.51L544.918 110H535.152ZM576.607 81.4355L565.377 47.1582L554.195 81.4355H576.607ZM606.303 110V45.8887H581.889V37.2949H640.385V45.8887H615.971V110H606.303ZM639.709 110V37.2949H685.168V45.8887H649.377V65.8105H682.727V74.4043H649.377V101.406H685.168V110H639.709ZM792.654 37.2949L774.393 110H763.504L748.709 49.6484L734.256 110H723.611L705.008 37.2949H714.92L729.568 97.7441L744.119 37.2949H753.934L768.631 98.3301L783.182 37.2949H792.654ZM818.736 110H790.514V102.578H799.791V44.7168H790.514V37.2949H818.736V44.7168H809.459V102.578H818.736V110ZM839.643 110V45.8887H815.229V37.2949H873.725V45.8887H849.311V110H839.643ZM925.832 110H916.164V74.4043H882.717V110H873.049V37.2949H882.717V65.8105H916.164V37.2949H925.832V110ZM1006.76 37.2949L982.195 77.8223V110H972.527V78.8477L947.967 37.2949H958.709L977.459 69.375L996.502 37.2949H1006.76ZM1056.03 45.6445C1058.8 48.8346 1060.95 52.7897 1062.48 57.5098C1064.01 62.2298 1064.77 67.6172 1064.77 73.6719C1064.77 79.5638 1064.02 84.8861 1062.53 89.6387C1061.03 94.3913 1058.86 98.3789 1056.03 101.602C1053.07 104.987 1049.6 107.493 1045.63 109.121C1041.69 110.716 1037.35 111.514 1032.59 111.514C1027.68 111.514 1023.25 110.684 1019.31 109.023C1015.37 107.363 1011.99 104.889 1009.16 101.602C1006.36 98.3789 1004.21 94.4076 1002.71 89.6875C1001.21 84.9674 1000.46 79.6289 1000.46 73.6719C1000.46 67.5521 1001.21 62.181 1002.71 57.5586C1004.24 52.9362 1006.41 48.9648 1009.21 45.6445C1012 42.4219 1015.37 39.9805 1019.31 38.3203C1023.28 36.6276 1027.71 35.7812 1032.59 35.7812C1037.54 35.7812 1042 36.6439 1045.97 38.3691C1049.94 40.0944 1053.3 42.5195 1056.03 45.6445ZM1054.71 73.6719C1054.71 68.8542 1054.19 64.5898 1053.15 60.8789C1052.11 57.168 1050.64 54.0918 1048.76 51.6504C1046.84 49.1439 1044.51 47.2721 1041.77 46.0352C1039.07 44.7656 1036.03 44.1309 1032.64 44.1309C1029.13 44.1309 1026.05 44.7493 1023.41 45.9863C1020.81 47.1908 1018.5 49.0788 1016.48 51.6504C1014.56 54.1243 1013.08 57.2331 1012.04 60.9766C1011.03 64.7201 1010.52 68.9518 1010.52 73.6719C1010.52 83.2096 1012.53 90.5176 1016.53 95.5957C1020.53 100.641 1025.9 103.164 1032.64 103.164C1039.38 103.164 1044.74 100.641 1048.71 95.5957C1052.71 90.5176 1054.71 83.2096 1054.71 73.6719ZM1092.81 111.514C1088.54 111.514 1084.82 110.96 1081.62 109.854C1078.43 108.714 1075.72 107.038 1073.47 104.824C1070.93 102.285 1069.14 99.2578 1068.1 95.7422C1067.06 92.194 1066.54 87.832 1066.54 82.6562V37.2949H1076.21V82.6562C1076.21 86.0091 1076.42 88.8411 1076.84 91.1523C1077.26 93.431 1078.09 95.4818 1079.33 97.3047C1080.63 99.2578 1082.39 100.739 1084.6 101.748C1086.85 102.757 1089.58 103.262 1092.81 103.262C1095.83 103.262 1098.52 102.757 1100.86 101.748C1103.21 100.739 1105.03 99.2578 1106.33 97.3047C1107.54 95.4492 1108.35 93.3984 1108.77 91.1523C1109.23 88.9062 1109.46 86.1556 1109.46 82.9004V37.2949H1119.12V82.6562C1119.12 87.7018 1118.6 92.0312 1117.56 95.6445C1116.55 99.2578 1114.76 102.318 1112.19 104.824C1109.88 107.07 1107.18 108.747 1104.09 109.854C1101.03 110.96 1097.27 111.514 1092.81 111.514ZM1181.34 110H1168.79L1145.74 81.0938H1134.71V110H1125.04V37.2949H1143.79C1147.96 37.2949 1151.44 37.5228 1154.24 37.9785C1157.07 38.4342 1159.76 39.4922 1162.3 41.1523C1164.84 42.7799 1166.84 44.8796 1168.3 47.4512C1169.8 50.0228 1170.55 53.2129 1170.55 57.0215C1170.55 62.36 1169.2 66.8197 1166.5 70.4004C1163.79 73.9811 1160.12 76.6341 1155.46 78.3594L1181.34 110ZM1160.44 57.7539C1160.44 55.638 1160.07 53.7663 1159.32 52.1387C1158.57 50.4785 1157.41 49.1276 1155.85 48.0859C1154.48 47.1745 1152.89 46.5397 1151.07 46.1816C1149.24 45.791 1146.98 45.5957 1144.28 45.5957H1134.71V73.0371H1143.21C1145.97 73.0371 1148.46 72.793 1150.68 72.3047C1152.89 71.8164 1154.78 70.8073 1156.34 69.2773C1157.74 67.9102 1158.76 66.2826 1159.42 64.3945C1160.1 62.5065 1160.44 60.293 1160.44 57.7539Z" fill="black"/>
</svg>
