<svg width="812" height="185" viewBox="0 0 812 185" fill="none" xmlns="http://www.w3.org/2000/svg">
<path d="M0.4 98.7C0.4 94.65 2.5 89.85 7.15 89.85C11.2 89.85 14.5 92.55 14.5 96.75C14.5 99.6 13.45 102.3 13.45 105C13.45 110.7 20.95 111.3 25.15 111.3C37.3 111.3 47.2 97.2 47.2 85.95C47.2 66.9 20.05 61.35 20.05 41.7C20.05 25.2 35.95 6.74999 53.05 6.74999C60.4 6.74999 73 11.25 73 20.1C73 24.3 70 27.6 65.8 27.6C60.4 27.6 59.8 22.95 59.8 18.75C59.8 11.25 59.2 10.35 52 10.35C40.6 10.35 29.5 23.85 29.5 34.65C29.5 50.1 57.85 55.8 57.85 78C57.85 94.65 42.25 114.9 24.55 114.9C14.8 114.9 0.4 110.4 0.4 98.7ZM36.693 142.8C36.993 141.9 37.743 141.15 38.643 141C46.293 139.65 47.793 138.6 50.343 131.1C56.043 112.05 60.993 92.85 65.793 73.65C67.293 67.8 71.043 55.95 71.043 50.1C71.043 44.55 66.843 43.65 62.493 43.65C61.443 43.65 60.993 43.05 61.293 42.15C61.443 41.25 62.343 40.5 63.243 40.5H80.493C83.493 40.5 84.993 42.3 84.243 45.15L83.043 49.95C89.193 44.7 97.743 40.5 105.843 40.5C117.393 40.5 120.543 51.75 120.543 61.2C120.543 82.5 103.443 114.9 79.443 114.9C74.943 114.9 70.593 112.95 67.443 109.65C65.793 115.95 61.143 129.9 61.143 135.75C61.143 139.65 65.043 140.4 68.193 141C69.093 141.15 69.543 142.05 69.243 142.95C68.943 143.85 68.193 144.45 67.293 144.45H37.893C36.843 144.45 36.393 143.85 36.693 142.8ZM80.493 110.7C98.793 110.7 108.243 77.55 108.243 63C108.243 56.25 106.743 47.25 98.043 47.25C91.893 47.25 85.593 51.15 81.693 55.8L71.943 93.15C71.493 94.95 71.193 96.9 71.193 98.85C71.193 104.7 73.743 110.7 80.493 110.7ZM116.383 89.7C116.383 69.15 132.883 39.75 155.983 39.75C170.533 39.75 176.533 52.05 176.533 64.95C176.533 85.5 159.733 114.9 136.783 114.9C122.233 114.9 116.383 102.6 116.383 89.7ZM140.083 111.15C158.233 111.15 163.483 77.4 163.483 64.05C163.483 57.45 162.583 43.35 153.283 43.35C134.533 43.35 129.433 76.05 129.433 89.85C129.433 96.9 130.333 111.15 140.083 111.15ZM171.624 106.5C171.624 102.9 172.524 99.6 173.424 96.3C177.774 79.2 181.824 61.95 186.174 44.85L177.324 45C176.274 45 175.824 44.4 176.124 43.35C176.424 42.3 177.324 41.7 178.374 41.55C188.724 40.2 197.424 27.9 202.224 19.5C202.674 18.9 203.274 18.45 204.024 18.45C204.624 18.45 205.074 18.9 204.774 19.65L198.924 40.65L212.124 40.5C213.324 40.5 213.774 41.25 213.474 42.45C213.174 43.65 212.124 44.4 210.924 44.4L197.724 44.7C195.924 51.45 194.574 58.5 192.774 65.4L183.924 99.15C183.474 100.95 183.174 102.75 183.174 104.55C183.174 106.5 183.774 108.9 186.174 108.9C189.474 108.9 192.924 105.6 195.324 103.05C195.924 102.45 196.524 102.6 196.824 103.5C196.974 104.25 196.824 105.3 196.224 106.05C192.324 110.55 186.024 114.9 180.174 114.9C174.624 114.9 171.624 112.2 171.624 106.5ZM204.886 95.4C207.136 86.85 215.836 58.65 215.836 52.05C215.836 45.75 210.736 44.4 205.636 44.25C204.586 44.1 203.836 43.5 203.686 42.45C203.686 41.4 204.436 40.65 205.486 40.65L224.836 40.2C228.436 40.2 230.236 42.45 229.336 45.9L215.986 96.6C215.236 99.3 214.186 102 214.186 104.7C214.186 106.35 214.936 108.3 216.736 108.3C219.286 108.3 221.686 102.6 223.036 99.45C223.486 98.4 224.386 97.95 225.436 98.1C226.486 98.4 226.786 99.15 226.486 100.05C223.336 107.1 220.486 114 211.336 114C206.386 114 202.636 111.9 202.636 106.35C202.636 102.6 203.836 99 204.886 95.4ZM222.136 23.1C222.136 18 226.336 10.65 232.036 10.65C235.636 10.65 237.286 14.1 237.286 17.4C237.286 22.35 232.936 29.85 227.386 29.85C223.636 29.85 222.136 26.25 222.136 23.1ZM201.221 115.8C204.521 115.8 206.171 118.05 206.171 121.05C206.171 125.7 202.571 129.3 202.571 132.45C202.571 134.85 205.421 136.05 207.371 136.05C220.871 136.05 228.071 102 230.321 93.45L243.071 44.4H235.421C234.371 44.4 233.771 43.65 234.071 42.6C234.521 41.4 235.571 40.65 236.621 40.65H244.121C248.771 22.8 255.971 0.749992 278.321 0.749992C285.671 0.749992 292.721 4.35 292.721 12.6C292.721 18 288.971 25.05 282.971 25.05C279.671 25.05 278.471 22.05 278.471 19.2C278.471 14.55 281.771 10.8 281.771 7.49999C281.771 5.25 279.221 3.75 277.121 3.75C264.971 3.75 257.921 31.8 255.521 40.65H270.071C271.121 40.65 271.721 41.4 271.421 42.6C270.971 43.65 269.921 44.4 268.721 44.4H254.621L241.571 94.2C236.621 113.25 230.321 139.35 206.021 139.35C198.671 139.35 192.071 134.1 192.071 126.3C192.071 121.2 195.671 115.8 201.221 115.8ZM230.852 133.05C230.852 129 234.302 125.7 238.352 125.7C245.552 125.7 245.852 134.85 254.252 134.85C269.702 134.85 288.152 111.6 295.202 98.85C289.202 105.6 280.502 113.25 271.052 113.25C261.452 113.25 258.602 106.35 258.602 97.8C258.602 94.5 259.052 91.05 259.802 87.9L268.802 53.4C269.252 52.2 269.552 51 269.552 49.8C269.552 48.15 268.802 46.2 267.002 46.2C264.452 46.2 261.902 51.75 260.552 55.05C260.252 56.1 259.202 56.55 258.302 56.4C257.252 56.1 256.802 55.35 257.252 54.45C260.252 47.4 263.102 40.5 272.252 40.5C277.352 40.5 281.102 42.6 281.102 48.15C281.102 50.1 280.652 52.2 280.202 54.15L271.652 86.7C270.902 89.55 270.452 92.7 270.452 95.7C270.452 99.75 271.502 105.9 276.752 105.9C286.652 105.9 301.202 86.1 305.102 77.55C306.602 74.1 307.952 67.65 307.952 63.9C307.952 55.65 300.452 52.8 300.452 46.65C300.452 42.9 305.402 41.4 308.402 41.4C313.802 41.4 314.252 46.65 314.252 50.85C314.252 71.85 306.302 93 294.002 109.8C282.452 125.55 266.252 142.35 245.252 142.35C238.802 142.35 230.852 141.15 230.852 133.05ZM312.221 112.8C312.371 112.05 313.121 111.45 313.721 111.3C320.921 109.8 323.771 109.35 326.021 100.95L347.021 20.4C347.471 18.75 347.771 17.25 347.771 15.6C347.771 11.55 343.271 11.1 340.121 10.2C339.521 9.9 339.221 9.3 339.371 8.7C339.521 8.1 340.121 7.64999 340.871 7.64999C356.021 7.64999 371.171 7.64999 386.471 7.64999H393.521C397.121 7.64999 398.771 9.9 397.721 13.35L391.271 35.55C388.421 45.45 387.371 45.3 388.721 35.1C389.471 29.4 390.221 23.7 390.221 18C390.221 13.5 388.121 11.7 383.771 11.7C376.271 11.7 368.921 11.85 361.421 11.85L348.071 62.7H357.821C366.221 62.7 371.471 55.05 375.971 48.9C376.271 48.45 376.871 48.15 377.471 48.15C378.071 48.15 378.371 48.6 378.221 49.05C375.221 59.85 372.371 70.65 369.671 81.45C369.671 81.9 369.221 82.2 368.621 82.2C368.171 82.2 367.721 81.9 367.571 81.45C366.671 74.4 366.221 66.45 357.071 66.45H347.171L338.021 101.25C337.721 102.75 337.421 104.1 337.421 105.6C337.421 110.25 342.371 110.7 345.971 111.45C346.721 111.45 347.171 112.05 346.871 112.8C346.721 113.55 346.121 114 345.371 114H313.121C312.371 114 312.071 113.55 312.221 112.8ZM365.519 112.5C365.669 111.6 366.419 110.85 367.319 110.7C374.069 109.35 376.919 108.6 379.019 100.65L390.269 57.45C390.869 55.05 391.469 52.65 391.469 50.25C391.469 45.6 388.619 44.25 384.869 43.95C383.819 43.8 383.369 43.2 383.519 42.15C383.819 41.1 384.569 40.35 385.619 40.35L400.469 40.2C404.069 40.2 405.869 42.45 404.969 45.75C403.169 52.5 401.369 59.25 399.569 66C403.319 58.8 413.519 40.65 422.669 40.65C428.969 40.65 431.969 46.5 431.969 52.2C431.969 57.75 428.519 66.15 421.919 66.15C418.769 66.15 417.419 63.3 417.419 60.45C417.419 55.35 421.319 50.7 421.319 47.55C421.319 46.5 419.819 46.5 419.069 46.5C411.719 46.5 396.719 79.05 394.169 87.15C393.269 89.7 389.969 103.35 389.969 105.45C389.969 109.5 393.719 110.25 397.019 110.85C397.919 111 398.219 111.6 398.069 112.5C397.769 113.4 397.019 114 396.119 114H366.569C365.669 114 365.219 113.4 365.519 112.5ZM428.31 95.4C430.56 86.85 439.26 58.65 439.26 52.05C439.26 45.75 434.16 44.4 429.06 44.25C428.01 44.1 427.26 43.5 427.11 42.45C427.11 41.4 427.86 40.65 428.91 40.65L448.26 40.2C451.86 40.2 453.66 42.45 452.76 45.9L439.41 96.6C438.66 99.3 437.61 102 437.61 104.7C437.61 106.35 438.36 108.3 440.16 108.3C442.71 108.3 445.11 102.6 446.46 99.45C446.91 98.4 447.81 97.95 448.86 98.1C449.91 98.4 450.21 99.15 449.91 100.05C446.76 107.1 443.91 114 434.76 114C429.81 114 426.06 111.9 426.06 106.35C426.06 102.6 427.26 99 428.31 95.4ZM445.56 23.1C445.56 18 449.76 10.65 455.46 10.65C459.06 10.65 460.71 14.1 460.71 17.4C460.71 22.35 456.36 29.85 450.81 29.85C447.06 29.85 445.56 26.25 445.56 23.1ZM449.095 91.8C449.095 71.25 463.945 39.75 487.645 39.75C496.795 39.75 505.345 46.8 505.345 56.1C505.345 60.45 503.395 63.9 500.395 66.75C490.645 76.35 476.095 75.3 463.645 76.8C462.895 80.7 462.445 84.75 462.445 88.8C462.445 96.75 464.545 105.9 474.295 105.9C485.395 105.9 495.145 96 500.545 86.85C500.995 86.25 501.745 85.95 502.495 86.1C503.245 86.25 503.545 86.85 503.245 87.6C496.345 101.1 485.995 114.9 469.345 114.9C455.245 114.9 449.095 105 449.095 91.8ZM494.095 53.25C494.095 48.45 491.695 43.65 486.295 43.65C472.345 43.65 467.245 61.5 464.695 72.3C476.095 70.65 494.095 68.7 494.095 53.25ZM489.012 112.5C489.312 111.6 490.062 110.85 490.962 110.7C498.312 109.35 500.562 108.3 502.662 100.65C505.512 90.9 515.712 57.6 515.712 49.8C515.712 45 512.262 44.25 508.512 44.25C507.312 44.25 506.862 43.5 507.312 42.45C507.912 41.4 509.112 40.65 510.312 40.65L523.962 40.5C527.562 40.5 529.362 42.75 528.462 46.05L521.712 71.85C526.062 63.3 537.612 41.25 548.562 41.25C557.112 41.25 559.362 49.65 559.362 56.55C559.362 60 558.912 63.3 558.162 66.6L550.212 96.6C549.612 99.3 548.412 102 548.412 104.7C548.412 106.35 549.162 108.3 550.962 108.3C553.512 108.3 556.062 102.6 557.412 99.45C557.712 98.4 558.762 97.95 559.662 98.1C560.712 98.4 561.162 99.15 560.712 100.05C557.562 107.1 554.862 114 545.712 114C540.612 114 536.862 111.9 536.862 106.35C536.862 102.6 538.212 99 539.112 95.4L546.312 67.8C547.212 64.2 547.812 60.45 547.812 56.55C547.812 53.85 547.512 48.6 543.762 48.6C542.862 48.6 541.962 48.75 541.062 49.2C536.712 51.3 520.362 78.45 518.562 84C517.062 88.8 513.462 100.8 513.462 105.45C513.462 109.5 517.362 110.25 520.512 110.85C521.412 111 521.862 111.6 521.562 112.5C521.412 113.4 520.662 114 519.762 114H490.212C489.312 114 488.862 113.4 489.012 112.5ZM559.395 93.75C559.395 74.1 576.345 39.45 597.945 39.45C602.745 39.45 606.645 42.6 609.045 46.5L616.245 18.6C616.995 16.2 617.445 13.8 617.445 11.4C617.445 7.04999 614.895 5.85 610.995 5.85C610.095 5.85 609.345 5.85 608.445 6C607.245 6 606.645 5.39999 606.945 4.35C607.245 3.15 608.145 2.4 609.195 2.24999L626.295 0.899999C630.045 0.599994 631.845 2.84999 630.945 6.6L607.245 97.2C606.645 99.9 605.445 102.6 605.445 105.3C605.445 107.1 606.045 108.3 607.995 108.3C610.545 108.3 612.945 102.75 614.295 99.45C614.745 98.4 615.645 97.95 616.695 98.1C617.745 98.4 618.045 99.15 617.595 100.05C614.595 107.1 611.745 114 602.595 114C597.345 114 593.745 111.75 593.895 106.05C588.495 110.7 581.595 114.75 574.395 114.75C562.845 114.75 559.395 103.5 559.395 93.75ZM582.645 105.6C586.845 105.6 591.045 104.25 594.645 101.85C598.095 85.65 602.745 69.75 607.095 53.85C606.045 48.6 602.895 43.65 596.895 43.65C585.795 43.65 576.645 66.9 574.395 75.9C573.345 80.25 572.595 84.9 572.595 89.4C572.595 96 574.095 105.6 582.645 105.6ZM612.333 102.45C612.333 99.6 613.683 94.8 617.283 94.8C625.233 94.8 618.633 111.6 630.483 111.6C638.433 111.6 644.133 103.5 644.133 96.15C644.133 83.4 625.983 78.9 625.983 64.8C625.983 52.2 639.333 39.75 651.933 39.75C657.933 39.75 663.633 42.6 663.633 49.5C663.633 52.5 661.983 56.25 658.533 56.25C655.533 56.25 653.133 54.6 653.133 51.45C653.133 49.2 654.183 47.25 654.183 45C654.183 43.35 652.683 43.05 651.333 43.05C644.433 43.05 635.433 49.35 635.433 56.7C635.433 66.75 655.683 72.3 655.683 88.35C655.683 102.9 641.883 114.9 627.633 114.9C619.983 114.9 612.333 111.3 612.333 102.45Z" fill="black"/>
<path d="M4.84375 168.828C4.84375 170.62 5.22396 172.12 5.98438 173.328C6.74479 174.536 7.96354 175.141 9.64062 175.141C10.9427 175.141 12.0104 174.583 12.8438 173.469C13.6875 172.344 14.1094 170.734 14.1094 168.641C14.1094 166.526 13.6771 164.964 12.8125 163.953C11.9479 162.932 10.8802 162.422 9.60938 162.422C8.19271 162.422 7.04167 162.964 6.15625 164.047C5.28125 165.13 4.84375 166.724 4.84375 168.828ZM9.07812 159.969C10.3594 159.969 11.4323 160.24 12.2969 160.781C12.7969 161.094 13.3646 161.641 14 162.422V153.969H16.7031V177H14.1719V174.672C13.5156 175.703 12.7396 176.448 11.8438 176.906C10.9479 177.365 9.92188 177.594 8.76562 177.594C6.90104 177.594 5.28646 176.812 3.92188 175.25C2.55729 173.677 1.875 171.589 1.875 168.984C1.875 166.547 2.49479 164.438 3.73438 162.656C4.98438 160.865 6.76562 159.969 9.07812 159.969ZM18.955 160.344H21.8144V177H18.955V160.344ZM18.955 154.047H21.8144V157.234H18.955V154.047ZM25.8319 171.75C25.9152 172.688 26.1496 173.406 26.535 173.906C27.2433 174.812 28.4725 175.266 30.2225 175.266C31.2642 175.266 32.1808 175.042 32.9725 174.594C33.7642 174.135 34.16 173.432 34.16 172.484C34.16 171.766 33.8423 171.219 33.2069 170.844C32.8006 170.615 31.9985 170.349 30.8006 170.047L28.5662 169.484C27.1392 169.13 26.0871 168.734 25.41 168.297C24.2017 167.536 23.5975 166.484 23.5975 165.141C23.5975 163.557 24.1652 162.276 25.3006 161.297C26.4465 160.318 27.9829 159.828 29.91 159.828C32.4308 159.828 34.2485 160.568 35.3631 162.047C36.061 162.984 36.3996 163.995 36.3787 165.078H33.7225C33.6704 164.443 33.4465 163.865 33.0506 163.344C32.4048 162.604 31.285 162.234 29.6912 162.234C28.6287 162.234 27.8215 162.438 27.2694 162.844C26.7277 163.25 26.4569 163.786 26.4569 164.453C26.4569 165.182 26.8162 165.766 27.535 166.203C27.9517 166.464 28.5662 166.693 29.3787 166.891L31.2381 167.344C33.259 167.833 34.6131 168.307 35.3006 168.766C36.3944 169.484 36.9412 170.615 36.9412 172.156C36.9412 173.646 36.3735 174.932 35.2381 176.016C34.1131 177.099 32.3944 177.641 30.0819 177.641C27.5923 177.641 25.8267 177.078 24.785 175.953C23.7537 174.818 23.2017 173.417 23.1287 171.75H25.8319ZM44.6931 159.781C46.5785 159.781 48.1098 160.24 49.2869 161.156C50.4744 162.073 51.1879 163.651 51.4275 165.891H48.6931C48.5265 164.859 48.1463 164.005 47.5525 163.328C46.9588 162.641 46.0056 162.297 44.6931 162.297C42.9015 162.297 41.6202 163.172 40.8494 164.922C40.3494 166.057 40.0994 167.458 40.0994 169.125C40.0994 170.802 40.4535 172.214 41.1619 173.359C41.8702 174.505 42.9848 175.078 44.5056 175.078C45.6723 175.078 46.5942 174.724 47.2713 174.016C47.9588 173.297 48.4327 172.318 48.6931 171.078H51.4275C51.115 173.297 50.3338 174.922 49.0838 175.953C47.8338 176.974 46.2348 177.484 44.2869 177.484C42.0994 177.484 40.3546 176.688 39.0525 175.094C37.7504 173.49 37.0994 171.49 37.0994 169.094C37.0994 166.156 37.8129 163.87 39.24 162.234C40.6671 160.599 42.4848 159.781 44.6931 159.781ZM58.9606 175.188C60.8252 175.188 62.1012 174.484 62.7887 173.078C63.4867 171.661 63.8356 170.089 63.8356 168.359C63.8356 166.797 63.5856 165.526 63.0856 164.547C62.294 163.005 60.9294 162.234 58.9919 162.234C57.2731 162.234 56.0231 162.891 55.2419 164.203C54.4606 165.516 54.07 167.099 54.07 168.953C54.07 170.734 54.4606 172.219 55.2419 173.406C56.0231 174.594 57.2627 175.188 58.9606 175.188ZM59.07 159.781C61.2262 159.781 63.0492 160.5 64.5387 161.938C66.0283 163.375 66.7731 165.49 66.7731 168.281C66.7731 170.979 66.1169 173.208 64.8044 174.969C63.4919 176.729 61.4554 177.609 58.695 177.609C56.3929 177.609 54.5648 176.833 53.2106 175.281C51.8565 173.719 51.1794 171.625 51.1794 169C51.1794 166.188 51.8929 163.948 53.32 162.281C54.7471 160.615 56.6637 159.781 59.07 159.781ZM69.5875 160.266L74.0563 173.891L78.7281 160.266H81.8063L75.4938 177H72.4938L66.3219 160.266H69.5875ZM89.2613 159.891C90.4488 159.891 91.5998 160.172 92.7144 160.734C93.829 161.286 94.6779 162.005 95.2613 162.891C95.8238 163.734 96.1988 164.719 96.3863 165.844C96.5529 166.615 96.6363 167.844 96.6363 169.531H84.3706C84.4227 171.229 84.8238 172.594 85.5738 173.625C86.3238 174.646 87.4852 175.156 89.0581 175.156C90.5269 175.156 91.6988 174.672 92.5738 173.703C93.0738 173.141 93.4279 172.49 93.6363 171.75H96.4019C96.329 172.365 96.0842 173.052 95.6675 173.812C95.2613 174.562 94.8029 175.177 94.2925 175.656C93.4383 176.49 92.381 177.052 91.1206 177.344C90.4435 177.51 89.6779 177.594 88.8238 177.594C86.7404 177.594 84.9748 176.839 83.5269 175.328C82.079 173.807 81.355 171.682 81.355 168.953C81.355 166.266 82.0842 164.083 83.5425 162.406C85.0008 160.729 86.9071 159.891 89.2613 159.891ZM93.7456 167.297C93.631 166.078 93.3654 165.104 92.9488 164.375C92.1779 163.021 90.8915 162.344 89.0894 162.344C87.7977 162.344 86.7144 162.812 85.8394 163.75C84.9644 164.677 84.5008 165.859 84.4488 167.297H93.7456ZM98.2631 160.266H100.935V163.156C101.154 162.594 101.69 161.911 102.544 161.109C103.399 160.297 104.383 159.891 105.497 159.891C105.55 159.891 105.638 159.896 105.763 159.906C105.888 159.917 106.102 159.938 106.404 159.969V162.938C106.237 162.906 106.081 162.885 105.935 162.875C105.8 162.865 105.649 162.859 105.482 162.859C104.065 162.859 102.977 163.318 102.216 164.234C101.456 165.141 101.076 166.188 101.076 167.375V177H98.2631V160.266ZM124.361 160.266H127.47C127.074 161.339 126.194 163.786 124.829 167.609C123.809 170.484 122.954 172.828 122.267 174.641C120.642 178.911 119.496 181.516 118.829 182.453C118.163 183.391 117.017 183.859 115.392 183.859C114.996 183.859 114.689 183.844 114.47 183.812C114.262 183.781 114.001 183.724 113.689 183.641V181.078C114.178 181.214 114.533 181.297 114.751 181.328C114.97 181.359 115.163 181.375 115.329 181.375C115.85 181.375 116.23 181.286 116.47 181.109C116.72 180.943 116.928 180.734 117.095 180.484C117.147 180.401 117.335 179.974 117.658 179.203C117.98 178.432 118.215 177.859 118.361 177.484L112.173 160.266H115.361L119.845 173.891L124.361 160.266ZM134.628 175.188C136.493 175.188 137.769 174.484 138.456 173.078C139.154 171.661 139.503 170.089 139.503 168.359C139.503 166.797 139.253 165.526 138.753 164.547C137.961 163.005 136.597 162.234 134.659 162.234C132.941 162.234 131.691 162.891 130.909 164.203C130.128 165.516 129.738 167.099 129.738 168.953C129.738 170.734 130.128 172.219 130.909 173.406C131.691 174.594 132.93 175.188 134.628 175.188ZM134.738 159.781C136.894 159.781 138.717 160.5 140.206 161.938C141.696 163.375 142.441 165.49 142.441 168.281C142.441 170.979 141.784 173.208 140.472 174.969C139.159 176.729 137.123 177.609 134.363 177.609C132.06 177.609 130.232 176.833 128.878 175.281C127.524 173.719 126.847 171.625 126.847 169C126.847 166.188 127.56 163.948 128.988 162.281C130.415 160.615 132.331 159.781 134.738 159.781ZM146.693 160.266V171.375C146.693 172.229 146.828 172.927 147.099 173.469C147.599 174.469 148.531 174.969 149.896 174.969C151.854 174.969 153.187 174.094 153.896 172.344C154.281 171.406 154.474 170.12 154.474 168.484V160.266H157.286V177H154.63L154.661 174.531C154.297 175.167 153.844 175.703 153.302 176.141C152.229 177.016 150.927 177.453 149.396 177.453C147.01 177.453 145.385 176.656 144.521 175.062C144.052 174.208 143.818 173.068 143.818 171.641V160.266H146.693ZM159.851 160.266H162.523V163.156C162.741 162.594 163.278 161.911 164.132 161.109C164.986 160.297 165.97 159.891 167.085 159.891C167.137 159.891 167.226 159.896 167.351 159.906C167.476 159.917 167.689 159.938 167.991 159.969V162.938C167.825 162.906 167.668 162.885 167.523 162.875C167.387 162.865 167.236 162.859 167.069 162.859C165.653 162.859 164.564 163.318 163.804 164.234C163.043 165.141 162.663 166.188 162.663 167.375V177H159.851V160.266ZM176.198 157.719C176.24 156.552 176.443 155.698 176.807 155.156C177.464 154.198 178.729 153.719 180.604 153.719C180.781 153.719 180.964 153.724 181.151 153.734C181.339 153.745 181.552 153.76 181.792 153.781V156.344C181.5 156.323 181.287 156.312 181.151 156.312C181.026 156.302 180.906 156.297 180.792 156.297C179.938 156.297 179.427 156.521 179.261 156.969C179.094 157.406 179.011 158.531 179.011 160.344H181.792V162.562H178.979V177H176.198V162.562H173.87V160.344H176.198V157.719ZM182.559 160.266H185.231V163.156C185.45 162.594 185.986 161.911 186.841 161.109C187.695 160.297 188.679 159.891 189.794 159.891C189.846 159.891 189.934 159.896 190.059 159.906C190.184 159.917 190.398 159.938 190.7 159.969V162.938C190.533 162.906 190.377 162.885 190.231 162.875C190.096 162.865 189.945 162.859 189.778 162.859C188.361 162.859 187.273 163.318 186.512 164.234C185.752 165.141 185.372 166.188 185.372 167.375V177H182.559V160.266ZM191.217 160.344H194.077V177H191.217V160.344ZM191.217 154.047H194.077V157.234H191.217V154.047ZM203.391 159.891C204.579 159.891 205.73 160.172 206.844 160.734C207.959 161.286 208.808 162.005 209.391 162.891C209.954 163.734 210.329 164.719 210.516 165.844C210.683 166.615 210.766 167.844 210.766 169.531H198.501C198.553 171.229 198.954 172.594 199.704 173.625C200.454 174.646 201.615 175.156 203.188 175.156C204.657 175.156 205.829 174.672 206.704 173.703C207.204 173.141 207.558 172.49 207.766 171.75H210.532C210.459 172.365 210.214 173.052 209.798 173.812C209.391 174.562 208.933 175.177 208.423 175.656C207.568 176.49 206.511 177.052 205.251 177.344C204.574 177.51 203.808 177.594 202.954 177.594C200.87 177.594 199.105 176.839 197.657 175.328C196.209 173.807 195.485 171.682 195.485 168.953C195.485 166.266 196.214 164.083 197.673 162.406C199.131 160.729 201.037 159.891 203.391 159.891ZM207.876 167.297C207.761 166.078 207.495 165.104 207.079 164.375C206.308 163.021 205.021 162.344 203.219 162.344C201.928 162.344 200.844 162.812 199.969 163.75C199.094 164.677 198.631 165.859 198.579 167.297H207.876ZM212.315 160.266H214.987V162.641C215.779 161.661 216.617 160.958 217.503 160.531C218.388 160.104 219.372 159.891 220.456 159.891C222.831 159.891 224.435 160.719 225.268 162.375C225.726 163.281 225.956 164.578 225.956 166.266V177H223.096V166.453C223.096 165.432 222.945 164.609 222.643 163.984C222.143 162.943 221.237 162.422 219.924 162.422C219.258 162.422 218.711 162.49 218.284 162.625C217.513 162.854 216.836 163.312 216.253 164C215.784 164.552 215.476 165.125 215.331 165.719C215.195 166.302 215.128 167.141 215.128 168.234V177H212.315V160.266ZM229.989 168.828C229.989 170.62 230.369 172.12 231.129 173.328C231.89 174.536 233.109 175.141 234.786 175.141C236.088 175.141 237.155 174.583 237.989 173.469C238.833 172.344 239.254 170.734 239.254 168.641C239.254 166.526 238.822 164.964 237.958 163.953C237.093 162.932 236.025 162.422 234.754 162.422C233.338 162.422 232.187 162.964 231.301 164.047C230.426 165.13 229.989 166.724 229.989 168.828ZM234.223 159.969C235.504 159.969 236.577 160.24 237.442 160.781C237.942 161.094 238.51 161.641 239.145 162.422V153.969H241.848V177H239.317V174.672C238.661 175.703 237.885 176.448 236.989 176.906C236.093 177.365 235.067 177.594 233.911 177.594C232.046 177.594 230.431 176.812 229.067 175.25C227.702 173.677 227.02 171.589 227.02 168.984C227.02 166.547 227.64 164.438 228.879 162.656C230.129 160.865 231.911 159.969 234.223 159.969ZM245.772 171.75C245.855 172.688 246.09 173.406 246.475 173.906C247.183 174.812 248.413 175.266 250.163 175.266C251.204 175.266 252.121 175.042 252.913 174.594C253.704 174.135 254.1 173.432 254.1 172.484C254.1 171.766 253.782 171.219 253.147 170.844C252.741 170.615 251.939 170.349 250.741 170.047L248.506 169.484C247.079 169.13 246.027 168.734 245.35 168.297C244.142 167.536 243.538 166.484 243.538 165.141C243.538 163.557 244.105 162.276 245.241 161.297C246.386 160.318 247.923 159.828 249.85 159.828C252.371 159.828 254.189 160.568 255.303 162.047C256.001 162.984 256.34 163.995 256.319 165.078H253.663C253.61 164.443 253.386 163.865 252.991 163.344C252.345 162.604 251.225 162.234 249.631 162.234C248.569 162.234 247.761 162.438 247.209 162.844C246.668 163.25 246.397 163.786 246.397 164.453C246.397 165.182 246.756 165.766 247.475 166.203C247.892 166.464 248.506 166.693 249.319 166.891L251.178 167.344C253.199 167.833 254.553 168.307 255.241 168.766C256.334 169.484 256.881 170.615 256.881 172.156C256.881 173.646 256.314 174.932 255.178 176.016C254.053 177.099 252.334 177.641 250.022 177.641C247.532 177.641 245.767 177.078 244.725 175.953C243.694 174.818 243.142 173.417 243.069 171.75H245.772ZM258.774 160.719C259.347 160.625 259.779 160.302 260.071 159.75C260.373 159.198 260.524 158.562 260.524 157.844C260.524 157.771 260.519 157.708 260.508 157.656C260.508 157.594 260.498 157.526 260.477 157.453H258.774V154.047H262.118V157.188C262.118 158.521 261.841 159.656 261.289 160.594C260.737 161.521 259.899 162.052 258.774 162.188V160.719ZM269.262 154.047H272.074V177H269.262V154.047ZM274.389 160.344H277.248V177H274.389V160.344ZM274.389 154.047H277.248V157.234H274.389V154.047ZM281.266 171.75C281.349 172.688 281.583 173.406 281.969 173.906C282.677 174.812 283.906 175.266 285.656 175.266C286.698 175.266 287.615 175.042 288.406 174.594C289.198 174.135 289.594 173.432 289.594 172.484C289.594 171.766 289.276 171.219 288.641 170.844C288.234 170.615 287.432 170.349 286.234 170.047L284 169.484C282.573 169.13 281.521 168.734 280.844 168.297C279.635 167.536 279.031 166.484 279.031 165.141C279.031 163.557 279.599 162.276 280.734 161.297C281.88 160.318 283.417 159.828 285.344 159.828C287.865 159.828 289.682 160.568 290.797 162.047C291.495 162.984 291.833 163.995 291.812 165.078H289.156C289.104 164.443 288.88 163.865 288.484 163.344C287.839 162.604 286.719 162.234 285.125 162.234C284.062 162.234 283.255 162.438 282.703 162.844C282.161 163.25 281.891 163.786 281.891 164.453C281.891 165.182 282.25 165.766 282.969 166.203C283.385 166.464 284 166.693 284.812 166.891L286.672 167.344C288.693 167.833 290.047 168.307 290.734 168.766C291.828 169.484 292.375 170.615 292.375 172.156C292.375 173.646 291.807 174.932 290.672 176.016C289.547 177.099 287.828 177.641 285.516 177.641C283.026 177.641 281.26 177.078 280.219 175.953C279.188 174.818 278.635 173.417 278.562 171.75H281.266ZM294.236 155.594H297.08V160.266H299.752V162.562H297.08V173.484C297.08 174.068 297.278 174.458 297.674 174.656C297.892 174.771 298.257 174.828 298.767 174.828C298.903 174.828 299.049 174.828 299.205 174.828C299.361 174.818 299.544 174.802 299.752 174.781V177C299.429 177.094 299.09 177.161 298.736 177.203C298.392 177.245 298.017 177.266 297.611 177.266C296.299 177.266 295.408 176.932 294.939 176.266C294.471 175.589 294.236 174.714 294.236 173.641V162.562H291.971V160.266H294.236V155.594ZM307.629 159.891C308.816 159.891 309.967 160.172 311.082 160.734C312.196 161.286 313.045 162.005 313.629 162.891C314.191 163.734 314.566 164.719 314.754 165.844C314.92 166.615 315.004 167.844 315.004 169.531H302.738C302.79 171.229 303.191 172.594 303.941 173.625C304.691 174.646 305.853 175.156 307.426 175.156C308.894 175.156 310.066 174.672 310.941 173.703C311.441 173.141 311.795 172.49 312.004 171.75H314.769C314.696 172.365 314.452 173.052 314.035 173.812C313.629 174.562 313.17 175.177 312.66 175.656C311.806 176.49 310.749 177.052 309.488 177.344C308.811 177.51 308.045 177.594 307.191 177.594C305.108 177.594 303.342 176.839 301.894 175.328C300.446 173.807 299.723 171.682 299.723 168.953C299.723 166.266 300.452 164.083 301.91 162.406C303.368 160.729 305.275 159.891 307.629 159.891ZM312.113 167.297C311.999 166.078 311.733 165.104 311.316 164.375C310.545 163.021 309.259 162.344 307.457 162.344C306.165 162.344 305.082 162.812 304.207 163.75C303.332 164.677 302.868 165.859 302.816 167.297H312.113ZM316.552 160.266H319.224V162.641C320.016 161.661 320.855 160.958 321.74 160.531C322.625 160.104 323.61 159.891 324.693 159.891C327.068 159.891 328.672 160.719 329.506 162.375C329.964 163.281 330.193 164.578 330.193 166.266V177H327.334V166.453C327.334 165.432 327.183 164.609 326.881 163.984C326.381 162.943 325.474 162.422 324.162 162.422C323.495 162.422 322.948 162.49 322.521 162.625C321.75 162.854 321.073 163.312 320.49 164C320.021 164.552 319.714 165.125 319.568 165.719C319.433 166.302 319.365 167.141 319.365 168.234V177H316.552V160.266ZM332.445 160.344H335.304V177H332.445V160.344ZM332.445 154.047H335.304V157.234H332.445V154.047ZM337.65 160.266H340.322V162.641C341.114 161.661 341.952 160.958 342.837 160.531C343.723 160.104 344.707 159.891 345.791 159.891C348.166 159.891 349.77 160.719 350.603 162.375C351.061 163.281 351.291 164.578 351.291 166.266V177H348.431V166.453C348.431 165.432 348.28 164.609 347.978 163.984C347.478 162.943 346.572 162.422 345.259 162.422C344.593 162.422 344.046 162.49 343.619 162.625C342.848 162.854 342.171 163.312 341.587 164C341.119 164.552 340.811 165.125 340.666 165.719C340.53 166.302 340.462 167.141 340.462 168.234V177H337.65V160.266ZM359.449 159.969C360.761 159.969 361.907 160.292 362.886 160.938C363.418 161.302 363.959 161.833 364.511 162.531V160.422H367.105V175.641C367.105 177.766 366.793 179.443 366.168 180.672C365.001 182.943 362.798 184.078 359.558 184.078C357.756 184.078 356.24 183.672 355.011 182.859C353.782 182.057 353.095 180.797 352.949 179.078H355.808C355.944 179.828 356.214 180.406 356.621 180.812C357.256 181.438 358.256 181.75 359.621 181.75C361.777 181.75 363.188 180.99 363.855 179.469C364.251 178.573 364.433 176.974 364.402 174.672C363.839 175.526 363.162 176.161 362.371 176.578C361.579 176.995 360.532 177.203 359.23 177.203C357.418 177.203 355.829 176.562 354.464 175.281C353.11 173.99 352.433 171.859 352.433 168.891C352.433 166.089 353.115 163.901 354.48 162.328C355.855 160.755 357.511 159.969 359.449 159.969ZM364.511 168.562C364.511 166.49 364.084 164.953 363.23 163.953C362.376 162.953 361.287 162.453 359.964 162.453C357.985 162.453 356.631 163.38 355.902 165.234C355.516 166.224 355.324 167.521 355.324 169.125C355.324 171.01 355.704 172.448 356.464 173.438C357.235 174.417 358.266 174.906 359.558 174.906C361.579 174.906 363.001 173.995 363.824 172.172C364.282 171.141 364.511 169.938 364.511 168.562ZM378.578 172.547C378.578 173.359 378.874 174 379.468 174.469C380.062 174.938 380.765 175.172 381.578 175.172C382.567 175.172 383.525 174.943 384.453 174.484C386.015 173.724 386.796 172.479 386.796 170.75V168.484C386.453 168.703 386.01 168.885 385.468 169.031C384.926 169.177 384.395 169.281 383.874 169.344L382.171 169.562C381.15 169.698 380.385 169.911 379.874 170.203C379.01 170.693 378.578 171.474 378.578 172.547ZM385.39 166.859C386.036 166.776 386.468 166.505 386.687 166.047C386.812 165.797 386.874 165.438 386.874 164.969C386.874 164.01 386.531 163.318 385.843 162.891C385.166 162.453 384.192 162.234 382.921 162.234C381.453 162.234 380.411 162.63 379.796 163.422C379.453 163.859 379.229 164.51 379.124 165.375H376.499C376.551 163.312 377.218 161.88 378.499 161.078C379.791 160.266 381.286 159.859 382.984 159.859C384.953 159.859 386.551 160.234 387.781 160.984C388.999 161.734 389.609 162.901 389.609 164.484V174.125C389.609 174.417 389.666 174.651 389.781 174.828C389.906 175.005 390.161 175.094 390.546 175.094C390.671 175.094 390.812 175.089 390.968 175.078C391.124 175.057 391.291 175.031 391.468 175V177.078C391.031 177.203 390.697 177.281 390.468 177.312C390.239 177.344 389.926 177.359 389.531 177.359C388.562 177.359 387.859 177.016 387.421 176.328C387.192 175.964 387.031 175.448 386.937 174.781C386.364 175.531 385.541 176.182 384.468 176.734C383.395 177.286 382.213 177.562 380.921 177.562C379.369 177.562 378.098 177.094 377.109 176.156C376.13 175.208 375.64 174.026 375.64 172.609C375.64 171.057 376.124 169.854 377.093 169C378.062 168.146 379.333 167.62 380.906 167.422L385.39 166.859ZM398.767 159.781C400.652 159.781 402.184 160.24 403.361 161.156C404.548 162.073 405.262 163.651 405.501 165.891H402.767C402.6 164.859 402.22 164.005 401.626 163.328C401.033 162.641 400.079 162.297 398.767 162.297C396.975 162.297 395.694 163.172 394.923 164.922C394.423 166.057 394.173 167.458 394.173 169.125C394.173 170.802 394.527 172.214 395.236 173.359C395.944 174.505 397.059 175.078 398.579 175.078C399.746 175.078 400.668 174.724 401.345 174.016C402.033 173.297 402.506 172.318 402.767 171.078H405.501C405.189 173.297 404.408 174.922 403.158 175.953C401.908 176.974 400.309 177.484 398.361 177.484C396.173 177.484 394.428 176.688 393.126 175.094C391.824 173.49 391.173 171.49 391.173 169.094C391.173 166.156 391.887 163.87 393.314 162.234C394.741 160.599 396.559 159.781 398.767 159.781ZM406.956 155.594H409.8V160.266H412.472V162.562H409.8V173.484C409.8 174.068 409.998 174.458 410.394 174.656C410.612 174.771 410.977 174.828 411.487 174.828C411.623 174.828 411.769 174.828 411.925 174.828C412.081 174.818 412.264 174.802 412.472 174.781V177C412.149 177.094 411.81 177.161 411.456 177.203C411.112 177.245 410.737 177.266 410.331 177.266C409.019 177.266 408.128 176.932 407.659 176.266C407.191 175.589 406.956 174.714 406.956 173.641V162.562H404.691V160.266H406.956V155.594ZM413.38 160.344H416.239V177H413.38V160.344ZM413.38 154.047H416.239V157.234H413.38V154.047ZM419.96 160.266L424.429 173.891L429.101 160.266H432.179L425.866 177H422.866L416.694 160.266H419.96ZM432.665 160.344H435.524V177H432.665V160.344ZM432.665 154.047H435.524V157.234H432.665V154.047ZM438.432 155.594H441.276V160.266H443.948V162.562H441.276V173.484C441.276 174.068 441.474 174.458 441.87 174.656C442.089 174.771 442.453 174.828 442.964 174.828C443.099 174.828 443.245 174.828 443.401 174.828C443.557 174.818 443.74 174.802 443.948 174.781V177C443.625 177.094 443.287 177.161 442.932 177.203C442.589 177.245 442.214 177.266 441.807 177.266C440.495 177.266 439.604 176.932 439.136 176.266C438.667 175.589 438.432 174.714 438.432 173.641V162.562H436.167V160.266H438.432V155.594ZM455.309 160.266H458.419C458.023 161.339 457.143 163.786 455.778 167.609C454.757 170.484 453.903 172.828 453.216 174.641C451.591 178.911 450.445 181.516 449.778 182.453C449.111 183.391 447.966 183.859 446.341 183.859C445.945 183.859 445.638 183.844 445.419 183.812C445.21 183.781 444.95 183.724 444.638 183.641V181.078C445.127 181.214 445.481 181.297 445.7 181.328C445.919 181.359 446.111 181.375 446.278 181.375C446.799 181.375 447.179 181.286 447.419 181.109C447.669 180.943 447.877 180.734 448.044 180.484C448.096 180.401 448.283 179.974 448.606 179.203C448.929 178.432 449.164 177.859 449.309 177.484L443.122 160.266H446.309L450.794 173.891L455.309 160.266ZM457.155 180.266C457.874 180.141 458.379 179.635 458.671 178.75C458.827 178.281 458.905 177.828 458.905 177.391C458.905 177.318 458.9 177.25 458.889 177.188C458.889 177.135 458.879 177.073 458.858 177H457.155V173.594H460.499V176.75C460.499 177.99 460.249 179.078 459.749 180.016C459.249 180.953 458.384 181.531 457.155 181.75V180.266ZM472.69 172.547C472.69 173.359 472.987 174 473.581 174.469C474.174 174.938 474.878 175.172 475.69 175.172C476.68 175.172 477.638 174.943 478.565 174.484C480.128 173.724 480.909 172.479 480.909 170.75V168.484C480.565 168.703 480.122 168.885 479.581 169.031C479.039 169.177 478.508 169.281 477.987 169.344L476.284 169.562C475.263 169.698 474.497 169.911 473.987 170.203C473.122 170.693 472.69 171.474 472.69 172.547ZM479.503 166.859C480.148 166.776 480.581 166.505 480.799 166.047C480.924 165.797 480.987 165.438 480.987 164.969C480.987 164.01 480.643 163.318 479.956 162.891C479.279 162.453 478.305 162.234 477.034 162.234C475.565 162.234 474.523 162.63 473.909 163.422C473.565 163.859 473.341 164.51 473.237 165.375H470.612C470.664 163.312 471.331 161.88 472.612 161.078C473.904 160.266 475.398 159.859 477.096 159.859C479.065 159.859 480.664 160.234 481.893 160.984C483.112 161.734 483.721 162.901 483.721 164.484V174.125C483.721 174.417 483.779 174.651 483.893 174.828C484.018 175.005 484.273 175.094 484.659 175.094C484.784 175.094 484.924 175.089 485.081 175.078C485.237 175.057 485.404 175.031 485.581 175V177.078C485.143 177.203 484.81 177.281 484.581 177.312C484.351 177.344 484.039 177.359 483.643 177.359C482.674 177.359 481.971 177.016 481.534 176.328C481.305 175.964 481.143 175.448 481.049 174.781C480.476 175.531 479.654 176.182 478.581 176.734C477.508 177.286 476.325 177.562 475.034 177.562C473.482 177.562 472.211 177.094 471.221 176.156C470.242 175.208 469.753 174.026 469.753 172.609C469.753 171.057 470.237 169.854 471.206 169C472.174 168.146 473.445 167.62 475.018 167.422L479.503 166.859ZM486.426 160.266H489.098V162.641C489.89 161.661 490.728 160.958 491.614 160.531C492.499 160.104 493.484 159.891 494.567 159.891C496.942 159.891 498.546 160.719 499.379 162.375C499.838 163.281 500.067 164.578 500.067 166.266V177H497.207V166.453C497.207 165.432 497.056 164.609 496.754 163.984C496.254 162.943 495.348 162.422 494.036 162.422C493.369 162.422 492.822 162.49 492.395 162.625C491.624 162.854 490.947 163.312 490.364 164C489.895 164.552 489.588 165.125 489.442 165.719C489.306 166.302 489.239 167.141 489.239 168.234V177H486.426V160.266ZM512.772 160.266H515.881C515.485 161.339 514.605 163.786 513.241 167.609C512.22 170.484 511.366 172.828 510.678 174.641C509.053 178.911 507.907 181.516 507.241 182.453C506.574 183.391 505.428 183.859 503.803 183.859C503.407 183.859 503.1 183.844 502.881 183.812C502.673 183.781 502.413 183.724 502.1 183.641V181.078C502.59 181.214 502.944 181.297 503.163 181.328C503.381 181.359 503.574 181.375 503.741 181.375C504.261 181.375 504.642 181.286 504.881 181.109C505.131 180.943 505.34 180.734 505.506 180.484C505.558 180.401 505.746 179.974 506.069 179.203C506.392 178.432 506.626 177.859 506.772 177.484L500.584 160.266H503.772L508.256 173.891L512.772 160.266ZM516.961 155.594H519.805V160.266H522.477V162.562H519.805V173.484C519.805 174.068 520.003 174.458 520.399 174.656C520.617 174.771 520.982 174.828 521.492 174.828C521.628 174.828 521.774 174.828 521.93 174.828C522.086 174.818 522.269 174.802 522.477 174.781V177C522.154 177.094 521.815 177.161 521.461 177.203C521.117 177.245 520.742 177.266 520.336 177.266C519.024 177.266 518.133 176.932 517.664 176.266C517.196 175.589 516.961 174.714 516.961 173.641V162.562H514.696V160.266H516.961V155.594ZM523.385 160.344H526.244V177H523.385V160.344ZM523.385 154.047H526.244V157.234H523.385V154.047ZM528.59 160.266H531.371V162.641C532.038 161.818 532.642 161.219 533.184 160.844C534.111 160.208 535.163 159.891 536.34 159.891C537.673 159.891 538.746 160.219 539.559 160.875C540.017 161.25 540.434 161.802 540.809 162.531C541.434 161.635 542.168 160.974 543.012 160.547C543.856 160.109 544.804 159.891 545.856 159.891C548.106 159.891 549.637 160.703 550.449 162.328C550.887 163.203 551.106 164.38 551.106 165.859V177H548.184V165.375C548.184 164.26 547.903 163.495 547.34 163.078C546.788 162.661 546.111 162.453 545.309 162.453C544.205 162.453 543.251 162.823 542.449 163.562C541.658 164.302 541.262 165.536 541.262 167.266V177H538.403V166.078C538.403 164.943 538.267 164.115 537.996 163.594C537.569 162.812 536.772 162.422 535.606 162.422C534.543 162.422 533.574 162.833 532.699 163.656C531.835 164.479 531.403 165.969 531.403 168.125V177H528.59V160.266ZM560.295 159.891C561.482 159.891 562.634 160.172 563.748 160.734C564.863 161.286 565.712 162.005 566.295 162.891C566.857 163.734 567.232 164.719 567.42 165.844C567.587 166.615 567.67 167.844 567.67 169.531H555.404C555.456 171.229 555.857 172.594 556.607 173.625C557.357 174.646 558.519 175.156 560.092 175.156C561.561 175.156 562.732 174.672 563.607 173.703C564.107 173.141 564.462 172.49 564.67 171.75H567.436C567.363 172.365 567.118 173.052 566.701 173.812C566.295 174.562 565.837 175.177 565.326 175.656C564.472 176.49 563.415 177.052 562.154 177.344C561.477 177.51 560.712 177.594 559.857 177.594C557.774 177.594 556.009 176.839 554.561 175.328C553.113 173.807 552.389 171.682 552.389 168.953C552.389 166.266 553.118 164.083 554.576 162.406C556.035 160.729 557.941 159.891 560.295 159.891ZM564.779 167.297C564.665 166.078 564.399 165.104 563.982 164.375C563.212 163.021 561.925 162.344 560.123 162.344C558.831 162.344 557.748 162.812 556.873 163.75C555.998 164.677 555.535 165.859 555.482 167.297H564.779ZM569.812 180.266C570.531 180.141 571.036 179.635 571.328 178.75C571.484 178.281 571.562 177.828 571.562 177.391C571.562 177.318 571.557 177.25 571.547 177.188C571.547 177.135 571.536 177.073 571.516 177H569.812V173.594H573.156V176.75C573.156 177.99 572.906 179.078 572.406 180.016C571.906 180.953 571.042 181.531 569.812 181.75V180.266ZM585.347 172.547C585.347 173.359 585.644 174 586.238 174.469C586.832 174.938 587.535 175.172 588.347 175.172C589.337 175.172 590.295 174.943 591.222 174.484C592.785 173.724 593.566 172.479 593.566 170.75V168.484C593.222 168.703 592.78 168.885 592.238 169.031C591.696 169.177 591.165 169.281 590.644 169.344L588.941 169.562C587.92 169.698 587.155 169.911 586.644 170.203C585.78 170.693 585.347 171.474 585.347 172.547ZM592.16 166.859C592.806 166.776 593.238 166.505 593.457 166.047C593.582 165.797 593.644 165.438 593.644 164.969C593.644 164.01 593.301 163.318 592.613 162.891C591.936 162.453 590.962 162.234 589.691 162.234C588.222 162.234 587.181 162.63 586.566 163.422C586.222 163.859 585.999 164.51 585.894 165.375H583.269C583.321 163.312 583.988 161.88 585.269 161.078C586.561 160.266 588.056 159.859 589.754 159.859C591.722 159.859 593.321 160.234 594.551 160.984C595.769 161.734 596.379 162.901 596.379 164.484V174.125C596.379 174.417 596.436 174.651 596.551 174.828C596.676 175.005 596.931 175.094 597.316 175.094C597.441 175.094 597.582 175.089 597.738 175.078C597.894 175.057 598.061 175.031 598.238 175V177.078C597.801 177.203 597.467 177.281 597.238 177.312C597.009 177.344 596.696 177.359 596.301 177.359C595.332 177.359 594.629 177.016 594.191 176.328C593.962 175.964 593.801 175.448 593.707 174.781C593.134 175.531 592.311 176.182 591.238 176.734C590.165 177.286 588.983 177.562 587.691 177.562C586.139 177.562 584.868 177.094 583.879 176.156C582.9 175.208 582.41 174.026 582.41 172.609C582.41 171.057 582.894 169.854 583.863 169C584.832 168.146 586.103 167.62 587.676 167.422L592.16 166.859ZM599.084 160.266H601.756V162.641C602.547 161.661 603.386 160.958 604.271 160.531C605.157 160.104 606.141 159.891 607.224 159.891C609.599 159.891 611.204 160.719 612.037 162.375C612.495 163.281 612.724 164.578 612.724 166.266V177H609.865V166.453C609.865 165.432 609.714 164.609 609.412 163.984C608.912 162.943 608.006 162.422 606.693 162.422C606.026 162.422 605.48 162.49 605.052 162.625C604.282 162.854 603.605 163.312 603.021 164C602.552 164.552 602.245 165.125 602.099 165.719C601.964 166.302 601.896 167.141 601.896 168.234V177H599.084V160.266ZM625.429 160.266H628.539C628.143 161.339 627.263 163.786 625.898 167.609C624.877 170.484 624.023 172.828 623.336 174.641C621.711 178.911 620.565 181.516 619.898 182.453C619.231 183.391 618.086 183.859 616.461 183.859C616.065 183.859 615.758 183.844 615.539 183.812C615.33 183.781 615.07 183.724 614.758 183.641V181.078C615.247 181.214 615.601 181.297 615.82 181.328C616.039 181.359 616.231 181.375 616.398 181.375C616.919 181.375 617.299 181.286 617.539 181.109C617.789 180.943 617.997 180.734 618.164 180.484C618.216 180.401 618.403 179.974 618.726 179.203C619.049 178.432 619.284 177.859 619.429 177.484L613.242 160.266H616.429L620.914 173.891L625.429 160.266ZM630.353 160.266L633.572 173.453L636.838 160.266H639.994L643.275 173.375L646.697 160.266H649.509L644.65 177H641.728L638.322 164.047L635.025 177H632.103L627.275 160.266H630.353ZM650.261 153.969H653.074V162.531C653.74 161.688 654.339 161.094 654.871 160.75C655.777 160.156 656.907 159.859 658.261 159.859C660.688 159.859 662.334 160.708 663.199 162.406C663.667 163.333 663.902 164.62 663.902 166.266V177H661.011V166.453C661.011 165.224 660.855 164.323 660.542 163.75C660.032 162.833 659.074 162.375 657.667 162.375C656.501 162.375 655.444 162.776 654.496 163.578C653.548 164.38 653.074 165.896 653.074 168.125V177H650.261V153.969ZM673.122 159.891C674.31 159.891 675.461 160.172 676.576 160.734C677.69 161.286 678.539 162.005 679.122 162.891C679.685 163.734 680.06 164.719 680.247 165.844C680.414 166.615 680.497 167.844 680.497 169.531H668.232C668.284 171.229 668.685 172.594 669.435 173.625C670.185 174.646 671.346 175.156 672.919 175.156C674.388 175.156 675.56 174.672 676.435 173.703C676.935 173.141 677.289 172.49 677.497 171.75H680.263C680.19 172.365 679.945 173.052 679.529 173.812C679.122 174.562 678.664 175.177 678.154 175.656C677.3 176.49 676.242 177.052 674.982 177.344C674.305 177.51 673.539 177.594 672.685 177.594C670.602 177.594 668.836 176.839 667.388 175.328C665.94 173.807 665.216 171.682 665.216 168.953C665.216 166.266 665.945 164.083 667.404 162.406C668.862 160.729 670.768 159.891 673.122 159.891ZM677.607 167.297C677.492 166.078 677.227 165.104 676.81 164.375C676.039 163.021 674.753 162.344 672.951 162.344C671.659 162.344 670.576 162.812 669.701 163.75C668.826 164.677 668.362 165.859 668.31 167.297H677.607ZM682.124 160.266H684.796V163.156C685.015 162.594 685.551 161.911 686.406 161.109C687.26 160.297 688.244 159.891 689.359 159.891C689.411 159.891 689.499 159.896 689.624 159.906C689.749 159.917 689.963 159.938 690.265 159.969V162.938C690.098 162.906 689.942 162.885 689.796 162.875C689.661 162.865 689.51 162.859 689.343 162.859C687.926 162.859 686.838 163.318 686.078 164.234C685.317 165.141 684.937 166.188 684.937 167.375V177H682.124V160.266ZM697.751 159.891C698.939 159.891 700.09 160.172 701.204 160.734C702.319 161.286 703.168 162.005 703.751 162.891C704.314 163.734 704.689 164.719 704.876 165.844C705.043 166.615 705.126 167.844 705.126 169.531H692.861C692.913 171.229 693.314 172.594 694.064 173.625C694.814 174.646 695.975 175.156 697.548 175.156C699.017 175.156 700.189 174.672 701.064 173.703C701.564 173.141 701.918 172.49 702.126 171.75H704.892C704.819 172.365 704.574 173.052 704.158 173.812C703.751 174.562 703.293 175.177 702.783 175.656C701.928 176.49 700.871 177.052 699.611 177.344C698.934 177.51 698.168 177.594 697.314 177.594C695.23 177.594 693.465 176.839 692.017 175.328C690.569 173.807 689.845 171.682 689.845 168.953C689.845 166.266 690.574 164.083 692.033 162.406C693.491 160.729 695.397 159.891 697.751 159.891ZM702.236 167.297C702.121 166.078 701.855 165.104 701.439 164.375C700.668 163.021 699.381 162.344 697.579 162.344C696.288 162.344 695.204 162.812 694.329 163.75C693.454 164.677 692.991 165.859 692.939 167.297H702.236Z" fill="black"/>
</svg>
