<svg width="422" height="69" viewBox="0 0 422 69" fill="none" xmlns="http://www.w3.org/2000/svg">
<mask id="mask0_586_389" style="mask-type:luminance" maskUnits="userSpaceOnUse" x="0" y="0" width="422" height="69">
<path d="M0.036499 0.984375H421.578V68.6667H0.036499V0.984375Z" fill="white"/>
</mask>
<g mask="url(#mask0_586_389)">
<mask id="mask1_586_389" style="mask-type:luminance" maskUnits="userSpaceOnUse" x="0" y="0" width="422" height="69">
<path d="M33.7448 0.984375H387.828C396.766 0.984375 405.339 4.55208 411.662 10.9063C417.984 17.2656 421.537 25.8802 421.537 34.8698C421.537 43.8594 417.984 52.474 411.662 58.8333C405.339 65.1875 396.766 68.7552 387.828 68.7552H33.7448C24.8021 68.7552 16.2292 65.1875 9.9115 58.8333C3.58858 52.474 0.036499 43.8594 0.036499 34.8698C0.036499 25.8802 3.58858 17.2656 9.9115 10.9063C16.2292 4.55208 24.8021 0.984375 33.7448 0.984375Z" fill="white"/>
</mask>
<g mask="url(#mask1_586_389)">
<path d="M33.7449 0.984375H387.828C396.766 0.984375 405.339 4.55208 411.662 10.9062C417.985 17.2656 421.537 25.8802 421.537 34.8698C421.537 43.8594 417.985 52.4739 411.662 58.8333C405.339 65.1875 396.766 68.7552 387.828 68.7552H33.7449C24.8021 68.7552 16.2292 65.1875 9.91151 58.8333C3.58858 52.4739 0.036499 43.8594 0.036499 34.8698C0.036499 25.8802 3.58858 17.2656 9.91151 10.9062C16.2292 4.55208 24.8021 0.984375 33.7449 0.984375Z" stroke="black" stroke-width="1.99724"/>
</g>
</g>
<path d="M74.5769 29.6633L66.6185 45.6842H63.5352L62.3477 32.2675L56.431 45.6842H53.3269L51.056 29.6633H54.0352L55.3685 42.955L61.1394 29.6633H64.4519L65.6602 42.9967L71.7227 29.6633H74.5769Z" fill="black"/>
<path d="M88.1949 38.4549H76.6324C76.5907 39.0278 76.5699 39.4497 76.5699 39.7257C76.5699 41.1997 76.8928 42.3039 77.549 43.0383C78.2001 43.7622 79.0803 44.1216 80.1949 44.1216C81.2626 44.1216 82.2365 43.8039 83.1115 43.1633C83.9865 42.5278 84.6011 41.6424 84.9657 40.5174H87.6949C87.0699 42.3508 86.0178 43.7414 84.549 44.6841C83.0907 45.632 81.4865 46.1008 79.7365 46.1008C77.9032 46.1008 76.4344 45.5539 75.3407 44.4549C74.2574 43.3612 73.7157 41.8195 73.7157 39.8299C73.7157 38.5955 73.8876 37.3872 74.2365 36.2049C74.5803 35.0122 75.0907 33.882 75.7574 32.8091C76.4344 31.7414 77.3667 30.882 78.549 30.2257C79.7417 29.5747 81.1011 29.2466 82.6324 29.2466C84.4917 29.2466 85.9657 29.7882 87.049 30.8716C88.1428 31.9445 88.6949 33.3872 88.6949 35.2049C88.6949 36.3455 88.5282 37.4289 88.1949 38.4549ZM82.2365 31.2257C80.7886 31.2257 79.6324 31.7205 78.7574 32.7049C77.8928 33.6789 77.2834 34.9289 76.924 36.4549H85.9865C86.0282 35.9445 86.049 35.5747 86.049 35.3507C86.049 34.033 85.7053 33.0174 85.0282 32.3091C84.3459 31.5903 83.4136 31.2257 82.2365 31.2257Z" fill="black"/>
<path d="M96.487 23.4758L93.362 41.08C93.2214 41.8612 93.1536 42.3873 93.1536 42.6633C93.1536 43.1633 93.2839 43.4915 93.5495 43.6425C93.8099 43.7987 94.263 43.8456 94.9036 43.7883L94.5703 45.6842C94.0286 45.7675 93.4036 45.8092 92.6953 45.8092C91.9557 45.8092 91.388 45.6737 90.987 45.3925C90.5807 45.1008 90.3828 44.58 90.3828 43.83C90.3828 43.4706 90.513 42.5904 90.7786 41.1842L93.8828 23.4758H96.487Z" fill="black"/>
<path d="M106.671 29.2466C108.546 29.2466 109.947 29.7622 110.879 30.7882C111.822 31.8195 112.301 33.2362 112.316 35.0382H109.608C109.483 32.4966 108.342 31.2257 106.191 31.2257C104.509 31.2257 103.113 32.0174 102.004 33.6007C100.905 35.1737 100.358 37.2049 100.358 39.7049C100.358 41.1789 100.676 42.283 101.316 43.0174C101.967 43.757 102.816 44.1216 103.858 44.1216C106.15 44.1216 107.775 42.9445 108.733 40.5799H111.441C110.66 42.4549 109.629 43.8455 108.337 44.7466C107.046 45.6528 105.421 46.1008 103.462 46.1008C101.681 46.1008 100.243 45.5591 99.1497 44.4758C98.0508 43.3924 97.5039 41.8299 97.5039 39.7882C97.5039 37.9549 97.8372 36.257 98.5039 34.6841C99.181 33.1164 100.233 31.8195 101.65 30.7882C103.077 29.7622 104.754 29.2466 106.671 29.2466Z" fill="black"/>
<path d="M122.867 29.2466C125.184 29.2466 126.908 29.9237 128.033 31.2674C129.169 32.6164 129.742 34.2987 129.742 36.3091C129.742 37.4341 129.554 38.5591 129.179 39.6841C128.815 40.8091 128.283 41.8612 127.575 42.8299C126.877 43.8039 125.914 44.5955 124.679 45.2049C123.455 45.7987 122.065 46.1008 120.513 46.1008C118.19 46.1008 116.471 45.4289 115.346 44.0799C114.221 42.7362 113.658 41.0539 113.658 39.0382C113.658 37.9132 113.836 36.7882 114.2 35.6632C114.559 34.5382 115.086 33.4914 115.783 32.5174C116.492 31.5487 117.455 30.7622 118.679 30.1632C119.914 29.5539 121.309 29.2466 122.867 29.2466ZM120.846 44.1216C122.106 44.1216 123.211 43.7258 124.158 42.9341C125.117 42.132 125.809 41.158 126.242 40.0174C126.669 38.8664 126.888 37.6528 126.888 36.3716C126.888 34.8612 126.518 33.6216 125.783 32.6632C125.044 31.7049 123.961 31.2257 122.533 31.2257C121.268 31.2257 120.158 31.632 119.2 32.4341C118.252 33.2257 117.565 34.1997 117.138 35.3507C116.705 36.4914 116.492 37.6997 116.492 38.9757C116.492 40.4914 116.856 41.7258 117.596 42.6841C118.33 43.6424 119.414 44.1216 120.846 44.1216Z" fill="black"/>
<path d="M150.765 29.2466C152.14 29.2466 153.182 29.6007 153.89 30.3091C154.598 31.007 154.952 31.9289 154.952 33.0799C154.952 33.7466 154.838 34.6841 154.619 35.8924L152.89 45.6841H150.286L151.807 37.1007C152.083 35.507 152.223 34.3924 152.223 33.7674C152.223 32.1164 151.312 31.2882 149.494 31.2882C148.463 31.2882 147.52 31.882 146.661 33.0591C145.812 34.2257 145.208 35.7778 144.848 37.7049V37.7674L143.452 45.6841H140.848L142.369 37.1007C142.645 35.507 142.786 34.3924 142.786 33.7674C142.786 32.1164 141.88 31.2882 140.077 31.2882C139.046 31.2882 138.098 31.882 137.223 33.0591C136.359 34.2414 135.755 35.8091 135.411 37.7674L134.015 45.6841H131.432L134.244 29.6632H136.827L136.411 32.0174L137.765 30.1841C138.65 29.5591 139.848 29.2466 141.348 29.2466C142.525 29.2466 143.458 29.5174 144.14 30.0591C144.833 30.6007 145.27 31.3247 145.452 32.2257L147.202 30.1841C148.088 29.5591 149.275 29.2466 150.765 29.2466Z" fill="black"/>
<path d="M171.65 38.4549H160.088C160.046 39.0278 160.025 39.4497 160.025 39.7257C160.025 41.1997 160.348 42.3039 161.004 43.0383C161.656 43.7622 162.536 44.1216 163.65 44.1216C164.718 44.1216 165.692 43.8039 166.567 43.1633C167.442 42.5278 168.057 41.6424 168.421 40.5174H171.15C170.525 42.3508 169.473 43.7414 168.004 44.6841C166.546 45.632 164.942 46.1008 163.192 46.1008C161.359 46.1008 159.89 45.5539 158.796 44.4549C157.713 43.3612 157.171 41.8195 157.171 39.8299C157.171 38.5955 157.343 37.3872 157.692 36.2049C158.036 35.0122 158.546 33.882 159.213 32.8091C159.89 31.7414 160.822 30.882 162.004 30.2257C163.197 29.5747 164.557 29.2466 166.088 29.2466C167.947 29.2466 169.421 29.7882 170.504 30.8716C171.598 31.9445 172.15 33.3872 172.15 35.2049C172.15 36.3455 171.984 37.4289 171.65 38.4549ZM165.692 31.2257C164.244 31.2257 163.088 31.7205 162.213 32.7049C161.348 33.6789 160.739 34.9289 160.379 36.4549H169.442C169.484 35.9445 169.504 35.5747 169.504 35.3507C169.504 34.033 169.161 33.0174 168.484 32.3091C167.801 31.5903 166.869 31.2257 165.692 31.2257Z" fill="black"/>
<path d="M184.783 31.7882L183.138 40.9966C182.997 41.8039 182.929 42.3612 182.929 42.6632C182.929 43.2362 183.138 43.6007 183.554 43.7674C183.971 43.9341 184.617 43.9445 185.492 43.7882L185.138 45.6841C184.554 45.8507 183.908 45.9341 183.2 45.9341C181.2 45.9341 180.2 45.158 180.2 43.6007C180.2 43.1424 180.309 42.3195 180.533 41.1216L182.2 31.7882H180.096L180.45 29.7882H182.533L183.2 26.0591H185.804L185.138 29.7882H187.888L187.533 31.7882H184.783Z" fill="black"/>
<path d="M197.859 29.2466C200.176 29.2466 201.9 29.9237 203.025 31.2674C204.161 32.6164 204.734 34.2987 204.734 36.3091C204.734 37.4341 204.546 38.5591 204.171 39.6841C203.807 40.8091 203.275 41.8612 202.567 42.8299C201.869 43.8039 200.906 44.5955 199.671 45.2049C198.447 45.7987 197.057 46.1008 195.505 46.1008C193.182 46.1008 191.463 45.4289 190.338 44.0799C189.213 42.7362 188.65 41.0539 188.65 39.0382C188.65 37.9132 188.827 36.7882 189.192 35.6632C189.551 34.5382 190.077 33.4914 190.775 32.5174C191.484 31.5487 192.447 30.7622 193.671 30.1632C194.906 29.5539 196.301 29.2466 197.859 29.2466ZM195.838 44.1216C197.098 44.1216 198.202 43.7258 199.15 42.9341C200.109 42.132 200.801 41.158 201.234 40.0174C201.661 38.8664 201.88 37.6528 201.88 36.3716C201.88 34.8612 201.51 33.6216 200.775 32.6632C200.036 31.7049 198.952 31.2257 197.525 31.2257C196.26 31.2257 195.15 31.632 194.192 32.4341C193.244 33.2257 192.557 34.1997 192.13 35.3507C191.697 36.4914 191.484 37.6997 191.484 38.9757C191.484 40.4914 191.848 41.7258 192.588 42.6841C193.322 43.6424 194.406 44.1216 195.838 44.1216Z" fill="black"/>
<path d="M231.681 29.2466C233.056 29.2466 234.098 29.6007 234.806 30.3091C235.515 31.007 235.869 31.9289 235.869 33.0799C235.869 33.7466 235.754 34.6841 235.536 35.8924L233.806 45.6841H231.202L232.723 37.1007C232.999 35.507 233.14 34.3924 233.14 33.7674C233.14 32.1164 232.228 31.2882 230.411 31.2882C229.379 31.2882 228.437 31.882 227.577 33.0591C226.728 34.2257 226.124 35.7778 225.765 37.7049V37.7674L224.369 45.6841H221.765L223.286 37.1007C223.562 35.507 223.702 34.3924 223.702 33.7674C223.702 32.1164 222.796 31.2882 220.994 31.2882C219.963 31.2882 219.015 31.882 218.14 33.0591C217.275 34.2414 216.671 35.8091 216.327 37.7674L214.931 45.6841H212.348L215.161 29.6632H217.744L217.327 32.0174L218.681 30.1841C219.567 29.5591 220.765 29.2466 222.265 29.2466C223.442 29.2466 224.374 29.5174 225.056 30.0591C225.749 30.6007 226.187 31.3247 226.369 32.2257L228.119 30.1841C229.004 29.5591 230.192 29.2466 231.681 29.2466Z" fill="black"/>
<path d="M253.879 29.6633L244.963 45.6842C243.572 48.1842 242.384 49.8612 241.4 50.7258C240.426 51.6008 239.192 52.0383 237.692 52.0383C237.249 52.0383 236.827 52.0019 236.421 51.9342L236.796 49.7883C237.145 49.856 237.452 49.8925 237.733 49.8925C238.551 49.8925 239.244 49.6842 239.817 49.2675C240.4 48.8508 240.973 48.1217 241.546 47.08L241.817 46.5592L238.4 29.6633H241.358L243.65 43.7883L250.879 29.6633H253.879Z" fill="black"/>
<path d="M269.986 29.2466C271.902 29.2466 273.371 29.8612 274.402 31.0799C275.444 32.2882 275.965 33.8507 275.965 35.7674C275.965 36.783 275.84 37.7778 275.59 38.7466C275.35 39.7205 274.975 40.6528 274.465 41.5382C273.949 42.4289 273.329 43.2153 272.611 43.8924C271.887 44.5591 270.996 45.0955 269.944 45.4966C268.887 45.8976 267.736 46.1007 266.486 46.1007C265.788 46.1007 265.09 45.9757 264.381 45.7257C263.684 45.4757 263.163 45.158 262.819 44.7674L262.09 43.2049L260.59 51.6007H257.986L261.881 29.6632H264.486L264.027 32.2257L265.548 30.5174C266.684 29.6737 268.163 29.2466 269.986 29.2466ZM266.84 44.1216C268.756 44.1216 270.282 43.3039 271.423 41.6632C272.559 40.0122 273.131 38.0903 273.131 35.8924C273.131 34.4757 272.798 33.3455 272.131 32.4966C271.475 31.6528 270.517 31.2257 269.256 31.2257C267.782 31.2257 266.486 31.7414 265.361 32.7674C264.236 33.783 263.475 35.3664 263.09 37.5174L262.944 38.3924C262.652 39.9914 262.84 41.3455 263.506 42.4549C264.173 43.5695 265.282 44.1216 266.84 44.1216Z" fill="black"/>
<path d="M286.816 29.2466C289.133 29.2466 290.857 29.9237 291.982 31.2674C293.118 32.6164 293.691 34.2987 293.691 36.3091C293.691 37.4341 293.503 38.5591 293.128 39.6841C292.763 40.8091 292.232 41.8612 291.524 42.8299C290.826 43.8039 289.862 44.5955 288.628 45.2049C287.404 45.7987 286.013 46.1008 284.461 46.1008C282.138 46.1008 280.42 45.4289 279.295 44.0799C278.17 42.7362 277.607 41.0539 277.607 39.0382C277.607 37.9132 277.784 36.7882 278.149 35.6632C278.508 34.5382 279.034 33.4914 279.732 32.5174C280.441 31.5487 281.404 30.7622 282.628 30.1632C283.862 29.5539 285.258 29.2466 286.816 29.2466ZM284.795 44.1216C286.055 44.1216 287.159 43.7258 288.107 42.9341C289.066 42.132 289.758 41.158 290.191 40.0174C290.618 38.8664 290.836 37.6528 290.836 36.3716C290.836 34.8612 290.467 33.6216 289.732 32.6632C288.993 31.7049 287.909 31.2257 286.482 31.2257C285.217 31.2257 284.107 31.632 283.149 32.4341C282.201 33.2257 281.513 34.1997 281.086 35.3507C280.654 36.4914 280.441 37.6997 280.441 38.9757C280.441 40.4914 280.805 41.7258 281.545 42.6841C282.279 43.6424 283.362 44.1216 284.795 44.1216Z" fill="black"/>
<path d="M304.568 29.3091C304.985 29.3091 305.339 29.382 305.63 29.5174L305.255 31.4757C303.849 31.382 302.636 31.7674 301.61 32.6424C300.578 33.507 299.901 34.8091 299.568 36.5591L297.964 45.6841H295.38L298.214 29.6632H300.818L300.36 32.1632L302.214 30.0174C302.974 29.5487 303.761 29.3091 304.568 29.3091Z" fill="black"/>
<path d="M310.465 31.7882L308.82 40.9966C308.679 41.8039 308.611 42.3612 308.611 42.6632C308.611 43.2362 308.82 43.6007 309.236 43.7674C309.653 43.9341 310.299 43.9445 311.174 43.7882L310.82 45.6841C310.236 45.8507 309.59 45.9341 308.882 45.9341C306.882 45.9341 305.882 45.158 305.882 43.6007C305.882 43.1424 305.991 42.3195 306.215 41.1216L307.882 31.7882H305.778L306.132 29.7882H308.215L308.882 26.0591H311.486L310.82 29.7882H313.57L313.215 31.7882H310.465Z" fill="black"/>
<path d="M320.645 26.5801C320.437 27.153 320.28 27.6947 320.187 28.2051L319.916 29.7884H323.207L322.853 31.7884H319.562L317.145 45.6842H314.541L316.978 31.7884H315.541L315.895 29.7884H317.312L317.562 28.4551C317.713 27.6113 317.864 26.9655 318.02 26.5176C318.379 25.3509 318.947 24.4551 319.728 23.8301C320.52 23.2051 321.457 22.8926 322.541 22.8926C323.374 22.8926 324.088 22.9447 324.687 23.0384L324.291 25.1842C323.916 25.1009 323.525 25.0592 323.124 25.0592C321.832 25.0592 321.004 25.5697 320.645 26.5801Z" fill="black"/>
<path d="M331.793 29.2466C334.11 29.2466 335.834 29.9237 336.959 31.2674C338.095 32.6164 338.668 34.2987 338.668 36.3091C338.668 37.4341 338.48 38.5591 338.105 39.6841C337.74 40.8091 337.209 41.8612 336.501 42.8299C335.803 43.8039 334.839 44.5955 333.605 45.2049C332.381 45.7987 330.99 46.1008 329.438 46.1008C327.115 46.1008 325.397 45.4289 324.272 44.0799C323.147 42.7362 322.584 41.0539 322.584 39.0382C322.584 37.9132 322.761 36.7882 323.126 35.6632C323.485 34.5382 324.011 33.4914 324.709 32.5174C325.418 31.5487 326.381 30.7622 327.605 30.1632C328.839 29.5539 330.235 29.2466 331.793 29.2466ZM329.772 44.1216C331.032 44.1216 332.136 43.7258 333.084 42.9341C334.043 42.132 334.735 41.158 335.168 40.0174C335.595 38.8664 335.813 37.6528 335.813 36.3716C335.813 34.8612 335.444 33.6216 334.709 32.6632C333.97 31.7049 332.886 31.2257 331.459 31.2257C330.194 31.2257 329.084 31.632 328.126 32.4341C327.178 33.2257 326.49 34.1997 326.063 35.3507C325.631 36.4914 325.418 37.6997 325.418 38.9757C325.418 40.4914 325.782 41.7258 326.522 42.6841C327.256 43.6424 328.339 44.1216 329.772 44.1216Z" fill="black"/>
<path d="M346.732 23.4758L343.607 41.08C343.467 41.8612 343.399 42.3873 343.399 42.6633C343.399 43.1633 343.529 43.4915 343.795 43.6425C344.055 43.7987 344.509 43.8456 345.149 43.7883L344.816 45.6842C344.274 45.7675 343.649 45.8092 342.941 45.8092C342.201 45.8092 341.634 45.6737 341.232 45.3925C340.826 45.1008 340.628 44.58 340.628 43.83C340.628 43.4706 340.759 42.5904 341.024 41.1842L344.128 23.4758H346.732Z" fill="black"/>
<path d="M352.916 24.3926C353.343 24.3926 353.692 24.528 353.958 24.7884C354.218 25.054 354.354 25.3874 354.354 25.7884C354.354 26.3301 354.156 26.7884 353.77 27.1634C353.38 27.5384 352.916 27.7259 352.374 27.7259C351.958 27.7259 351.614 27.5957 351.354 27.3301C351.088 27.0697 350.958 26.7363 350.958 26.3301C350.958 25.7884 351.145 25.3301 351.52 24.9551C351.906 24.5801 352.374 24.3926 352.916 24.3926ZM350.437 45.6842H347.854L350.687 29.6634H353.291L350.437 45.6842Z" fill="black"/>
<path d="M364.135 29.2466C366.453 29.2466 368.177 29.9237 369.302 31.2674C370.437 32.6164 371.01 34.2987 371.01 36.3091C371.01 37.4341 370.822 38.5591 370.447 39.6841C370.083 40.8091 369.552 41.8612 368.843 42.8299C368.145 43.8039 367.182 44.5955 365.947 45.2049C364.724 45.7987 363.333 46.1008 361.781 46.1008C359.458 46.1008 357.739 45.4289 356.614 44.0799C355.489 42.7362 354.927 41.0539 354.927 39.0382C354.927 37.9132 355.104 36.7882 355.468 35.6632C355.828 34.5382 356.354 33.4914 357.052 32.5174C357.76 31.5487 358.724 30.7622 359.947 30.1632C361.182 29.5539 362.578 29.2466 364.135 29.2466ZM362.114 44.1216C363.375 44.1216 364.479 43.7258 365.427 42.9341C366.385 42.132 367.078 41.158 367.51 40.0174C367.937 38.8664 368.156 37.6528 368.156 36.3716C368.156 34.8612 367.786 33.6216 367.052 32.6632C366.312 31.7049 365.229 31.2257 363.802 31.2257C362.536 31.2257 361.427 31.632 360.468 32.4341C359.52 33.2257 358.833 34.1997 358.406 35.3507C357.974 36.4914 357.76 37.6997 357.76 38.9757C357.76 40.4914 358.125 41.7258 358.864 42.6841C359.599 43.6424 360.682 44.1216 362.114 44.1216Z" fill="black"/>
</svg>
